<?xml version="1.0" encoding="utf-8" standalone="no"?>
<!DOCTYPE svg PUBLIC "-//W3C//DTD SVG 1.1//EN"
  "http://www.w3.org/Graphics/SVG/1.1/DTD/svg11.dtd">
<svg xmlns:xlink="http://www.w3.org/1999/xlink" width="508.075312pt" height="293.554375pt" viewBox="0 0 508.075312 293.554375" xmlns="http://www.w3.org/2000/svg" version="1.1">
 <metadata>
  <rdf:RDF xmlns:dc="http://purl.org/dc/elements/1.1/" xmlns:cc="http://creativecommons.org/ns#" xmlns:rdf="http://www.w3.org/1999/02/22-rdf-syntax-ns#">
   <cc:Work>
    <dc:type rdf:resource="http://purl.org/dc/dcmitype/StillImage"/>
    <dc:date>2026-07-18T15:47:14.412872</dc:date>
    <dc:format>image/svg+xml</dc:format>
    <dc:creator>
     <cc:Agent>
      <dc:title>Matplotlib v3.10.8, https://matplotlib.org/</dc:title>
     </cc:Agent>
    </dc:creator>
   </cc:Work>
  </rdf:RDF>
 </metadata>
 <defs>
  <style type="text/css">*{stroke-linejoin: round; stroke-linecap: butt}</style>
 </defs>
 <g id="figure_1">
  <g id="patch_1">
   <path d="M 0 293.554375 
L 508.075312 293.554375 
L 508.075312 0 
L 0 0 
z
" style="fill: #ffffff"/>
  </g>
  <g id="axes_1">
   <g id="patch_2">
    <path d="M 58.545313 255.998125 
L 500.875312 255.998125 
L 500.875312 22.798125 
L 58.545313 22.798125 
z
" style="fill: #ffffff"/>
   </g>
   <g id="matplotlib.axis_1">
    <g id="xtick_1">
     <g id="line2d_1">
      <path d="M 78.651222 255.998125 
L 78.651222 22.798125 
" clip-path="url(#pe406aca96a)" style="fill: none; stroke: #b0b0b0; stroke-width: 0.8; stroke-linecap: square"/>
     </g>
     <g id="line2d_2">
      <defs>
       <path id="m8439aae016" d="M 0 0 
L 0 3.5 
" style="stroke: #000000; stroke-width: 0.8"/>
      </defs>
      <g>
       <use xlink:href="#m8439aae016" x="78.651222" y="255.998125" style="stroke: #000000; stroke-width: 0.8"/>
      </g>
     </g>
     <g id="text_1">
      <!-- 0 -->
      <g transform="translate(75.469972 270.596562) scale(0.1 -0.1)">
       <defs>
        <path id="DejaVuSans-30" d="M 2034 4250 
Q 1547 4250 1301 3770 
Q 1056 3291 1056 2328 
Q 1056 1369 1301 889 
Q 1547 409 2034 409 
Q 2525 409 2770 889 
Q 3016 1369 3016 2328 
Q 3016 3291 2770 3770 
Q 2525 4250 2034 4250 
z
M 2034 4750 
Q 2819 4750 3233 4129 
Q 3647 3509 3647 2328 
Q 3647 1150 3233 529 
Q 2819 -91 2034 -91 
Q 1250 -91 836 529 
Q 422 1150 422 2328 
Q 422 3509 836 4129 
Q 1250 4750 2034 4750 
z
" transform="scale(0.015625)"/>
       </defs>
       <use xlink:href="#DejaVuSans-30"/>
      </g>
     </g>
    </g>
    <g id="xtick_2">
     <g id="line2d_3">
      <path d="M 145.670919 255.998125 
L 145.670919 22.798125 
" clip-path="url(#pe406aca96a)" style="fill: none; stroke: #b0b0b0; stroke-width: 0.8; stroke-linecap: square"/>
     </g>
     <g id="line2d_4">
      <g>
       <use xlink:href="#m8439aae016" x="145.670919" y="255.998125" style="stroke: #000000; stroke-width: 0.8"/>
      </g>
     </g>
     <g id="text_2">
      <!-- 10 -->
      <g transform="translate(139.308419 270.596562) scale(0.1 -0.1)">
       <defs>
        <path id="DejaVuSans-31" d="M 794 531 
L 1825 531 
L 1825 4091 
L 703 3866 
L 703 4441 
L 1819 4666 
L 2450 4666 
L 2450 531 
L 3481 531 
L 3481 0 
L 794 0 
L 794 531 
z
" transform="scale(0.015625)"/>
       </defs>
       <use xlink:href="#DejaVuSans-31"/>
       <use xlink:href="#DejaVuSans-30" transform="translate(63.623047 0)"/>
      </g>
     </g>
    </g>
    <g id="xtick_3">
     <g id="line2d_5">
      <path d="M 212.690616 255.998125 
L 212.690616 22.798125 
" clip-path="url(#pe406aca96a)" style="fill: none; stroke: #b0b0b0; stroke-width: 0.8; stroke-linecap: square"/>
     </g>
     <g id="line2d_6">
      <g>
       <use xlink:href="#m8439aae016" x="212.690616" y="255.998125" style="stroke: #000000; stroke-width: 0.8"/>
      </g>
     </g>
     <g id="text_3">
      <!-- 20 -->
      <g transform="translate(206.328116 270.596562) scale(0.1 -0.1)">
       <defs>
        <path id="DejaVuSans-32" d="M 1228 531 
L 3431 531 
L 3431 0 
L 469 0 
L 469 531 
Q 828 903 1448 1529 
Q 2069 2156 2228 2338 
Q 2531 2678 2651 2914 
Q 2772 3150 2772 3378 
Q 2772 3750 2511 3984 
Q 2250 4219 1831 4219 
Q 1534 4219 1204 4116 
Q 875 4013 500 3803 
L 500 4441 
Q 881 4594 1212 4672 
Q 1544 4750 1819 4750 
Q 2544 4750 2975 4387 
Q 3406 4025 3406 3419 
Q 3406 3131 3298 2873 
Q 3191 2616 2906 2266 
Q 2828 2175 2409 1742 
Q 1991 1309 1228 531 
z
" transform="scale(0.015625)"/>
       </defs>
       <use xlink:href="#DejaVuSans-32"/>
       <use xlink:href="#DejaVuSans-30" transform="translate(63.623047 0)"/>
      </g>
     </g>
    </g>
    <g id="xtick_4">
     <g id="line2d_7">
      <path d="M 279.710312 255.998125 
L 279.710312 22.798125 
" clip-path="url(#pe406aca96a)" style="fill: none; stroke: #b0b0b0; stroke-width: 0.8; stroke-linecap: square"/>
     </g>
     <g id="line2d_8">
      <g>
       <use xlink:href="#m8439aae016" x="279.710312" y="255.998125" style="stroke: #000000; stroke-width: 0.8"/>
      </g>
     </g>
     <g id="text_4">
      <!-- 30 -->
      <g transform="translate(273.347812 270.596562) scale(0.1 -0.1)">
       <defs>
        <path id="DejaVuSans-33" d="M 2597 2516 
Q 3050 2419 3304 2112 
Q 3559 1806 3559 1356 
Q 3559 666 3084 287 
Q 2609 -91 1734 -91 
Q 1441 -91 1130 -33 
Q 819 25 488 141 
L 488 750 
Q 750 597 1062 519 
Q 1375 441 1716 441 
Q 2309 441 2620 675 
Q 2931 909 2931 1356 
Q 2931 1769 2642 2001 
Q 2353 2234 1838 2234 
L 1294 2234 
L 1294 2753 
L 1863 2753 
Q 2328 2753 2575 2939 
Q 2822 3125 2822 3475 
Q 2822 3834 2567 4026 
Q 2313 4219 1838 4219 
Q 1578 4219 1281 4162 
Q 984 4106 628 3988 
L 628 4550 
Q 988 4650 1302 4700 
Q 1616 4750 1894 4750 
Q 2613 4750 3031 4423 
Q 3450 4097 3450 3541 
Q 3450 3153 3228 2886 
Q 3006 2619 2597 2516 
z
" transform="scale(0.015625)"/>
       </defs>
       <use xlink:href="#DejaVuSans-33"/>
       <use xlink:href="#DejaVuSans-30" transform="translate(63.623047 0)"/>
      </g>
     </g>
    </g>
    <g id="xtick_5">
     <g id="line2d_9">
      <path d="M 346.730009 255.998125 
L 346.730009 22.798125 
" clip-path="url(#pe406aca96a)" style="fill: none; stroke: #b0b0b0; stroke-width: 0.8; stroke-linecap: square"/>
     </g>
     <g id="line2d_10">
      <g>
       <use xlink:href="#m8439aae016" x="346.730009" y="255.998125" style="stroke: #000000; stroke-width: 0.8"/>
      </g>
     </g>
     <g id="text_5">
      <!-- 40 -->
      <g transform="translate(340.367509 270.596562) scale(0.1 -0.1)">
       <defs>
        <path id="DejaVuSans-34" d="M 2419 4116 
L 825 1625 
L 2419 1625 
L 2419 4116 
z
M 2253 4666 
L 3047 4666 
L 3047 1625 
L 3713 1625 
L 3713 1100 
L 3047 1100 
L 3047 0 
L 2419 0 
L 2419 1100 
L 313 1100 
L 313 1709 
L 2253 4666 
z
" transform="scale(0.015625)"/>
       </defs>
       <use xlink:href="#DejaVuSans-34"/>
       <use xlink:href="#DejaVuSans-30" transform="translate(63.623047 0)"/>
      </g>
     </g>
    </g>
    <g id="xtick_6">
     <g id="line2d_11">
      <path d="M 413.749706 255.998125 
L 413.749706 22.798125 
" clip-path="url(#pe406aca96a)" style="fill: none; stroke: #b0b0b0; stroke-width: 0.8; stroke-linecap: square"/>
     </g>
     <g id="line2d_12">
      <g>
       <use xlink:href="#m8439aae016" x="413.749706" y="255.998125" style="stroke: #000000; stroke-width: 0.8"/>
      </g>
     </g>
     <g id="text_6">
      <!-- 50 -->
      <g transform="translate(407.387206 270.596562) scale(0.1 -0.1)">
       <defs>
        <path id="DejaVuSans-35" d="M 691 4666 
L 3169 4666 
L 3169 4134 
L 1269 4134 
L 1269 2991 
Q 1406 3038 1543 3061 
Q 1681 3084 1819 3084 
Q 2600 3084 3056 2656 
Q 3513 2228 3513 1497 
Q 3513 744 3044 326 
Q 2575 -91 1722 -91 
Q 1428 -91 1123 -41 
Q 819 9 494 109 
L 494 744 
Q 775 591 1075 516 
Q 1375 441 1709 441 
Q 2250 441 2565 725 
Q 2881 1009 2881 1497 
Q 2881 1984 2565 2268 
Q 2250 2553 1709 2553 
Q 1456 2553 1204 2497 
Q 953 2441 691 2322 
L 691 4666 
z
" transform="scale(0.015625)"/>
       </defs>
       <use xlink:href="#DejaVuSans-35"/>
       <use xlink:href="#DejaVuSans-30" transform="translate(63.623047 0)"/>
      </g>
     </g>
    </g>
    <g id="xtick_7">
     <g id="line2d_13">
      <path d="M 480.769403 255.998125 
L 480.769403 22.798125 
" clip-path="url(#pe406aca96a)" style="fill: none; stroke: #b0b0b0; stroke-width: 0.8; stroke-linecap: square"/>
     </g>
     <g id="line2d_14">
      <g>
       <use xlink:href="#m8439aae016" x="480.769403" y="255.998125" style="stroke: #000000; stroke-width: 0.8"/>
      </g>
     </g>
     <g id="text_7">
      <!-- 60 -->
      <g transform="translate(474.406903 270.596562) scale(0.1 -0.1)">
       <defs>
        <path id="DejaVuSans-36" d="M 2113 2584 
Q 1688 2584 1439 2293 
Q 1191 2003 1191 1497 
Q 1191 994 1439 701 
Q 1688 409 2113 409 
Q 2538 409 2786 701 
Q 3034 994 3034 1497 
Q 3034 2003 2786 2293 
Q 2538 2584 2113 2584 
z
M 3366 4563 
L 3366 3988 
Q 3128 4100 2886 4159 
Q 2644 4219 2406 4219 
Q 1781 4219 1451 3797 
Q 1122 3375 1075 2522 
Q 1259 2794 1537 2939 
Q 1816 3084 2150 3084 
Q 2853 3084 3261 2657 
Q 3669 2231 3669 1497 
Q 3669 778 3244 343 
Q 2819 -91 2113 -91 
Q 1303 -91 875 529 
Q 447 1150 447 2328 
Q 447 3434 972 4092 
Q 1497 4750 2381 4750 
Q 2619 4750 2861 4703 
Q 3103 4656 3366 4563 
z
" transform="scale(0.015625)"/>
       </defs>
       <use xlink:href="#DejaVuSans-36"/>
       <use xlink:href="#DejaVuSans-30" transform="translate(63.623047 0)"/>
      </g>
     </g>
    </g>
    <g id="text_8">
     <!-- Tiempo [s] -->
     <g transform="translate(253.147812 284.274687) scale(0.1 -0.1)">
      <defs>
       <path id="DejaVuSans-54" d="M -19 4666 
L 3928 4666 
L 3928 4134 
L 2272 4134 
L 2272 0 
L 1638 0 
L 1638 4134 
L -19 4134 
L -19 4666 
z
" transform="scale(0.015625)"/>
       <path id="DejaVuSans-69" d="M 603 3500 
L 1178 3500 
L 1178 0 
L 603 0 
L 603 3500 
z
M 603 4863 
L 1178 4863 
L 1178 4134 
L 603 4134 
L 603 4863 
z
" transform="scale(0.015625)"/>
       <path id="DejaVuSans-65" d="M 3597 1894 
L 3597 1613 
L 953 1613 
Q 991 1019 1311 708 
Q 1631 397 2203 397 
Q 2534 397 2845 478 
Q 3156 559 3463 722 
L 3463 178 
Q 3153 47 2828 -22 
Q 2503 -91 2169 -91 
Q 1331 -91 842 396 
Q 353 884 353 1716 
Q 353 2575 817 3079 
Q 1281 3584 2069 3584 
Q 2775 3584 3186 3129 
Q 3597 2675 3597 1894 
z
M 3022 2063 
Q 3016 2534 2758 2815 
Q 2500 3097 2075 3097 
Q 1594 3097 1305 2825 
Q 1016 2553 972 2059 
L 3022 2063 
z
" transform="scale(0.015625)"/>
       <path id="DejaVuSans-6d" d="M 3328 2828 
Q 3544 3216 3844 3400 
Q 4144 3584 4550 3584 
Q 5097 3584 5394 3201 
Q 5691 2819 5691 2113 
L 5691 0 
L 5113 0 
L 5113 2094 
Q 5113 2597 4934 2840 
Q 4756 3084 4391 3084 
Q 3944 3084 3684 2787 
Q 3425 2491 3425 1978 
L 3425 0 
L 2847 0 
L 2847 2094 
Q 2847 2600 2669 2842 
Q 2491 3084 2119 3084 
Q 1678 3084 1418 2786 
Q 1159 2488 1159 1978 
L 1159 0 
L 581 0 
L 581 3500 
L 1159 3500 
L 1159 2956 
Q 1356 3278 1631 3431 
Q 1906 3584 2284 3584 
Q 2666 3584 2933 3390 
Q 3200 3197 3328 2828 
z
" transform="scale(0.015625)"/>
       <path id="DejaVuSans-70" d="M 1159 525 
L 1159 -1331 
L 581 -1331 
L 581 3500 
L 1159 3500 
L 1159 2969 
Q 1341 3281 1617 3432 
Q 1894 3584 2278 3584 
Q 2916 3584 3314 3078 
Q 3713 2572 3713 1747 
Q 3713 922 3314 415 
Q 2916 -91 2278 -91 
Q 1894 -91 1617 61 
Q 1341 213 1159 525 
z
M 3116 1747 
Q 3116 2381 2855 2742 
Q 2594 3103 2138 3103 
Q 1681 3103 1420 2742 
Q 1159 2381 1159 1747 
Q 1159 1113 1420 752 
Q 1681 391 2138 391 
Q 2594 391 2855 752 
Q 3116 1113 3116 1747 
z
" transform="scale(0.015625)"/>
       <path id="DejaVuSans-6f" d="M 1959 3097 
Q 1497 3097 1228 2736 
Q 959 2375 959 1747 
Q 959 1119 1226 758 
Q 1494 397 1959 397 
Q 2419 397 2687 759 
Q 2956 1122 2956 1747 
Q 2956 2369 2687 2733 
Q 2419 3097 1959 3097 
z
M 1959 3584 
Q 2709 3584 3137 3096 
Q 3566 2609 3566 1747 
Q 3566 888 3137 398 
Q 2709 -91 1959 -91 
Q 1206 -91 779 398 
Q 353 888 353 1747 
Q 353 2609 779 3096 
Q 1206 3584 1959 3584 
z
" transform="scale(0.015625)"/>
       <path id="DejaVuSans-20" transform="scale(0.015625)"/>
       <path id="DejaVuSans-5b" d="M 550 4863 
L 1875 4863 
L 1875 4416 
L 1125 4416 
L 1125 -397 
L 1875 -397 
L 1875 -844 
L 550 -844 
L 550 4863 
z
" transform="scale(0.015625)"/>
       <path id="DejaVuSans-73" d="M 2834 3397 
L 2834 2853 
Q 2591 2978 2328 3040 
Q 2066 3103 1784 3103 
Q 1356 3103 1142 2972 
Q 928 2841 928 2578 
Q 928 2378 1081 2264 
Q 1234 2150 1697 2047 
L 1894 2003 
Q 2506 1872 2764 1633 
Q 3022 1394 3022 966 
Q 3022 478 2636 193 
Q 2250 -91 1575 -91 
Q 1294 -91 989 -36 
Q 684 19 347 128 
L 347 722 
Q 666 556 975 473 
Q 1284 391 1588 391 
Q 1994 391 2212 530 
Q 2431 669 2431 922 
Q 2431 1156 2273 1281 
Q 2116 1406 1581 1522 
L 1381 1569 
Q 847 1681 609 1914 
Q 372 2147 372 2553 
Q 372 3047 722 3315 
Q 1072 3584 1716 3584 
Q 2034 3584 2315 3537 
Q 2597 3491 2834 3397 
z
" transform="scale(0.015625)"/>
       <path id="DejaVuSans-5d" d="M 1947 4863 
L 1947 -844 
L 622 -844 
L 622 -397 
L 1369 -397 
L 1369 4416 
L 622 4416 
L 622 4863 
L 1947 4863 
z
" transform="scale(0.015625)"/>
      </defs>
      <use xlink:href="#DejaVuSans-54"/>
      <use xlink:href="#DejaVuSans-69" transform="translate(57.958984 0)"/>
      <use xlink:href="#DejaVuSans-65" transform="translate(85.742188 0)"/>
      <use xlink:href="#DejaVuSans-6d" transform="translate(147.265625 0)"/>
      <use xlink:href="#DejaVuSans-70" transform="translate(244.677734 0)"/>
      <use xlink:href="#DejaVuSans-6f" transform="translate(308.154297 0)"/>
      <use xlink:href="#DejaVuSans-20" transform="translate(369.335938 0)"/>
      <use xlink:href="#DejaVuSans-5b" transform="translate(401.123047 0)"/>
      <use xlink:href="#DejaVuSans-73" transform="translate(440.136719 0)"/>
      <use xlink:href="#DejaVuSans-5d" transform="translate(492.236328 0)"/>
     </g>
    </g>
   </g>
   <g id="matplotlib.axis_2">
    <g id="ytick_1">
     <g id="line2d_15">
      <path d="M 58.545313 249.846714 
L 500.875312 249.846714 
" clip-path="url(#pe406aca96a)" style="fill: none; stroke: #b0b0b0; stroke-width: 0.8; stroke-linecap: square"/>
     </g>
     <g id="line2d_16">
      <defs>
       <path id="m2b73aff94e" d="M 0 0 
L -3.5 0 
" style="stroke: #000000; stroke-width: 0.8"/>
      </defs>
      <g>
       <use xlink:href="#m2b73aff94e" x="58.545313" y="249.846714" style="stroke: #000000; stroke-width: 0.8"/>
      </g>
     </g>
     <g id="text_9">
      <!-- −12.5 -->
      <g transform="translate(20.9 253.645933) scale(0.1 -0.1)">
       <defs>
        <path id="DejaVuSans-2212" d="M 678 2272 
L 4684 2272 
L 4684 1741 
L 678 1741 
L 678 2272 
z
" transform="scale(0.015625)"/>
        <path id="DejaVuSans-2e" d="M 684 794 
L 1344 794 
L 1344 0 
L 684 0 
L 684 794 
z
" transform="scale(0.015625)"/>
       </defs>
       <use xlink:href="#DejaVuSans-2212"/>
       <use xlink:href="#DejaVuSans-31" transform="translate(83.789062 0)"/>
       <use xlink:href="#DejaVuSans-32" transform="translate(147.412109 0)"/>
       <use xlink:href="#DejaVuSans-2e" transform="translate(211.035156 0)"/>
       <use xlink:href="#DejaVuSans-35" transform="translate(242.822266 0)"/>
      </g>
     </g>
    </g>
    <g id="ytick_2">
     <g id="line2d_17">
      <path d="M 58.545313 223.672511 
L 500.875312 223.672511 
" clip-path="url(#pe406aca96a)" style="fill: none; stroke: #b0b0b0; stroke-width: 0.8; stroke-linecap: square"/>
     </g>
     <g id="line2d_18">
      <g>
       <use xlink:href="#m2b73aff94e" x="58.545313" y="223.672511" style="stroke: #000000; stroke-width: 0.8"/>
      </g>
     </g>
     <g id="text_10">
      <!-- −10.0 -->
      <g transform="translate(20.9 227.47173) scale(0.1 -0.1)">
       <use xlink:href="#DejaVuSans-2212"/>
       <use xlink:href="#DejaVuSans-31" transform="translate(83.789062 0)"/>
       <use xlink:href="#DejaVuSans-30" transform="translate(147.412109 0)"/>
       <use xlink:href="#DejaVuSans-2e" transform="translate(211.035156 0)"/>
       <use xlink:href="#DejaVuSans-30" transform="translate(242.822266 0)"/>
      </g>
     </g>
    </g>
    <g id="ytick_3">
     <g id="line2d_19">
      <path d="M 58.545313 197.498307 
L 500.875312 197.498307 
" clip-path="url(#pe406aca96a)" style="fill: none; stroke: #b0b0b0; stroke-width: 0.8; stroke-linecap: square"/>
     </g>
     <g id="line2d_20">
      <g>
       <use xlink:href="#m2b73aff94e" x="58.545313" y="197.498307" style="stroke: #000000; stroke-width: 0.8"/>
      </g>
     </g>
     <g id="text_11">
      <!-- −7.5 -->
      <g transform="translate(27.2625 201.297526) scale(0.1 -0.1)">
       <defs>
        <path id="DejaVuSans-37" d="M 525 4666 
L 3525 4666 
L 3525 4397 
L 1831 0 
L 1172 0 
L 2766 4134 
L 525 4134 
L 525 4666 
z
" transform="scale(0.015625)"/>
       </defs>
       <use xlink:href="#DejaVuSans-2212"/>
       <use xlink:href="#DejaVuSans-37" transform="translate(83.789062 0)"/>
       <use xlink:href="#DejaVuSans-2e" transform="translate(147.412109 0)"/>
       <use xlink:href="#DejaVuSans-35" transform="translate(179.199219 0)"/>
      </g>
     </g>
    </g>
    <g id="ytick_4">
     <g id="line2d_21">
      <path d="M 58.545313 171.324104 
L 500.875312 171.324104 
" clip-path="url(#pe406aca96a)" style="fill: none; stroke: #b0b0b0; stroke-width: 0.8; stroke-linecap: square"/>
     </g>
     <g id="line2d_22">
      <g>
       <use xlink:href="#m2b73aff94e" x="58.545313" y="171.324104" style="stroke: #000000; stroke-width: 0.8"/>
      </g>
     </g>
     <g id="text_12">
      <!-- −5.0 -->
      <g transform="translate(27.2625 175.123322) scale(0.1 -0.1)">
       <use xlink:href="#DejaVuSans-2212"/>
       <use xlink:href="#DejaVuSans-35" transform="translate(83.789062 0)"/>
       <use xlink:href="#DejaVuSans-2e" transform="translate(147.412109 0)"/>
       <use xlink:href="#DejaVuSans-30" transform="translate(179.199219 0)"/>
      </g>
     </g>
    </g>
    <g id="ytick_5">
     <g id="line2d_23">
      <path d="M 58.545313 145.1499 
L 500.875312 145.1499 
" clip-path="url(#pe406aca96a)" style="fill: none; stroke: #b0b0b0; stroke-width: 0.8; stroke-linecap: square"/>
     </g>
     <g id="line2d_24">
      <g>
       <use xlink:href="#m2b73aff94e" x="58.545313" y="145.1499" style="stroke: #000000; stroke-width: 0.8"/>
      </g>
     </g>
     <g id="text_13">
      <!-- −2.5 -->
      <g transform="translate(27.2625 148.949119) scale(0.1 -0.1)">
       <use xlink:href="#DejaVuSans-2212"/>
       <use xlink:href="#DejaVuSans-32" transform="translate(83.789062 0)"/>
       <use xlink:href="#DejaVuSans-2e" transform="translate(147.412109 0)"/>
       <use xlink:href="#DejaVuSans-35" transform="translate(179.199219 0)"/>
      </g>
     </g>
    </g>
    <g id="ytick_6">
     <g id="line2d_25">
      <path d="M 58.545313 118.975697 
L 500.875312 118.975697 
" clip-path="url(#pe406aca96a)" style="fill: none; stroke: #b0b0b0; stroke-width: 0.8; stroke-linecap: square"/>
     </g>
     <g id="line2d_26">
      <g>
       <use xlink:href="#m2b73aff94e" x="58.545313" y="118.975697" style="stroke: #000000; stroke-width: 0.8"/>
      </g>
     </g>
     <g id="text_14">
      <!-- 0.0 -->
      <g transform="translate(35.642188 122.774915) scale(0.1 -0.1)">
       <use xlink:href="#DejaVuSans-30"/>
       <use xlink:href="#DejaVuSans-2e" transform="translate(63.623047 0)"/>
       <use xlink:href="#DejaVuSans-30" transform="translate(95.410156 0)"/>
      </g>
     </g>
    </g>
    <g id="ytick_7">
     <g id="line2d_27">
      <path d="M 58.545313 92.801493 
L 500.875312 92.801493 
" clip-path="url(#pe406aca96a)" style="fill: none; stroke: #b0b0b0; stroke-width: 0.8; stroke-linecap: square"/>
     </g>
     <g id="line2d_28">
      <g>
       <use xlink:href="#m2b73aff94e" x="58.545313" y="92.801493" style="stroke: #000000; stroke-width: 0.8"/>
      </g>
     </g>
     <g id="text_15">
      <!-- 2.5 -->
      <g transform="translate(35.642188 96.600712) scale(0.1 -0.1)">
       <use xlink:href="#DejaVuSans-32"/>
       <use xlink:href="#DejaVuSans-2e" transform="translate(63.623047 0)"/>
       <use xlink:href="#DejaVuSans-35" transform="translate(95.410156 0)"/>
      </g>
     </g>
    </g>
    <g id="ytick_8">
     <g id="line2d_29">
      <path d="M 58.545313 66.627289 
L 500.875312 66.627289 
" clip-path="url(#pe406aca96a)" style="fill: none; stroke: #b0b0b0; stroke-width: 0.8; stroke-linecap: square"/>
     </g>
     <g id="line2d_30">
      <g>
       <use xlink:href="#m2b73aff94e" x="58.545313" y="66.627289" style="stroke: #000000; stroke-width: 0.8"/>
      </g>
     </g>
     <g id="text_16">
      <!-- 5.0 -->
      <g transform="translate(35.642188 70.426508) scale(0.1 -0.1)">
       <use xlink:href="#DejaVuSans-35"/>
       <use xlink:href="#DejaVuSans-2e" transform="translate(63.623047 0)"/>
       <use xlink:href="#DejaVuSans-30" transform="translate(95.410156 0)"/>
      </g>
     </g>
    </g>
    <g id="ytick_9">
     <g id="line2d_31">
      <path d="M 58.545313 40.453086 
L 500.875312 40.453086 
" clip-path="url(#pe406aca96a)" style="fill: none; stroke: #b0b0b0; stroke-width: 0.8; stroke-linecap: square"/>
     </g>
     <g id="line2d_32">
      <g>
       <use xlink:href="#m2b73aff94e" x="58.545313" y="40.453086" style="stroke: #000000; stroke-width: 0.8"/>
      </g>
     </g>
     <g id="text_17">
      <!-- 7.5 -->
      <g transform="translate(35.642188 44.252305) scale(0.1 -0.1)">
       <use xlink:href="#DejaVuSans-37"/>
       <use xlink:href="#DejaVuSans-2e" transform="translate(63.623047 0)"/>
       <use xlink:href="#DejaVuSans-35" transform="translate(95.410156 0)"/>
      </g>
     </g>
    </g>
    <g id="text_18">
     <!-- $e_\theta$ [deg] -->
     <g transform="translate(14.8 159.698125) rotate(-90) scale(0.1 -0.1)">
      <defs>
       <path id="DejaVuSans-Oblique-65" d="M 3078 2063 
Q 3088 2113 3092 2166 
Q 3097 2219 3097 2272 
Q 3097 2653 2873 2875 
Q 2650 3097 2266 3097 
Q 1838 3097 1509 2826 
Q 1181 2556 1013 2059 
L 3078 2063 
z
M 3578 1613 
L 903 1613 
Q 884 1494 878 1425 
Q 872 1356 872 1306 
Q 872 872 1139 634 
Q 1406 397 1894 397 
Q 2269 397 2603 481 
Q 2938 566 3225 728 
L 3116 159 
Q 2806 34 2476 -28 
Q 2147 -91 1806 -91 
Q 1078 -91 686 257 
Q 294 606 294 1247 
Q 294 1794 489 2264 
Q 684 2734 1063 3103 
Q 1306 3334 1642 3459 
Q 1978 3584 2356 3584 
Q 2950 3584 3301 3228 
Q 3653 2872 3653 2272 
Q 3653 2128 3634 1964 
Q 3616 1800 3578 1613 
z
" transform="scale(0.015625)"/>
       <path id="DejaVuSans-Oblique-3b8" d="M 2913 2219 
L 925 2219 
Q 791 1284 928 888 
Q 1100 400 1566 400 
Q 2034 400 2391 891 
Q 2703 1322 2913 2219 
z
M 3009 2750 
Q 3094 3638 2984 3950 
Q 2813 4444 2353 4444 
Q 1875 4444 1525 3956 
Q 1250 3563 1034 2750 
L 3009 2750 
z
M 2444 4913 
Q 3194 4913 3494 4250 
Q 3794 3591 3566 2422 
Q 3341 1256 2781 594 
Q 2225 -72 1475 -72 
Q 722 -72 425 594 
Q 128 1256 353 2422 
Q 581 3591 1134 4250 
Q 1691 4913 2444 4913 
z
" transform="scale(0.015625)"/>
       <path id="DejaVuSans-64" d="M 2906 2969 
L 2906 4863 
L 3481 4863 
L 3481 0 
L 2906 0 
L 2906 525 
Q 2725 213 2448 61 
Q 2172 -91 1784 -91 
Q 1150 -91 751 415 
Q 353 922 353 1747 
Q 353 2572 751 3078 
Q 1150 3584 1784 3584 
Q 2172 3584 2448 3432 
Q 2725 3281 2906 2969 
z
M 947 1747 
Q 947 1113 1208 752 
Q 1469 391 1925 391 
Q 2381 391 2643 752 
Q 2906 1113 2906 1747 
Q 2906 2381 2643 2742 
Q 2381 3103 1925 3103 
Q 1469 3103 1208 2742 
Q 947 2381 947 1747 
z
" transform="scale(0.015625)"/>
       <path id="DejaVuSans-67" d="M 2906 1791 
Q 2906 2416 2648 2759 
Q 2391 3103 1925 3103 
Q 1463 3103 1205 2759 
Q 947 2416 947 1791 
Q 947 1169 1205 825 
Q 1463 481 1925 481 
Q 2391 481 2648 825 
Q 2906 1169 2906 1791 
z
M 3481 434 
Q 3481 -459 3084 -895 
Q 2688 -1331 1869 -1331 
Q 1566 -1331 1297 -1286 
Q 1028 -1241 775 -1147 
L 775 -588 
Q 1028 -725 1275 -790 
Q 1522 -856 1778 -856 
Q 2344 -856 2625 -561 
Q 2906 -266 2906 331 
L 2906 616 
Q 2728 306 2450 153 
Q 2172 0 1784 0 
Q 1141 0 747 490 
Q 353 981 353 1791 
Q 353 2603 747 3093 
Q 1141 3584 1784 3584 
Q 2172 3584 2450 3431 
Q 2728 3278 2906 2969 
L 2906 3500 
L 3481 3500 
L 3481 434 
z
" transform="scale(0.015625)"/>
      </defs>
      <use xlink:href="#DejaVuSans-Oblique-65" transform="translate(0 0.015625)"/>
      <use xlink:href="#DejaVuSans-Oblique-3b8" transform="translate(61.523438 -16.390625) scale(0.7)"/>
      <use xlink:href="#DejaVuSans-20" transform="translate(107.084961 0.015625)"/>
      <use xlink:href="#DejaVuSans-5b" transform="translate(138.87207 0.015625)"/>
      <use xlink:href="#DejaVuSans-64" transform="translate(177.885742 0.015625)"/>
      <use xlink:href="#DejaVuSans-65" transform="translate(241.362305 0.015625)"/>
      <use xlink:href="#DejaVuSans-67" transform="translate(302.885742 0.015625)"/>
      <use xlink:href="#DejaVuSans-5d" transform="translate(366.362305 0.015625)"/>
     </g>
    </g>
   </g>
   <g id="line2d_33">
    <path d="M 78.651222 118.975697 
L 80.192675 91.586308 
L 80.929891 83.96927 
L 81.667108 78.608851 
L 82.404325 74.849677 
L 83.141541 72.229965 
L 83.878758 70.424182 
L 84.615975 69.202893 
L 85.353191 68.404803 
L 86.090408 67.917447 
L 86.894644 67.65077 
L 87.7659 67.604342 
L 88.637156 67.772953 
L 89.508413 68.159161 
L 90.312649 68.755636 
L 91.049866 69.599163 
L 91.653043 70.624497 
L 92.1892 71.94975 
L 92.725358 73.927219 
L 93.194496 76.577019 
L 93.596614 80.038824 
L 93.998732 85.443889 
L 94.40085 94.423438 
L 94.735949 107.020891 
L 95.071047 128.292385 
L 95.406146 164.360869 
L 96.009323 245.398125 
L 96.076343 245.358083 
L 96.210382 232.620465 
L 96.478461 164.004929 
L 96.947599 42.582 
L 97.081638 33.398125 
L 97.148658 34.079269 
L 97.282697 44.321275 
L 97.952894 118.885383 
L 98.019914 119.197629 
L 98.153953 115.827804 
L 98.89117 84.541246 
L 98.95819 84.798288 
L 99.159249 88.233858 
L 99.628387 97.892868 
L 99.762426 98.592166 
L 99.829446 98.546999 
L 99.963485 97.839261 
L 100.633682 92.901291 
L 100.767722 92.974744 
L 101.0358 93.89323 
L 101.437919 95.147106 
L 101.638978 95.212495 
L 101.907056 94.880923 
L 102.309175 94.392391 
L 102.577253 94.404129 
L 103.582549 94.895955 
L 104.319766 94.954691 
L 105.995258 95.636274 
L 107.134593 96.322223 
L 108.273928 97.244949 
L 109.346243 98.403795 
L 110.351538 99.810095 
L 111.356834 101.611549 
L 112.295109 103.753203 
L 113.233385 106.480495 
L 114.104641 109.716895 
L 114.908878 113.52733 
L 115.713114 118.440963 
L 116.450331 124.320225 
L 117.187547 132.09659 
L 117.857744 141.4912 
L 118.594961 155.171734 
L 120.270453 189.069291 
L 120.538532 190.589443 
L 120.672572 190.699735 
L 120.806611 190.45888 
L 121.141709 189.023474 
L 121.476808 187.961963 
L 121.610847 188.022355 
L 121.811906 188.812292 
L 122.079985 191.127845 
L 123.018261 200.926241 
L 123.21932 201.199523 
L 123.353359 200.918247 
L 123.688458 199.239888 
L 124.090576 197.526346 
L 124.224616 197.451259 
L 124.358655 197.687363 
L 124.626734 198.969175 
L 125.36395 203.259367 
L 125.565009 203.476591 
L 125.699049 203.348543 
L 126.034147 202.485389 
L 126.436266 201.638057 
L 126.637325 201.626484 
L 126.905403 201.992549 
L 127.441561 202.790056 
L 127.64262 202.754186 
L 127.910699 202.387072 
L 128.983014 200.532728 
L 129.452152 199.810852 
L 129.92129 198.620926 
L 131.060625 194.865628 
L 131.864861 191.459537 
L 132.937176 185.797028 
L 134.009491 178.837863 
L 135.215846 169.484077 
L 136.690279 156.132963 
L 141.314638 112.586975 
L 142.588013 103.467082 
L 143.794367 96.311 
L 145.000722 90.447241 
L 146.140056 85.969071 
L 147.212372 82.613733 
L 148.217667 80.177151 
L 149.088923 78.595087 
L 149.893159 77.556019 
L 150.630376 76.948756 
L 151.300573 76.675997 
L 151.90375 76.652564 
L 152.506928 76.834512 
L 153.177125 77.271228 
L 153.914341 78.02759 
L 154.785597 79.278023 
L 155.723873 81.030613 
L 156.863208 83.673676 
L 158.203602 87.40367 
L 159.879094 92.778484 
L 162.962 103.60611 
L 165.642788 112.664815 
L 167.586359 118.459816 
L 169.261852 122.768978 
L 170.736285 125.984722 
L 172.143699 128.533101 
L 173.417073 130.397298 
L 174.623428 131.781146 
L 175.762763 132.755449 
L 176.835078 133.38829 
L 177.907393 133.758965 
L 178.979708 133.883286 
L 180.052023 133.779473 
L 181.191358 133.44195 
L 182.464732 132.819697 
L 183.872146 131.876796 
L 185.547638 130.478812 
L 187.759288 128.323585 
L 195.533573 120.488635 
L 197.678203 118.781483 
L 199.621775 117.513521 
L 201.498326 116.557107 
L 203.307858 115.884425 
L 205.11739 115.44677 
L 206.993941 115.221969 
L 209.004532 115.209843 
L 211.216182 115.424599 
L 213.82995 115.912595 
L 217.381994 116.825872 
L 226.161575 119.174563 
L 229.713619 119.837788 
L 233.131623 120.24629 
L 236.683667 120.440111 
L 240.637829 120.425263 
L 245.731326 120.166632 
L 262.55327 119.142841 
L 269.523319 119.053857 
L 279.375214 119.17881 
L 297.269473 119.406214 
L 316.638166 119.34711 
L 346.931069 119.327651 
L 454.564702 119.325551 
L 480.769403 119.324761 
L 480.769403 119.324761 
" clip-path="url(#pe406aca96a)" style="fill: none; stroke: #1f77b4; stroke-width: 1.2; stroke-linecap: square"/>
   </g>
   <g id="line2d_34">
    <path d="M 78.651222 118.975697 
L 80.192675 91.614906 
L 80.929891 84.089092 
L 81.600088 79.323097 
L 82.270285 76.061974 
L 82.873463 74.180686 
L 83.3426 73.368922 
L 83.677699 73.187912 
L 83.878758 73.283333 
L 84.146837 73.737326 
L 84.414916 74.744866 
L 84.682994 76.691804 
L 84.951073 80.423534 
L 85.219152 87.984783 
L 85.487231 104.816896 
L 85.755309 143.897224 
L 86.023388 192.260005 
L 86.090408 190.337803 
L 86.224447 159.536572 
L 86.626566 49.4955 
L 86.693585 48.365874 
L 86.827625 57.733612 
L 87.162723 84.885047 
L 87.229743 85.807715 
L 87.296763 85.435013 
L 87.83292 76.334355 
L 87.966959 76.89491 
L 88.302058 78.44053 
L 88.436097 78.426834 
L 88.972255 77.760981 
L 90.245629 77.698183 
L 92.591319 77.678993 
L 94.53489 77.907051 
L 96.210382 78.325004 
L 97.617796 78.90036 
L 98.82415 79.630927 
L 99.829446 80.484878 
L 100.767722 81.582503 
L 101.571958 82.878426 
L 102.242155 84.357063 
L 102.845332 86.20038 
L 103.38149 88.549878 
L 103.850628 91.636827 
L 104.252746 95.836723 
L 104.587844 101.710561 
L 104.855923 109.877783 
L 105.124002 125.269308 
L 105.392081 157.679954 
L 105.727179 216.223565 
L 105.794199 215.09805 
L 105.928238 187.338134 
L 106.330356 76.375739 
L 106.397376 73.505907 
L 106.464396 75.198138 
L 107.067573 113.487383 
L 107.268632 110.567803 
L 107.536711 107.774315 
L 107.603731 107.930988 
L 107.80479 110.055246 
L 108.676046 125.23731 
L 109.011144 135.068258 
L 109.346243 152.109253 
L 109.94942 192.339636 
L 110.01644 191.665197 
L 110.150479 183.923522 
L 110.753656 136.381782 
L 110.887696 139.740612 
L 111.155775 160.355009 
L 111.624913 203.436811 
L 111.691932 203.372619 
L 111.825972 195.128836 
L 112.362129 146.821061 
L 112.429149 147.313896 
L 112.563188 152.638829 
L 113.233385 191.804421 
L 113.300405 191.368243 
L 113.501464 184.731402 
L 113.836563 172.951544 
L 113.903582 172.470392 
L 113.970602 172.746106 
L 114.171661 177.162732 
L 114.640799 189.05047 
L 114.707819 189.202702 
L 114.841858 188.279167 
L 115.310996 183.253627 
L 115.378016 183.354156 
L 115.579075 184.830224 
L 115.981193 187.914794 
L 116.115232 188.006293 
L 116.383311 187.425528 
L 116.58437 187.192908 
L 116.718409 187.305142 
L 117.321587 188.245566 
L 118.192843 188.257798 
L 118.594961 188.1747 
L 119.265158 187.756475 
L 119.868335 187.1181 
L 120.538532 186.089138 
L 121.275749 184.549204 
L 122.079985 182.354477 
L 122.951241 179.3388 
L 123.956537 175.002978 
L 125.028852 169.365131 
L 126.302226 161.428373 
L 128.178778 148.122195 
L 130.524467 131.829647 
L 131.9989 123.187469 
L 133.406314 116.262845 
L 134.746708 110.732009 
L 136.087102 106.116265 
L 137.360476 102.510387 
L 138.566831 99.758339 
L 139.639146 97.833949 
L 140.644441 96.460256 
L 141.582717 95.539986 
L 142.453973 94.985253 
L 143.258209 94.717529 
L 144.062446 94.672069 
L 144.933702 94.858125 
L 145.871978 95.311203 
L 146.877273 96.059219 
L 148.016608 97.194011 
L 149.357002 98.853281 
L 151.032494 101.299627 
L 153.445203 105.258424 
L 158.873799 114.271532 
L 161.085449 117.453312 
L 162.962 119.786023 
L 164.704513 121.612237 
L 166.312985 122.993249 
L 167.854438 124.040459 
L 169.395891 124.82364 
L 170.937344 125.35556 
L 172.478797 125.654293 
L 174.08727 125.741467 
L 175.829782 125.61004 
L 177.773353 125.233391 
L 180.052023 124.55585 
L 183.067909 123.409896 
L 191.981529 119.879769 
L 195.064435 118.981655 
L 197.946282 118.372913 
L 200.828129 117.989186 
L 203.911035 117.806488 
L 207.32904 117.831316 
L 211.551281 118.094025 
L 219.794703 118.892213 
L 226.630713 119.436986 
L 232.528446 119.677769 
L 239.096376 119.712139 
L 249.417409 119.506024 
L 263.893664 119.266407 
L 278.637997 119.285634 
L 310.405334 119.348535 
L 402.557417 119.327715 
L 480.769403 119.324746 
L 480.769403 119.324746 
" clip-path="url(#pe406aca96a)" style="fill: none; stroke: #ff7f0e; stroke-width: 1.2; stroke-linecap: square"/>
   </g>
   <g id="line2d_35">
    <path d="M 78.651222 118.975697 
L 80.125655 92.688463 
L 80.728832 86.802951 
L 81.13095 84.605862 
L 81.26499 84.392607 
L 81.332009 84.453209 
L 81.466049 85.100646 
L 81.600088 86.986661 
L 81.734128 91.647984 
L 81.868167 103.740242 
L 82.136246 172.613533 
L 82.203266 159.092755 
L 82.471344 76.926906 
L 82.538364 73.836222 
L 82.605384 74.1672 
L 82.873463 78.228907 
L 82.940482 78.235416 
L 84.213856 74.866014 
L 84.951073 73.754554 
L 85.755309 72.930232 
L 86.626566 72.356673 
L 87.631861 71.97748 
L 88.771196 71.797094 
L 90.04457 71.819225 
L 91.384964 72.058326 
L 92.591319 72.4887 
L 93.596614 73.082617 
L 94.333831 73.759161 
L 94.937008 74.607536 
L 95.406146 75.646786 
L 95.808264 77.147658 
L 96.076343 78.915979 
L 96.344422 82.461819 
L 96.545481 89.042984 
L 96.67952 100.499615 
L 96.813559 135.095551 
L 96.947599 198.310466 
L 97.014619 184.8167 
L 97.282697 84.594715 
L 97.416737 79.935081 
L 97.550776 80.623342 
L 97.818855 81.650478 
L 98.89117 83.580384 
L 99.360308 85.016478 
L 99.762426 86.943369 
L 100.097525 89.669608 
L 100.365603 93.772298 
L 100.566663 100.158627 
L 100.767722 117.199299 
L 100.901761 150.774569 
L 101.0358 197.547929 
L 101.10282 189.099641 
L 101.437919 98.401258 
L 101.571958 95.654364 
L 101.705997 96.677851 
L 102.175135 103.4791 
L 102.443214 112.029003 
L 102.644273 128.075425 
L 102.845332 171.210898 
L 102.979372 190.326418 
L 103.448509 115.742571 
L 103.515529 115.836777 
L 103.649569 119.252083 
L 103.850628 130.745327 
L 104.051687 155.567006 
L 104.252746 184.643789 
L 104.319766 182.363156 
L 104.721884 136.735374 
L 104.788903 136.515046 
L 104.922943 140.8912 
L 105.191022 164.397627 
L 105.392081 178.961114 
L 105.4591 177.422183 
L 105.861219 153.937506 
L 105.928238 154.154197 
L 106.062278 157.8205 
L 106.464396 173.33434 
L 106.531416 173.274492 
L 106.732475 169.259018 
L 106.933534 166.20004 
L 107.000553 166.094878 
L 107.134593 167.01123 
L 107.603731 171.600755 
L 107.73777 171.695683 
L 108.072869 171.502557 
L 108.273928 171.831937 
L 109.011144 173.372206 
L 109.94942 174.556569 
L 110.753656 175.227247 
L 111.490873 175.545042 
L 112.16107 175.584023 
L 112.831267 175.377606 
L 113.501464 174.915745 
L 114.238681 174.098344 
L 114.975897 172.940379 
L 115.780134 171.270096 
L 116.718409 168.76554 
L 117.723705 165.415009 
L 118.930059 160.547246 
L 120.538532 152.992692 
L 123.956537 136.677203 
L 125.699049 129.609087 
L 127.441561 123.465853 
L 129.117053 118.369133 
L 130.658506 114.374259 
L 132.06592 111.310604 
L 133.406314 108.908352 
L 134.679688 107.082944 
L 135.819023 105.814552 
L 136.958358 104.875394 
L 138.030673 104.275802 
L 139.102988 103.933793 
L 140.175303 103.829629 
L 141.314638 103.955789 
L 142.520993 104.326174 
L 143.861387 104.98448 
L 145.40284 106.006436 
L 147.279391 107.541091 
L 149.82614 109.944993 
L 156.796188 116.681115 
L 159.208897 118.619792 
L 161.353528 120.061503 
L 163.364119 121.15005 
L 165.30769 121.95578 
L 167.251261 122.525866 
L 169.261852 122.883897 
L 171.406482 123.033109 
L 173.752172 122.962694 
L 176.432959 122.647763 
L 179.783944 122.017015 
L 193.522982 119.179526 
L 197.410125 118.751133 
L 201.431306 118.533892 
L 205.988646 118.517874 
L 212.020419 118.737583 
L 229.244481 119.480067 
L 237.890022 119.541644 
L 254.041769 119.370427 
L 271.600929 119.297029 
L 390.292812 119.32858 
L 480.769403 119.324744 
L 480.769403 119.324744 
" clip-path="url(#pe406aca96a)" style="fill: none; stroke: #2ca02c; stroke-width: 1.2; stroke-linecap: square"/>
   </g>
   <g id="patch_3">
    <path d="M 58.545313 255.998125 
L 58.545313 22.798125 
" style="fill: none; stroke: #000000; stroke-width: 0.8; stroke-linejoin: miter; stroke-linecap: square"/>
   </g>
   <g id="patch_4">
    <path d="M 500.875312 255.998125 
L 500.875312 22.798125 
" style="fill: none; stroke: #000000; stroke-width: 0.8; stroke-linejoin: miter; stroke-linecap: square"/>
   </g>
   <g id="patch_5">
    <path d="M 58.545313 255.998125 
L 500.875312 255.998125 
" style="fill: none; stroke: #000000; stroke-width: 0.8; stroke-linejoin: miter; stroke-linecap: square"/>
   </g>
   <g id="patch_6">
    <path d="M 58.545313 22.798125 
L 500.875312 22.798125 
" style="fill: none; stroke: #000000; stroke-width: 0.8; stroke-linejoin: miter; stroke-linecap: square"/>
   </g>
   <g id="text_19">
    <!-- Comparación de ganancias de adaptación -->
    <g transform="translate(153.329687 16.798125) scale(0.12 -0.12)">
     <defs>
      <path id="DejaVuSans-43" d="M 4122 4306 
L 4122 3641 
Q 3803 3938 3442 4084 
Q 3081 4231 2675 4231 
Q 1875 4231 1450 3742 
Q 1025 3253 1025 2328 
Q 1025 1406 1450 917 
Q 1875 428 2675 428 
Q 3081 428 3442 575 
Q 3803 722 4122 1019 
L 4122 359 
Q 3791 134 3420 21 
Q 3050 -91 2638 -91 
Q 1578 -91 968 557 
Q 359 1206 359 2328 
Q 359 3453 968 4101 
Q 1578 4750 2638 4750 
Q 3056 4750 3426 4639 
Q 3797 4528 4122 4306 
z
" transform="scale(0.015625)"/>
      <path id="DejaVuSans-61" d="M 2194 1759 
Q 1497 1759 1228 1600 
Q 959 1441 959 1056 
Q 959 750 1161 570 
Q 1363 391 1709 391 
Q 2188 391 2477 730 
Q 2766 1069 2766 1631 
L 2766 1759 
L 2194 1759 
z
M 3341 1997 
L 3341 0 
L 2766 0 
L 2766 531 
Q 2569 213 2275 61 
Q 1981 -91 1556 -91 
Q 1019 -91 701 211 
Q 384 513 384 1019 
Q 384 1609 779 1909 
Q 1175 2209 1959 2209 
L 2766 2209 
L 2766 2266 
Q 2766 2663 2505 2880 
Q 2244 3097 1772 3097 
Q 1472 3097 1187 3025 
Q 903 2953 641 2809 
L 641 3341 
Q 956 3463 1253 3523 
Q 1550 3584 1831 3584 
Q 2591 3584 2966 3190 
Q 3341 2797 3341 1997 
z
" transform="scale(0.015625)"/>
      <path id="DejaVuSans-72" d="M 2631 2963 
Q 2534 3019 2420 3045 
Q 2306 3072 2169 3072 
Q 1681 3072 1420 2755 
Q 1159 2438 1159 1844 
L 1159 0 
L 581 0 
L 581 3500 
L 1159 3500 
L 1159 2956 
Q 1341 3275 1631 3429 
Q 1922 3584 2338 3584 
Q 2397 3584 2469 3576 
Q 2541 3569 2628 3553 
L 2631 2963 
z
" transform="scale(0.015625)"/>
      <path id="DejaVuSans-63" d="M 3122 3366 
L 3122 2828 
Q 2878 2963 2633 3030 
Q 2388 3097 2138 3097 
Q 1578 3097 1268 2742 
Q 959 2388 959 1747 
Q 959 1106 1268 751 
Q 1578 397 2138 397 
Q 2388 397 2633 464 
Q 2878 531 3122 666 
L 3122 134 
Q 2881 22 2623 -34 
Q 2366 -91 2075 -91 
Q 1284 -91 818 406 
Q 353 903 353 1747 
Q 353 2603 823 3093 
Q 1294 3584 2113 3584 
Q 2378 3584 2631 3529 
Q 2884 3475 3122 3366 
z
" transform="scale(0.015625)"/>
      <path id="DejaVuSans-f3" d="M 1959 3097 
Q 1497 3097 1228 2736 
Q 959 2375 959 1747 
Q 959 1119 1226 758 
Q 1494 397 1959 397 
Q 2419 397 2687 759 
Q 2956 1122 2956 1747 
Q 2956 2369 2687 2733 
Q 2419 3097 1959 3097 
z
M 1959 3584 
Q 2709 3584 3137 3096 
Q 3566 2609 3566 1747 
Q 3566 888 3137 398 
Q 2709 -91 1959 -91 
Q 1206 -91 779 398 
Q 353 888 353 1747 
Q 353 2609 779 3096 
Q 1206 3584 1959 3584 
z
M 2394 5119 
L 3016 5119 
L 1998 3944 
L 1519 3944 
L 2394 5119 
z
" transform="scale(0.015625)"/>
      <path id="DejaVuSans-6e" d="M 3513 2113 
L 3513 0 
L 2938 0 
L 2938 2094 
Q 2938 2591 2744 2837 
Q 2550 3084 2163 3084 
Q 1697 3084 1428 2787 
Q 1159 2491 1159 1978 
L 1159 0 
L 581 0 
L 581 3500 
L 1159 3500 
L 1159 2956 
Q 1366 3272 1645 3428 
Q 1925 3584 2291 3584 
Q 2894 3584 3203 3211 
Q 3513 2838 3513 2113 
z
" transform="scale(0.015625)"/>
      <path id="DejaVuSans-74" d="M 1172 4494 
L 1172 3500 
L 2356 3500 
L 2356 3053 
L 1172 3053 
L 1172 1153 
Q 1172 725 1289 603 
Q 1406 481 1766 481 
L 2356 481 
L 2356 0 
L 1766 0 
Q 1100 0 847 248 
Q 594 497 594 1153 
L 594 3053 
L 172 3053 
L 172 3500 
L 594 3500 
L 594 4494 
L 1172 4494 
z
" transform="scale(0.015625)"/>
     </defs>
     <use xlink:href="#DejaVuSans-43"/>
     <use xlink:href="#DejaVuSans-6f" transform="translate(69.824219 0)"/>
     <use xlink:href="#DejaVuSans-6d" transform="translate(131.005859 0)"/>
     <use xlink:href="#DejaVuSans-70" transform="translate(228.417969 0)"/>
     <use xlink:href="#DejaVuSans-61" transform="translate(291.894531 0)"/>
     <use xlink:href="#DejaVuSans-72" transform="translate(353.173828 0)"/>
     <use xlink:href="#DejaVuSans-61" transform="translate(394.287109 0)"/>
     <use xlink:href="#DejaVuSans-63" transform="translate(455.566406 0)"/>
     <use xlink:href="#DejaVuSans-69" transform="translate(510.546875 0)"/>
     <use xlink:href="#DejaVuSans-f3" transform="translate(538.330078 0)"/>
     <use xlink:href="#DejaVuSans-6e" transform="translate(599.511719 0)"/>
     <use xlink:href="#DejaVuSans-20" transform="translate(662.890625 0)"/>
     <use xlink:href="#DejaVuSans-64" transform="translate(694.677734 0)"/>
     <use xlink:href="#DejaVuSans-65" transform="translate(758.154297 0)"/>
     <use xlink:href="#DejaVuSans-20" transform="translate(819.677734 0)"/>
     <use xlink:href="#DejaVuSans-67" transform="translate(851.464844 0)"/>
     <use xlink:href="#DejaVuSans-61" transform="translate(914.941406 0)"/>
     <use xlink:href="#DejaVuSans-6e" transform="translate(976.220703 0)"/>
     <use xlink:href="#DejaVuSans-61" transform="translate(1039.599609 0)"/>
     <use xlink:href="#DejaVuSans-6e" transform="translate(1100.878906 0)"/>
     <use xlink:href="#DejaVuSans-63" transform="translate(1164.257812 0)"/>
     <use xlink:href="#DejaVuSans-69" transform="translate(1219.238281 0)"/>
     <use xlink:href="#DejaVuSans-61" transform="translate(1247.021484 0)"/>
     <use xlink:href="#DejaVuSans-73" transform="translate(1308.300781 0)"/>
     <use xlink:href="#DejaVuSans-20" transform="translate(1360.400391 0)"/>
     <use xlink:href="#DejaVuSans-64" transform="translate(1392.1875 0)"/>
     <use xlink:href="#DejaVuSans-65" transform="translate(1455.664062 0)"/>
     <use xlink:href="#DejaVuSans-20" transform="translate(1517.1875 0)"/>
     <use xlink:href="#DejaVuSans-61" transform="translate(1548.974609 0)"/>
     <use xlink:href="#DejaVuSans-64" transform="translate(1610.253906 0)"/>
     <use xlink:href="#DejaVuSans-61" transform="translate(1673.730469 0)"/>
     <use xlink:href="#DejaVuSans-70" transform="translate(1735.009766 0)"/>
     <use xlink:href="#DejaVuSans-74" transform="translate(1798.486328 0)"/>
     <use xlink:href="#DejaVuSans-61" transform="translate(1837.695312 0)"/>
     <use xlink:href="#DejaVuSans-63" transform="translate(1898.974609 0)"/>
     <use xlink:href="#DejaVuSans-69" transform="translate(1953.955078 0)"/>
     <use xlink:href="#DejaVuSans-f3" transform="translate(1981.738281 0)"/>
     <use xlink:href="#DejaVuSans-6e" transform="translate(2042.919922 0)"/>
    </g>
   </g>
   <g id="legend_1">
    <g id="patch_7">
     <path d="M 424.575312 74.893437 
L 493.875312 74.893437 
Q 495.875312 74.893437 495.875312 72.893437 
L 495.875312 29.798125 
Q 495.875312 27.798125 493.875312 27.798125 
L 424.575312 27.798125 
Q 422.575312 27.798125 422.575312 29.798125 
L 422.575312 72.893437 
Q 422.575312 74.893437 424.575312 74.893437 
z
" style="fill: #ffffff; opacity: 0.8; stroke: #cccccc; stroke-linejoin: miter"/>
    </g>
    <g id="line2d_36">
     <path d="M 426.575312 35.896562 
L 436.575312 35.896562 
L 446.575312 35.896562 
" style="fill: none; stroke: #1f77b4; stroke-width: 1.2; stroke-linecap: square"/>
    </g>
    <g id="text_20">
     <!-- $\gamma=1$ -->
     <g transform="translate(454.575312 39.396562) scale(0.1 -0.1)">
      <defs>
       <path id="DejaVuSans-Oblique-3b3" d="M 1491 2950 
L 1838 788 
L 3456 3500 
L 4066 3500 
L 1972 0 
L 1713 -1331 
L 1138 -1331 
L 1397 0 
L 988 2613 
Q 925 3006 628 3006 
L 475 3006 
L 569 3500 
L 788 3500 
Q 1403 3500 1491 2950 
z
" transform="scale(0.015625)"/>
       <path id="DejaVuSans-3d" d="M 678 2906 
L 4684 2906 
L 4684 2381 
L 678 2381 
L 678 2906 
z
M 678 1631 
L 4684 1631 
L 4684 1100 
L 678 1100 
L 678 1631 
z
" transform="scale(0.015625)"/>
      </defs>
      <use xlink:href="#DejaVuSans-Oblique-3b3" transform="translate(0 0.09375)"/>
      <use xlink:href="#DejaVuSans-3d" transform="translate(78.662109 0.09375)"/>
      <use xlink:href="#DejaVuSans-31" transform="translate(181.933594 0.09375)"/>
     </g>
    </g>
    <g id="line2d_37">
     <path d="M 426.575312 50.595 
L 436.575312 50.595 
L 446.575312 50.595 
" style="fill: none; stroke: #ff7f0e; stroke-width: 1.2; stroke-linecap: square"/>
    </g>
    <g id="text_21">
     <!-- $\gamma=10$ -->
     <g transform="translate(454.575312 54.095) scale(0.1 -0.1)">
      <use xlink:href="#DejaVuSans-Oblique-3b3" transform="translate(0 0.78125)"/>
      <use xlink:href="#DejaVuSans-3d" transform="translate(78.662109 0.78125)"/>
      <use xlink:href="#DejaVuSans-31" transform="translate(181.933594 0.78125)"/>
      <use xlink:href="#DejaVuSans-30" transform="translate(245.556641 0.78125)"/>
     </g>
    </g>
    <g id="line2d_38">
     <path d="M 426.575312 65.293437 
L 436.575312 65.293437 
L 446.575312 65.293437 
" style="fill: none; stroke: #2ca02c; stroke-width: 1.2; stroke-linecap: square"/>
    </g>
    <g id="text_22">
     <!-- $\gamma=100$ -->
     <g transform="translate(454.575312 68.793437) scale(0.1 -0.1)">
      <use xlink:href="#DejaVuSans-Oblique-3b3" transform="translate(0 0.78125)"/>
      <use xlink:href="#DejaVuSans-3d" transform="translate(78.662109 0.78125)"/>
      <use xlink:href="#DejaVuSans-31" transform="translate(181.933594 0.78125)"/>
      <use xlink:href="#DejaVuSans-30" transform="translate(245.556641 0.78125)"/>
      <use xlink:href="#DejaVuSans-30" transform="translate(309.179688 0.78125)"/>
     </g>
    </g>
   </g>
  </g>
 </g>
 <defs>
  <clipPath id="pe406aca96a">
   <rect x="58.545313" y="22.798125" width="442.33" height="233.2"/>
  </clipPath>
 </defs>
</svg>
