<?xml version="1.0" encoding="utf-8" standalone="no"?>
<!DOCTYPE svg PUBLIC "-//W3C//DTD SVG 1.1//EN"
  "http://www.w3.org/Graphics/SVG/1.1/DTD/svg11.dtd">
<svg xmlns:xlink="http://www.w3.org/1999/xlink" width="510.905312pt" height="293.554375pt" viewBox="0 0 510.905312 293.554375" xmlns="http://www.w3.org/2000/svg" version="1.1">
 <metadata>
  <rdf:RDF xmlns:dc="http://purl.org/dc/elements/1.1/" xmlns:cc="http://creativecommons.org/ns#" xmlns:rdf="http://www.w3.org/1999/02/22-rdf-syntax-ns#">
   <cc:Work>
    <dc:type rdf:resource="http://purl.org/dc/dcmitype/StillImage"/>
    <dc:date>2026-07-18T15:47:14.878544</dc:date>
    <dc:format>image/svg+xml</dc:format>
    <dc:creator>
     <cc:Agent>
      <dc:title>Matplotlib v3.10.8, https://matplotlib.org/</dc:title>
     </cc:Agent>
    </dc:creator>
   </cc:Work>
  </rdf:RDF>
 </metadata>
 <defs>
  <style type="text/css">*{stroke-linejoin: round; stroke-linecap: butt}</style>
 </defs>
 <g id="figure_1">
  <g id="patch_1">
   <path d="M 0 293.554375 
L 510.905312 293.554375 
L 510.905312 0 
L 0 0 
z
" style="fill: #ffffff"/>
  </g>
  <g id="axes_1">
   <g id="patch_2">
    <path d="M 55.345313 255.998125 
L 503.705312 255.998125 
L 503.705312 22.798125 
L 55.345313 22.798125 
z
" style="fill: #ffffff"/>
   </g>
   <g id="matplotlib.axis_1">
    <g id="xtick_1">
     <g id="line2d_1">
      <path d="M 75.725313 255.998125 
L 75.725313 22.798125 
" clip-path="url(#pb7c77a12bb)" style="fill: none; stroke: #b0b0b0; stroke-width: 0.8; stroke-linecap: square"/>
     </g>
     <g id="line2d_2">
      <defs>
       <path id="me298e426ec" d="M 0 0 
L 0 3.5 
" style="stroke: #000000; stroke-width: 0.8"/>
      </defs>
      <g>
       <use xlink:href="#me298e426ec" x="75.725313" y="255.998125" style="stroke: #000000; stroke-width: 0.8"/>
      </g>
     </g>
     <g id="text_1">
      <!-- 0 -->
      <g transform="translate(72.544062 270.596562) scale(0.1 -0.1)">
       <defs>
        <path id="DejaVuSans-30" d="M 2034 4250 
Q 1547 4250 1301 3770 
Q 1056 3291 1056 2328 
Q 1056 1369 1301 889 
Q 1547 409 2034 409 
Q 2525 409 2770 889 
Q 3016 1369 3016 2328 
Q 3016 3291 2770 3770 
Q 2525 4250 2034 4250 
z
M 2034 4750 
Q 2819 4750 3233 4129 
Q 3647 3509 3647 2328 
Q 3647 1150 3233 529 
Q 2819 -91 2034 -91 
Q 1250 -91 836 529 
Q 422 1150 422 2328 
Q 422 3509 836 4129 
Q 1250 4750 2034 4750 
z
" transform="scale(0.015625)"/>
       </defs>
       <use xlink:href="#DejaVuSans-30"/>
      </g>
     </g>
    </g>
    <g id="xtick_2">
     <g id="line2d_3">
      <path d="M 143.658646 255.998125 
L 143.658646 22.798125 
" clip-path="url(#pb7c77a12bb)" style="fill: none; stroke: #b0b0b0; stroke-width: 0.8; stroke-linecap: square"/>
     </g>
     <g id="line2d_4">
      <g>
       <use xlink:href="#me298e426ec" x="143.658646" y="255.998125" style="stroke: #000000; stroke-width: 0.8"/>
      </g>
     </g>
     <g id="text_2">
      <!-- 10 -->
      <g transform="translate(137.296146 270.596562) scale(0.1 -0.1)">
       <defs>
        <path id="DejaVuSans-31" d="M 794 531 
L 1825 531 
L 1825 4091 
L 703 3866 
L 703 4441 
L 1819 4666 
L 2450 4666 
L 2450 531 
L 3481 531 
L 3481 0 
L 794 0 
L 794 531 
z
" transform="scale(0.015625)"/>
       </defs>
       <use xlink:href="#DejaVuSans-31"/>
       <use xlink:href="#DejaVuSans-30" transform="translate(63.623047 0)"/>
      </g>
     </g>
    </g>
    <g id="xtick_3">
     <g id="line2d_5">
      <path d="M 211.591979 255.998125 
L 211.591979 22.798125 
" clip-path="url(#pb7c77a12bb)" style="fill: none; stroke: #b0b0b0; stroke-width: 0.8; stroke-linecap: square"/>
     </g>
     <g id="line2d_6">
      <g>
       <use xlink:href="#me298e426ec" x="211.591979" y="255.998125" style="stroke: #000000; stroke-width: 0.8"/>
      </g>
     </g>
     <g id="text_3">
      <!-- 20 -->
      <g transform="translate(205.229479 270.596562) scale(0.1 -0.1)">
       <defs>
        <path id="DejaVuSans-32" d="M 1228 531 
L 3431 531 
L 3431 0 
L 469 0 
L 469 531 
Q 828 903 1448 1529 
Q 2069 2156 2228 2338 
Q 2531 2678 2651 2914 
Q 2772 3150 2772 3378 
Q 2772 3750 2511 3984 
Q 2250 4219 1831 4219 
Q 1534 4219 1204 4116 
Q 875 4013 500 3803 
L 500 4441 
Q 881 4594 1212 4672 
Q 1544 4750 1819 4750 
Q 2544 4750 2975 4387 
Q 3406 4025 3406 3419 
Q 3406 3131 3298 2873 
Q 3191 2616 2906 2266 
Q 2828 2175 2409 1742 
Q 1991 1309 1228 531 
z
" transform="scale(0.015625)"/>
       </defs>
       <use xlink:href="#DejaVuSans-32"/>
       <use xlink:href="#DejaVuSans-30" transform="translate(63.623047 0)"/>
      </g>
     </g>
    </g>
    <g id="xtick_4">
     <g id="line2d_7">
      <path d="M 279.525313 255.998125 
L 279.525313 22.798125 
" clip-path="url(#pb7c77a12bb)" style="fill: none; stroke: #b0b0b0; stroke-width: 0.8; stroke-linecap: square"/>
     </g>
     <g id="line2d_8">
      <g>
       <use xlink:href="#me298e426ec" x="279.525313" y="255.998125" style="stroke: #000000; stroke-width: 0.8"/>
      </g>
     </g>
     <g id="text_4">
      <!-- 30 -->
      <g transform="translate(273.162813 270.596562) scale(0.1 -0.1)">
       <defs>
        <path id="DejaVuSans-33" d="M 2597 2516 
Q 3050 2419 3304 2112 
Q 3559 1806 3559 1356 
Q 3559 666 3084 287 
Q 2609 -91 1734 -91 
Q 1441 -91 1130 -33 
Q 819 25 488 141 
L 488 750 
Q 750 597 1062 519 
Q 1375 441 1716 441 
Q 2309 441 2620 675 
Q 2931 909 2931 1356 
Q 2931 1769 2642 2001 
Q 2353 2234 1838 2234 
L 1294 2234 
L 1294 2753 
L 1863 2753 
Q 2328 2753 2575 2939 
Q 2822 3125 2822 3475 
Q 2822 3834 2567 4026 
Q 2313 4219 1838 4219 
Q 1578 4219 1281 4162 
Q 984 4106 628 3988 
L 628 4550 
Q 988 4650 1302 4700 
Q 1616 4750 1894 4750 
Q 2613 4750 3031 4423 
Q 3450 4097 3450 3541 
Q 3450 3153 3228 2886 
Q 3006 2619 2597 2516 
z
" transform="scale(0.015625)"/>
       </defs>
       <use xlink:href="#DejaVuSans-33"/>
       <use xlink:href="#DejaVuSans-30" transform="translate(63.623047 0)"/>
      </g>
     </g>
    </g>
    <g id="xtick_5">
     <g id="line2d_9">
      <path d="M 347.458646 255.998125 
L 347.458646 22.798125 
" clip-path="url(#pb7c77a12bb)" style="fill: none; stroke: #b0b0b0; stroke-width: 0.8; stroke-linecap: square"/>
     </g>
     <g id="line2d_10">
      <g>
       <use xlink:href="#me298e426ec" x="347.458646" y="255.998125" style="stroke: #000000; stroke-width: 0.8"/>
      </g>
     </g>
     <g id="text_5">
      <!-- 40 -->
      <g transform="translate(341.096146 270.596562) scale(0.1 -0.1)">
       <defs>
        <path id="DejaVuSans-34" d="M 2419 4116 
L 825 1625 
L 2419 1625 
L 2419 4116 
z
M 2253 4666 
L 3047 4666 
L 3047 1625 
L 3713 1625 
L 3713 1100 
L 3047 1100 
L 3047 0 
L 2419 0 
L 2419 1100 
L 313 1100 
L 313 1709 
L 2253 4666 
z
" transform="scale(0.015625)"/>
       </defs>
       <use xlink:href="#DejaVuSans-34"/>
       <use xlink:href="#DejaVuSans-30" transform="translate(63.623047 0)"/>
      </g>
     </g>
    </g>
    <g id="xtick_6">
     <g id="line2d_11">
      <path d="M 415.391979 255.998125 
L 415.391979 22.798125 
" clip-path="url(#pb7c77a12bb)" style="fill: none; stroke: #b0b0b0; stroke-width: 0.8; stroke-linecap: square"/>
     </g>
     <g id="line2d_12">
      <g>
       <use xlink:href="#me298e426ec" x="415.391979" y="255.998125" style="stroke: #000000; stroke-width: 0.8"/>
      </g>
     </g>
     <g id="text_6">
      <!-- 50 -->
      <g transform="translate(409.029479 270.596562) scale(0.1 -0.1)">
       <defs>
        <path id="DejaVuSans-35" d="M 691 4666 
L 3169 4666 
L 3169 4134 
L 1269 4134 
L 1269 2991 
Q 1406 3038 1543 3061 
Q 1681 3084 1819 3084 
Q 2600 3084 3056 2656 
Q 3513 2228 3513 1497 
Q 3513 744 3044 326 
Q 2575 -91 1722 -91 
Q 1428 -91 1123 -41 
Q 819 9 494 109 
L 494 744 
Q 775 591 1075 516 
Q 1375 441 1709 441 
Q 2250 441 2565 725 
Q 2881 1009 2881 1497 
Q 2881 1984 2565 2268 
Q 2250 2553 1709 2553 
Q 1456 2553 1204 2497 
Q 953 2441 691 2322 
L 691 4666 
z
" transform="scale(0.015625)"/>
       </defs>
       <use xlink:href="#DejaVuSans-35"/>
       <use xlink:href="#DejaVuSans-30" transform="translate(63.623047 0)"/>
      </g>
     </g>
    </g>
    <g id="xtick_7">
     <g id="line2d_13">
      <path d="M 483.325312 255.998125 
L 483.325312 22.798125 
" clip-path="url(#pb7c77a12bb)" style="fill: none; stroke: #b0b0b0; stroke-width: 0.8; stroke-linecap: square"/>
     </g>
     <g id="line2d_14">
      <g>
       <use xlink:href="#me298e426ec" x="483.325312" y="255.998125" style="stroke: #000000; stroke-width: 0.8"/>
      </g>
     </g>
     <g id="text_7">
      <!-- 60 -->
      <g transform="translate(476.962812 270.596562) scale(0.1 -0.1)">
       <defs>
        <path id="DejaVuSans-36" d="M 2113 2584 
Q 1688 2584 1439 2293 
Q 1191 2003 1191 1497 
Q 1191 994 1439 701 
Q 1688 409 2113 409 
Q 2538 409 2786 701 
Q 3034 994 3034 1497 
Q 3034 2003 2786 2293 
Q 2538 2584 2113 2584 
z
M 3366 4563 
L 3366 3988 
Q 3128 4100 2886 4159 
Q 2644 4219 2406 4219 
Q 1781 4219 1451 3797 
Q 1122 3375 1075 2522 
Q 1259 2794 1537 2939 
Q 1816 3084 2150 3084 
Q 2853 3084 3261 2657 
Q 3669 2231 3669 1497 
Q 3669 778 3244 343 
Q 2819 -91 2113 -91 
Q 1303 -91 875 529 
Q 447 1150 447 2328 
Q 447 3434 972 4092 
Q 1497 4750 2381 4750 
Q 2619 4750 2861 4703 
Q 3103 4656 3366 4563 
z
" transform="scale(0.015625)"/>
       </defs>
       <use xlink:href="#DejaVuSans-36"/>
       <use xlink:href="#DejaVuSans-30" transform="translate(63.623047 0)"/>
      </g>
     </g>
    </g>
    <g id="text_8">
     <!-- Tiempo [s] -->
     <g transform="translate(252.962813 284.274687) scale(0.1 -0.1)">
      <defs>
       <path id="DejaVuSans-54" d="M -19 4666 
L 3928 4666 
L 3928 4134 
L 2272 4134 
L 2272 0 
L 1638 0 
L 1638 4134 
L -19 4134 
L -19 4666 
z
" transform="scale(0.015625)"/>
       <path id="DejaVuSans-69" d="M 603 3500 
L 1178 3500 
L 1178 0 
L 603 0 
L 603 3500 
z
M 603 4863 
L 1178 4863 
L 1178 4134 
L 603 4134 
L 603 4863 
z
" transform="scale(0.015625)"/>
       <path id="DejaVuSans-65" d="M 3597 1894 
L 3597 1613 
L 953 1613 
Q 991 1019 1311 708 
Q 1631 397 2203 397 
Q 2534 397 2845 478 
Q 3156 559 3463 722 
L 3463 178 
Q 3153 47 2828 -22 
Q 2503 -91 2169 -91 
Q 1331 -91 842 396 
Q 353 884 353 1716 
Q 353 2575 817 3079 
Q 1281 3584 2069 3584 
Q 2775 3584 3186 3129 
Q 3597 2675 3597 1894 
z
M 3022 2063 
Q 3016 2534 2758 2815 
Q 2500 3097 2075 3097 
Q 1594 3097 1305 2825 
Q 1016 2553 972 2059 
L 3022 2063 
z
" transform="scale(0.015625)"/>
       <path id="DejaVuSans-6d" d="M 3328 2828 
Q 3544 3216 3844 3400 
Q 4144 3584 4550 3584 
Q 5097 3584 5394 3201 
Q 5691 2819 5691 2113 
L 5691 0 
L 5113 0 
L 5113 2094 
Q 5113 2597 4934 2840 
Q 4756 3084 4391 3084 
Q 3944 3084 3684 2787 
Q 3425 2491 3425 1978 
L 3425 0 
L 2847 0 
L 2847 2094 
Q 2847 2600 2669 2842 
Q 2491 3084 2119 3084 
Q 1678 3084 1418 2786 
Q 1159 2488 1159 1978 
L 1159 0 
L 581 0 
L 581 3500 
L 1159 3500 
L 1159 2956 
Q 1356 3278 1631 3431 
Q 1906 3584 2284 3584 
Q 2666 3584 2933 3390 
Q 3200 3197 3328 2828 
z
" transform="scale(0.015625)"/>
       <path id="DejaVuSans-70" d="M 1159 525 
L 1159 -1331 
L 581 -1331 
L 581 3500 
L 1159 3500 
L 1159 2969 
Q 1341 3281 1617 3432 
Q 1894 3584 2278 3584 
Q 2916 3584 3314 3078 
Q 3713 2572 3713 1747 
Q 3713 922 3314 415 
Q 2916 -91 2278 -91 
Q 1894 -91 1617 61 
Q 1341 213 1159 525 
z
M 3116 1747 
Q 3116 2381 2855 2742 
Q 2594 3103 2138 3103 
Q 1681 3103 1420 2742 
Q 1159 2381 1159 1747 
Q 1159 1113 1420 752 
Q 1681 391 2138 391 
Q 2594 391 2855 752 
Q 3116 1113 3116 1747 
z
" transform="scale(0.015625)"/>
       <path id="DejaVuSans-6f" d="M 1959 3097 
Q 1497 3097 1228 2736 
Q 959 2375 959 1747 
Q 959 1119 1226 758 
Q 1494 397 1959 397 
Q 2419 397 2687 759 
Q 2956 1122 2956 1747 
Q 2956 2369 2687 2733 
Q 2419 3097 1959 3097 
z
M 1959 3584 
Q 2709 3584 3137 3096 
Q 3566 2609 3566 1747 
Q 3566 888 3137 398 
Q 2709 -91 1959 -91 
Q 1206 -91 779 398 
Q 353 888 353 1747 
Q 353 2609 779 3096 
Q 1206 3584 1959 3584 
z
" transform="scale(0.015625)"/>
       <path id="DejaVuSans-20" transform="scale(0.015625)"/>
       <path id="DejaVuSans-5b" d="M 550 4863 
L 1875 4863 
L 1875 4416 
L 1125 4416 
L 1125 -397 
L 1875 -397 
L 1875 -844 
L 550 -844 
L 550 4863 
z
" transform="scale(0.015625)"/>
       <path id="DejaVuSans-73" d="M 2834 3397 
L 2834 2853 
Q 2591 2978 2328 3040 
Q 2066 3103 1784 3103 
Q 1356 3103 1142 2972 
Q 928 2841 928 2578 
Q 928 2378 1081 2264 
Q 1234 2150 1697 2047 
L 1894 2003 
Q 2506 1872 2764 1633 
Q 3022 1394 3022 966 
Q 3022 478 2636 193 
Q 2250 -91 1575 -91 
Q 1294 -91 989 -36 
Q 684 19 347 128 
L 347 722 
Q 666 556 975 473 
Q 1284 391 1588 391 
Q 1994 391 2212 530 
Q 2431 669 2431 922 
Q 2431 1156 2273 1281 
Q 2116 1406 1581 1522 
L 1381 1569 
Q 847 1681 609 1914 
Q 372 2147 372 2553 
Q 372 3047 722 3315 
Q 1072 3584 1716 3584 
Q 2034 3584 2315 3537 
Q 2597 3491 2834 3397 
z
" transform="scale(0.015625)"/>
       <path id="DejaVuSans-5d" d="M 1947 4863 
L 1947 -844 
L 622 -844 
L 622 -397 
L 1369 -397 
L 1369 4416 
L 622 4416 
L 622 4863 
L 1947 4863 
z
" transform="scale(0.015625)"/>
      </defs>
      <use xlink:href="#DejaVuSans-54"/>
      <use xlink:href="#DejaVuSans-69" transform="translate(57.958984 0)"/>
      <use xlink:href="#DejaVuSans-65" transform="translate(85.742188 0)"/>
      <use xlink:href="#DejaVuSans-6d" transform="translate(147.265625 0)"/>
      <use xlink:href="#DejaVuSans-70" transform="translate(244.677734 0)"/>
      <use xlink:href="#DejaVuSans-6f" transform="translate(308.154297 0)"/>
      <use xlink:href="#DejaVuSans-20" transform="translate(369.335938 0)"/>
      <use xlink:href="#DejaVuSans-5b" transform="translate(401.123047 0)"/>
      <use xlink:href="#DejaVuSans-73" transform="translate(440.136719 0)"/>
      <use xlink:href="#DejaVuSans-5d" transform="translate(492.236328 0)"/>
     </g>
    </g>
   </g>
   <g id="matplotlib.axis_2">
    <g id="ytick_1">
     <g id="line2d_15">
      <path d="M 55.345313 214.576382 
L 503.705312 214.576382 
" clip-path="url(#pb7c77a12bb)" style="fill: none; stroke: #b0b0b0; stroke-width: 0.8; stroke-linecap: square"/>
     </g>
     <g id="line2d_16">
      <defs>
       <path id="md2beb3fc8f" d="M 0 0 
L -3.5 0 
" style="stroke: #000000; stroke-width: 0.8"/>
      </defs>
      <g>
       <use xlink:href="#md2beb3fc8f" x="55.345313" y="214.576382" style="stroke: #000000; stroke-width: 0.8"/>
      </g>
     </g>
     <g id="text_9">
      <!-- −150 -->
      <g transform="translate(20.878125 218.3756) scale(0.1 -0.1)">
       <defs>
        <path id="DejaVuSans-2212" d="M 678 2272 
L 4684 2272 
L 4684 1741 
L 678 1741 
L 678 2272 
z
" transform="scale(0.015625)"/>
       </defs>
       <use xlink:href="#DejaVuSans-2212"/>
       <use xlink:href="#DejaVuSans-31" transform="translate(83.789062 0)"/>
       <use xlink:href="#DejaVuSans-35" transform="translate(147.412109 0)"/>
       <use xlink:href="#DejaVuSans-30" transform="translate(211.035156 0)"/>
      </g>
     </g>
    </g>
    <g id="ytick_2">
     <g id="line2d_17">
      <path d="M 55.345313 172.635968 
L 503.705312 172.635968 
" clip-path="url(#pb7c77a12bb)" style="fill: none; stroke: #b0b0b0; stroke-width: 0.8; stroke-linecap: square"/>
     </g>
     <g id="line2d_18">
      <g>
       <use xlink:href="#md2beb3fc8f" x="55.345313" y="172.635968" style="stroke: #000000; stroke-width: 0.8"/>
      </g>
     </g>
     <g id="text_10">
      <!-- −100 -->
      <g transform="translate(20.878125 176.435186) scale(0.1 -0.1)">
       <use xlink:href="#DejaVuSans-2212"/>
       <use xlink:href="#DejaVuSans-31" transform="translate(83.789062 0)"/>
       <use xlink:href="#DejaVuSans-30" transform="translate(147.412109 0)"/>
       <use xlink:href="#DejaVuSans-30" transform="translate(211.035156 0)"/>
      </g>
     </g>
    </g>
    <g id="ytick_3">
     <g id="line2d_19">
      <path d="M 55.345313 130.695553 
L 503.705312 130.695553 
" clip-path="url(#pb7c77a12bb)" style="fill: none; stroke: #b0b0b0; stroke-width: 0.8; stroke-linecap: square"/>
     </g>
     <g id="line2d_20">
      <g>
       <use xlink:href="#md2beb3fc8f" x="55.345313" y="130.695553" style="stroke: #000000; stroke-width: 0.8"/>
      </g>
     </g>
     <g id="text_11">
      <!-- −50 -->
      <g transform="translate(27.240625 134.494772) scale(0.1 -0.1)">
       <use xlink:href="#DejaVuSans-2212"/>
       <use xlink:href="#DejaVuSans-35" transform="translate(83.789062 0)"/>
       <use xlink:href="#DejaVuSans-30" transform="translate(147.412109 0)"/>
      </g>
     </g>
    </g>
    <g id="ytick_4">
     <g id="line2d_21">
      <path d="M 55.345313 88.755139 
L 503.705312 88.755139 
" clip-path="url(#pb7c77a12bb)" style="fill: none; stroke: #b0b0b0; stroke-width: 0.8; stroke-linecap: square"/>
     </g>
     <g id="line2d_22">
      <g>
       <use xlink:href="#md2beb3fc8f" x="55.345313" y="88.755139" style="stroke: #000000; stroke-width: 0.8"/>
      </g>
     </g>
     <g id="text_12">
      <!-- 0 -->
      <g transform="translate(41.982813 92.554358) scale(0.1 -0.1)">
       <use xlink:href="#DejaVuSans-30"/>
      </g>
     </g>
    </g>
    <g id="ytick_5">
     <g id="line2d_23">
      <path d="M 55.345313 46.814725 
L 503.705312 46.814725 
" clip-path="url(#pb7c77a12bb)" style="fill: none; stroke: #b0b0b0; stroke-width: 0.8; stroke-linecap: square"/>
     </g>
     <g id="line2d_24">
      <g>
       <use xlink:href="#md2beb3fc8f" x="55.345313" y="46.814725" style="stroke: #000000; stroke-width: 0.8"/>
      </g>
     </g>
     <g id="text_13">
      <!-- 50 -->
      <g transform="translate(35.620313 50.613944) scale(0.1 -0.1)">
       <use xlink:href="#DejaVuSans-35"/>
       <use xlink:href="#DejaVuSans-30" transform="translate(63.623047 0)"/>
      </g>
     </g>
    </g>
    <g id="text_14">
     <!-- u -->
     <g transform="translate(14.798438 142.566875) rotate(-90) scale(0.1 -0.1)">
      <defs>
       <path id="DejaVuSans-75" d="M 544 1381 
L 544 3500 
L 1119 3500 
L 1119 1403 
Q 1119 906 1312 657 
Q 1506 409 1894 409 
Q 2359 409 2629 706 
Q 2900 1003 2900 1516 
L 2900 3500 
L 3475 3500 
L 3475 0 
L 2900 0 
L 2900 538 
Q 2691 219 2414 64 
Q 2138 -91 1772 -91 
Q 1169 -91 856 284 
Q 544 659 544 1381 
z
M 1991 3584 
L 1991 3584 
z
" transform="scale(0.015625)"/>
      </defs>
      <use xlink:href="#DejaVuSans-75"/>
     </g>
    </g>
   </g>
   <g id="line2d_25">
    <path d="M 75.725313 88.755139 
L 90.195113 88.647457 
L 91.078246 88.443133 
L 91.553779 88.125235 
L 91.893446 87.65476 
L 92.233113 86.799812 
L 92.708646 85.506643 
L 92.844513 86.121618 
L 92.980379 88.22188 
L 93.252113 98.004802 
L 93.455912 103.37856 
L 93.523846 102.980108 
L 93.727646 95.88998 
L 94.203179 78.548877 
L 94.339046 77.136627 
L 94.406979 77.377428 
L 94.542846 79.785705 
L 95.154246 94.211728 
L 95.222179 94.244624 
L 95.358046 93.436893 
L 96.105312 86.521795 
L 96.241179 86.748517 
L 96.580846 88.471825 
L 96.920513 89.623734 
L 97.056379 89.654139 
L 97.260179 89.360401 
L 97.803646 88.413074 
L 98.007446 88.405261 
L 98.482979 88.78482 
L 98.822646 88.902857 
L 99.298179 88.767948 
L 99.841646 88.697004 
L 101.336179 88.742972 
L 106.023579 88.740283 
L 114.447313 88.603365 
L 116.824979 88.558921 
L 117.572246 88.866858 
L 118.115713 89.000754 
L 118.523313 88.831586 
L 119.406446 88.328385 
L 119.746113 88.412743 
L 120.900979 88.970841 
L 121.308579 88.730171 
L 121.852046 88.424661 
L 122.191712 88.466156 
L 123.278646 88.861166 
L 124.569379 88.637414 
L 125.452513 88.77552 
L 126.811179 88.727006 
L 127.966046 88.736708 
L 131.566513 88.790782 
L 142.503779 88.802589 
L 178.916046 88.710222 
L 226.605246 88.700889 
L 483.325312 88.680536 
L 483.325312 88.680536 
" clip-path="url(#pb7c77a12bb)" style="fill: none; stroke: #1f77b4; stroke-width: 1.2; stroke-linecap: square"/>
   </g>
   <g id="line2d_26">
    <path d="M 75.725313 88.755139 
L 81.227913 88.646059 
L 81.703446 88.465141 
L 81.975179 88.181459 
L 82.178979 87.725 
L 82.382779 86.774836 
L 82.586579 84.763968 
L 82.858312 80.936058 
L 82.926246 81.965177 
L 83.062112 94.798477 
L 83.265912 121.424276 
L 83.401779 105.34122 
L 83.673513 70.704591 
L 83.741446 68.847483 
L 83.809379 70.136783 
L 84.284913 94.47368 
L 84.420779 93.045047 
L 84.760446 87.660904 
L 84.896313 87.371169 
L 85.100113 88.199037 
L 85.371846 89.077325 
L 85.507712 89.078853 
L 86.051179 88.669604 
L 87.070179 88.749957 
L 96.241179 88.744679 
L 100.996513 88.626738 
L 101.607912 88.435075 
L 101.947579 88.103867 
L 102.219313 87.429097 
L 102.423113 86.290652 
L 102.694846 83.06718 
L 102.830713 81.819123 
L 102.898646 82.871613 
L 103.034513 94.221228 
L 103.238313 119.149159 
L 103.374179 106.126222 
L 103.645913 72.811318 
L 103.713846 70.393265 
L 103.781779 70.770539 
L 103.985579 82.650086 
L 104.257313 93.301492 
L 104.325246 93.475309 
L 104.461113 92.201203 
L 104.868713 87.675669 
L 105.004579 87.546245 
L 105.208379 88.046517 
L 105.548046 88.706555 
L 105.751846 88.651947 
L 106.159446 88.14372 
L 106.702913 87.166354 
L 106.906712 86.996503 
L 107.042579 87.569291 
L 107.246379 90.862337 
L 107.518113 96.07305 
L 107.586046 95.632038 
L 107.789846 90.176751 
L 108.061579 84.011771 
L 108.197446 83.407087 
L 108.333313 83.885174 
L 108.740913 86.880427 
L 108.944713 91.131221 
L 109.216446 98.086503 
L 109.284379 97.388752 
L 109.827846 82.567988 
L 109.895779 82.872442 
L 110.167513 86.249055 
L 110.710979 92.531802 
L 110.778913 92.564404 
L 110.914779 91.541722 
L 111.390313 86.168378 
L 111.458246 86.175306 
L 111.594113 86.732785 
L 112.205512 90.268834 
L 112.341379 89.881527 
L 112.816913 87.801254 
L 112.952779 87.902437 
L 113.564179 89.119981 
L 113.835913 88.766917 
L 114.107646 88.507596 
L 114.379379 88.609583 
L 114.786979 88.779804 
L 116.349446 88.715907 
L 123.414513 88.790602 
L 135.710446 88.775905 
L 171.715113 88.713099 
L 283.397513 88.694074 
L 483.325312 88.680536 
L 483.325312 88.680536 
" clip-path="url(#pb7c77a12bb)" style="fill: none; stroke: #ff7f0e; stroke-width: 1.2; stroke-linecap: square"/>
   </g>
   <g id="line2d_27">
    <path d="M 75.725313 88.755139 
L 77.967112 88.660246 
L 78.306779 88.467071 
L 78.510579 88.050635 
L 78.646446 87.293825 
L 78.782313 85.25514 
L 78.918179 78.811401 
L 79.054046 61.19381 
L 79.121979 66.887935 
L 79.257846 179.156951 
L 79.529579 58.545137 
L 79.869246 90.448591 
L 79.937179 90.443005 
L 80.276846 88.699656 
L 80.480646 88.717345 
L 80.956179 88.755782 
L 93.184179 88.561646 
L 93.455912 88.271445 
L 93.591779 87.867629 
L 93.727646 86.867814 
L 93.863512 83.819223 
L 93.999379 71.722653 
L 94.135246 33.398125 
L 94.271113 245.398125 
L 94.339046 161.467972 
L 94.474913 48.346631 
L 94.542846 52.780792 
L 94.746646 85.531407 
L 94.950446 89.120293 
L 95.425979 88.731454 
L 97.192246 88.559711 
L 97.463979 88.352672 
L 97.667779 87.916147 
L 97.803646 87.181779 
L 97.939513 85.300915 
L 98.075379 79.471372 
L 98.279179 57.274375 
L 98.415046 189.68503 
L 98.482979 148.386375 
L 98.686779 61.929346 
L 99.026446 87.702487 
L 99.162313 88.570575 
L 99.298179 88.506483 
L 99.569913 87.870722 
L 99.773713 86.550645 
L 99.909579 84.090871 
L 100.181313 73.242689 
L 100.385113 139.89455 
L 100.656846 73.009595 
L 100.996513 85.801851 
L 101.064446 86.047728 
L 101.200312 84.922463 
L 101.404112 80.4854 
L 101.472046 81.724409 
L 101.675846 116.832176 
L 101.743779 111.201463 
L 101.947579 80.462295 
L 102.015512 79.260066 
L 102.423113 84.244671 
L 102.491046 84.466084 
L 102.558979 85.627357 
L 102.830713 101.2143 
L 102.898646 98.385164 
L 103.170379 83.749569 
L 103.238313 83.628734 
L 103.442113 85.530747 
L 103.713846 89.842013 
L 103.917646 92.290283 
L 104.053513 90.503456 
L 104.325246 87.140788 
L 104.393179 87.122592 
L 104.596979 87.987478 
L 104.936646 89.254535 
L 105.072513 89.155934 
L 105.480113 88.524557 
L 105.751846 88.612073 
L 106.159446 88.716866 
L 108.944713 88.710363 
L 129.596446 88.768995 
L 182.040979 88.717135 
L 483.325312 88.680535 
L 483.325312 88.680535 
" clip-path="url(#pb7c77a12bb)" style="fill: none; stroke: #2ca02c; stroke-width: 1.2; stroke-linecap: square"/>
   </g>
   <g id="patch_3">
    <path d="M 55.345313 255.998125 
L 55.345313 22.798125 
" style="fill: none; stroke: #000000; stroke-width: 0.8; stroke-linejoin: miter; stroke-linecap: square"/>
   </g>
   <g id="patch_4">
    <path d="M 503.705312 255.998125 
L 503.705312 22.798125 
" style="fill: none; stroke: #000000; stroke-width: 0.8; stroke-linejoin: miter; stroke-linecap: square"/>
   </g>
   <g id="patch_5">
    <path d="M 55.345312 255.998125 
L 503.705312 255.998125 
" style="fill: none; stroke: #000000; stroke-width: 0.8; stroke-linejoin: miter; stroke-linecap: square"/>
   </g>
   <g id="patch_6">
    <path d="M 55.345312 22.798125 
L 503.705312 22.798125 
" style="fill: none; stroke: #000000; stroke-width: 0.8; stroke-linejoin: miter; stroke-linecap: square"/>
   </g>
   <g id="text_15">
    <!-- Ganancia de adaptación y esfuerzo de control -->
    <g transform="translate(141.334063 16.798125) scale(0.12 -0.12)">
     <defs>
      <path id="DejaVuSans-47" d="M 3809 666 
L 3809 1919 
L 2778 1919 
L 2778 2438 
L 4434 2438 
L 4434 434 
Q 4069 175 3628 42 
Q 3188 -91 2688 -91 
Q 1594 -91 976 548 
Q 359 1188 359 2328 
Q 359 3472 976 4111 
Q 1594 4750 2688 4750 
Q 3144 4750 3555 4637 
Q 3966 4525 4313 4306 
L 4313 3634 
Q 3963 3931 3569 4081 
Q 3175 4231 2741 4231 
Q 1884 4231 1454 3753 
Q 1025 3275 1025 2328 
Q 1025 1384 1454 906 
Q 1884 428 2741 428 
Q 3075 428 3337 486 
Q 3600 544 3809 666 
z
" transform="scale(0.015625)"/>
      <path id="DejaVuSans-61" d="M 2194 1759 
Q 1497 1759 1228 1600 
Q 959 1441 959 1056 
Q 959 750 1161 570 
Q 1363 391 1709 391 
Q 2188 391 2477 730 
Q 2766 1069 2766 1631 
L 2766 1759 
L 2194 1759 
z
M 3341 1997 
L 3341 0 
L 2766 0 
L 2766 531 
Q 2569 213 2275 61 
Q 1981 -91 1556 -91 
Q 1019 -91 701 211 
Q 384 513 384 1019 
Q 384 1609 779 1909 
Q 1175 2209 1959 2209 
L 2766 2209 
L 2766 2266 
Q 2766 2663 2505 2880 
Q 2244 3097 1772 3097 
Q 1472 3097 1187 3025 
Q 903 2953 641 2809 
L 641 3341 
Q 956 3463 1253 3523 
Q 1550 3584 1831 3584 
Q 2591 3584 2966 3190 
Q 3341 2797 3341 1997 
z
" transform="scale(0.015625)"/>
      <path id="DejaVuSans-6e" d="M 3513 2113 
L 3513 0 
L 2938 0 
L 2938 2094 
Q 2938 2591 2744 2837 
Q 2550 3084 2163 3084 
Q 1697 3084 1428 2787 
Q 1159 2491 1159 1978 
L 1159 0 
L 581 0 
L 581 3500 
L 1159 3500 
L 1159 2956 
Q 1366 3272 1645 3428 
Q 1925 3584 2291 3584 
Q 2894 3584 3203 3211 
Q 3513 2838 3513 2113 
z
" transform="scale(0.015625)"/>
      <path id="DejaVuSans-63" d="M 3122 3366 
L 3122 2828 
Q 2878 2963 2633 3030 
Q 2388 3097 2138 3097 
Q 1578 3097 1268 2742 
Q 959 2388 959 1747 
Q 959 1106 1268 751 
Q 1578 397 2138 397 
Q 2388 397 2633 464 
Q 2878 531 3122 666 
L 3122 134 
Q 2881 22 2623 -34 
Q 2366 -91 2075 -91 
Q 1284 -91 818 406 
Q 353 903 353 1747 
Q 353 2603 823 3093 
Q 1294 3584 2113 3584 
Q 2378 3584 2631 3529 
Q 2884 3475 3122 3366 
z
" transform="scale(0.015625)"/>
      <path id="DejaVuSans-64" d="M 2906 2969 
L 2906 4863 
L 3481 4863 
L 3481 0 
L 2906 0 
L 2906 525 
Q 2725 213 2448 61 
Q 2172 -91 1784 -91 
Q 1150 -91 751 415 
Q 353 922 353 1747 
Q 353 2572 751 3078 
Q 1150 3584 1784 3584 
Q 2172 3584 2448 3432 
Q 2725 3281 2906 2969 
z
M 947 1747 
Q 947 1113 1208 752 
Q 1469 391 1925 391 
Q 2381 391 2643 752 
Q 2906 1113 2906 1747 
Q 2906 2381 2643 2742 
Q 2381 3103 1925 3103 
Q 1469 3103 1208 2742 
Q 947 2381 947 1747 
z
" transform="scale(0.015625)"/>
      <path id="DejaVuSans-74" d="M 1172 4494 
L 1172 3500 
L 2356 3500 
L 2356 3053 
L 1172 3053 
L 1172 1153 
Q 1172 725 1289 603 
Q 1406 481 1766 481 
L 2356 481 
L 2356 0 
L 1766 0 
Q 1100 0 847 248 
Q 594 497 594 1153 
L 594 3053 
L 172 3053 
L 172 3500 
L 594 3500 
L 594 4494 
L 1172 4494 
z
" transform="scale(0.015625)"/>
      <path id="DejaVuSans-f3" d="M 1959 3097 
Q 1497 3097 1228 2736 
Q 959 2375 959 1747 
Q 959 1119 1226 758 
Q 1494 397 1959 397 
Q 2419 397 2687 759 
Q 2956 1122 2956 1747 
Q 2956 2369 2687 2733 
Q 2419 3097 1959 3097 
z
M 1959 3584 
Q 2709 3584 3137 3096 
Q 3566 2609 3566 1747 
Q 3566 888 3137 398 
Q 2709 -91 1959 -91 
Q 1206 -91 779 398 
Q 353 888 353 1747 
Q 353 2609 779 3096 
Q 1206 3584 1959 3584 
z
M 2394 5119 
L 3016 5119 
L 1998 3944 
L 1519 3944 
L 2394 5119 
z
" transform="scale(0.015625)"/>
      <path id="DejaVuSans-79" d="M 2059 -325 
Q 1816 -950 1584 -1140 
Q 1353 -1331 966 -1331 
L 506 -1331 
L 506 -850 
L 844 -850 
Q 1081 -850 1212 -737 
Q 1344 -625 1503 -206 
L 1606 56 
L 191 3500 
L 800 3500 
L 1894 763 
L 2988 3500 
L 3597 3500 
L 2059 -325 
z
" transform="scale(0.015625)"/>
      <path id="DejaVuSans-66" d="M 2375 4863 
L 2375 4384 
L 1825 4384 
Q 1516 4384 1395 4259 
Q 1275 4134 1275 3809 
L 1275 3500 
L 2222 3500 
L 2222 3053 
L 1275 3053 
L 1275 0 
L 697 0 
L 697 3053 
L 147 3053 
L 147 3500 
L 697 3500 
L 697 3744 
Q 697 4328 969 4595 
Q 1241 4863 1831 4863 
L 2375 4863 
z
" transform="scale(0.015625)"/>
      <path id="DejaVuSans-72" d="M 2631 2963 
Q 2534 3019 2420 3045 
Q 2306 3072 2169 3072 
Q 1681 3072 1420 2755 
Q 1159 2438 1159 1844 
L 1159 0 
L 581 0 
L 581 3500 
L 1159 3500 
L 1159 2956 
Q 1341 3275 1631 3429 
Q 1922 3584 2338 3584 
Q 2397 3584 2469 3576 
Q 2541 3569 2628 3553 
L 2631 2963 
z
" transform="scale(0.015625)"/>
      <path id="DejaVuSans-7a" d="M 353 3500 
L 3084 3500 
L 3084 2975 
L 922 459 
L 3084 459 
L 3084 0 
L 275 0 
L 275 525 
L 2438 3041 
L 353 3041 
L 353 3500 
z
" transform="scale(0.015625)"/>
      <path id="DejaVuSans-6c" d="M 603 4863 
L 1178 4863 
L 1178 0 
L 603 0 
L 603 4863 
z
" transform="scale(0.015625)"/>
     </defs>
     <use xlink:href="#DejaVuSans-47"/>
     <use xlink:href="#DejaVuSans-61" transform="translate(77.490234 0)"/>
     <use xlink:href="#DejaVuSans-6e" transform="translate(138.769531 0)"/>
     <use xlink:href="#DejaVuSans-61" transform="translate(202.148438 0)"/>
     <use xlink:href="#DejaVuSans-6e" transform="translate(263.427734 0)"/>
     <use xlink:href="#DejaVuSans-63" transform="translate(326.806641 0)"/>
     <use xlink:href="#DejaVuSans-69" transform="translate(381.787109 0)"/>
     <use xlink:href="#DejaVuSans-61" transform="translate(409.570312 0)"/>
     <use xlink:href="#DejaVuSans-20" transform="translate(470.849609 0)"/>
     <use xlink:href="#DejaVuSans-64" transform="translate(502.636719 0)"/>
     <use xlink:href="#DejaVuSans-65" transform="translate(566.113281 0)"/>
     <use xlink:href="#DejaVuSans-20" transform="translate(627.636719 0)"/>
     <use xlink:href="#DejaVuSans-61" transform="translate(659.423828 0)"/>
     <use xlink:href="#DejaVuSans-64" transform="translate(720.703125 0)"/>
     <use xlink:href="#DejaVuSans-61" transform="translate(784.179688 0)"/>
     <use xlink:href="#DejaVuSans-70" transform="translate(845.458984 0)"/>
     <use xlink:href="#DejaVuSans-74" transform="translate(908.935547 0)"/>
     <use xlink:href="#DejaVuSans-61" transform="translate(948.144531 0)"/>
     <use xlink:href="#DejaVuSans-63" transform="translate(1009.423828 0)"/>
     <use xlink:href="#DejaVuSans-69" transform="translate(1064.404297 0)"/>
     <use xlink:href="#DejaVuSans-f3" transform="translate(1092.1875 0)"/>
     <use xlink:href="#DejaVuSans-6e" transform="translate(1153.369141 0)"/>
     <use xlink:href="#DejaVuSans-20" transform="translate(1216.748047 0)"/>
     <use xlink:href="#DejaVuSans-79" transform="translate(1248.535156 0)"/>
     <use xlink:href="#DejaVuSans-20" transform="translate(1307.714844 0)"/>
     <use xlink:href="#DejaVuSans-65" transform="translate(1339.501953 0)"/>
     <use xlink:href="#DejaVuSans-73" transform="translate(1401.025391 0)"/>
     <use xlink:href="#DejaVuSans-66" transform="translate(1453.125 0)"/>
     <use xlink:href="#DejaVuSans-75" transform="translate(1488.330078 0)"/>
     <use xlink:href="#DejaVuSans-65" transform="translate(1551.708984 0)"/>
     <use xlink:href="#DejaVuSans-72" transform="translate(1613.232422 0)"/>
     <use xlink:href="#DejaVuSans-7a" transform="translate(1654.345703 0)"/>
     <use xlink:href="#DejaVuSans-6f" transform="translate(1706.835938 0)"/>
     <use xlink:href="#DejaVuSans-20" transform="translate(1768.017578 0)"/>
     <use xlink:href="#DejaVuSans-64" transform="translate(1799.804688 0)"/>
     <use xlink:href="#DejaVuSans-65" transform="translate(1863.28125 0)"/>
     <use xlink:href="#DejaVuSans-20" transform="translate(1924.804688 0)"/>
     <use xlink:href="#DejaVuSans-63" transform="translate(1956.591797 0)"/>
     <use xlink:href="#DejaVuSans-6f" transform="translate(2011.572266 0)"/>
     <use xlink:href="#DejaVuSans-6e" transform="translate(2072.753906 0)"/>
     <use xlink:href="#DejaVuSans-74" transform="translate(2136.132812 0)"/>
     <use xlink:href="#DejaVuSans-72" transform="translate(2175.341797 0)"/>
     <use xlink:href="#DejaVuSans-6f" transform="translate(2214.205078 0)"/>
     <use xlink:href="#DejaVuSans-6c" transform="translate(2275.386719 0)"/>
    </g>
   </g>
   <g id="legend_1">
    <g id="patch_7">
     <path d="M 427.405313 74.893437 
L 496.705313 74.893437 
Q 498.705313 74.893437 498.705313 72.893437 
L 498.705313 29.798125 
Q 498.705313 27.798125 496.705313 27.798125 
L 427.405313 27.798125 
Q 425.405313 27.798125 425.405313 29.798125 
L 425.405313 72.893437 
Q 425.405313 74.893437 427.405313 74.893437 
z
" style="fill: #ffffff; opacity: 0.8; stroke: #cccccc; stroke-linejoin: miter"/>
    </g>
    <g id="line2d_28">
     <path d="M 429.405313 35.896562 
L 439.405313 35.896562 
L 449.405313 35.896562 
" style="fill: none; stroke: #1f77b4; stroke-width: 1.2; stroke-linecap: square"/>
    </g>
    <g id="text_16">
     <!-- $\gamma=1$ -->
     <g transform="translate(457.405313 39.396562) scale(0.1 -0.1)">
      <defs>
       <path id="DejaVuSans-Oblique-3b3" d="M 1491 2950 
L 1838 788 
L 3456 3500 
L 4066 3500 
L 1972 0 
L 1713 -1331 
L 1138 -1331 
L 1397 0 
L 988 2613 
Q 925 3006 628 3006 
L 475 3006 
L 569 3500 
L 788 3500 
Q 1403 3500 1491 2950 
z
" transform="scale(0.015625)"/>
       <path id="DejaVuSans-3d" d="M 678 2906 
L 4684 2906 
L 4684 2381 
L 678 2381 
L 678 2906 
z
M 678 1631 
L 4684 1631 
L 4684 1100 
L 678 1100 
L 678 1631 
z
" transform="scale(0.015625)"/>
      </defs>
      <use xlink:href="#DejaVuSans-Oblique-3b3" transform="translate(0 0.09375)"/>
      <use xlink:href="#DejaVuSans-3d" transform="translate(78.662109 0.09375)"/>
      <use xlink:href="#DejaVuSans-31" transform="translate(181.933594 0.09375)"/>
     </g>
    </g>
    <g id="line2d_29">
     <path d="M 429.405313 50.595 
L 439.405313 50.595 
L 449.405313 50.595 
" style="fill: none; stroke: #ff7f0e; stroke-width: 1.2; stroke-linecap: square"/>
    </g>
    <g id="text_17">
     <!-- $\gamma=10$ -->
     <g transform="translate(457.405313 54.095) scale(0.1 -0.1)">
      <use xlink:href="#DejaVuSans-Oblique-3b3" transform="translate(0 0.78125)"/>
      <use xlink:href="#DejaVuSans-3d" transform="translate(78.662109 0.78125)"/>
      <use xlink:href="#DejaVuSans-31" transform="translate(181.933594 0.78125)"/>
      <use xlink:href="#DejaVuSans-30" transform="translate(245.556641 0.78125)"/>
     </g>
    </g>
    <g id="line2d_30">
     <path d="M 429.405313 65.293437 
L 439.405313 65.293437 
L 449.405313 65.293437 
" style="fill: none; stroke: #2ca02c; stroke-width: 1.2; stroke-linecap: square"/>
    </g>
    <g id="text_18">
     <!-- $\gamma=100$ -->
     <g transform="translate(457.405313 68.793437) scale(0.1 -0.1)">
      <use xlink:href="#DejaVuSans-Oblique-3b3" transform="translate(0 0.78125)"/>
      <use xlink:href="#DejaVuSans-3d" transform="translate(78.662109 0.78125)"/>
      <use xlink:href="#DejaVuSans-31" transform="translate(181.933594 0.78125)"/>
      <use xlink:href="#DejaVuSans-30" transform="translate(245.556641 0.78125)"/>
      <use xlink:href="#DejaVuSans-30" transform="translate(309.179688 0.78125)"/>
     </g>
    </g>
   </g>
  </g>
 </g>
 <defs>
  <clipPath id="pb7c77a12bb">
   <rect x="55.345313" y="22.798125" width="448.36" height="233.2"/>
  </clipPath>
 </defs>
</svg>
