<?xml version="1.0" encoding="utf-8" standalone="no"?>
<!DOCTYPE svg PUBLIC "-//W3C//DTD SVG 1.1//EN"
  "http://www.w3.org/Graphics/SVG/1.1/DTD/svg11.dtd">
<svg xmlns:xlink="http://www.w3.org/1999/xlink" width="507.984687pt" height="293.63875pt" viewBox="0 0 507.984687 293.63875" xmlns="http://www.w3.org/2000/svg" version="1.1">
 <metadata>
  <rdf:RDF xmlns:dc="http://purl.org/dc/elements/1.1/" xmlns:cc="http://creativecommons.org/ns#" xmlns:rdf="http://www.w3.org/1999/02/22-rdf-syntax-ns#">
   <cc:Work>
    <dc:type rdf:resource="http://purl.org/dc/dcmitype/StillImage"/>
    <dc:date>2026-07-18T15:47:08.202180</dc:date>
    <dc:format>image/svg+xml</dc:format>
    <dc:creator>
     <cc:Agent>
      <dc:title>Matplotlib v3.10.8, https://matplotlib.org/</dc:title>
     </cc:Agent>
    </dc:creator>
   </cc:Work>
  </rdf:RDF>
 </metadata>
 <defs>
  <style type="text/css">*{stroke-linejoin: round; stroke-linecap: butt}</style>
 </defs>
 <g id="figure_1">
  <g id="patch_1">
   <path d="M 0 293.63875 
L 507.984687 293.63875 
L 507.984687 0 
L 0 0 
z
" style="fill: #ffffff"/>
  </g>
  <g id="axes_1">
   <g id="patch_2">
    <path d="M 49.004688 256.0825 
L 500.784687 256.0825 
L 500.784687 22.5225 
L 49.004688 22.5225 
z
" style="fill: #ffffff"/>
   </g>
   <g id="matplotlib.axis_1">
    <g id="xtick_1">
     <g id="line2d_1">
      <path d="M 69.540142 256.0825 
L 69.540142 22.5225 
" clip-path="url(#pb723f5fea0)" style="fill: none; stroke: #b0b0b0; stroke-width: 0.8; stroke-linecap: square"/>
     </g>
     <g id="line2d_2">
      <defs>
       <path id="mf9521bd63f" d="M 0 0 
L 0 3.5 
" style="stroke: #000000; stroke-width: 0.8"/>
      </defs>
      <g>
       <use xlink:href="#mf9521bd63f" x="69.540142" y="256.0825" style="stroke: #000000; stroke-width: 0.8"/>
      </g>
     </g>
     <g id="text_1">
      <!-- 0 -->
      <g transform="translate(66.358892 270.680937) scale(0.1 -0.1)">
       <defs>
        <path id="DejaVuSans-30" d="M 2034 4250 
Q 1547 4250 1301 3770 
Q 1056 3291 1056 2328 
Q 1056 1369 1301 889 
Q 1547 409 2034 409 
Q 2525 409 2770 889 
Q 3016 1369 3016 2328 
Q 3016 3291 2770 3770 
Q 2525 4250 2034 4250 
z
M 2034 4750 
Q 2819 4750 3233 4129 
Q 3647 3509 3647 2328 
Q 3647 1150 3233 529 
Q 2819 -91 2034 -91 
Q 1250 -91 836 529 
Q 422 1150 422 2328 
Q 422 3509 836 4129 
Q 1250 4750 2034 4750 
z
" transform="scale(0.015625)"/>
       </defs>
       <use xlink:href="#DejaVuSans-30"/>
      </g>
     </g>
    </g>
    <g id="xtick_2">
     <g id="line2d_3">
      <path d="M 137.991657 256.0825 
L 137.991657 22.5225 
" clip-path="url(#pb723f5fea0)" style="fill: none; stroke: #b0b0b0; stroke-width: 0.8; stroke-linecap: square"/>
     </g>
     <g id="line2d_4">
      <g>
       <use xlink:href="#mf9521bd63f" x="137.991657" y="256.0825" style="stroke: #000000; stroke-width: 0.8"/>
      </g>
     </g>
     <g id="text_2">
      <!-- 10 -->
      <g transform="translate(131.629157 270.680937) scale(0.1 -0.1)">
       <defs>
        <path id="DejaVuSans-31" d="M 794 531 
L 1825 531 
L 1825 4091 
L 703 3866 
L 703 4441 
L 1819 4666 
L 2450 4666 
L 2450 531 
L 3481 531 
L 3481 0 
L 794 0 
L 794 531 
z
" transform="scale(0.015625)"/>
       </defs>
       <use xlink:href="#DejaVuSans-31"/>
       <use xlink:href="#DejaVuSans-30" transform="translate(63.623047 0)"/>
      </g>
     </g>
    </g>
    <g id="xtick_3">
     <g id="line2d_5">
      <path d="M 206.443172 256.0825 
L 206.443172 22.5225 
" clip-path="url(#pb723f5fea0)" style="fill: none; stroke: #b0b0b0; stroke-width: 0.8; stroke-linecap: square"/>
     </g>
     <g id="line2d_6">
      <g>
       <use xlink:href="#mf9521bd63f" x="206.443172" y="256.0825" style="stroke: #000000; stroke-width: 0.8"/>
      </g>
     </g>
     <g id="text_3">
      <!-- 20 -->
      <g transform="translate(200.080672 270.680937) scale(0.1 -0.1)">
       <defs>
        <path id="DejaVuSans-32" d="M 1228 531 
L 3431 531 
L 3431 0 
L 469 0 
L 469 531 
Q 828 903 1448 1529 
Q 2069 2156 2228 2338 
Q 2531 2678 2651 2914 
Q 2772 3150 2772 3378 
Q 2772 3750 2511 3984 
Q 2250 4219 1831 4219 
Q 1534 4219 1204 4116 
Q 875 4013 500 3803 
L 500 4441 
Q 881 4594 1212 4672 
Q 1544 4750 1819 4750 
Q 2544 4750 2975 4387 
Q 3406 4025 3406 3419 
Q 3406 3131 3298 2873 
Q 3191 2616 2906 2266 
Q 2828 2175 2409 1742 
Q 1991 1309 1228 531 
z
" transform="scale(0.015625)"/>
       </defs>
       <use xlink:href="#DejaVuSans-32"/>
       <use xlink:href="#DejaVuSans-30" transform="translate(63.623047 0)"/>
      </g>
     </g>
    </g>
    <g id="xtick_4">
     <g id="line2d_7">
      <path d="M 274.894687 256.0825 
L 274.894687 22.5225 
" clip-path="url(#pb723f5fea0)" style="fill: none; stroke: #b0b0b0; stroke-width: 0.8; stroke-linecap: square"/>
     </g>
     <g id="line2d_8">
      <g>
       <use xlink:href="#mf9521bd63f" x="274.894687" y="256.0825" style="stroke: #000000; stroke-width: 0.8"/>
      </g>
     </g>
     <g id="text_4">
      <!-- 30 -->
      <g transform="translate(268.532187 270.680937) scale(0.1 -0.1)">
       <defs>
        <path id="DejaVuSans-33" d="M 2597 2516 
Q 3050 2419 3304 2112 
Q 3559 1806 3559 1356 
Q 3559 666 3084 287 
Q 2609 -91 1734 -91 
Q 1441 -91 1130 -33 
Q 819 25 488 141 
L 488 750 
Q 750 597 1062 519 
Q 1375 441 1716 441 
Q 2309 441 2620 675 
Q 2931 909 2931 1356 
Q 2931 1769 2642 2001 
Q 2353 2234 1838 2234 
L 1294 2234 
L 1294 2753 
L 1863 2753 
Q 2328 2753 2575 2939 
Q 2822 3125 2822 3475 
Q 2822 3834 2567 4026 
Q 2313 4219 1838 4219 
Q 1578 4219 1281 4162 
Q 984 4106 628 3988 
L 628 4550 
Q 988 4650 1302 4700 
Q 1616 4750 1894 4750 
Q 2613 4750 3031 4423 
Q 3450 4097 3450 3541 
Q 3450 3153 3228 2886 
Q 3006 2619 2597 2516 
z
" transform="scale(0.015625)"/>
       </defs>
       <use xlink:href="#DejaVuSans-33"/>
       <use xlink:href="#DejaVuSans-30" transform="translate(63.623047 0)"/>
      </g>
     </g>
    </g>
    <g id="xtick_5">
     <g id="line2d_9">
      <path d="M 343.346203 256.0825 
L 343.346203 22.5225 
" clip-path="url(#pb723f5fea0)" style="fill: none; stroke: #b0b0b0; stroke-width: 0.8; stroke-linecap: square"/>
     </g>
     <g id="line2d_10">
      <g>
       <use xlink:href="#mf9521bd63f" x="343.346203" y="256.0825" style="stroke: #000000; stroke-width: 0.8"/>
      </g>
     </g>
     <g id="text_5">
      <!-- 40 -->
      <g transform="translate(336.983703 270.680937) scale(0.1 -0.1)">
       <defs>
        <path id="DejaVuSans-34" d="M 2419 4116 
L 825 1625 
L 2419 1625 
L 2419 4116 
z
M 2253 4666 
L 3047 4666 
L 3047 1625 
L 3713 1625 
L 3713 1100 
L 3047 1100 
L 3047 0 
L 2419 0 
L 2419 1100 
L 313 1100 
L 313 1709 
L 2253 4666 
z
" transform="scale(0.015625)"/>
       </defs>
       <use xlink:href="#DejaVuSans-34"/>
       <use xlink:href="#DejaVuSans-30" transform="translate(63.623047 0)"/>
      </g>
     </g>
    </g>
    <g id="xtick_6">
     <g id="line2d_11">
      <path d="M 411.797718 256.0825 
L 411.797718 22.5225 
" clip-path="url(#pb723f5fea0)" style="fill: none; stroke: #b0b0b0; stroke-width: 0.8; stroke-linecap: square"/>
     </g>
     <g id="line2d_12">
      <g>
       <use xlink:href="#mf9521bd63f" x="411.797718" y="256.0825" style="stroke: #000000; stroke-width: 0.8"/>
      </g>
     </g>
     <g id="text_6">
      <!-- 50 -->
      <g transform="translate(405.435218 270.680937) scale(0.1 -0.1)">
       <defs>
        <path id="DejaVuSans-35" d="M 691 4666 
L 3169 4666 
L 3169 4134 
L 1269 4134 
L 1269 2991 
Q 1406 3038 1543 3061 
Q 1681 3084 1819 3084 
Q 2600 3084 3056 2656 
Q 3513 2228 3513 1497 
Q 3513 744 3044 326 
Q 2575 -91 1722 -91 
Q 1428 -91 1123 -41 
Q 819 9 494 109 
L 494 744 
Q 775 591 1075 516 
Q 1375 441 1709 441 
Q 2250 441 2565 725 
Q 2881 1009 2881 1497 
Q 2881 1984 2565 2268 
Q 2250 2553 1709 2553 
Q 1456 2553 1204 2497 
Q 953 2441 691 2322 
L 691 4666 
z
" transform="scale(0.015625)"/>
       </defs>
       <use xlink:href="#DejaVuSans-35"/>
       <use xlink:href="#DejaVuSans-30" transform="translate(63.623047 0)"/>
      </g>
     </g>
    </g>
    <g id="xtick_7">
     <g id="line2d_13">
      <path d="M 480.249233 256.0825 
L 480.249233 22.5225 
" clip-path="url(#pb723f5fea0)" style="fill: none; stroke: #b0b0b0; stroke-width: 0.8; stroke-linecap: square"/>
     </g>
     <g id="line2d_14">
      <g>
       <use xlink:href="#mf9521bd63f" x="480.249233" y="256.0825" style="stroke: #000000; stroke-width: 0.8"/>
      </g>
     </g>
     <g id="text_7">
      <!-- 60 -->
      <g transform="translate(473.886733 270.680937) scale(0.1 -0.1)">
       <defs>
        <path id="DejaVuSans-36" d="M 2113 2584 
Q 1688 2584 1439 2293 
Q 1191 2003 1191 1497 
Q 1191 994 1439 701 
Q 1688 409 2113 409 
Q 2538 409 2786 701 
Q 3034 994 3034 1497 
Q 3034 2003 2786 2293 
Q 2538 2584 2113 2584 
z
M 3366 4563 
L 3366 3988 
Q 3128 4100 2886 4159 
Q 2644 4219 2406 4219 
Q 1781 4219 1451 3797 
Q 1122 3375 1075 2522 
Q 1259 2794 1537 2939 
Q 1816 3084 2150 3084 
Q 2853 3084 3261 2657 
Q 3669 2231 3669 1497 
Q 3669 778 3244 343 
Q 2819 -91 2113 -91 
Q 1303 -91 875 529 
Q 447 1150 447 2328 
Q 447 3434 972 4092 
Q 1497 4750 2381 4750 
Q 2619 4750 2861 4703 
Q 3103 4656 3366 4563 
z
" transform="scale(0.015625)"/>
       </defs>
       <use xlink:href="#DejaVuSans-36"/>
       <use xlink:href="#DejaVuSans-30" transform="translate(63.623047 0)"/>
      </g>
     </g>
    </g>
    <g id="text_8">
     <!-- Tiempo [s] -->
     <g transform="translate(248.332187 284.359062) scale(0.1 -0.1)">
      <defs>
       <path id="DejaVuSans-54" d="M -19 4666 
L 3928 4666 
L 3928 4134 
L 2272 4134 
L 2272 0 
L 1638 0 
L 1638 4134 
L -19 4134 
L -19 4666 
z
" transform="scale(0.015625)"/>
       <path id="DejaVuSans-69" d="M 603 3500 
L 1178 3500 
L 1178 0 
L 603 0 
L 603 3500 
z
M 603 4863 
L 1178 4863 
L 1178 4134 
L 603 4134 
L 603 4863 
z
" transform="scale(0.015625)"/>
       <path id="DejaVuSans-65" d="M 3597 1894 
L 3597 1613 
L 953 1613 
Q 991 1019 1311 708 
Q 1631 397 2203 397 
Q 2534 397 2845 478 
Q 3156 559 3463 722 
L 3463 178 
Q 3153 47 2828 -22 
Q 2503 -91 2169 -91 
Q 1331 -91 842 396 
Q 353 884 353 1716 
Q 353 2575 817 3079 
Q 1281 3584 2069 3584 
Q 2775 3584 3186 3129 
Q 3597 2675 3597 1894 
z
M 3022 2063 
Q 3016 2534 2758 2815 
Q 2500 3097 2075 3097 
Q 1594 3097 1305 2825 
Q 1016 2553 972 2059 
L 3022 2063 
z
" transform="scale(0.015625)"/>
       <path id="DejaVuSans-6d" d="M 3328 2828 
Q 3544 3216 3844 3400 
Q 4144 3584 4550 3584 
Q 5097 3584 5394 3201 
Q 5691 2819 5691 2113 
L 5691 0 
L 5113 0 
L 5113 2094 
Q 5113 2597 4934 2840 
Q 4756 3084 4391 3084 
Q 3944 3084 3684 2787 
Q 3425 2491 3425 1978 
L 3425 0 
L 2847 0 
L 2847 2094 
Q 2847 2600 2669 2842 
Q 2491 3084 2119 3084 
Q 1678 3084 1418 2786 
Q 1159 2488 1159 1978 
L 1159 0 
L 581 0 
L 581 3500 
L 1159 3500 
L 1159 2956 
Q 1356 3278 1631 3431 
Q 1906 3584 2284 3584 
Q 2666 3584 2933 3390 
Q 3200 3197 3328 2828 
z
" transform="scale(0.015625)"/>
       <path id="DejaVuSans-70" d="M 1159 525 
L 1159 -1331 
L 581 -1331 
L 581 3500 
L 1159 3500 
L 1159 2969 
Q 1341 3281 1617 3432 
Q 1894 3584 2278 3584 
Q 2916 3584 3314 3078 
Q 3713 2572 3713 1747 
Q 3713 922 3314 415 
Q 2916 -91 2278 -91 
Q 1894 -91 1617 61 
Q 1341 213 1159 525 
z
M 3116 1747 
Q 3116 2381 2855 2742 
Q 2594 3103 2138 3103 
Q 1681 3103 1420 2742 
Q 1159 2381 1159 1747 
Q 1159 1113 1420 752 
Q 1681 391 2138 391 
Q 2594 391 2855 752 
Q 3116 1113 3116 1747 
z
" transform="scale(0.015625)"/>
       <path id="DejaVuSans-6f" d="M 1959 3097 
Q 1497 3097 1228 2736 
Q 959 2375 959 1747 
Q 959 1119 1226 758 
Q 1494 397 1959 397 
Q 2419 397 2687 759 
Q 2956 1122 2956 1747 
Q 2956 2369 2687 2733 
Q 2419 3097 1959 3097 
z
M 1959 3584 
Q 2709 3584 3137 3096 
Q 3566 2609 3566 1747 
Q 3566 888 3137 398 
Q 2709 -91 1959 -91 
Q 1206 -91 779 398 
Q 353 888 353 1747 
Q 353 2609 779 3096 
Q 1206 3584 1959 3584 
z
" transform="scale(0.015625)"/>
       <path id="DejaVuSans-20" transform="scale(0.015625)"/>
       <path id="DejaVuSans-5b" d="M 550 4863 
L 1875 4863 
L 1875 4416 
L 1125 4416 
L 1125 -397 
L 1875 -397 
L 1875 -844 
L 550 -844 
L 550 4863 
z
" transform="scale(0.015625)"/>
       <path id="DejaVuSans-73" d="M 2834 3397 
L 2834 2853 
Q 2591 2978 2328 3040 
Q 2066 3103 1784 3103 
Q 1356 3103 1142 2972 
Q 928 2841 928 2578 
Q 928 2378 1081 2264 
Q 1234 2150 1697 2047 
L 1894 2003 
Q 2506 1872 2764 1633 
Q 3022 1394 3022 966 
Q 3022 478 2636 193 
Q 2250 -91 1575 -91 
Q 1294 -91 989 -36 
Q 684 19 347 128 
L 347 722 
Q 666 556 975 473 
Q 1284 391 1588 391 
Q 1994 391 2212 530 
Q 2431 669 2431 922 
Q 2431 1156 2273 1281 
Q 2116 1406 1581 1522 
L 1381 1569 
Q 847 1681 609 1914 
Q 372 2147 372 2553 
Q 372 3047 722 3315 
Q 1072 3584 1716 3584 
Q 2034 3584 2315 3537 
Q 2597 3491 2834 3397 
z
" transform="scale(0.015625)"/>
       <path id="DejaVuSans-5d" d="M 1947 4863 
L 1947 -844 
L 622 -844 
L 622 -397 
L 1369 -397 
L 1369 4416 
L 622 4416 
L 622 4863 
L 1947 4863 
z
" transform="scale(0.015625)"/>
      </defs>
      <use xlink:href="#DejaVuSans-54"/>
      <use xlink:href="#DejaVuSans-69" transform="translate(57.958984 0)"/>
      <use xlink:href="#DejaVuSans-65" transform="translate(85.742188 0)"/>
      <use xlink:href="#DejaVuSans-6d" transform="translate(147.265625 0)"/>
      <use xlink:href="#DejaVuSans-70" transform="translate(244.677734 0)"/>
      <use xlink:href="#DejaVuSans-6f" transform="translate(308.154297 0)"/>
      <use xlink:href="#DejaVuSans-20" transform="translate(369.335938 0)"/>
      <use xlink:href="#DejaVuSans-5b" transform="translate(401.123047 0)"/>
      <use xlink:href="#DejaVuSans-73" transform="translate(440.136719 0)"/>
      <use xlink:href="#DejaVuSans-5d" transform="translate(492.236328 0)"/>
     </g>
    </g>
   </g>
   <g id="matplotlib.axis_2">
    <g id="ytick_1">
     <g id="line2d_15">
      <path d="M 49.004688 254.878466 
L 500.784687 254.878466 
" clip-path="url(#pb723f5fea0)" style="fill: none; stroke: #b0b0b0; stroke-width: 0.8; stroke-linecap: square"/>
     </g>
     <g id="line2d_16">
      <defs>
       <path id="m78e19c0364" d="M 0 0 
L -3.5 0 
" style="stroke: #000000; stroke-width: 0.8"/>
      </defs>
      <g>
       <use xlink:href="#m78e19c0364" x="49.004688" y="254.878466" style="stroke: #000000; stroke-width: 0.8"/>
      </g>
     </g>
     <g id="text_9">
      <!-- −10 -->
      <g transform="translate(20.9 258.677685) scale(0.1 -0.1)">
       <defs>
        <path id="DejaVuSans-2212" d="M 678 2272 
L 4684 2272 
L 4684 1741 
L 678 1741 
L 678 2272 
z
" transform="scale(0.015625)"/>
       </defs>
       <use xlink:href="#DejaVuSans-2212"/>
       <use xlink:href="#DejaVuSans-31" transform="translate(83.789062 0)"/>
       <use xlink:href="#DejaVuSans-30" transform="translate(147.412109 0)"/>
      </g>
     </g>
    </g>
    <g id="ytick_2">
     <g id="line2d_17">
      <path d="M 49.004688 228.419932 
L 500.784687 228.419932 
" clip-path="url(#pb723f5fea0)" style="fill: none; stroke: #b0b0b0; stroke-width: 0.8; stroke-linecap: square"/>
     </g>
     <g id="line2d_18">
      <g>
       <use xlink:href="#m78e19c0364" x="49.004688" y="228.419932" style="stroke: #000000; stroke-width: 0.8"/>
      </g>
     </g>
     <g id="text_10">
      <!-- −8 -->
      <g transform="translate(27.2625 232.219151) scale(0.1 -0.1)">
       <defs>
        <path id="DejaVuSans-38" d="M 2034 2216 
Q 1584 2216 1326 1975 
Q 1069 1734 1069 1313 
Q 1069 891 1326 650 
Q 1584 409 2034 409 
Q 2484 409 2743 651 
Q 3003 894 3003 1313 
Q 3003 1734 2745 1975 
Q 2488 2216 2034 2216 
z
M 1403 2484 
Q 997 2584 770 2862 
Q 544 3141 544 3541 
Q 544 4100 942 4425 
Q 1341 4750 2034 4750 
Q 2731 4750 3128 4425 
Q 3525 4100 3525 3541 
Q 3525 3141 3298 2862 
Q 3072 2584 2669 2484 
Q 3125 2378 3379 2068 
Q 3634 1759 3634 1313 
Q 3634 634 3220 271 
Q 2806 -91 2034 -91 
Q 1263 -91 848 271 
Q 434 634 434 1313 
Q 434 1759 690 2068 
Q 947 2378 1403 2484 
z
M 1172 3481 
Q 1172 3119 1398 2916 
Q 1625 2713 2034 2713 
Q 2441 2713 2670 2916 
Q 2900 3119 2900 3481 
Q 2900 3844 2670 4047 
Q 2441 4250 2034 4250 
Q 1625 4250 1398 4047 
Q 1172 3844 1172 3481 
z
" transform="scale(0.015625)"/>
       </defs>
       <use xlink:href="#DejaVuSans-2212"/>
       <use xlink:href="#DejaVuSans-38" transform="translate(83.789062 0)"/>
      </g>
     </g>
    </g>
    <g id="ytick_3">
     <g id="line2d_19">
      <path d="M 49.004688 201.961398 
L 500.784687 201.961398 
" clip-path="url(#pb723f5fea0)" style="fill: none; stroke: #b0b0b0; stroke-width: 0.8; stroke-linecap: square"/>
     </g>
     <g id="line2d_20">
      <g>
       <use xlink:href="#m78e19c0364" x="49.004688" y="201.961398" style="stroke: #000000; stroke-width: 0.8"/>
      </g>
     </g>
     <g id="text_11">
      <!-- −6 -->
      <g transform="translate(27.2625 205.760617) scale(0.1 -0.1)">
       <use xlink:href="#DejaVuSans-2212"/>
       <use xlink:href="#DejaVuSans-36" transform="translate(83.789062 0)"/>
      </g>
     </g>
    </g>
    <g id="ytick_4">
     <g id="line2d_21">
      <path d="M 49.004688 175.502864 
L 500.784687 175.502864 
" clip-path="url(#pb723f5fea0)" style="fill: none; stroke: #b0b0b0; stroke-width: 0.8; stroke-linecap: square"/>
     </g>
     <g id="line2d_22">
      <g>
       <use xlink:href="#m78e19c0364" x="49.004688" y="175.502864" style="stroke: #000000; stroke-width: 0.8"/>
      </g>
     </g>
     <g id="text_12">
      <!-- −4 -->
      <g transform="translate(27.2625 179.302083) scale(0.1 -0.1)">
       <use xlink:href="#DejaVuSans-2212"/>
       <use xlink:href="#DejaVuSans-34" transform="translate(83.789062 0)"/>
      </g>
     </g>
    </g>
    <g id="ytick_5">
     <g id="line2d_23">
      <path d="M 49.004688 149.04433 
L 500.784687 149.04433 
" clip-path="url(#pb723f5fea0)" style="fill: none; stroke: #b0b0b0; stroke-width: 0.8; stroke-linecap: square"/>
     </g>
     <g id="line2d_24">
      <g>
       <use xlink:href="#m78e19c0364" x="49.004688" y="149.04433" style="stroke: #000000; stroke-width: 0.8"/>
      </g>
     </g>
     <g id="text_13">
      <!-- −2 -->
      <g transform="translate(27.2625 152.843549) scale(0.1 -0.1)">
       <use xlink:href="#DejaVuSans-2212"/>
       <use xlink:href="#DejaVuSans-32" transform="translate(83.789062 0)"/>
      </g>
     </g>
    </g>
    <g id="ytick_6">
     <g id="line2d_25">
      <path d="M 49.004688 122.585796 
L 500.784687 122.585796 
" clip-path="url(#pb723f5fea0)" style="fill: none; stroke: #b0b0b0; stroke-width: 0.8; stroke-linecap: square"/>
     </g>
     <g id="line2d_26">
      <g>
       <use xlink:href="#m78e19c0364" x="49.004688" y="122.585796" style="stroke: #000000; stroke-width: 0.8"/>
      </g>
     </g>
     <g id="text_14">
      <!-- 0 -->
      <g transform="translate(35.642188 126.385014) scale(0.1 -0.1)">
       <use xlink:href="#DejaVuSans-30"/>
      </g>
     </g>
    </g>
    <g id="ytick_7">
     <g id="line2d_27">
      <path d="M 49.004688 96.127262 
L 500.784687 96.127262 
" clip-path="url(#pb723f5fea0)" style="fill: none; stroke: #b0b0b0; stroke-width: 0.8; stroke-linecap: square"/>
     </g>
     <g id="line2d_28">
      <g>
       <use xlink:href="#m78e19c0364" x="49.004688" y="96.127262" style="stroke: #000000; stroke-width: 0.8"/>
      </g>
     </g>
     <g id="text_15">
      <!-- 2 -->
      <g transform="translate(35.642188 99.92648) scale(0.1 -0.1)">
       <use xlink:href="#DejaVuSans-32"/>
      </g>
     </g>
    </g>
    <g id="ytick_8">
     <g id="line2d_29">
      <path d="M 49.004688 69.668728 
L 500.784687 69.668728 
" clip-path="url(#pb723f5fea0)" style="fill: none; stroke: #b0b0b0; stroke-width: 0.8; stroke-linecap: square"/>
     </g>
     <g id="line2d_30">
      <g>
       <use xlink:href="#m78e19c0364" x="49.004688" y="69.668728" style="stroke: #000000; stroke-width: 0.8"/>
      </g>
     </g>
     <g id="text_16">
      <!-- 4 -->
      <g transform="translate(35.642188 73.467946) scale(0.1 -0.1)">
       <use xlink:href="#DejaVuSans-34"/>
      </g>
     </g>
    </g>
    <g id="ytick_9">
     <g id="line2d_31">
      <path d="M 49.004688 43.210193 
L 500.784687 43.210193 
" clip-path="url(#pb723f5fea0)" style="fill: none; stroke: #b0b0b0; stroke-width: 0.8; stroke-linecap: square"/>
     </g>
     <g id="line2d_32">
      <g>
       <use xlink:href="#m78e19c0364" x="49.004688" y="43.210193" style="stroke: #000000; stroke-width: 0.8"/>
      </g>
     </g>
     <g id="text_17">
      <!-- 6 -->
      <g transform="translate(35.642188 47.009412) scale(0.1 -0.1)">
       <use xlink:href="#DejaVuSans-36"/>
      </g>
     </g>
    </g>
    <g id="text_18">
     <!-- $e_\theta$ [deg] -->
     <g transform="translate(14.8 159.6025) rotate(-90) scale(0.1 -0.1)">
      <defs>
       <path id="DejaVuSans-Oblique-65" d="M 3078 2063 
Q 3088 2113 3092 2166 
Q 3097 2219 3097 2272 
Q 3097 2653 2873 2875 
Q 2650 3097 2266 3097 
Q 1838 3097 1509 2826 
Q 1181 2556 1013 2059 
L 3078 2063 
z
M 3578 1613 
L 903 1613 
Q 884 1494 878 1425 
Q 872 1356 872 1306 
Q 872 872 1139 634 
Q 1406 397 1894 397 
Q 2269 397 2603 481 
Q 2938 566 3225 728 
L 3116 159 
Q 2806 34 2476 -28 
Q 2147 -91 1806 -91 
Q 1078 -91 686 257 
Q 294 606 294 1247 
Q 294 1794 489 2264 
Q 684 2734 1063 3103 
Q 1306 3334 1642 3459 
Q 1978 3584 2356 3584 
Q 2950 3584 3301 3228 
Q 3653 2872 3653 2272 
Q 3653 2128 3634 1964 
Q 3616 1800 3578 1613 
z
" transform="scale(0.015625)"/>
       <path id="DejaVuSans-Oblique-3b8" d="M 2913 2219 
L 925 2219 
Q 791 1284 928 888 
Q 1100 400 1566 400 
Q 2034 400 2391 891 
Q 2703 1322 2913 2219 
z
M 3009 2750 
Q 3094 3638 2984 3950 
Q 2813 4444 2353 4444 
Q 1875 4444 1525 3956 
Q 1250 3563 1034 2750 
L 3009 2750 
z
M 2444 4913 
Q 3194 4913 3494 4250 
Q 3794 3591 3566 2422 
Q 3341 1256 2781 594 
Q 2225 -72 1475 -72 
Q 722 -72 425 594 
Q 128 1256 353 2422 
Q 581 3591 1134 4250 
Q 1691 4913 2444 4913 
z
" transform="scale(0.015625)"/>
       <path id="DejaVuSans-64" d="M 2906 2969 
L 2906 4863 
L 3481 4863 
L 3481 0 
L 2906 0 
L 2906 525 
Q 2725 213 2448 61 
Q 2172 -91 1784 -91 
Q 1150 -91 751 415 
Q 353 922 353 1747 
Q 353 2572 751 3078 
Q 1150 3584 1784 3584 
Q 2172 3584 2448 3432 
Q 2725 3281 2906 2969 
z
M 947 1747 
Q 947 1113 1208 752 
Q 1469 391 1925 391 
Q 2381 391 2643 752 
Q 2906 1113 2906 1747 
Q 2906 2381 2643 2742 
Q 2381 3103 1925 3103 
Q 1469 3103 1208 2742 
Q 947 2381 947 1747 
z
" transform="scale(0.015625)"/>
       <path id="DejaVuSans-67" d="M 2906 1791 
Q 2906 2416 2648 2759 
Q 2391 3103 1925 3103 
Q 1463 3103 1205 2759 
Q 947 2416 947 1791 
Q 947 1169 1205 825 
Q 1463 481 1925 481 
Q 2391 481 2648 825 
Q 2906 1169 2906 1791 
z
M 3481 434 
Q 3481 -459 3084 -895 
Q 2688 -1331 1869 -1331 
Q 1566 -1331 1297 -1286 
Q 1028 -1241 775 -1147 
L 775 -588 
Q 1028 -725 1275 -790 
Q 1522 -856 1778 -856 
Q 2344 -856 2625 -561 
Q 2906 -266 2906 331 
L 2906 616 
Q 2728 306 2450 153 
Q 2172 0 1784 0 
Q 1141 0 747 490 
Q 353 981 353 1791 
Q 353 2603 747 3093 
Q 1141 3584 1784 3584 
Q 2172 3584 2450 3431 
Q 2728 3278 2906 2969 
L 2906 3500 
L 3481 3500 
L 3481 434 
z
" transform="scale(0.015625)"/>
      </defs>
      <use xlink:href="#DejaVuSans-Oblique-65" transform="translate(0 0.015625)"/>
      <use xlink:href="#DejaVuSans-Oblique-3b8" transform="translate(61.523438 -16.390625) scale(0.7)"/>
      <use xlink:href="#DejaVuSans-20" transform="translate(107.084961 0.015625)"/>
      <use xlink:href="#DejaVuSans-5b" transform="translate(138.87207 0.015625)"/>
      <use xlink:href="#DejaVuSans-64" transform="translate(177.885742 0.015625)"/>
      <use xlink:href="#DejaVuSans-65" transform="translate(241.362305 0.015625)"/>
      <use xlink:href="#DejaVuSans-67" transform="translate(302.885742 0.015625)"/>
      <use xlink:href="#DejaVuSans-5d" transform="translate(366.362305 0.015625)"/>
     </g>
    </g>
   </g>
   <g id="line2d_33">
    <path d="M 69.540142 122.585796 
L 71.114527 88.013283 
L 71.867494 78.503823 
L 72.552009 72.481613 
L 73.236524 68.360927 
L 73.852587 65.983771 
L 74.331748 64.958045 
L 74.605554 64.735844 
L 74.810909 64.784511 
L 75.016263 65.068015 
L 75.290069 65.95041 
L 75.563875 67.731541 
L 75.837681 71.12514 
L 76.111487 77.770434 
L 76.385294 91.845865 
L 76.590648 113.549197 
L 76.864454 172.252728 
L 77.069809 215.186292 
L 77.13826 212.757437 
L 77.275163 173.837656 
L 77.685872 34.792096 
L 77.754324 33.364724 
L 77.891227 45.201598 
L 78.233484 79.509575 
L 78.301936 80.675439 
L 78.370387 80.2045 
L 78.918 68.705102 
L 79.054903 69.413408 
L 79.39716 71.36642 
L 79.534063 71.349115 
L 80.081675 70.507756 
L 81.1769 70.448224 
L 82.751284 70.366493 
L 84.531024 70.478484 
L 86.17386 70.792052 
L 87.679794 71.306023 
L 88.980372 71.990422 
L 90.075597 72.809978 
L 91.102369 73.866418 
L 91.992239 75.109402 
L 92.813657 76.6631 
L 93.498172 78.419846 
L 94.114236 80.581904 
L 94.661848 83.286684 
L 95.141009 86.746033 
L 95.551718 91.278032 
L 95.893975 97.307695 
L 96.236233 107.934255 
L 96.510039 124.317795 
L 96.783845 158.225885 
L 97.194554 245.466136 
L 97.263006 244.04396 
L 97.399909 208.967119 
L 97.810618 68.757394 
L 97.879069 65.131135 
L 97.947521 67.269403 
L 98.563584 115.650879 
L 98.768939 111.96176 
L 99.042745 108.431968 
L 99.111197 108.629937 
L 99.316551 111.314104 
L 100.206421 130.497838 
L 100.548678 142.920015 
L 100.890936 164.452654 
L 101.507 215.286911 
L 101.575451 214.434704 
L 101.712354 204.652489 
L 102.259966 145.314021 
L 102.328418 144.579756 
L 102.465321 148.823902 
L 102.670675 166.67235 
L 103.218288 229.309066 
L 103.286739 229.227954 
L 103.423642 218.811285 
L 103.971254 157.770607 
L 104.039706 158.393343 
L 104.176609 165.121815 
L 104.861124 214.610625 
L 104.929575 214.059479 
L 105.13493 205.673308 
L 105.477187 190.78853 
L 105.545639 190.180557 
L 105.614091 190.528943 
L 105.819445 196.109698 
L 106.298606 211.130791 
L 106.367057 211.323148 
L 106.50396 210.156189 
L 106.983121 203.806023 
L 107.051572 203.933049 
L 107.256927 205.798178 
L 107.667636 209.695775 
L 107.804539 209.811391 
L 108.009894 209.281892 
L 108.2837 208.783615 
L 108.420603 208.925432 
L 109.036666 210.113731 
L 109.378924 210.076242 
L 109.858084 210.122676 
L 110.268794 210.057845 
L 110.816406 209.688192 
L 111.364018 209.090778 
L 111.980081 208.092918 
L 112.664597 206.573116 
L 113.417563 204.372158 
L 114.307433 201.017612 
L 115.265754 196.448397 
L 116.292527 190.423868 
L 117.456203 182.224544 
L 118.893684 170.4056 
L 123.274581 133.135928 
L 124.712063 123.547642 
L 126.081094 115.861557 
L 127.450124 109.408451 
L 128.750703 104.304978 
L 129.98283 100.333136 
L 131.146506 97.319784 
L 132.173278 95.235421 
L 133.1316 93.759276 
L 134.021469 92.779413 
L 134.842888 92.195431 
L 135.595854 91.918399 
L 136.348821 91.876248 
L 137.101788 92.055933 
L 137.923206 92.488234 
L 138.813075 93.212302 
L 139.839848 94.343857 
L 141.071975 96.061809 
L 142.509457 98.465531 
L 144.4261 102.142108 
L 147.848675 109.303821 
L 151.2028 116.119762 
L 153.393248 120.088637 
L 155.309891 123.117506 
L 157.021178 125.422865 
L 158.595563 127.191885 
L 160.101497 128.5637 
L 161.538978 129.584996 
L 162.97646 130.334929 
L 164.413942 130.828603 
L 165.851424 131.085293 
L 167.357357 131.124594 
L 168.931742 130.945102 
L 170.711481 130.513668 
L 172.765027 129.77881 
L 175.366184 128.598183 
L 180.910757 125.750966 
L 184.538687 124.043477 
L 187.413651 122.929107 
L 190.08326 122.128385 
L 192.684418 121.575721 
L 195.354027 121.233293 
L 198.228991 121.092166 
L 201.446212 121.163218 
L 205.4164 121.485891 
L 212.535357 122.340009 
L 219.380509 123.065723 
L 224.719727 123.40368 
L 230.2643 123.528419 
L 237.177903 123.448219 
L 263.394833 122.934646 
L 282.835063 123.035446 
L 307.54606 123.054579 
L 381.405245 123.032386 
L 480.249233 123.026848 
L 480.249233 123.026848 
" clip-path="url(#pb723f5fea0)" style="fill: none; stroke: #1f77b4; stroke-width: 1.2; stroke-linecap: square"/>
   </g>
   <g id="line2d_34">
    <path d="M 69.540142 122.585796 
L 71.114527 88.013326 
L 71.867494 78.503454 
L 72.552009 72.480404 
L 73.236524 68.358067 
L 73.852587 65.977911 
L 74.331748 64.947396 
L 74.605554 64.720316 
L 74.810909 64.763405 
L 75.016263 65.038608 
L 75.290069 65.902491 
L 75.563875 67.648302 
L 75.837681 70.96852 
L 76.111487 77.444394 
L 76.385294 91.078273 
L 76.590648 111.981695 
L 76.864454 168.790852 
L 77.069809 213.572491 
L 77.13826 213.175167 
L 77.275163 178.120791 
L 77.685872 35.900113 
L 77.754324 33.138864 
L 77.891227 43.368698 
L 78.233484 78.979994 
L 78.301936 80.585663 
L 78.370387 80.450505 
L 78.575742 74.68314 
L 78.849548 68.832705 
L 78.918 68.633286 
L 79.054903 69.228972 
L 79.39716 71.311755 
L 79.534063 71.353729 
L 80.150127 70.476055 
L 80.834642 70.502009 
L 81.65606 70.384915 
L 83.572703 70.362834 
L 85.352442 70.574488 
L 86.926827 70.977039 
L 88.295857 71.546633 
L 89.527984 72.302207 
L 90.623209 73.247424 
L 91.58153 74.379039 
L 92.402948 75.680689 
L 93.155915 77.278825 
L 93.84043 79.258562 
L 94.456494 81.754427 
L 95.004106 84.988591 
L 95.483266 89.340735 
L 95.893975 95.463592 
L 96.236233 104.406615 
L 96.510039 117.457577 
L 96.783845 143.185564 
L 97.057651 195.732481 
L 97.331457 243.153385 
L 97.46836 218.071597 
L 97.947521 66.759049 
L 98.015972 65.888449 
L 98.152875 77.116015 
L 98.563584 115.187385 
L 98.632036 116.182439 
L 98.700487 115.991058 
L 99.179648 108.983863 
L 99.2481 109.292204 
L 99.453454 112.244721 
L 100.274872 131.078808 
L 100.61713 143.586267 
L 100.959387 165.035937 
L 101.575451 213.032061 
L 101.643903 211.819105 
L 101.780806 201.860473 
L 102.328418 145.731748 
L 102.396869 145.19554 
L 102.533772 149.589107 
L 102.807578 175.291076 
L 103.286739 227.680949 
L 103.355191 227.327556 
L 103.492094 216.740121 
L 104.039706 157.252397 
L 104.108157 157.897994 
L 104.24506 164.529822 
L 104.929575 212.932513 
L 104.998027 212.40632 
L 105.203381 204.284228 
L 105.545639 189.712976 
L 105.614091 189.079205 
L 105.682542 189.374711 
L 105.819445 192.347128 
L 106.367057 209.430168 
L 106.435509 209.668155 
L 106.572412 208.627554 
L 107.051572 202.426742 
L 107.120024 202.514277 
L 107.325378 204.245949 
L 107.736087 208.092531 
L 107.872991 208.249279 
L 108.078345 207.76594 
L 108.352151 207.251858 
L 108.489054 207.366785 
L 109.173569 208.543707 
L 110.474148 208.376147 
L 111.090212 207.875468 
L 111.706275 207.063033 
L 112.390791 205.759171 
L 113.143757 203.814227 
L 113.965175 201.048784 
L 114.855045 197.256362 
L 115.881818 191.814196 
L 116.977042 184.752308 
L 118.277621 174.835195 
L 120.262715 157.659002 
L 122.521615 138.574881 
L 124.027548 127.77288 
L 125.396578 119.484408 
L 126.765609 112.495093 
L 128.134639 106.652472 
L 129.435218 102.075464 
L 130.598894 98.741868 
L 131.694118 96.236597 
L 132.720891 94.425695 
L 133.679212 93.188061 
L 134.50063 92.461348 
L 135.322048 92.029646 
L 136.075015 91.880817 
L 136.827981 91.955489 
L 137.6494 92.276003 
L 138.539269 92.883301 
L 139.497591 93.810901 
L 140.661266 95.270733 
L 142.030297 97.37585 
L 143.741584 100.448274 
L 146.274291 105.520428 
L 151.339703 115.744319 
L 153.530151 119.632189 
L 155.446794 122.599939 
L 157.158081 124.859731 
L 158.732466 126.594858 
L 160.2384 127.941594 
L 161.675881 128.945555 
L 163.113363 129.684345 
L 164.550845 130.172678 
L 165.988327 130.429321 
L 167.49426 130.473601 
L 169.137097 130.292132 
L 170.916836 129.868308 
L 173.038833 129.121637 
L 175.708442 127.92972 
L 186.386878 122.898605 
L 189.193391 121.972309 
L 191.863 121.32546 
L 194.532609 120.905709 
L 197.339121 120.689691 
L 200.419439 120.678135 
L 204.047369 120.892931 
L 209.249684 121.448597 
L 219.585863 122.584177 
L 224.993533 122.9218 
L 230.675009 123.04728 
L 237.793966 122.964581 
L 263.326381 122.476739 
L 281.876742 122.569723 
L 306.724642 122.602007 
L 387.771236 122.585619 
L 480.249233 122.585798 
L 480.249233 122.585798 
" clip-path="url(#pb723f5fea0)" style="fill: none; stroke: #ff7f0e; stroke-width: 1.2; stroke-linecap: square"/>
   </g>
   <g id="patch_3">
    <path d="M 49.004688 256.0825 
L 49.004688 22.5225 
" style="fill: none; stroke: #000000; stroke-width: 0.8; stroke-linejoin: miter; stroke-linecap: square"/>
   </g>
   <g id="patch_4">
    <path d="M 500.784687 256.0825 
L 500.784687 22.5225 
" style="fill: none; stroke: #000000; stroke-width: 0.8; stroke-linejoin: miter; stroke-linecap: square"/>
   </g>
   <g id="patch_5">
    <path d="M 49.004688 256.0825 
L 500.784687 256.0825 
" style="fill: none; stroke: #000000; stroke-width: 0.8; stroke-linejoin: miter; stroke-linecap: square"/>
   </g>
   <g id="patch_6">
    <path d="M 49.004688 22.5225 
L 500.784687 22.5225 
" style="fill: none; stroke: #000000; stroke-width: 0.8; stroke-linejoin: miter; stroke-linecap: square"/>
   </g>
   <g id="text_19">
    <!-- Efecto del pequeño residuo de acoplamiento -->
    <g transform="translate(140.567812 16.5225) scale(0.12 -0.12)">
     <defs>
      <path id="DejaVuSans-45" d="M 628 4666 
L 3578 4666 
L 3578 4134 
L 1259 4134 
L 1259 2753 
L 3481 2753 
L 3481 2222 
L 1259 2222 
L 1259 531 
L 3634 531 
L 3634 0 
L 628 0 
L 628 4666 
z
" transform="scale(0.015625)"/>
      <path id="DejaVuSans-66" d="M 2375 4863 
L 2375 4384 
L 1825 4384 
Q 1516 4384 1395 4259 
Q 1275 4134 1275 3809 
L 1275 3500 
L 2222 3500 
L 2222 3053 
L 1275 3053 
L 1275 0 
L 697 0 
L 697 3053 
L 147 3053 
L 147 3500 
L 697 3500 
L 697 3744 
Q 697 4328 969 4595 
Q 1241 4863 1831 4863 
L 2375 4863 
z
" transform="scale(0.015625)"/>
      <path id="DejaVuSans-63" d="M 3122 3366 
L 3122 2828 
Q 2878 2963 2633 3030 
Q 2388 3097 2138 3097 
Q 1578 3097 1268 2742 
Q 959 2388 959 1747 
Q 959 1106 1268 751 
Q 1578 397 2138 397 
Q 2388 397 2633 464 
Q 2878 531 3122 666 
L 3122 134 
Q 2881 22 2623 -34 
Q 2366 -91 2075 -91 
Q 1284 -91 818 406 
Q 353 903 353 1747 
Q 353 2603 823 3093 
Q 1294 3584 2113 3584 
Q 2378 3584 2631 3529 
Q 2884 3475 3122 3366 
z
" transform="scale(0.015625)"/>
      <path id="DejaVuSans-74" d="M 1172 4494 
L 1172 3500 
L 2356 3500 
L 2356 3053 
L 1172 3053 
L 1172 1153 
Q 1172 725 1289 603 
Q 1406 481 1766 481 
L 2356 481 
L 2356 0 
L 1766 0 
Q 1100 0 847 248 
Q 594 497 594 1153 
L 594 3053 
L 172 3053 
L 172 3500 
L 594 3500 
L 594 4494 
L 1172 4494 
z
" transform="scale(0.015625)"/>
      <path id="DejaVuSans-6c" d="M 603 4863 
L 1178 4863 
L 1178 0 
L 603 0 
L 603 4863 
z
" transform="scale(0.015625)"/>
      <path id="DejaVuSans-71" d="M 947 1747 
Q 947 1113 1208 752 
Q 1469 391 1925 391 
Q 2381 391 2643 752 
Q 2906 1113 2906 1747 
Q 2906 2381 2643 2742 
Q 2381 3103 1925 3103 
Q 1469 3103 1208 2742 
Q 947 2381 947 1747 
z
M 2906 525 
Q 2725 213 2448 61 
Q 2172 -91 1784 -91 
Q 1150 -91 751 415 
Q 353 922 353 1747 
Q 353 2572 751 3078 
Q 1150 3584 1784 3584 
Q 2172 3584 2448 3432 
Q 2725 3281 2906 2969 
L 2906 3500 
L 3481 3500 
L 3481 -1331 
L 2906 -1331 
L 2906 525 
z
" transform="scale(0.015625)"/>
      <path id="DejaVuSans-75" d="M 544 1381 
L 544 3500 
L 1119 3500 
L 1119 1403 
Q 1119 906 1312 657 
Q 1506 409 1894 409 
Q 2359 409 2629 706 
Q 2900 1003 2900 1516 
L 2900 3500 
L 3475 3500 
L 3475 0 
L 2900 0 
L 2900 538 
Q 2691 219 2414 64 
Q 2138 -91 1772 -91 
Q 1169 -91 856 284 
Q 544 659 544 1381 
z
M 1991 3584 
L 1991 3584 
z
" transform="scale(0.015625)"/>
      <path id="DejaVuSans-f1" d="M 3513 2113 
L 3513 0 
L 2938 0 
L 2938 2094 
Q 2938 2591 2744 2837 
Q 2550 3084 2163 3084 
Q 1697 3084 1428 2787 
Q 1159 2491 1159 1978 
L 1159 0 
L 581 0 
L 581 3500 
L 1159 3500 
L 1159 2956 
Q 1366 3272 1645 3428 
Q 1925 3584 2291 3584 
Q 2894 3584 3203 3211 
Q 3513 2838 3513 2113 
z
M 2060 4281 
L 1881 4453 
Q 1813 4516 1761 4545 
Q 1710 4575 1669 4575 
Q 1550 4575 1494 4461 
Q 1438 4347 1431 4091 
L 1041 4091 
Q 1047 4513 1206 4742 
Q 1366 4972 1650 4972 
Q 1769 4972 1869 4928 
Q 1969 4884 2085 4781 
L 2263 4609 
Q 2331 4547 2383 4517 
Q 2435 4488 2475 4488 
Q 2594 4488 2650 4602 
Q 2706 4716 2713 4972 
L 3103 4972 
Q 3097 4550 2937 4320 
Q 2778 4091 2494 4091 
Q 2375 4091 2275 4134 
Q 2175 4178 2060 4281 
z
" transform="scale(0.015625)"/>
      <path id="DejaVuSans-72" d="M 2631 2963 
Q 2534 3019 2420 3045 
Q 2306 3072 2169 3072 
Q 1681 3072 1420 2755 
Q 1159 2438 1159 1844 
L 1159 0 
L 581 0 
L 581 3500 
L 1159 3500 
L 1159 2956 
Q 1341 3275 1631 3429 
Q 1922 3584 2338 3584 
Q 2397 3584 2469 3576 
Q 2541 3569 2628 3553 
L 2631 2963 
z
" transform="scale(0.015625)"/>
      <path id="DejaVuSans-61" d="M 2194 1759 
Q 1497 1759 1228 1600 
Q 959 1441 959 1056 
Q 959 750 1161 570 
Q 1363 391 1709 391 
Q 2188 391 2477 730 
Q 2766 1069 2766 1631 
L 2766 1759 
L 2194 1759 
z
M 3341 1997 
L 3341 0 
L 2766 0 
L 2766 531 
Q 2569 213 2275 61 
Q 1981 -91 1556 -91 
Q 1019 -91 701 211 
Q 384 513 384 1019 
Q 384 1609 779 1909 
Q 1175 2209 1959 2209 
L 2766 2209 
L 2766 2266 
Q 2766 2663 2505 2880 
Q 2244 3097 1772 3097 
Q 1472 3097 1187 3025 
Q 903 2953 641 2809 
L 641 3341 
Q 956 3463 1253 3523 
Q 1550 3584 1831 3584 
Q 2591 3584 2966 3190 
Q 3341 2797 3341 1997 
z
" transform="scale(0.015625)"/>
      <path id="DejaVuSans-6e" d="M 3513 2113 
L 3513 0 
L 2938 0 
L 2938 2094 
Q 2938 2591 2744 2837 
Q 2550 3084 2163 3084 
Q 1697 3084 1428 2787 
Q 1159 2491 1159 1978 
L 1159 0 
L 581 0 
L 581 3500 
L 1159 3500 
L 1159 2956 
Q 1366 3272 1645 3428 
Q 1925 3584 2291 3584 
Q 2894 3584 3203 3211 
Q 3513 2838 3513 2113 
z
" transform="scale(0.015625)"/>
     </defs>
     <use xlink:href="#DejaVuSans-45"/>
     <use xlink:href="#DejaVuSans-66" transform="translate(63.183594 0)"/>
     <use xlink:href="#DejaVuSans-65" transform="translate(98.388672 0)"/>
     <use xlink:href="#DejaVuSans-63" transform="translate(159.912109 0)"/>
     <use xlink:href="#DejaVuSans-74" transform="translate(214.892578 0)"/>
     <use xlink:href="#DejaVuSans-6f" transform="translate(254.101562 0)"/>
     <use xlink:href="#DejaVuSans-20" transform="translate(315.283203 0)"/>
     <use xlink:href="#DejaVuSans-64" transform="translate(347.070312 0)"/>
     <use xlink:href="#DejaVuSans-65" transform="translate(410.546875 0)"/>
     <use xlink:href="#DejaVuSans-6c" transform="translate(472.070312 0)"/>
     <use xlink:href="#DejaVuSans-20" transform="translate(499.853516 0)"/>
     <use xlink:href="#DejaVuSans-70" transform="translate(531.640625 0)"/>
     <use xlink:href="#DejaVuSans-65" transform="translate(595.117188 0)"/>
     <use xlink:href="#DejaVuSans-71" transform="translate(656.640625 0)"/>
     <use xlink:href="#DejaVuSans-75" transform="translate(720.117188 0)"/>
     <use xlink:href="#DejaVuSans-65" transform="translate(783.496094 0)"/>
     <use xlink:href="#DejaVuSans-f1" transform="translate(845.019531 0)"/>
     <use xlink:href="#DejaVuSans-6f" transform="translate(908.398438 0)"/>
     <use xlink:href="#DejaVuSans-20" transform="translate(969.580078 0)"/>
     <use xlink:href="#DejaVuSans-72" transform="translate(1001.367188 0)"/>
     <use xlink:href="#DejaVuSans-65" transform="translate(1040.230469 0)"/>
     <use xlink:href="#DejaVuSans-73" transform="translate(1101.753906 0)"/>
     <use xlink:href="#DejaVuSans-69" transform="translate(1153.853516 0)"/>
     <use xlink:href="#DejaVuSans-64" transform="translate(1181.636719 0)"/>
     <use xlink:href="#DejaVuSans-75" transform="translate(1245.113281 0)"/>
     <use xlink:href="#DejaVuSans-6f" transform="translate(1308.492188 0)"/>
     <use xlink:href="#DejaVuSans-20" transform="translate(1369.673828 0)"/>
     <use xlink:href="#DejaVuSans-64" transform="translate(1401.460938 0)"/>
     <use xlink:href="#DejaVuSans-65" transform="translate(1464.9375 0)"/>
     <use xlink:href="#DejaVuSans-20" transform="translate(1526.460938 0)"/>
     <use xlink:href="#DejaVuSans-61" transform="translate(1558.248047 0)"/>
     <use xlink:href="#DejaVuSans-63" transform="translate(1619.527344 0)"/>
     <use xlink:href="#DejaVuSans-6f" transform="translate(1674.507812 0)"/>
     <use xlink:href="#DejaVuSans-70" transform="translate(1735.689453 0)"/>
     <use xlink:href="#DejaVuSans-6c" transform="translate(1799.166016 0)"/>
     <use xlink:href="#DejaVuSans-61" transform="translate(1826.949219 0)"/>
     <use xlink:href="#DejaVuSans-6d" transform="translate(1888.228516 0)"/>
     <use xlink:href="#DejaVuSans-69" transform="translate(1985.640625 0)"/>
     <use xlink:href="#DejaVuSans-65" transform="translate(2013.423828 0)"/>
     <use xlink:href="#DejaVuSans-6e" transform="translate(2074.947266 0)"/>
     <use xlink:href="#DejaVuSans-74" transform="translate(2138.326172 0)"/>
     <use xlink:href="#DejaVuSans-6f" transform="translate(2177.535156 0)"/>
    </g>
   </g>
   <g id="legend_1">
    <g id="patch_7">
     <path d="M 329.281562 59.87875 
L 493.784687 59.87875 
Q 495.784687 59.87875 495.784687 57.87875 
L 495.784687 29.5225 
Q 495.784687 27.5225 493.784687 27.5225 
L 329.281562 27.5225 
Q 327.281562 27.5225 327.281562 29.5225 
L 327.281562 57.87875 
Q 327.281562 59.87875 329.281562 59.87875 
z
" style="fill: #ffffff; opacity: 0.8; stroke: #cccccc; stroke-linejoin: miter"/>
    </g>
    <g id="line2d_35">
     <path d="M 331.281562 35.620937 
L 341.281562 35.620937 
L 351.281562 35.620937 
" style="fill: none; stroke: #1f77b4; stroke-width: 1.2; stroke-linecap: square"/>
    </g>
    <g id="text_20">
     <!-- Matrices impresas -->
     <g transform="translate(359.281562 39.120937) scale(0.1 -0.1)">
      <defs>
       <path id="DejaVuSans-4d" d="M 628 4666 
L 1569 4666 
L 2759 1491 
L 3956 4666 
L 4897 4666 
L 4897 0 
L 4281 0 
L 4281 4097 
L 3078 897 
L 2444 897 
L 1241 4097 
L 1241 0 
L 628 0 
L 628 4666 
z
" transform="scale(0.015625)"/>
      </defs>
      <use xlink:href="#DejaVuSans-4d"/>
      <use xlink:href="#DejaVuSans-61" transform="translate(86.279297 0)"/>
      <use xlink:href="#DejaVuSans-74" transform="translate(147.558594 0)"/>
      <use xlink:href="#DejaVuSans-72" transform="translate(186.767578 0)"/>
      <use xlink:href="#DejaVuSans-69" transform="translate(227.880859 0)"/>
      <use xlink:href="#DejaVuSans-63" transform="translate(255.664062 0)"/>
      <use xlink:href="#DejaVuSans-65" transform="translate(310.644531 0)"/>
      <use xlink:href="#DejaVuSans-73" transform="translate(372.167969 0)"/>
      <use xlink:href="#DejaVuSans-20" transform="translate(424.267578 0)"/>
      <use xlink:href="#DejaVuSans-69" transform="translate(456.054688 0)"/>
      <use xlink:href="#DejaVuSans-6d" transform="translate(483.837891 0)"/>
      <use xlink:href="#DejaVuSans-70" transform="translate(581.25 0)"/>
      <use xlink:href="#DejaVuSans-72" transform="translate(644.726562 0)"/>
      <use xlink:href="#DejaVuSans-65" transform="translate(683.589844 0)"/>
      <use xlink:href="#DejaVuSans-73" transform="translate(745.113281 0)"/>
      <use xlink:href="#DejaVuSans-61" transform="translate(797.212891 0)"/>
      <use xlink:href="#DejaVuSans-73" transform="translate(858.492188 0)"/>
     </g>
    </g>
    <g id="line2d_36">
     <path d="M 331.281562 50.299062 
L 341.281562 50.299062 
L 351.281562 50.299062 
" style="fill: none; stroke: #ff7f0e; stroke-width: 1.2; stroke-linecap: square"/>
    </g>
    <g id="text_21">
     <!-- Modelo proyectado exacto -->
     <g transform="translate(359.281562 53.799062) scale(0.1 -0.1)">
      <defs>
       <path id="DejaVuSans-79" d="M 2059 -325 
Q 1816 -950 1584 -1140 
Q 1353 -1331 966 -1331 
L 506 -1331 
L 506 -850 
L 844 -850 
Q 1081 -850 1212 -737 
Q 1344 -625 1503 -206 
L 1606 56 
L 191 3500 
L 800 3500 
L 1894 763 
L 2988 3500 
L 3597 3500 
L 2059 -325 
z
" transform="scale(0.015625)"/>
       <path id="DejaVuSans-78" d="M 3513 3500 
L 2247 1797 
L 3578 0 
L 2900 0 
L 1881 1375 
L 863 0 
L 184 0 
L 1544 1831 
L 300 3500 
L 978 3500 
L 1906 2253 
L 2834 3500 
L 3513 3500 
z
" transform="scale(0.015625)"/>
      </defs>
      <use xlink:href="#DejaVuSans-4d"/>
      <use xlink:href="#DejaVuSans-6f" transform="translate(86.279297 0)"/>
      <use xlink:href="#DejaVuSans-64" transform="translate(147.460938 0)"/>
      <use xlink:href="#DejaVuSans-65" transform="translate(210.9375 0)"/>
      <use xlink:href="#DejaVuSans-6c" transform="translate(272.460938 0)"/>
      <use xlink:href="#DejaVuSans-6f" transform="translate(300.244141 0)"/>
      <use xlink:href="#DejaVuSans-20" transform="translate(361.425781 0)"/>
      <use xlink:href="#DejaVuSans-70" transform="translate(393.212891 0)"/>
      <use xlink:href="#DejaVuSans-72" transform="translate(456.689453 0)"/>
      <use xlink:href="#DejaVuSans-6f" transform="translate(495.552734 0)"/>
      <use xlink:href="#DejaVuSans-79" transform="translate(556.734375 0)"/>
      <use xlink:href="#DejaVuSans-65" transform="translate(615.914062 0)"/>
      <use xlink:href="#DejaVuSans-63" transform="translate(677.4375 0)"/>
      <use xlink:href="#DejaVuSans-74" transform="translate(732.417969 0)"/>
      <use xlink:href="#DejaVuSans-61" transform="translate(771.626953 0)"/>
      <use xlink:href="#DejaVuSans-64" transform="translate(832.90625 0)"/>
      <use xlink:href="#DejaVuSans-6f" transform="translate(896.382812 0)"/>
      <use xlink:href="#DejaVuSans-20" transform="translate(957.564453 0)"/>
      <use xlink:href="#DejaVuSans-65" transform="translate(989.351562 0)"/>
      <use xlink:href="#DejaVuSans-78" transform="translate(1049.125 0)"/>
      <use xlink:href="#DejaVuSans-61" transform="translate(1108.304688 0)"/>
      <use xlink:href="#DejaVuSans-63" transform="translate(1169.583984 0)"/>
      <use xlink:href="#DejaVuSans-74" transform="translate(1224.564453 0)"/>
      <use xlink:href="#DejaVuSans-6f" transform="translate(1263.773438 0)"/>
     </g>
    </g>
   </g>
  </g>
 </g>
 <defs>
  <clipPath id="pb723f5fea0">
   <rect x="49.004688" y="22.5225" width="451.78" height="233.56"/>
  </clipPath>
 </defs>
</svg>
