<?xml version="1.0" encoding="utf-8" standalone="no"?>
<!DOCTYPE svg PUBLIC "-//W3C//DTD SVG 1.1//EN"
  "http://www.w3.org/Graphics/SVG/1.1/DTD/svg11.dtd">
<svg xmlns:xlink="http://www.w3.org/1999/xlink" width="509.052312pt" height="291.75625pt" viewBox="0 0 509.052312 291.75625" xmlns="http://www.w3.org/2000/svg" version="1.1">
 <metadata>
  <rdf:RDF xmlns:dc="http://purl.org/dc/elements/1.1/" xmlns:cc="http://creativecommons.org/ns#" xmlns:rdf="http://www.w3.org/1999/02/22-rdf-syntax-ns#">
   <cc:Work>
    <dc:type rdf:resource="http://purl.org/dc/dcmitype/StillImage"/>
    <dc:date>2026-07-18T15:47:06.860970</dc:date>
    <dc:format>image/svg+xml</dc:format>
    <dc:creator>
     <cc:Agent>
      <dc:title>Matplotlib v3.10.8, https://matplotlib.org/</dc:title>
     </cc:Agent>
    </dc:creator>
   </cc:Work>
  </rdf:RDF>
 </metadata>
 <defs>
  <style type="text/css">*{stroke-linejoin: round; stroke-linecap: butt}</style>
 </defs>
 <g id="figure_1">
  <g id="patch_1">
   <path d="M 0 291.75625 
L 509.052312 291.75625 
L 509.052312 0 
L 0 0 
z
" style="fill: #ffffff"/>
  </g>
  <g id="axes_1">
   <g id="patch_2">
    <path d="M 42.620313 254.2 
L 501.852312 254.2 
L 501.852312 22.8 
L 42.620313 22.8 
z
" style="fill: #ffffff"/>
   </g>
   <g id="matplotlib.axis_1">
    <g id="xtick_1">
     <g id="line2d_1">
      <path d="M 63.494494 254.2 
L 63.494494 22.8 
" clip-path="url(#p66121bf32b)" style="fill: none; stroke: #b0b0b0; stroke-width: 0.8; stroke-linecap: square"/>
     </g>
     <g id="line2d_2">
      <defs>
       <path id="m3940ad7c11" d="M 0 0 
L 0 3.5 
" style="stroke: #000000; stroke-width: 0.8"/>
      </defs>
      <g>
       <use xlink:href="#m3940ad7c11" x="63.494494" y="254.2" style="stroke: #000000; stroke-width: 0.8"/>
      </g>
     </g>
     <g id="text_1">
      <!-- 0 -->
      <g transform="translate(60.313244 268.798437) scale(0.1 -0.1)">
       <defs>
        <path id="DejaVuSans-30" d="M 2034 4250 
Q 1547 4250 1301 3770 
Q 1056 3291 1056 2328 
Q 1056 1369 1301 889 
Q 1547 409 2034 409 
Q 2525 409 2770 889 
Q 3016 1369 3016 2328 
Q 3016 3291 2770 3770 
Q 2525 4250 2034 4250 
z
M 2034 4750 
Q 2819 4750 3233 4129 
Q 3647 3509 3647 2328 
Q 3647 1150 3233 529 
Q 2819 -91 2034 -91 
Q 1250 -91 836 529 
Q 422 1150 422 2328 
Q 422 3509 836 4129 
Q 1250 4750 2034 4750 
z
" transform="scale(0.015625)"/>
       </defs>
       <use xlink:href="#DejaVuSans-30"/>
      </g>
     </g>
    </g>
    <g id="xtick_2">
     <g id="line2d_3">
      <path d="M 133.0751 254.2 
L 133.0751 22.8 
" clip-path="url(#p66121bf32b)" style="fill: none; stroke: #b0b0b0; stroke-width: 0.8; stroke-linecap: square"/>
     </g>
     <g id="line2d_4">
      <g>
       <use xlink:href="#m3940ad7c11" x="133.0751" y="254.2" style="stroke: #000000; stroke-width: 0.8"/>
      </g>
     </g>
     <g id="text_2">
      <!-- 10 -->
      <g transform="translate(126.7126 268.798437) scale(0.1 -0.1)">
       <defs>
        <path id="DejaVuSans-31" d="M 794 531 
L 1825 531 
L 1825 4091 
L 703 3866 
L 703 4441 
L 1819 4666 
L 2450 4666 
L 2450 531 
L 3481 531 
L 3481 0 
L 794 0 
L 794 531 
z
" transform="scale(0.015625)"/>
       </defs>
       <use xlink:href="#DejaVuSans-31"/>
       <use xlink:href="#DejaVuSans-30" transform="translate(63.623047 0)"/>
      </g>
     </g>
    </g>
    <g id="xtick_3">
     <g id="line2d_5">
      <path d="M 202.655706 254.2 
L 202.655706 22.8 
" clip-path="url(#p66121bf32b)" style="fill: none; stroke: #b0b0b0; stroke-width: 0.8; stroke-linecap: square"/>
     </g>
     <g id="line2d_6">
      <g>
       <use xlink:href="#m3940ad7c11" x="202.655706" y="254.2" style="stroke: #000000; stroke-width: 0.8"/>
      </g>
     </g>
     <g id="text_3">
      <!-- 20 -->
      <g transform="translate(196.293206 268.798437) scale(0.1 -0.1)">
       <defs>
        <path id="DejaVuSans-32" d="M 1228 531 
L 3431 531 
L 3431 0 
L 469 0 
L 469 531 
Q 828 903 1448 1529 
Q 2069 2156 2228 2338 
Q 2531 2678 2651 2914 
Q 2772 3150 2772 3378 
Q 2772 3750 2511 3984 
Q 2250 4219 1831 4219 
Q 1534 4219 1204 4116 
Q 875 4013 500 3803 
L 500 4441 
Q 881 4594 1212 4672 
Q 1544 4750 1819 4750 
Q 2544 4750 2975 4387 
Q 3406 4025 3406 3419 
Q 3406 3131 3298 2873 
Q 3191 2616 2906 2266 
Q 2828 2175 2409 1742 
Q 1991 1309 1228 531 
z
" transform="scale(0.015625)"/>
       </defs>
       <use xlink:href="#DejaVuSans-32"/>
       <use xlink:href="#DejaVuSans-30" transform="translate(63.623047 0)"/>
      </g>
     </g>
    </g>
    <g id="xtick_4">
     <g id="line2d_7">
      <path d="M 272.236312 254.2 
L 272.236312 22.8 
" clip-path="url(#p66121bf32b)" style="fill: none; stroke: #b0b0b0; stroke-width: 0.8; stroke-linecap: square"/>
     </g>
     <g id="line2d_8">
      <g>
       <use xlink:href="#m3940ad7c11" x="272.236312" y="254.2" style="stroke: #000000; stroke-width: 0.8"/>
      </g>
     </g>
     <g id="text_4">
      <!-- 30 -->
      <g transform="translate(265.873812 268.798437) scale(0.1 -0.1)">
       <defs>
        <path id="DejaVuSans-33" d="M 2597 2516 
Q 3050 2419 3304 2112 
Q 3559 1806 3559 1356 
Q 3559 666 3084 287 
Q 2609 -91 1734 -91 
Q 1441 -91 1130 -33 
Q 819 25 488 141 
L 488 750 
Q 750 597 1062 519 
Q 1375 441 1716 441 
Q 2309 441 2620 675 
Q 2931 909 2931 1356 
Q 2931 1769 2642 2001 
Q 2353 2234 1838 2234 
L 1294 2234 
L 1294 2753 
L 1863 2753 
Q 2328 2753 2575 2939 
Q 2822 3125 2822 3475 
Q 2822 3834 2567 4026 
Q 2313 4219 1838 4219 
Q 1578 4219 1281 4162 
Q 984 4106 628 3988 
L 628 4550 
Q 988 4650 1302 4700 
Q 1616 4750 1894 4750 
Q 2613 4750 3031 4423 
Q 3450 4097 3450 3541 
Q 3450 3153 3228 2886 
Q 3006 2619 2597 2516 
z
" transform="scale(0.015625)"/>
       </defs>
       <use xlink:href="#DejaVuSans-33"/>
       <use xlink:href="#DejaVuSans-30" transform="translate(63.623047 0)"/>
      </g>
     </g>
    </g>
    <g id="xtick_5">
     <g id="line2d_9">
      <path d="M 341.816919 254.2 
L 341.816919 22.8 
" clip-path="url(#p66121bf32b)" style="fill: none; stroke: #b0b0b0; stroke-width: 0.8; stroke-linecap: square"/>
     </g>
     <g id="line2d_10">
      <g>
       <use xlink:href="#m3940ad7c11" x="341.816919" y="254.2" style="stroke: #000000; stroke-width: 0.8"/>
      </g>
     </g>
     <g id="text_5">
      <!-- 40 -->
      <g transform="translate(335.454419 268.798437) scale(0.1 -0.1)">
       <defs>
        <path id="DejaVuSans-34" d="M 2419 4116 
L 825 1625 
L 2419 1625 
L 2419 4116 
z
M 2253 4666 
L 3047 4666 
L 3047 1625 
L 3713 1625 
L 3713 1100 
L 3047 1100 
L 3047 0 
L 2419 0 
L 2419 1100 
L 313 1100 
L 313 1709 
L 2253 4666 
z
" transform="scale(0.015625)"/>
       </defs>
       <use xlink:href="#DejaVuSans-34"/>
       <use xlink:href="#DejaVuSans-30" transform="translate(63.623047 0)"/>
      </g>
     </g>
    </g>
    <g id="xtick_6">
     <g id="line2d_11">
      <path d="M 411.397525 254.2 
L 411.397525 22.8 
" clip-path="url(#p66121bf32b)" style="fill: none; stroke: #b0b0b0; stroke-width: 0.8; stroke-linecap: square"/>
     </g>
     <g id="line2d_12">
      <g>
       <use xlink:href="#m3940ad7c11" x="411.397525" y="254.2" style="stroke: #000000; stroke-width: 0.8"/>
      </g>
     </g>
     <g id="text_6">
      <!-- 50 -->
      <g transform="translate(405.035025 268.798437) scale(0.1 -0.1)">
       <defs>
        <path id="DejaVuSans-35" d="M 691 4666 
L 3169 4666 
L 3169 4134 
L 1269 4134 
L 1269 2991 
Q 1406 3038 1543 3061 
Q 1681 3084 1819 3084 
Q 2600 3084 3056 2656 
Q 3513 2228 3513 1497 
Q 3513 744 3044 326 
Q 2575 -91 1722 -91 
Q 1428 -91 1123 -41 
Q 819 9 494 109 
L 494 744 
Q 775 591 1075 516 
Q 1375 441 1709 441 
Q 2250 441 2565 725 
Q 2881 1009 2881 1497 
Q 2881 1984 2565 2268 
Q 2250 2553 1709 2553 
Q 1456 2553 1204 2497 
Q 953 2441 691 2322 
L 691 4666 
z
" transform="scale(0.015625)"/>
       </defs>
       <use xlink:href="#DejaVuSans-35"/>
       <use xlink:href="#DejaVuSans-30" transform="translate(63.623047 0)"/>
      </g>
     </g>
    </g>
    <g id="xtick_7">
     <g id="line2d_13">
      <path d="M 480.978131 254.2 
L 480.978131 22.8 
" clip-path="url(#p66121bf32b)" style="fill: none; stroke: #b0b0b0; stroke-width: 0.8; stroke-linecap: square"/>
     </g>
     <g id="line2d_14">
      <g>
       <use xlink:href="#m3940ad7c11" x="480.978131" y="254.2" style="stroke: #000000; stroke-width: 0.8"/>
      </g>
     </g>
     <g id="text_7">
      <!-- 60 -->
      <g transform="translate(474.615631 268.798437) scale(0.1 -0.1)">
       <defs>
        <path id="DejaVuSans-36" d="M 2113 2584 
Q 1688 2584 1439 2293 
Q 1191 2003 1191 1497 
Q 1191 994 1439 701 
Q 1688 409 2113 409 
Q 2538 409 2786 701 
Q 3034 994 3034 1497 
Q 3034 2003 2786 2293 
Q 2538 2584 2113 2584 
z
M 3366 4563 
L 3366 3988 
Q 3128 4100 2886 4159 
Q 2644 4219 2406 4219 
Q 1781 4219 1451 3797 
Q 1122 3375 1075 2522 
Q 1259 2794 1537 2939 
Q 1816 3084 2150 3084 
Q 2853 3084 3261 2657 
Q 3669 2231 3669 1497 
Q 3669 778 3244 343 
Q 2819 -91 2113 -91 
Q 1303 -91 875 529 
Q 447 1150 447 2328 
Q 447 3434 972 4092 
Q 1497 4750 2381 4750 
Q 2619 4750 2861 4703 
Q 3103 4656 3366 4563 
z
" transform="scale(0.015625)"/>
       </defs>
       <use xlink:href="#DejaVuSans-36"/>
       <use xlink:href="#DejaVuSans-30" transform="translate(63.623047 0)"/>
      </g>
     </g>
    </g>
    <g id="text_8">
     <!-- Tiempo [s] -->
     <g transform="translate(245.673812 282.476562) scale(0.1 -0.1)">
      <defs>
       <path id="DejaVuSans-54" d="M -19 4666 
L 3928 4666 
L 3928 4134 
L 2272 4134 
L 2272 0 
L 1638 0 
L 1638 4134 
L -19 4134 
L -19 4666 
z
" transform="scale(0.015625)"/>
       <path id="DejaVuSans-69" d="M 603 3500 
L 1178 3500 
L 1178 0 
L 603 0 
L 603 3500 
z
M 603 4863 
L 1178 4863 
L 1178 4134 
L 603 4134 
L 603 4863 
z
" transform="scale(0.015625)"/>
       <path id="DejaVuSans-65" d="M 3597 1894 
L 3597 1613 
L 953 1613 
Q 991 1019 1311 708 
Q 1631 397 2203 397 
Q 2534 397 2845 478 
Q 3156 559 3463 722 
L 3463 178 
Q 3153 47 2828 -22 
Q 2503 -91 2169 -91 
Q 1331 -91 842 396 
Q 353 884 353 1716 
Q 353 2575 817 3079 
Q 1281 3584 2069 3584 
Q 2775 3584 3186 3129 
Q 3597 2675 3597 1894 
z
M 3022 2063 
Q 3016 2534 2758 2815 
Q 2500 3097 2075 3097 
Q 1594 3097 1305 2825 
Q 1016 2553 972 2059 
L 3022 2063 
z
" transform="scale(0.015625)"/>
       <path id="DejaVuSans-6d" d="M 3328 2828 
Q 3544 3216 3844 3400 
Q 4144 3584 4550 3584 
Q 5097 3584 5394 3201 
Q 5691 2819 5691 2113 
L 5691 0 
L 5113 0 
L 5113 2094 
Q 5113 2597 4934 2840 
Q 4756 3084 4391 3084 
Q 3944 3084 3684 2787 
Q 3425 2491 3425 1978 
L 3425 0 
L 2847 0 
L 2847 2094 
Q 2847 2600 2669 2842 
Q 2491 3084 2119 3084 
Q 1678 3084 1418 2786 
Q 1159 2488 1159 1978 
L 1159 0 
L 581 0 
L 581 3500 
L 1159 3500 
L 1159 2956 
Q 1356 3278 1631 3431 
Q 1906 3584 2284 3584 
Q 2666 3584 2933 3390 
Q 3200 3197 3328 2828 
z
" transform="scale(0.015625)"/>
       <path id="DejaVuSans-70" d="M 1159 525 
L 1159 -1331 
L 581 -1331 
L 581 3500 
L 1159 3500 
L 1159 2969 
Q 1341 3281 1617 3432 
Q 1894 3584 2278 3584 
Q 2916 3584 3314 3078 
Q 3713 2572 3713 1747 
Q 3713 922 3314 415 
Q 2916 -91 2278 -91 
Q 1894 -91 1617 61 
Q 1341 213 1159 525 
z
M 3116 1747 
Q 3116 2381 2855 2742 
Q 2594 3103 2138 3103 
Q 1681 3103 1420 2742 
Q 1159 2381 1159 1747 
Q 1159 1113 1420 752 
Q 1681 391 2138 391 
Q 2594 391 2855 752 
Q 3116 1113 3116 1747 
z
" transform="scale(0.015625)"/>
       <path id="DejaVuSans-6f" d="M 1959 3097 
Q 1497 3097 1228 2736 
Q 959 2375 959 1747 
Q 959 1119 1226 758 
Q 1494 397 1959 397 
Q 2419 397 2687 759 
Q 2956 1122 2956 1747 
Q 2956 2369 2687 2733 
Q 2419 3097 1959 3097 
z
M 1959 3584 
Q 2709 3584 3137 3096 
Q 3566 2609 3566 1747 
Q 3566 888 3137 398 
Q 2709 -91 1959 -91 
Q 1206 -91 779 398 
Q 353 888 353 1747 
Q 353 2609 779 3096 
Q 1206 3584 1959 3584 
z
" transform="scale(0.015625)"/>
       <path id="DejaVuSans-20" transform="scale(0.015625)"/>
       <path id="DejaVuSans-5b" d="M 550 4863 
L 1875 4863 
L 1875 4416 
L 1125 4416 
L 1125 -397 
L 1875 -397 
L 1875 -844 
L 550 -844 
L 550 4863 
z
" transform="scale(0.015625)"/>
       <path id="DejaVuSans-73" d="M 2834 3397 
L 2834 2853 
Q 2591 2978 2328 3040 
Q 2066 3103 1784 3103 
Q 1356 3103 1142 2972 
Q 928 2841 928 2578 
Q 928 2378 1081 2264 
Q 1234 2150 1697 2047 
L 1894 2003 
Q 2506 1872 2764 1633 
Q 3022 1394 3022 966 
Q 3022 478 2636 193 
Q 2250 -91 1575 -91 
Q 1294 -91 989 -36 
Q 684 19 347 128 
L 347 722 
Q 666 556 975 473 
Q 1284 391 1588 391 
Q 1994 391 2212 530 
Q 2431 669 2431 922 
Q 2431 1156 2273 1281 
Q 2116 1406 1581 1522 
L 1381 1569 
Q 847 1681 609 1914 
Q 372 2147 372 2553 
Q 372 3047 722 3315 
Q 1072 3584 1716 3584 
Q 2034 3584 2315 3537 
Q 2597 3491 2834 3397 
z
" transform="scale(0.015625)"/>
       <path id="DejaVuSans-5d" d="M 1947 4863 
L 1947 -844 
L 622 -844 
L 622 -397 
L 1369 -397 
L 1369 4416 
L 622 4416 
L 622 4863 
L 1947 4863 
z
" transform="scale(0.015625)"/>
      </defs>
      <use xlink:href="#DejaVuSans-54"/>
      <use xlink:href="#DejaVuSans-69" transform="translate(57.958984 0)"/>
      <use xlink:href="#DejaVuSans-65" transform="translate(85.742188 0)"/>
      <use xlink:href="#DejaVuSans-6d" transform="translate(147.265625 0)"/>
      <use xlink:href="#DejaVuSans-70" transform="translate(244.677734 0)"/>
      <use xlink:href="#DejaVuSans-6f" transform="translate(308.154297 0)"/>
      <use xlink:href="#DejaVuSans-20" transform="translate(369.335938 0)"/>
      <use xlink:href="#DejaVuSans-5b" transform="translate(401.123047 0)"/>
      <use xlink:href="#DejaVuSans-73" transform="translate(440.136719 0)"/>
      <use xlink:href="#DejaVuSans-5d" transform="translate(492.236328 0)"/>
     </g>
    </g>
   </g>
   <g id="matplotlib.axis_2">
    <g id="ytick_1">
     <g id="line2d_15">
      <path d="M 42.620313 241.45569 
L 501.852312 241.45569 
" clip-path="url(#p66121bf32b)" style="fill: none; stroke: #b0b0b0; stroke-width: 0.8; stroke-linecap: square"/>
     </g>
     <g id="line2d_16">
      <defs>
       <path id="m25b68cccb5" d="M 0 0 
L -3.5 0 
" style="stroke: #000000; stroke-width: 0.8"/>
      </defs>
      <g>
       <use xlink:href="#m25b68cccb5" x="42.620313" y="241.45569" style="stroke: #000000; stroke-width: 0.8"/>
      </g>
     </g>
     <g id="text_9">
      <!-- −8 -->
      <g transform="translate(20.878125 245.254909) scale(0.1 -0.1)">
       <defs>
        <path id="DejaVuSans-2212" d="M 678 2272 
L 4684 2272 
L 4684 1741 
L 678 1741 
L 678 2272 
z
" transform="scale(0.015625)"/>
        <path id="DejaVuSans-38" d="M 2034 2216 
Q 1584 2216 1326 1975 
Q 1069 1734 1069 1313 
Q 1069 891 1326 650 
Q 1584 409 2034 409 
Q 2484 409 2743 651 
Q 3003 894 3003 1313 
Q 3003 1734 2745 1975 
Q 2488 2216 2034 2216 
z
M 1403 2484 
Q 997 2584 770 2862 
Q 544 3141 544 3541 
Q 544 4100 942 4425 
Q 1341 4750 2034 4750 
Q 2731 4750 3128 4425 
Q 3525 4100 3525 3541 
Q 3525 3141 3298 2862 
Q 3072 2584 2669 2484 
Q 3125 2378 3379 2068 
Q 3634 1759 3634 1313 
Q 3634 634 3220 271 
Q 2806 -91 2034 -91 
Q 1263 -91 848 271 
Q 434 634 434 1313 
Q 434 1759 690 2068 
Q 947 2378 1403 2484 
z
M 1172 3481 
Q 1172 3119 1398 2916 
Q 1625 2713 2034 2713 
Q 2441 2713 2670 2916 
Q 2900 3119 2900 3481 
Q 2900 3844 2670 4047 
Q 2441 4250 2034 4250 
Q 1625 4250 1398 4047 
Q 1172 3844 1172 3481 
z
" transform="scale(0.015625)"/>
       </defs>
       <use xlink:href="#DejaVuSans-2212"/>
       <use xlink:href="#DejaVuSans-38" transform="translate(83.789062 0)"/>
      </g>
     </g>
    </g>
    <g id="ytick_2">
     <g id="line2d_17">
      <path d="M 42.620313 212.535215 
L 501.852312 212.535215 
" clip-path="url(#p66121bf32b)" style="fill: none; stroke: #b0b0b0; stroke-width: 0.8; stroke-linecap: square"/>
     </g>
     <g id="line2d_18">
      <g>
       <use xlink:href="#m25b68cccb5" x="42.620313" y="212.535215" style="stroke: #000000; stroke-width: 0.8"/>
      </g>
     </g>
     <g id="text_10">
      <!-- −6 -->
      <g transform="translate(20.878125 216.334433) scale(0.1 -0.1)">
       <use xlink:href="#DejaVuSans-2212"/>
       <use xlink:href="#DejaVuSans-36" transform="translate(83.789062 0)"/>
      </g>
     </g>
    </g>
    <g id="ytick_3">
     <g id="line2d_19">
      <path d="M 42.620313 183.614739 
L 501.852312 183.614739 
" clip-path="url(#p66121bf32b)" style="fill: none; stroke: #b0b0b0; stroke-width: 0.8; stroke-linecap: square"/>
     </g>
     <g id="line2d_20">
      <g>
       <use xlink:href="#m25b68cccb5" x="42.620313" y="183.614739" style="stroke: #000000; stroke-width: 0.8"/>
      </g>
     </g>
     <g id="text_11">
      <!-- −4 -->
      <g transform="translate(20.878125 187.413958) scale(0.1 -0.1)">
       <use xlink:href="#DejaVuSans-2212"/>
       <use xlink:href="#DejaVuSans-34" transform="translate(83.789062 0)"/>
      </g>
     </g>
    </g>
    <g id="ytick_4">
     <g id="line2d_21">
      <path d="M 42.620313 154.694263 
L 501.852312 154.694263 
" clip-path="url(#p66121bf32b)" style="fill: none; stroke: #b0b0b0; stroke-width: 0.8; stroke-linecap: square"/>
     </g>
     <g id="line2d_22">
      <g>
       <use xlink:href="#m25b68cccb5" x="42.620313" y="154.694263" style="stroke: #000000; stroke-width: 0.8"/>
      </g>
     </g>
     <g id="text_12">
      <!-- −2 -->
      <g transform="translate(20.878125 158.493482) scale(0.1 -0.1)">
       <use xlink:href="#DejaVuSans-2212"/>
       <use xlink:href="#DejaVuSans-32" transform="translate(83.789062 0)"/>
      </g>
     </g>
    </g>
    <g id="ytick_5">
     <g id="line2d_23">
      <path d="M 42.620313 125.773788 
L 501.852312 125.773788 
" clip-path="url(#p66121bf32b)" style="fill: none; stroke: #b0b0b0; stroke-width: 0.8; stroke-linecap: square"/>
     </g>
     <g id="line2d_24">
      <g>
       <use xlink:href="#m25b68cccb5" x="42.620313" y="125.773788" style="stroke: #000000; stroke-width: 0.8"/>
      </g>
     </g>
     <g id="text_13">
      <!-- 0 -->
      <g transform="translate(29.257813 129.573006) scale(0.1 -0.1)">
       <use xlink:href="#DejaVuSans-30"/>
      </g>
     </g>
    </g>
    <g id="ytick_6">
     <g id="line2d_25">
      <path d="M 42.620313 96.853312 
L 501.852312 96.853312 
" clip-path="url(#p66121bf32b)" style="fill: none; stroke: #b0b0b0; stroke-width: 0.8; stroke-linecap: square"/>
     </g>
     <g id="line2d_26">
      <g>
       <use xlink:href="#m25b68cccb5" x="42.620313" y="96.853312" style="stroke: #000000; stroke-width: 0.8"/>
      </g>
     </g>
     <g id="text_14">
      <!-- 2 -->
      <g transform="translate(29.257813 100.652531) scale(0.1 -0.1)">
       <use xlink:href="#DejaVuSans-32"/>
      </g>
     </g>
    </g>
    <g id="ytick_7">
     <g id="line2d_27">
      <path d="M 42.620313 67.932836 
L 501.852312 67.932836 
" clip-path="url(#p66121bf32b)" style="fill: none; stroke: #b0b0b0; stroke-width: 0.8; stroke-linecap: square"/>
     </g>
     <g id="line2d_28">
      <g>
       <use xlink:href="#m25b68cccb5" x="42.620313" y="67.932836" style="stroke: #000000; stroke-width: 0.8"/>
      </g>
     </g>
     <g id="text_15">
      <!-- 4 -->
      <g transform="translate(29.257813 71.732055) scale(0.1 -0.1)">
       <use xlink:href="#DejaVuSans-34"/>
      </g>
     </g>
    </g>
    <g id="ytick_8">
     <g id="line2d_29">
      <path d="M 42.620313 39.012361 
L 501.852312 39.012361 
" clip-path="url(#p66121bf32b)" style="fill: none; stroke: #b0b0b0; stroke-width: 0.8; stroke-linecap: square"/>
     </g>
     <g id="line2d_30">
      <g>
       <use xlink:href="#m25b68cccb5" x="42.620313" y="39.012361" style="stroke: #000000; stroke-width: 0.8"/>
      </g>
     </g>
     <g id="text_16">
      <!-- 6 -->
      <g transform="translate(29.257813 42.81158) scale(0.1 -0.1)">
       <use xlink:href="#DejaVuSans-36"/>
      </g>
     </g>
    </g>
    <g id="text_17">
     <!-- $K_{x1}$ -->
     <g transform="translate(14.798438 146.25) rotate(-90) scale(0.1 -0.1)">
      <defs>
       <path id="DejaVuSans-Oblique-4b" d="M 1081 4666 
L 1716 4666 
L 1331 2700 
L 3781 4666 
L 4622 4666 
L 1850 2438 
L 3878 0 
L 3109 0 
L 1247 2272 
L 806 0 
L 172 0 
L 1081 4666 
z
" transform="scale(0.015625)"/>
       <path id="DejaVuSans-Oblique-78" d="M 3841 3500 
L 2234 1784 
L 3219 0 
L 2559 0 
L 1819 1388 
L 531 0 
L -166 0 
L 1556 1844 
L 641 3500 
L 1300 3500 
L 1972 2234 
L 3144 3500 
L 3841 3500 
z
" transform="scale(0.015625)"/>
      </defs>
      <use xlink:href="#DejaVuSans-Oblique-4b" transform="translate(0 0.09375)"/>
      <use xlink:href="#DejaVuSans-Oblique-78" transform="translate(65.576172 -16.3125) scale(0.7)"/>
      <use xlink:href="#DejaVuSans-31" transform="translate(107.001953 -16.3125) scale(0.7)"/>
     </g>
    </g>
   </g>
   <g id="line2d_31">
    <path d="M 63.494494 125.773788 
L 67.947653 125.883717 
L 69.130523 126.137516 
L 69.826329 126.507876 
L 70.313394 127.013809 
L 70.661297 127.380369 
L 70.800458 127.177884 
L 70.939619 126.182335 
L 71.496264 119.822389 
L 71.635425 119.616962 
L 71.913748 118.80823 
L 72.052909 118.875755 
L 73.096618 120.301037 
L 74.140327 121.881282 
L 75.323197 124.035309 
L 76.575648 126.784443 
L 77.89768 130.258074 
L 79.219711 134.377471 
L 80.611323 139.482542 
L 82.002936 145.455398 
L 83.464128 152.753906 
L 84.925321 161.206609 
L 86.456094 171.419042 
L 87.986868 183.147932 
L 89.587222 197.134146 
L 91.117995 210.568994 
L 91.187576 210.741217 
L 91.257156 210.697111 
L 91.396317 209.612884 
L 91.883382 201.182783 
L 91.952962 201.430428 
L 92.231285 203.858934 
L 93.9708 225.407978 
L 95.084089 237.912447 
L 95.431992 240.080447 
L 95.571154 240.237686 
L 95.710315 239.802386 
L 95.988637 237.348606 
L 96.26696 235.445132 
L 96.33654 235.441958 
L 96.475702 236.02535 
L 96.754024 238.770306 
L 97.241088 243.517995 
L 97.310669 243.681818 
L 97.380249 243.6219 
L 97.519411 242.764076 
L 98.076056 236.735742 
L 98.145636 236.840326 
L 98.354378 238.321356 
L 98.771862 241.638754 
L 98.841442 241.764405 
L 98.911023 241.699641 
L 99.050184 240.995467 
L 99.398087 237.138048 
L 99.815571 233.533132 
L 100.302635 230.420868 
L 100.85928 224.347823 
L 102.181311 207.829222 
L 103.572923 186.912899 
L 105.312439 157.196272 
L 110.600565 64.047734 
L 111.574693 51.789609 
L 112.40966 43.841262 
L 113.105466 39.109393 
L 113.731692 36.220051 
L 114.288337 34.589404 
L 114.775401 33.758265 
L 115.192885 33.404976 
L 115.610368 33.320524 
L 116.027852 33.454572 
L 116.584497 33.903479 
L 117.280303 34.799285 
L 118.184851 36.379035 
L 119.29814 38.815497 
L 120.550591 42.100004 
L 121.942203 46.38627 
L 123.403396 51.626967 
L 124.934169 57.979796 
L 126.534523 65.622129 
L 128.204458 74.730292 
L 130.013554 85.907093 
L 131.961811 99.384669 
L 133.283842 109.703697 
L 133.701326 115.745866 
L 134.327551 128.482582 
L 135.37126 155.047979 
L 137.458679 208.849443 
L 138.224065 223.138709 
L 138.78071 229.881819 
L 139.198194 232.703454 
L 139.546097 233.858134 
L 139.894 234.336196 
L 140.241903 234.460338 
L 140.589806 234.369104 
L 141.07687 233.974663 
L 141.911837 232.959986 
L 142.885966 231.408491 
L 144.068836 229.108528 
L 145.321287 226.178834 
L 146.643319 222.513728 
L 148.034931 217.989388 
L 149.496123 212.478637 
L 151.096477 205.552761 
L 152.905573 196.683577 
L 155.132152 184.574823 
L 160.907343 152.557967 
L 162.507697 145.241315 
L 163.899309 139.89751 
L 165.082179 136.181046 
L 166.195469 133.393557 
L 167.169597 131.507108 
L 168.004565 129.941339 
L 168.282887 127.369994 
L 168.700371 120.753621 
L 169.604919 101.598519 
L 170.648628 80.815774 
L 171.344434 70.89007 
L 171.901079 65.603249 
L 172.388143 62.744538 
L 172.805626 61.40747 
L 173.153529 60.944447 
L 173.431852 60.930841 
L 173.710174 61.186382 
L 174.058077 61.825546 
L 174.545142 63.204564 
L 175.240948 65.911693 
L 176.215076 70.687936 
L 177.676269 79.096183 
L 181.016138 100.085462 
L 183.660201 115.937244 
L 185.678039 126.720314 
L 187.417554 134.872393 
L 189.017908 141.374974 
L 190.548681 146.699212 
L 192.009874 150.991303 
L 193.401486 154.399956 
L 194.723517 157.065136 
L 195.975968 159.112687 
L 197.158839 160.652636 
L 198.341709 161.840176 
L 199.454999 162.661704 
L 200.568288 163.219647 
L 201.681578 163.536211 
L 202.725287 163.714469 
L 202.934029 164.67726 
L 203.212351 167.33741 
L 203.699416 174.549263 
L 205.647672 206.63026 
L 206.204317 211.385905 
L 206.621801 213.408811 
L 207.039285 214.415636 
L 207.387188 214.684428 
L 207.66551 214.621897 
L 208.013413 214.279237 
L 208.500477 213.429104 
L 209.196283 211.68299 
L 210.170412 208.524666 
L 211.422863 203.643599 
L 213.162378 195.898898 
L 220.050858 164.223527 
L 221.651212 158.371107 
L 223.112405 153.847664 
L 224.434436 150.453928 
L 225.686887 147.838154 
L 226.869757 145.87265 
L 227.983047 144.434615 
L 229.096337 143.35643 
L 230.209626 142.596862 
L 231.322916 142.114424 
L 232.436206 141.868959 
L 233.688657 141.829128 
L 235.080269 142.020863 
L 236.680623 142.473608 
L 237.51559 142.664085 
L 237.654751 141.944596 
L 237.933074 138.794784 
L 238.489719 128.740484 
L 239.950911 101.05056 
L 240.646717 92.409382 
L 241.203362 88.031044 
L 241.690426 85.813368 
L 242.038329 85.003608 
L 242.316652 84.748297 
L 242.594974 84.793215 
L 242.873297 85.097495 
L 243.29078 85.961256 
L 243.847425 87.713637 
L 244.612812 90.919057 
L 245.795682 96.936408 
L 250.875066 123.90612 
L 252.47542 130.716126 
L 253.936613 136.004284 
L 255.328225 140.258759 
L 256.719837 143.819472 
L 258.111449 146.763144 
L 259.433481 149.056945 
L 260.755513 150.921925 
L 262.077544 152.411805 
L 263.399576 153.57413 
L 264.721607 154.45081 
L 266.113219 155.105703 
L 267.574412 155.538726 
L 269.105185 155.754882 
L 270.77512 155.760438 
L 272.305893 155.694295 
L 272.445054 156.326325 
L 272.723377 159.073929 
L 273.210441 166.930052 
L 274.810795 194.823828 
L 275.36744 200.290567 
L 275.854504 203.042609 
L 276.271988 204.252151 
L 276.619891 204.667797 
L 276.898213 204.707989 
L 277.246116 204.47647 
L 277.6636 203.881005 
L 278.289825 202.515513 
L 279.124792 200.090044 
L 280.307663 195.909184 
L 282.186339 188.34792 
L 286.222014 171.975151 
L 288.03111 165.639461 
L 289.631464 160.821692 
L 291.092657 157.108229 
L 292.484269 154.169568 
L 293.8063 151.886166 
L 295.058751 150.140704 
L 296.311202 148.759357 
L 297.563653 147.69869 
L 298.816104 146.915852 
L 300.138136 146.345984 
L 301.529748 145.983031 
L 303.060521 145.810192 
L 304.869617 145.840544 
L 307.096196 145.989589 
L 307.304938 144.476869 
L 307.652841 139.278193 
L 309.80984 101.681344 
L 310.366485 96.679113 
L 310.853549 93.995286 
L 311.271032 92.744806 
L 311.618936 92.313414 
L 311.897258 92.302528 
L 312.17558 92.543602 
L 312.593064 93.298208 
L 313.149709 94.878254 
L 313.915096 97.798152 
L 315.167546 103.612343 
L 319.272802 123.303617 
L 320.873156 129.626601 
L 322.334349 134.538505 
L 323.795542 138.674412 
L 325.187154 141.964712 
L 326.578766 144.69973 
L 327.970378 146.952869 
L 329.36199 148.790415 
L 330.753602 150.270406 
L 332.214795 151.494355 
L 333.675988 152.429173 
L 335.206761 153.144953 
L 336.807115 153.650171 
L 338.54663 153.965615 
L 340.494887 154.085925 
L 341.886499 154.163174 
L 342.095241 155.457792 
L 342.443144 160.03338 
L 343.208531 174.460658 
L 344.043498 188.737778 
L 344.600143 194.976755 
L 345.087207 198.271483 
L 345.504691 199.845549 
L 345.852594 200.508052 
L 346.200497 200.731695 
L 346.478819 200.666971 
L 346.826722 200.348566 
L 347.313786 199.561459 
L 348.009592 197.938151 
L 348.983721 195.011392 
L 350.444914 189.806046 
L 356.150523 168.727155 
L 357.820458 163.723888 
L 359.351231 159.815157 
L 360.812424 156.686378 
L 362.204036 154.223298 
L 363.526068 152.310621 
L 364.848099 150.770618 
L 366.170131 149.558571 
L 367.561743 148.588828 
L 368.953355 147.885667 
L 370.484128 147.367606 
L 372.154063 147.048333 
L 374.032739 146.925168 
L 376.259319 147.010924 
L 376.607222 147.041146 
L 376.746383 146.554267 
L 376.955125 144.417412 
L 377.442189 135.862388 
L 378.833801 110.411778 
L 379.460026 103.042188 
L 380.016671 98.885809 
L 380.503736 96.810542 
L 380.921219 95.971384 
L 381.199542 95.806677 
L 381.477864 95.906483 
L 381.825767 96.344631 
L 382.312831 97.428287 
L 383.008637 99.671967 
L 383.982766 103.665333 
L 386.209345 114.054399 
L 388.296763 123.265694 
L 389.897117 129.355264 
L 391.35831 134.095119 
L 392.819503 138.092372 
L 394.211115 141.278873 
L 395.602727 143.935557 
L 396.994339 146.13388 
L 398.385951 147.938198 
L 399.847144 149.469993 
L 401.308337 150.684882 
L 402.83911 151.669198 
L 404.439464 152.431969 
L 406.109399 152.985448 
L 407.918494 153.355276 
L 409.936332 153.54216 
L 411.467105 153.676479 
L 411.675847 155.050906 
L 412.02375 159.835632 
L 413.972007 191.925873 
L 414.459071 195.59246 
L 414.946136 197.627929 
L 415.363619 198.444651 
L 415.711522 198.656023 
L 415.989845 198.592068 
L 416.337748 198.283675 
L 416.824812 197.521479 
L 417.520618 195.946982 
L 418.494746 193.105936 
L 419.955939 188.064835 
L 425.174485 169.477753 
L 426.844419 164.576285 
L 428.375192 160.728827 
L 429.836385 157.631633 
L 431.227997 155.176006 
L 432.619609 153.16105 
L 434.011222 151.539393 
L 435.402834 150.261903 
L 436.794446 149.280761 
L 438.255639 148.520625 
L 439.786412 147.970702 
L 441.456346 147.603117 
L 443.404603 147.411455 
L 445.700763 147.422091 
L 446.187828 147.448678 
L 446.326989 146.940717 
L 446.535731 144.733082 
L 447.022795 136.07024 
L 448.275246 113.173008 
L 448.901471 105.541094 
L 449.458116 101.176557 
L 449.94518 98.943781 
L 450.362664 97.985865 
L 450.640986 97.748891 
L 450.919309 97.781043 
L 451.267212 98.140072 
L 451.684696 98.951783 
L 452.310921 100.755503 
L 453.215469 104.173019 
L 454.885403 111.587718 
L 457.459886 122.851882 
L 459.06024 128.879666 
L 460.591013 133.792895 
L 462.052206 137.738361 
L 463.443818 140.887803 
L 464.83543 143.517847 
L 466.227042 145.698945 
L 467.688235 147.57537 
L 469.149428 149.090786 
L 470.680201 150.350392 
L 472.210974 151.326398 
L 473.811328 152.0919 
L 475.550843 152.677928 
L 477.42952 153.075449 
L 479.516938 153.289569 
L 480.978131 153.327142 
L 480.978131 153.327142 
" clip-path="url(#p66121bf32b)" style="fill: none; stroke: #1f77b4; stroke-width: 1.2; stroke-linecap: square"/>
   </g>
   <g id="patch_3">
    <path d="M 42.620313 254.2 
L 42.620313 22.8 
" style="fill: none; stroke: #000000; stroke-width: 0.8; stroke-linejoin: miter; stroke-linecap: square"/>
   </g>
   <g id="patch_4">
    <path d="M 501.852312 254.2 
L 501.852312 22.8 
" style="fill: none; stroke: #000000; stroke-width: 0.8; stroke-linejoin: miter; stroke-linecap: square"/>
   </g>
   <g id="patch_5">
    <path d="M 42.620313 254.2 
L 501.852312 254.2 
" style="fill: none; stroke: #000000; stroke-width: 0.8; stroke-linejoin: miter; stroke-linecap: square"/>
   </g>
   <g id="patch_6">
    <path d="M 42.620313 22.8 
L 501.852312 22.8 
" style="fill: none; stroke: #000000; stroke-width: 0.8; stroke-linejoin: miter; stroke-linecap: square"/>
   </g>
   <g id="text_18">
    <!-- Evolución de $K_{x1}$ - tren de pulsos -->
    <g transform="translate(173.896312 16.8) scale(0.12 -0.12)">
     <defs>
      <path id="DejaVuSans-45" d="M 628 4666 
L 3578 4666 
L 3578 4134 
L 1259 4134 
L 1259 2753 
L 3481 2753 
L 3481 2222 
L 1259 2222 
L 1259 531 
L 3634 531 
L 3634 0 
L 628 0 
L 628 4666 
z
" transform="scale(0.015625)"/>
      <path id="DejaVuSans-76" d="M 191 3500 
L 800 3500 
L 1894 563 
L 2988 3500 
L 3597 3500 
L 2284 0 
L 1503 0 
L 191 3500 
z
" transform="scale(0.015625)"/>
      <path id="DejaVuSans-6c" d="M 603 4863 
L 1178 4863 
L 1178 0 
L 603 0 
L 603 4863 
z
" transform="scale(0.015625)"/>
      <path id="DejaVuSans-75" d="M 544 1381 
L 544 3500 
L 1119 3500 
L 1119 1403 
Q 1119 906 1312 657 
Q 1506 409 1894 409 
Q 2359 409 2629 706 
Q 2900 1003 2900 1516 
L 2900 3500 
L 3475 3500 
L 3475 0 
L 2900 0 
L 2900 538 
Q 2691 219 2414 64 
Q 2138 -91 1772 -91 
Q 1169 -91 856 284 
Q 544 659 544 1381 
z
M 1991 3584 
L 1991 3584 
z
" transform="scale(0.015625)"/>
      <path id="DejaVuSans-63" d="M 3122 3366 
L 3122 2828 
Q 2878 2963 2633 3030 
Q 2388 3097 2138 3097 
Q 1578 3097 1268 2742 
Q 959 2388 959 1747 
Q 959 1106 1268 751 
Q 1578 397 2138 397 
Q 2388 397 2633 464 
Q 2878 531 3122 666 
L 3122 134 
Q 2881 22 2623 -34 
Q 2366 -91 2075 -91 
Q 1284 -91 818 406 
Q 353 903 353 1747 
Q 353 2603 823 3093 
Q 1294 3584 2113 3584 
Q 2378 3584 2631 3529 
Q 2884 3475 3122 3366 
z
" transform="scale(0.015625)"/>
      <path id="DejaVuSans-f3" d="M 1959 3097 
Q 1497 3097 1228 2736 
Q 959 2375 959 1747 
Q 959 1119 1226 758 
Q 1494 397 1959 397 
Q 2419 397 2687 759 
Q 2956 1122 2956 1747 
Q 2956 2369 2687 2733 
Q 2419 3097 1959 3097 
z
M 1959 3584 
Q 2709 3584 3137 3096 
Q 3566 2609 3566 1747 
Q 3566 888 3137 398 
Q 2709 -91 1959 -91 
Q 1206 -91 779 398 
Q 353 888 353 1747 
Q 353 2609 779 3096 
Q 1206 3584 1959 3584 
z
M 2394 5119 
L 3016 5119 
L 1998 3944 
L 1519 3944 
L 2394 5119 
z
" transform="scale(0.015625)"/>
      <path id="DejaVuSans-6e" d="M 3513 2113 
L 3513 0 
L 2938 0 
L 2938 2094 
Q 2938 2591 2744 2837 
Q 2550 3084 2163 3084 
Q 1697 3084 1428 2787 
Q 1159 2491 1159 1978 
L 1159 0 
L 581 0 
L 581 3500 
L 1159 3500 
L 1159 2956 
Q 1366 3272 1645 3428 
Q 1925 3584 2291 3584 
Q 2894 3584 3203 3211 
Q 3513 2838 3513 2113 
z
" transform="scale(0.015625)"/>
      <path id="DejaVuSans-64" d="M 2906 2969 
L 2906 4863 
L 3481 4863 
L 3481 0 
L 2906 0 
L 2906 525 
Q 2725 213 2448 61 
Q 2172 -91 1784 -91 
Q 1150 -91 751 415 
Q 353 922 353 1747 
Q 353 2572 751 3078 
Q 1150 3584 1784 3584 
Q 2172 3584 2448 3432 
Q 2725 3281 2906 2969 
z
M 947 1747 
Q 947 1113 1208 752 
Q 1469 391 1925 391 
Q 2381 391 2643 752 
Q 2906 1113 2906 1747 
Q 2906 2381 2643 2742 
Q 2381 3103 1925 3103 
Q 1469 3103 1208 2742 
Q 947 2381 947 1747 
z
" transform="scale(0.015625)"/>
      <path id="DejaVuSans-2d" d="M 313 2009 
L 1997 2009 
L 1997 1497 
L 313 1497 
L 313 2009 
z
" transform="scale(0.015625)"/>
      <path id="DejaVuSans-74" d="M 1172 4494 
L 1172 3500 
L 2356 3500 
L 2356 3053 
L 1172 3053 
L 1172 1153 
Q 1172 725 1289 603 
Q 1406 481 1766 481 
L 2356 481 
L 2356 0 
L 1766 0 
Q 1100 0 847 248 
Q 594 497 594 1153 
L 594 3053 
L 172 3053 
L 172 3500 
L 594 3500 
L 594 4494 
L 1172 4494 
z
" transform="scale(0.015625)"/>
      <path id="DejaVuSans-72" d="M 2631 2963 
Q 2534 3019 2420 3045 
Q 2306 3072 2169 3072 
Q 1681 3072 1420 2755 
Q 1159 2438 1159 1844 
L 1159 0 
L 581 0 
L 581 3500 
L 1159 3500 
L 1159 2956 
Q 1341 3275 1631 3429 
Q 1922 3584 2338 3584 
Q 2397 3584 2469 3576 
Q 2541 3569 2628 3553 
L 2631 2963 
z
" transform="scale(0.015625)"/>
     </defs>
     <use xlink:href="#DejaVuSans-45" transform="translate(0 0.015625)"/>
     <use xlink:href="#DejaVuSans-76" transform="translate(63.183594 0.015625)"/>
     <use xlink:href="#DejaVuSans-6f" transform="translate(122.363281 0.015625)"/>
     <use xlink:href="#DejaVuSans-6c" transform="translate(183.544922 0.015625)"/>
     <use xlink:href="#DejaVuSans-75" transform="translate(211.328125 0.015625)"/>
     <use xlink:href="#DejaVuSans-63" transform="translate(274.707031 0.015625)"/>
     <use xlink:href="#DejaVuSans-69" transform="translate(329.6875 0.015625)"/>
     <use xlink:href="#DejaVuSans-f3" transform="translate(357.470703 0.015625)"/>
     <use xlink:href="#DejaVuSans-6e" transform="translate(418.652344 0.015625)"/>
     <use xlink:href="#DejaVuSans-20" transform="translate(482.03125 0.015625)"/>
     <use xlink:href="#DejaVuSans-64" transform="translate(513.818359 0.015625)"/>
     <use xlink:href="#DejaVuSans-65" transform="translate(577.294922 0.015625)"/>
     <use xlink:href="#DejaVuSans-20" transform="translate(638.818359 0.015625)"/>
     <use xlink:href="#DejaVuSans-Oblique-4b" transform="translate(670.605469 0.015625)"/>
     <use xlink:href="#DejaVuSans-Oblique-78" transform="translate(736.181641 -16.390625) scale(0.7)"/>
     <use xlink:href="#DejaVuSans-31" transform="translate(777.607422 -16.390625) scale(0.7)"/>
     <use xlink:href="#DejaVuSans-20" transform="translate(824.87793 0.015625)"/>
     <use xlink:href="#DejaVuSans-2d" transform="translate(856.665039 0.015625)"/>
     <use xlink:href="#DejaVuSans-20" transform="translate(892.749023 0.015625)"/>
     <use xlink:href="#DejaVuSans-74" transform="translate(924.536133 0.015625)"/>
     <use xlink:href="#DejaVuSans-72" transform="translate(963.745117 0.015625)"/>
     <use xlink:href="#DejaVuSans-65" transform="translate(1004.858398 0.015625)"/>
     <use xlink:href="#DejaVuSans-6e" transform="translate(1066.381836 0.015625)"/>
     <use xlink:href="#DejaVuSans-20" transform="translate(1129.760742 0.015625)"/>
     <use xlink:href="#DejaVuSans-64" transform="translate(1161.547852 0.015625)"/>
     <use xlink:href="#DejaVuSans-65" transform="translate(1225.024414 0.015625)"/>
     <use xlink:href="#DejaVuSans-20" transform="translate(1286.547852 0.015625)"/>
     <use xlink:href="#DejaVuSans-70" transform="translate(1318.334961 0.015625)"/>
     <use xlink:href="#DejaVuSans-75" transform="translate(1381.811523 0.015625)"/>
     <use xlink:href="#DejaVuSans-6c" transform="translate(1445.19043 0.015625)"/>
     <use xlink:href="#DejaVuSans-73" transform="translate(1472.973633 0.015625)"/>
     <use xlink:href="#DejaVuSans-6f" transform="translate(1525.073242 0.015625)"/>
     <use xlink:href="#DejaVuSans-73" transform="translate(1586.254883 0.015625)"/>
    </g>
   </g>
  </g>
 </g>
 <defs>
  <clipPath id="p66121bf32b">
   <rect x="42.620313" y="22.8" width="459.232" height="231.4"/>
  </clipPath>
 </defs>
</svg>
