<?xml version="1.0" encoding="utf-8" standalone="no"?>
<!DOCTYPE svg PUBLIC "-//W3C//DTD SVG 1.1//EN"
  "http://www.w3.org/Graphics/SVG/1.1/DTD/svg11.dtd">
<svg xmlns:xlink="http://www.w3.org/1999/xlink" width="508.047187pt" height="293.434375pt" viewBox="0 0 508.047187 293.434375" xmlns="http://www.w3.org/2000/svg" version="1.1">
 <metadata>
  <rdf:RDF xmlns:dc="http://purl.org/dc/elements/1.1/" xmlns:cc="http://creativecommons.org/ns#" xmlns:rdf="http://www.w3.org/1999/02/22-rdf-syntax-ns#">
   <cc:Work>
    <dc:type rdf:resource="http://purl.org/dc/dcmitype/StillImage"/>
    <dc:date>2026-07-18T15:47:06.018170</dc:date>
    <dc:format>image/svg+xml</dc:format>
    <dc:creator>
     <cc:Agent>
      <dc:title>Matplotlib v3.10.8, https://matplotlib.org/</dc:title>
     </cc:Agent>
    </dc:creator>
   </cc:Work>
  </rdf:RDF>
 </metadata>
 <defs>
  <style type="text/css">*{stroke-linejoin: round; stroke-linecap: butt}</style>
 </defs>
 <g id="figure_1">
  <g id="patch_1">
   <path d="M 0 293.434375 
L 508.047187 293.434375 
L 508.047187 0 
L 0 0 
z
" style="fill: #ffffff"/>
  </g>
  <g id="axes_1">
   <g id="patch_2">
    <path d="M 55.367188 255.878125 
L 500.847187 255.878125 
L 500.847187 22.318125 
L 55.367188 22.318125 
z
" style="fill: #ffffff"/>
   </g>
   <g id="matplotlib.axis_1">
    <g id="xtick_1">
     <g id="line2d_1">
      <path d="M 75.616278 255.878125 
L 75.616278 22.318125 
" clip-path="url(#p33c52f8e1a)" style="fill: none; stroke: #b0b0b0; stroke-width: 0.8; stroke-linecap: square"/>
     </g>
     <g id="line2d_2">
      <defs>
       <path id="m19fe26b851" d="M 0 0 
L 0 3.5 
" style="stroke: #000000; stroke-width: 0.8"/>
      </defs>
      <g>
       <use xlink:href="#m19fe26b851" x="75.616278" y="255.878125" style="stroke: #000000; stroke-width: 0.8"/>
      </g>
     </g>
     <g id="text_1">
      <!-- 0 -->
      <g transform="translate(72.435028 270.476562) scale(0.1 -0.1)">
       <defs>
        <path id="DejaVuSans-30" d="M 2034 4250 
Q 1547 4250 1301 3770 
Q 1056 3291 1056 2328 
Q 1056 1369 1301 889 
Q 1547 409 2034 409 
Q 2525 409 2770 889 
Q 3016 1369 3016 2328 
Q 3016 3291 2770 3770 
Q 2525 4250 2034 4250 
z
M 2034 4750 
Q 2819 4750 3233 4129 
Q 3647 3509 3647 2328 
Q 3647 1150 3233 529 
Q 2819 -91 2034 -91 
Q 1250 -91 836 529 
Q 422 1150 422 2328 
Q 422 3509 836 4129 
Q 1250 4750 2034 4750 
z
" transform="scale(0.015625)"/>
       </defs>
       <use xlink:href="#DejaVuSans-30"/>
      </g>
     </g>
    </g>
    <g id="xtick_2">
     <g id="line2d_3">
      <path d="M 143.113248 255.878125 
L 143.113248 22.318125 
" clip-path="url(#p33c52f8e1a)" style="fill: none; stroke: #b0b0b0; stroke-width: 0.8; stroke-linecap: square"/>
     </g>
     <g id="line2d_4">
      <g>
       <use xlink:href="#m19fe26b851" x="143.113248" y="255.878125" style="stroke: #000000; stroke-width: 0.8"/>
      </g>
     </g>
     <g id="text_2">
      <!-- 10 -->
      <g transform="translate(136.750748 270.476562) scale(0.1 -0.1)">
       <defs>
        <path id="DejaVuSans-31" d="M 794 531 
L 1825 531 
L 1825 4091 
L 703 3866 
L 703 4441 
L 1819 4666 
L 2450 4666 
L 2450 531 
L 3481 531 
L 3481 0 
L 794 0 
L 794 531 
z
" transform="scale(0.015625)"/>
       </defs>
       <use xlink:href="#DejaVuSans-31"/>
       <use xlink:href="#DejaVuSans-30" transform="translate(63.623047 0)"/>
      </g>
     </g>
    </g>
    <g id="xtick_3">
     <g id="line2d_5">
      <path d="M 210.610218 255.878125 
L 210.610218 22.318125 
" clip-path="url(#p33c52f8e1a)" style="fill: none; stroke: #b0b0b0; stroke-width: 0.8; stroke-linecap: square"/>
     </g>
     <g id="line2d_6">
      <g>
       <use xlink:href="#m19fe26b851" x="210.610218" y="255.878125" style="stroke: #000000; stroke-width: 0.8"/>
      </g>
     </g>
     <g id="text_3">
      <!-- 20 -->
      <g transform="translate(204.247718 270.476562) scale(0.1 -0.1)">
       <defs>
        <path id="DejaVuSans-32" d="M 1228 531 
L 3431 531 
L 3431 0 
L 469 0 
L 469 531 
Q 828 903 1448 1529 
Q 2069 2156 2228 2338 
Q 2531 2678 2651 2914 
Q 2772 3150 2772 3378 
Q 2772 3750 2511 3984 
Q 2250 4219 1831 4219 
Q 1534 4219 1204 4116 
Q 875 4013 500 3803 
L 500 4441 
Q 881 4594 1212 4672 
Q 1544 4750 1819 4750 
Q 2544 4750 2975 4387 
Q 3406 4025 3406 3419 
Q 3406 3131 3298 2873 
Q 3191 2616 2906 2266 
Q 2828 2175 2409 1742 
Q 1991 1309 1228 531 
z
" transform="scale(0.015625)"/>
       </defs>
       <use xlink:href="#DejaVuSans-32"/>
       <use xlink:href="#DejaVuSans-30" transform="translate(63.623047 0)"/>
      </g>
     </g>
    </g>
    <g id="xtick_4">
     <g id="line2d_7">
      <path d="M 278.107188 255.878125 
L 278.107188 22.318125 
" clip-path="url(#p33c52f8e1a)" style="fill: none; stroke: #b0b0b0; stroke-width: 0.8; stroke-linecap: square"/>
     </g>
     <g id="line2d_8">
      <g>
       <use xlink:href="#m19fe26b851" x="278.107188" y="255.878125" style="stroke: #000000; stroke-width: 0.8"/>
      </g>
     </g>
     <g id="text_4">
      <!-- 30 -->
      <g transform="translate(271.744687 270.476562) scale(0.1 -0.1)">
       <defs>
        <path id="DejaVuSans-33" d="M 2597 2516 
Q 3050 2419 3304 2112 
Q 3559 1806 3559 1356 
Q 3559 666 3084 287 
Q 2609 -91 1734 -91 
Q 1441 -91 1130 -33 
Q 819 25 488 141 
L 488 750 
Q 750 597 1062 519 
Q 1375 441 1716 441 
Q 2309 441 2620 675 
Q 2931 909 2931 1356 
Q 2931 1769 2642 2001 
Q 2353 2234 1838 2234 
L 1294 2234 
L 1294 2753 
L 1863 2753 
Q 2328 2753 2575 2939 
Q 2822 3125 2822 3475 
Q 2822 3834 2567 4026 
Q 2313 4219 1838 4219 
Q 1578 4219 1281 4162 
Q 984 4106 628 3988 
L 628 4550 
Q 988 4650 1302 4700 
Q 1616 4750 1894 4750 
Q 2613 4750 3031 4423 
Q 3450 4097 3450 3541 
Q 3450 3153 3228 2886 
Q 3006 2619 2597 2516 
z
" transform="scale(0.015625)"/>
       </defs>
       <use xlink:href="#DejaVuSans-33"/>
       <use xlink:href="#DejaVuSans-30" transform="translate(63.623047 0)"/>
      </g>
     </g>
    </g>
    <g id="xtick_5">
     <g id="line2d_9">
      <path d="M 345.604157 255.878125 
L 345.604157 22.318125 
" clip-path="url(#p33c52f8e1a)" style="fill: none; stroke: #b0b0b0; stroke-width: 0.8; stroke-linecap: square"/>
     </g>
     <g id="line2d_10">
      <g>
       <use xlink:href="#m19fe26b851" x="345.604157" y="255.878125" style="stroke: #000000; stroke-width: 0.8"/>
      </g>
     </g>
     <g id="text_5">
      <!-- 40 -->
      <g transform="translate(339.241657 270.476562) scale(0.1 -0.1)">
       <defs>
        <path id="DejaVuSans-34" d="M 2419 4116 
L 825 1625 
L 2419 1625 
L 2419 4116 
z
M 2253 4666 
L 3047 4666 
L 3047 1625 
L 3713 1625 
L 3713 1100 
L 3047 1100 
L 3047 0 
L 2419 0 
L 2419 1100 
L 313 1100 
L 313 1709 
L 2253 4666 
z
" transform="scale(0.015625)"/>
       </defs>
       <use xlink:href="#DejaVuSans-34"/>
       <use xlink:href="#DejaVuSans-30" transform="translate(63.623047 0)"/>
      </g>
     </g>
    </g>
    <g id="xtick_6">
     <g id="line2d_11">
      <path d="M 413.101127 255.878125 
L 413.101127 22.318125 
" clip-path="url(#p33c52f8e1a)" style="fill: none; stroke: #b0b0b0; stroke-width: 0.8; stroke-linecap: square"/>
     </g>
     <g id="line2d_12">
      <g>
       <use xlink:href="#m19fe26b851" x="413.101127" y="255.878125" style="stroke: #000000; stroke-width: 0.8"/>
      </g>
     </g>
     <g id="text_6">
      <!-- 50 -->
      <g transform="translate(406.738627 270.476562) scale(0.1 -0.1)">
       <defs>
        <path id="DejaVuSans-35" d="M 691 4666 
L 3169 4666 
L 3169 4134 
L 1269 4134 
L 1269 2991 
Q 1406 3038 1543 3061 
Q 1681 3084 1819 3084 
Q 2600 3084 3056 2656 
Q 3513 2228 3513 1497 
Q 3513 744 3044 326 
Q 2575 -91 1722 -91 
Q 1428 -91 1123 -41 
Q 819 9 494 109 
L 494 744 
Q 775 591 1075 516 
Q 1375 441 1709 441 
Q 2250 441 2565 725 
Q 2881 1009 2881 1497 
Q 2881 1984 2565 2268 
Q 2250 2553 1709 2553 
Q 1456 2553 1204 2497 
Q 953 2441 691 2322 
L 691 4666 
z
" transform="scale(0.015625)"/>
       </defs>
       <use xlink:href="#DejaVuSans-35"/>
       <use xlink:href="#DejaVuSans-30" transform="translate(63.623047 0)"/>
      </g>
     </g>
    </g>
    <g id="xtick_7">
     <g id="line2d_13">
      <path d="M 480.598097 255.878125 
L 480.598097 22.318125 
" clip-path="url(#p33c52f8e1a)" style="fill: none; stroke: #b0b0b0; stroke-width: 0.8; stroke-linecap: square"/>
     </g>
     <g id="line2d_14">
      <g>
       <use xlink:href="#m19fe26b851" x="480.598097" y="255.878125" style="stroke: #000000; stroke-width: 0.8"/>
      </g>
     </g>
     <g id="text_7">
      <!-- 60 -->
      <g transform="translate(474.235597 270.476562) scale(0.1 -0.1)">
       <defs>
        <path id="DejaVuSans-36" d="M 2113 2584 
Q 1688 2584 1439 2293 
Q 1191 2003 1191 1497 
Q 1191 994 1439 701 
Q 1688 409 2113 409 
Q 2538 409 2786 701 
Q 3034 994 3034 1497 
Q 3034 2003 2786 2293 
Q 2538 2584 2113 2584 
z
M 3366 4563 
L 3366 3988 
Q 3128 4100 2886 4159 
Q 2644 4219 2406 4219 
Q 1781 4219 1451 3797 
Q 1122 3375 1075 2522 
Q 1259 2794 1537 2939 
Q 1816 3084 2150 3084 
Q 2853 3084 3261 2657 
Q 3669 2231 3669 1497 
Q 3669 778 3244 343 
Q 2819 -91 2113 -91 
Q 1303 -91 875 529 
Q 447 1150 447 2328 
Q 447 3434 972 4092 
Q 1497 4750 2381 4750 
Q 2619 4750 2861 4703 
Q 3103 4656 3366 4563 
z
" transform="scale(0.015625)"/>
       </defs>
       <use xlink:href="#DejaVuSans-36"/>
       <use xlink:href="#DejaVuSans-30" transform="translate(63.623047 0)"/>
      </g>
     </g>
    </g>
    <g id="text_8">
     <!-- Tiempo [s] -->
     <g transform="translate(251.544688 284.154687) scale(0.1 -0.1)">
      <defs>
       <path id="DejaVuSans-54" d="M -19 4666 
L 3928 4666 
L 3928 4134 
L 2272 4134 
L 2272 0 
L 1638 0 
L 1638 4134 
L -19 4134 
L -19 4666 
z
" transform="scale(0.015625)"/>
       <path id="DejaVuSans-69" d="M 603 3500 
L 1178 3500 
L 1178 0 
L 603 0 
L 603 3500 
z
M 603 4863 
L 1178 4863 
L 1178 4134 
L 603 4134 
L 603 4863 
z
" transform="scale(0.015625)"/>
       <path id="DejaVuSans-65" d="M 3597 1894 
L 3597 1613 
L 953 1613 
Q 991 1019 1311 708 
Q 1631 397 2203 397 
Q 2534 397 2845 478 
Q 3156 559 3463 722 
L 3463 178 
Q 3153 47 2828 -22 
Q 2503 -91 2169 -91 
Q 1331 -91 842 396 
Q 353 884 353 1716 
Q 353 2575 817 3079 
Q 1281 3584 2069 3584 
Q 2775 3584 3186 3129 
Q 3597 2675 3597 1894 
z
M 3022 2063 
Q 3016 2534 2758 2815 
Q 2500 3097 2075 3097 
Q 1594 3097 1305 2825 
Q 1016 2553 972 2059 
L 3022 2063 
z
" transform="scale(0.015625)"/>
       <path id="DejaVuSans-6d" d="M 3328 2828 
Q 3544 3216 3844 3400 
Q 4144 3584 4550 3584 
Q 5097 3584 5394 3201 
Q 5691 2819 5691 2113 
L 5691 0 
L 5113 0 
L 5113 2094 
Q 5113 2597 4934 2840 
Q 4756 3084 4391 3084 
Q 3944 3084 3684 2787 
Q 3425 2491 3425 1978 
L 3425 0 
L 2847 0 
L 2847 2094 
Q 2847 2600 2669 2842 
Q 2491 3084 2119 3084 
Q 1678 3084 1418 2786 
Q 1159 2488 1159 1978 
L 1159 0 
L 581 0 
L 581 3500 
L 1159 3500 
L 1159 2956 
Q 1356 3278 1631 3431 
Q 1906 3584 2284 3584 
Q 2666 3584 2933 3390 
Q 3200 3197 3328 2828 
z
" transform="scale(0.015625)"/>
       <path id="DejaVuSans-70" d="M 1159 525 
L 1159 -1331 
L 581 -1331 
L 581 3500 
L 1159 3500 
L 1159 2969 
Q 1341 3281 1617 3432 
Q 1894 3584 2278 3584 
Q 2916 3584 3314 3078 
Q 3713 2572 3713 1747 
Q 3713 922 3314 415 
Q 2916 -91 2278 -91 
Q 1894 -91 1617 61 
Q 1341 213 1159 525 
z
M 3116 1747 
Q 3116 2381 2855 2742 
Q 2594 3103 2138 3103 
Q 1681 3103 1420 2742 
Q 1159 2381 1159 1747 
Q 1159 1113 1420 752 
Q 1681 391 2138 391 
Q 2594 391 2855 752 
Q 3116 1113 3116 1747 
z
" transform="scale(0.015625)"/>
       <path id="DejaVuSans-6f" d="M 1959 3097 
Q 1497 3097 1228 2736 
Q 959 2375 959 1747 
Q 959 1119 1226 758 
Q 1494 397 1959 397 
Q 2419 397 2687 759 
Q 2956 1122 2956 1747 
Q 2956 2369 2687 2733 
Q 2419 3097 1959 3097 
z
M 1959 3584 
Q 2709 3584 3137 3096 
Q 3566 2609 3566 1747 
Q 3566 888 3137 398 
Q 2709 -91 1959 -91 
Q 1206 -91 779 398 
Q 353 888 353 1747 
Q 353 2609 779 3096 
Q 1206 3584 1959 3584 
z
" transform="scale(0.015625)"/>
       <path id="DejaVuSans-20" transform="scale(0.015625)"/>
       <path id="DejaVuSans-5b" d="M 550 4863 
L 1875 4863 
L 1875 4416 
L 1125 4416 
L 1125 -397 
L 1875 -397 
L 1875 -844 
L 550 -844 
L 550 4863 
z
" transform="scale(0.015625)"/>
       <path id="DejaVuSans-73" d="M 2834 3397 
L 2834 2853 
Q 2591 2978 2328 3040 
Q 2066 3103 1784 3103 
Q 1356 3103 1142 2972 
Q 928 2841 928 2578 
Q 928 2378 1081 2264 
Q 1234 2150 1697 2047 
L 1894 2003 
Q 2506 1872 2764 1633 
Q 3022 1394 3022 966 
Q 3022 478 2636 193 
Q 2250 -91 1575 -91 
Q 1294 -91 989 -36 
Q 684 19 347 128 
L 347 722 
Q 666 556 975 473 
Q 1284 391 1588 391 
Q 1994 391 2212 530 
Q 2431 669 2431 922 
Q 2431 1156 2273 1281 
Q 2116 1406 1581 1522 
L 1381 1569 
Q 847 1681 609 1914 
Q 372 2147 372 2553 
Q 372 3047 722 3315 
Q 1072 3584 1716 3584 
Q 2034 3584 2315 3537 
Q 2597 3491 2834 3397 
z
" transform="scale(0.015625)"/>
       <path id="DejaVuSans-5d" d="M 1947 4863 
L 1947 -844 
L 622 -844 
L 622 -397 
L 1369 -397 
L 1369 4416 
L 622 4416 
L 622 4863 
L 1947 4863 
z
" transform="scale(0.015625)"/>
      </defs>
      <use xlink:href="#DejaVuSans-54"/>
      <use xlink:href="#DejaVuSans-69" transform="translate(57.958984 0)"/>
      <use xlink:href="#DejaVuSans-65" transform="translate(85.742188 0)"/>
      <use xlink:href="#DejaVuSans-6d" transform="translate(147.265625 0)"/>
      <use xlink:href="#DejaVuSans-70" transform="translate(244.677734 0)"/>
      <use xlink:href="#DejaVuSans-6f" transform="translate(308.154297 0)"/>
      <use xlink:href="#DejaVuSans-20" transform="translate(369.335938 0)"/>
      <use xlink:href="#DejaVuSans-5b" transform="translate(401.123047 0)"/>
      <use xlink:href="#DejaVuSans-73" transform="translate(440.136719 0)"/>
      <use xlink:href="#DejaVuSans-5d" transform="translate(492.236328 0)"/>
     </g>
    </g>
   </g>
   <g id="matplotlib.axis_2">
    <g id="ytick_1">
     <g id="line2d_15">
      <path d="M 55.367188 251.78706 
L 500.847187 251.78706 
" clip-path="url(#p33c52f8e1a)" style="fill: none; stroke: #b0b0b0; stroke-width: 0.8; stroke-linecap: square"/>
     </g>
     <g id="line2d_16">
      <defs>
       <path id="m13e74e600f" d="M 0 0 
L -3.5 0 
" style="stroke: #000000; stroke-width: 0.8"/>
      </defs>
      <g>
       <use xlink:href="#m13e74e600f" x="55.367188" y="251.78706" style="stroke: #000000; stroke-width: 0.8"/>
      </g>
     </g>
     <g id="text_9">
      <!-- −250 -->
      <g transform="translate(20.9 255.586279) scale(0.1 -0.1)">
       <defs>
        <path id="DejaVuSans-2212" d="M 678 2272 
L 4684 2272 
L 4684 1741 
L 678 1741 
L 678 2272 
z
" transform="scale(0.015625)"/>
       </defs>
       <use xlink:href="#DejaVuSans-2212"/>
       <use xlink:href="#DejaVuSans-32" transform="translate(83.789062 0)"/>
       <use xlink:href="#DejaVuSans-35" transform="translate(147.412109 0)"/>
       <use xlink:href="#DejaVuSans-30" transform="translate(211.035156 0)"/>
      </g>
     </g>
    </g>
    <g id="ytick_2">
     <g id="line2d_17">
      <path d="M 55.367188 223.917529 
L 500.847187 223.917529 
" clip-path="url(#p33c52f8e1a)" style="fill: none; stroke: #b0b0b0; stroke-width: 0.8; stroke-linecap: square"/>
     </g>
     <g id="line2d_18">
      <g>
       <use xlink:href="#m13e74e600f" x="55.367188" y="223.917529" style="stroke: #000000; stroke-width: 0.8"/>
      </g>
     </g>
     <g id="text_10">
      <!-- −200 -->
      <g transform="translate(20.9 227.716748) scale(0.1 -0.1)">
       <use xlink:href="#DejaVuSans-2212"/>
       <use xlink:href="#DejaVuSans-32" transform="translate(83.789062 0)"/>
       <use xlink:href="#DejaVuSans-30" transform="translate(147.412109 0)"/>
       <use xlink:href="#DejaVuSans-30" transform="translate(211.035156 0)"/>
      </g>
     </g>
    </g>
    <g id="ytick_3">
     <g id="line2d_19">
      <path d="M 55.367188 196.047998 
L 500.847187 196.047998 
" clip-path="url(#p33c52f8e1a)" style="fill: none; stroke: #b0b0b0; stroke-width: 0.8; stroke-linecap: square"/>
     </g>
     <g id="line2d_20">
      <g>
       <use xlink:href="#m13e74e600f" x="55.367188" y="196.047998" style="stroke: #000000; stroke-width: 0.8"/>
      </g>
     </g>
     <g id="text_11">
      <!-- −150 -->
      <g transform="translate(20.9 199.847217) scale(0.1 -0.1)">
       <use xlink:href="#DejaVuSans-2212"/>
       <use xlink:href="#DejaVuSans-31" transform="translate(83.789062 0)"/>
       <use xlink:href="#DejaVuSans-35" transform="translate(147.412109 0)"/>
       <use xlink:href="#DejaVuSans-30" transform="translate(211.035156 0)"/>
      </g>
     </g>
    </g>
    <g id="ytick_4">
     <g id="line2d_21">
      <path d="M 55.367188 168.178468 
L 500.847187 168.178468 
" clip-path="url(#p33c52f8e1a)" style="fill: none; stroke: #b0b0b0; stroke-width: 0.8; stroke-linecap: square"/>
     </g>
     <g id="line2d_22">
      <g>
       <use xlink:href="#m13e74e600f" x="55.367188" y="168.178468" style="stroke: #000000; stroke-width: 0.8"/>
      </g>
     </g>
     <g id="text_12">
      <!-- −100 -->
      <g transform="translate(20.9 171.977687) scale(0.1 -0.1)">
       <use xlink:href="#DejaVuSans-2212"/>
       <use xlink:href="#DejaVuSans-31" transform="translate(83.789062 0)"/>
       <use xlink:href="#DejaVuSans-30" transform="translate(147.412109 0)"/>
       <use xlink:href="#DejaVuSans-30" transform="translate(211.035156 0)"/>
      </g>
     </g>
    </g>
    <g id="ytick_5">
     <g id="line2d_23">
      <path d="M 55.367188 140.308937 
L 500.847187 140.308937 
" clip-path="url(#p33c52f8e1a)" style="fill: none; stroke: #b0b0b0; stroke-width: 0.8; stroke-linecap: square"/>
     </g>
     <g id="line2d_24">
      <g>
       <use xlink:href="#m13e74e600f" x="55.367188" y="140.308937" style="stroke: #000000; stroke-width: 0.8"/>
      </g>
     </g>
     <g id="text_13">
      <!-- −50 -->
      <g transform="translate(27.2625 144.108156) scale(0.1 -0.1)">
       <use xlink:href="#DejaVuSans-2212"/>
       <use xlink:href="#DejaVuSans-35" transform="translate(83.789062 0)"/>
       <use xlink:href="#DejaVuSans-30" transform="translate(147.412109 0)"/>
      </g>
     </g>
    </g>
    <g id="ytick_6">
     <g id="line2d_25">
      <path d="M 55.367188 112.439406 
L 500.847187 112.439406 
" clip-path="url(#p33c52f8e1a)" style="fill: none; stroke: #b0b0b0; stroke-width: 0.8; stroke-linecap: square"/>
     </g>
     <g id="line2d_26">
      <g>
       <use xlink:href="#m13e74e600f" x="55.367188" y="112.439406" style="stroke: #000000; stroke-width: 0.8"/>
      </g>
     </g>
     <g id="text_14">
      <!-- 0 -->
      <g transform="translate(42.004688 116.238625) scale(0.1 -0.1)">
       <use xlink:href="#DejaVuSans-30"/>
      </g>
     </g>
    </g>
    <g id="ytick_7">
     <g id="line2d_27">
      <path d="M 55.367188 84.569876 
L 500.847187 84.569876 
" clip-path="url(#p33c52f8e1a)" style="fill: none; stroke: #b0b0b0; stroke-width: 0.8; stroke-linecap: square"/>
     </g>
     <g id="line2d_28">
      <g>
       <use xlink:href="#m13e74e600f" x="55.367188" y="84.569876" style="stroke: #000000; stroke-width: 0.8"/>
      </g>
     </g>
     <g id="text_15">
      <!-- 50 -->
      <g transform="translate(35.642188 88.369095) scale(0.1 -0.1)">
       <use xlink:href="#DejaVuSans-35"/>
       <use xlink:href="#DejaVuSans-30" transform="translate(63.623047 0)"/>
      </g>
     </g>
    </g>
    <g id="ytick_8">
     <g id="line2d_29">
      <path d="M 55.367188 56.700345 
L 500.847187 56.700345 
" clip-path="url(#p33c52f8e1a)" style="fill: none; stroke: #b0b0b0; stroke-width: 0.8; stroke-linecap: square"/>
     </g>
     <g id="line2d_30">
      <g>
       <use xlink:href="#m13e74e600f" x="55.367188" y="56.700345" style="stroke: #000000; stroke-width: 0.8"/>
      </g>
     </g>
     <g id="text_16">
      <!-- 100 -->
      <g transform="translate(29.279688 60.499564) scale(0.1 -0.1)">
       <use xlink:href="#DejaVuSans-31"/>
       <use xlink:href="#DejaVuSans-30" transform="translate(63.623047 0)"/>
       <use xlink:href="#DejaVuSans-30" transform="translate(127.246094 0)"/>
      </g>
     </g>
    </g>
    <g id="ytick_9">
     <g id="line2d_31">
      <path d="M 55.367188 28.830814 
L 500.847187 28.830814 
" clip-path="url(#p33c52f8e1a)" style="fill: none; stroke: #b0b0b0; stroke-width: 0.8; stroke-linecap: square"/>
     </g>
     <g id="line2d_32">
      <g>
       <use xlink:href="#m13e74e600f" x="55.367188" y="28.830814" style="stroke: #000000; stroke-width: 0.8"/>
      </g>
     </g>
     <g id="text_17">
      <!-- 150 -->
      <g transform="translate(29.279688 32.630033) scale(0.1 -0.1)">
       <use xlink:href="#DejaVuSans-31"/>
       <use xlink:href="#DejaVuSans-35" transform="translate(63.623047 0)"/>
       <use xlink:href="#DejaVuSans-30" transform="translate(127.246094 0)"/>
      </g>
     </g>
    </g>
    <g id="text_18">
     <!-- $q$ [deg/s] -->
     <g transform="translate(14.8 161.498125) rotate(-90) scale(0.1 -0.1)">
      <defs>
       <path id="DejaVuSans-Oblique-71" d="M 2669 525 
Q 2438 222 2123 65 
Q 1809 -91 1428 -91 
Q 897 -91 595 267 
Q 294 625 294 1253 
Q 294 1759 480 2231 
Q 666 2703 1013 3078 
Q 1238 3322 1530 3453 
Q 1822 3584 2144 3584 
Q 2531 3584 2781 3431 
Q 3031 3278 3144 2969 
L 3244 3494 
L 3822 3494 
L 2888 -1319 
L 2309 -1319 
L 2669 525 
z
M 891 1338 
Q 891 875 1084 633 
Q 1278 391 1644 391 
Q 2188 391 2572 911 
Q 2956 1431 2956 2175 
Q 2956 2625 2757 2864 
Q 2559 3103 2188 3103 
Q 1916 3103 1684 2976 
Q 1453 2850 1281 2606 
Q 1100 2350 995 2006 
Q 891 1663 891 1338 
z
" transform="scale(0.015625)"/>
       <path id="DejaVuSans-64" d="M 2906 2969 
L 2906 4863 
L 3481 4863 
L 3481 0 
L 2906 0 
L 2906 525 
Q 2725 213 2448 61 
Q 2172 -91 1784 -91 
Q 1150 -91 751 415 
Q 353 922 353 1747 
Q 353 2572 751 3078 
Q 1150 3584 1784 3584 
Q 2172 3584 2448 3432 
Q 2725 3281 2906 2969 
z
M 947 1747 
Q 947 1113 1208 752 
Q 1469 391 1925 391 
Q 2381 391 2643 752 
Q 2906 1113 2906 1747 
Q 2906 2381 2643 2742 
Q 2381 3103 1925 3103 
Q 1469 3103 1208 2742 
Q 947 2381 947 1747 
z
" transform="scale(0.015625)"/>
       <path id="DejaVuSans-67" d="M 2906 1791 
Q 2906 2416 2648 2759 
Q 2391 3103 1925 3103 
Q 1463 3103 1205 2759 
Q 947 2416 947 1791 
Q 947 1169 1205 825 
Q 1463 481 1925 481 
Q 2391 481 2648 825 
Q 2906 1169 2906 1791 
z
M 3481 434 
Q 3481 -459 3084 -895 
Q 2688 -1331 1869 -1331 
Q 1566 -1331 1297 -1286 
Q 1028 -1241 775 -1147 
L 775 -588 
Q 1028 -725 1275 -790 
Q 1522 -856 1778 -856 
Q 2344 -856 2625 -561 
Q 2906 -266 2906 331 
L 2906 616 
Q 2728 306 2450 153 
Q 2172 0 1784 0 
Q 1141 0 747 490 
Q 353 981 353 1791 
Q 353 2603 747 3093 
Q 1141 3584 1784 3584 
Q 2172 3584 2450 3431 
Q 2728 3278 2906 2969 
L 2906 3500 
L 3481 3500 
L 3481 434 
z
" transform="scale(0.015625)"/>
       <path id="DejaVuSans-2f" d="M 1625 4666 
L 2156 4666 
L 531 -594 
L 0 -594 
L 1625 4666 
z
" transform="scale(0.015625)"/>
      </defs>
      <use xlink:href="#DejaVuSans-Oblique-71" transform="translate(0 0.015625)"/>
      <use xlink:href="#DejaVuSans-20" transform="translate(63.476562 0.015625)"/>
      <use xlink:href="#DejaVuSans-5b" transform="translate(95.263672 0.015625)"/>
      <use xlink:href="#DejaVuSans-64" transform="translate(134.277344 0.015625)"/>
      <use xlink:href="#DejaVuSans-65" transform="translate(197.753906 0.015625)"/>
      <use xlink:href="#DejaVuSans-67" transform="translate(259.277344 0.015625)"/>
      <use xlink:href="#DejaVuSans-2f" transform="translate(322.753906 0.015625)"/>
      <use xlink:href="#DejaVuSans-73" transform="translate(356.445312 0.015625)"/>
      <use xlink:href="#DejaVuSans-5d" transform="translate(408.544922 0.015625)"/>
     </g>
    </g>
   </g>
   <g id="line2d_33">
    <path d="M 75.616278 112.439406 
L 75.683775 103.794554 
L 75.751272 103.937097 
L 76.493739 106.437794 
L 77.236206 108.203818 
L 77.978672 109.450071 
L 78.788636 110.395345 
L 79.666097 111.085244 
L 80.678551 111.597357 
L 81.960994 111.978179 
L 83.648418 112.230727 
L 86.348297 112.381341 
L 92.423024 112.437754 
L 109.364763 112.44169 
L 109.43226 121.086542 
L 109.499757 120.943998 
L 110.242224 118.443296 
L 110.984691 116.677266 
L 111.727157 115.431008 
L 112.537121 114.485726 
L 113.414581 113.795817 
L 114.427036 113.283693 
L 115.709478 112.902855 
L 117.396903 112.650285 
L 120.096781 112.499633 
L 126.171509 112.44313 
L 143.113248 112.438944 
L 143.180745 103.79409 
L 143.248242 103.936633 
L 143.990709 106.437324 
L 144.733175 108.203344 
L 145.475642 109.449592 
L 146.285606 110.394863 
L 147.163066 111.084759 
L 148.175521 111.59687 
L 149.457963 111.97769 
L 151.145387 112.230238 
L 153.845266 112.380854 
L 159.919994 112.437279 
L 176.861733 112.441268 
L 176.92923 121.08612 
L 176.996727 120.943577 
L 177.739194 118.442877 
L 178.48166 116.67685 
L 179.224127 115.430593 
L 180.034091 114.485314 
L 180.911551 113.795408 
L 181.924006 113.283287 
L 183.206448 112.902453 
L 184.893872 112.649888 
L 187.593751 112.499245 
L 193.668478 112.44276 
L 210.610218 112.438619 
L 210.677715 103.793766 
L 210.745212 103.936309 
L 211.487678 106.437002 
L 212.230145 108.203023 
L 212.972612 109.449274 
L 213.782575 110.394546 
L 214.660036 111.084445 
L 215.672491 111.596558 
L 216.954933 111.977382 
L 218.642357 112.229933 
L 221.342236 112.380555 
L 227.416963 112.436995 
L 244.358703 112.441018 
L 244.4262 121.085871 
L 244.493697 120.943328 
L 245.236163 118.44263 
L 245.97863 116.676603 
L 246.721097 115.430349 
L 247.53106 114.485071 
L 248.408521 113.795167 
L 249.420975 113.283047 
L 250.703418 112.902216 
L 252.390842 112.649654 
L 255.090721 112.499015 
L 261.165448 112.442541 
L 278.107188 112.438428 
L 278.174684 103.793575 
L 278.242181 103.936118 
L 278.984648 106.436812 
L 279.727115 108.202835 
L 280.469581 109.449086 
L 281.279545 110.39436 
L 282.157006 111.084259 
L 283.16946 111.596374 
L 284.451903 111.977199 
L 286.139327 112.229753 
L 288.839206 112.380379 
L 294.913933 112.436827 
L 311.855672 112.440871 
L 311.923169 121.085724 
L 311.990666 120.943181 
L 312.733133 118.442484 
L 313.4756 116.676458 
L 314.218066 115.430204 
L 315.02803 114.484927 
L 315.905491 113.795025 
L 316.917945 113.282906 
L 318.200387 112.902076 
L 319.887812 112.649516 
L 322.587691 112.49888 
L 328.662418 112.442412 
L 345.604157 112.438315 
L 345.671654 103.793462 
L 345.739151 103.936005 
L 346.481618 106.4367 
L 347.224084 108.202723 
L 347.966551 109.448975 
L 348.776515 110.39425 
L 349.653975 111.08415 
L 350.66643 111.596266 
L 351.948872 111.977092 
L 353.636297 112.229647 
L 356.336175 112.380276 
L 362.410903 112.436728 
L 379.352642 112.440785 
L 379.420139 121.085637 
L 379.487636 120.943094 
L 380.230103 118.442398 
L 380.972569 116.676373 
L 381.715036 115.430119 
L 382.525 114.484843 
L 383.40246 113.794941 
L 384.414915 113.282823 
L 385.697357 112.901994 
L 387.384781 112.649435 
L 390.08466 112.498801 
L 396.159387 112.442336 
L 413.101127 112.438248 
L 413.168624 103.793395 
L 413.236121 103.935938 
L 413.978588 106.436634 
L 414.721054 108.202657 
L 415.463521 109.44891 
L 416.273484 110.394185 
L 417.150945 111.084086 
L 418.1634 111.596202 
L 419.445842 111.977029 
L 421.133266 112.229585 
L 423.833145 112.380215 
L 429.907872 112.43667 
L 446.849612 112.440734 
L 446.917109 121.085586 
L 446.984606 120.943043 
L 447.727072 118.442347 
L 448.469539 116.676322 
L 449.212006 115.430069 
L 450.021969 114.484793 
L 450.89943 113.794891 
L 451.911884 113.282774 
L 453.194327 112.901945 
L 454.881751 112.649387 
L 457.58163 112.498754 
L 463.656357 112.442291 
L 480.598097 112.438209 
L 480.598097 112.438209 
" clip-path="url(#p33c52f8e1a)" style="fill: none; stroke-dasharray: 5.55,2.4; stroke-dashoffset: 0; stroke: #1f77b4; stroke-width: 1.5"/>
   </g>
   <g id="line2d_34">
    <path d="M 75.616278 112.439406 
L 78.24866 112.333212 
L 79.801091 112.067194 
L 80.47606 111.75014 
L 80.881042 111.340578 
L 81.218527 110.680095 
L 81.488515 109.69225 
L 81.758503 107.805646 
L 82.028491 103.831742 
L 82.230981 97.65466 
L 82.433472 85.228485 
L 82.70346 49.81471 
L 82.838454 32.934489 
L 82.905951 36.868546 
L 83.040945 97.335447 
L 83.310933 245.261761 
L 83.37843 241.928463 
L 83.580921 164.590447 
L 83.850909 75.386031 
L 83.918406 73.073664 
L 84.0534 84.648458 
L 84.390884 120.565172 
L 84.458381 122.007251 
L 84.525878 121.722905 
L 85.065854 110.043273 
L 85.133351 110.301235 
L 85.60583 113.039608 
L 85.740824 112.912394 
L 86.145806 112.295355 
L 86.415794 112.374573 
L 86.820775 112.470604 
L 88.373206 112.422626 
L 95.257897 112.229971 
L 97.822781 111.962823 
L 99.105224 111.634285 
L 99.847691 111.24921 
L 100.387666 110.734379 
L 100.792648 110.050356 
L 101.130133 109.053762 
L 101.467618 107.185289 
L 101.737606 104.24007 
L 102.007594 98.099217 
L 102.210084 88.581591 
L 102.480072 61.363699 
L 102.682563 37.402713 
L 102.75006 41.294856 
L 102.885054 95.559605 
L 103.155042 239.561658 
L 103.222539 239.509353 
L 103.357533 201.699298 
L 103.695018 80.460257 
L 103.762515 74.851725 
L 103.830012 75.384035 
L 104.032503 95.377895 
L 104.302491 117.259636 
L 104.437484 118.847053 
L 104.572478 116.387402 
L 104.97746 107.143859 
L 105.179951 106.295618 
L 105.517436 106.545371 
L 105.65243 106.109065 
L 105.854921 104.462026 
L 106.124909 100.285836 
L 106.462394 91.323018 
L 106.799878 82.652807 
L 106.867375 83.502711 
L 107.002369 91.83109 
L 107.474848 153.439517 
L 107.542345 153.326728 
L 107.677339 144.350324 
L 108.419806 73.400652 
L 108.487303 72.052012 
L 108.5548 72.614244 
L 108.689794 82.265492 
L 109.162272 158.27886 
L 109.229769 156.990233 
L 109.43226 134.509786 
L 109.837242 89.380635 
L 109.972236 87.154371 
L 110.10723 91.909891 
L 110.647206 129.404599 
L 110.714703 128.759299 
L 110.917194 119.999448 
L 111.254678 107.110316 
L 111.322175 106.876012 
L 111.457169 108.464407 
L 111.862151 115.704635 
L 111.929648 115.844877 
L 112.064642 115.220142 
L 112.469624 112.533019 
L 112.604618 112.595988 
L 113.077097 113.484028 
L 113.347084 113.300564 
L 113.617072 113.193947 
L 115.574484 113.536663 
L 117.396903 114.06326 
L 119.354315 114.860022 
L 122.324181 116.116336 
L 123.134145 116.173321 
L 123.944109 115.988986 
L 125.159054 115.42573 
L 126.778981 114.737531 
L 128.466406 114.296076 
L 131.70626 113.73055 
L 138.118472 112.841992 
L 143.180745 112.129189 
L 143.51823 111.790386 
L 145.408145 109.864495 
L 146.285606 108.907604 
L 146.960575 107.841652 
L 147.770539 106.087444 
L 148.310515 105.0689 
L 148.513006 104.962296 
L 148.715497 105.136244 
L 148.985484 105.89272 
L 150.065436 109.882165 
L 151.347878 110.762944 
L 152.090345 110.885009 
L 152.765315 111.015929 
L 154.250248 111.214162 
L 168.964587 112.894943 
L 172.879412 113.0901 
L 176.92923 113.240909 
L 177.266715 114.304885 
L 177.739194 115.952074 
L 178.211672 116.733507 
L 178.684151 117.186468 
L 179.15663 117.354185 
L 179.629109 117.295576 
L 180.169084 116.975363 
L 180.911551 116.216594 
L 182.463981 114.55757 
L 183.408939 113.918736 
L 184.488891 113.46298 
L 186.041321 113.06968 
L 188.538709 112.693593 
L 192.588527 112.327795 
L 197.583303 112.102711 
L 203.523036 112.067854 
L 210.610218 112.204932 
L 212.365139 107.773866 
L 212.837618 107.207253 
L 213.175103 107.061645 
L 213.445091 107.143295 
L 213.782575 107.507564 
L 214.322551 108.517075 
L 215.200012 110.089219 
L 215.874981 110.808834 
L 216.617448 111.276186 
L 217.6974 111.669354 
L 219.384824 112.016848 
L 222.287194 112.360054 
L 226.741994 112.656894 
L 231.669272 112.761072 
L 238.823951 112.656415 
L 244.358703 112.528711 
L 244.628691 113.584381 
L 245.168666 116.526705 
L 245.506151 117.012756 
L 245.97863 117.31197 
L 246.316115 117.259613 
L 246.856091 116.911841 
L 247.666054 116.059636 
L 249.218484 114.393826 
L 250.163442 113.715835 
L 251.243394 113.216655 
L 252.66083 112.826218 
L 254.685739 112.524046 
L 257.723103 112.316049 
L 262.717878 112.222366 
L 272.437442 112.297749 
L 278.107188 112.380352 
L 278.444672 111.209534 
L 279.052145 108.609369 
L 279.659618 107.408866 
L 280.0646 107.04388 
L 280.334587 107.042784 
L 280.672072 107.29817 
L 281.144551 108.045421 
L 282.359497 110.16676 
L 283.034466 110.856993 
L 283.84443 111.360913 
L 284.924381 111.756995 
L 286.544309 112.093145 
L 289.109194 112.373876 
L 293.159012 112.576271 
L 299.098745 112.634791 
L 311.923169 112.683922 
L 312.12566 113.761934 
L 312.598139 117.037849 
L 312.868127 117.411214 
L 313.4756 117.588185 
L 313.813084 117.374546 
L 314.555551 116.571921 
L 316.377969 114.441991 
L 317.322927 113.736485 
L 318.402878 113.222233 
L 319.752818 112.84144 
L 321.642733 112.557239 
L 324.545103 112.368872 
L 329.809866 112.285073 
L 341.891824 112.359665 
L 345.604157 112.397789 
L 345.874145 111.398894 
L 346.549115 108.016218 
L 347.089091 107.03733 
L 347.426575 106.816748 
L 347.696563 106.914293 
L 348.034048 107.304042 
L 348.641521 108.447621 
L 349.518981 109.981809 
L 350.193951 110.72438 
L 351.003915 111.274126 
L 352.083866 111.708952 
L 353.5688 112.049413 
L 355.863697 112.325054 
L 359.57603 112.521396 
L 365.58326 112.594987 
L 379.420139 112.681936 
L 379.62263 113.898053 
L 380.095109 117.465607 
L 380.2976 117.691855 
L 381.040066 117.670268 
L 381.512545 117.164845 
L 384.212424 114.048404 
L 385.157381 113.475746 
L 386.30483 113.040759 
L 387.85726 112.706822 
L 390.08466 112.474705 
L 393.796994 112.339536 
L 401.829133 112.31507 
L 413.101127 112.402551 
L 413.371115 111.309353 
L 413.978588 107.834808 
L 414.383569 107.06041 
L 414.721054 106.715498 
L 414.991042 106.74564 
L 415.328527 107.111761 
L 415.936 108.251702 
L 416.81346 109.843098 
L 417.48843 110.62535 
L 418.298394 111.208905 
L 419.310848 111.649567 
L 420.728284 112.006857 
L 422.820691 112.285083 
L 426.195539 112.484945 
L 431.932781 112.575769 
L 444.352224 112.496441 
L 446.849612 112.474103 
L 447.052103 113.404606 
L 447.659575 117.828099 
L 447.862066 117.841595 
L 448.267048 117.839007 
L 448.537036 117.715589 
L 449.144509 116.960824 
L 451.169418 114.433467 
L 452.114375 113.726005 
L 453.194327 113.21471 
L 454.544266 112.839269 
L 456.434181 112.566051 
L 459.336551 112.394381 
L 465.073794 112.319464 
L 479.923127 112.399671 
L 480.598097 112.404876 
L 480.598097 112.404876 
" clip-path="url(#p33c52f8e1a)" style="fill: none; stroke: #ff7f0e; stroke-width: 1.2; stroke-linecap: square"/>
   </g>
   <g id="patch_3">
    <path d="M 55.367188 255.878125 
L 55.367188 22.318125 
" style="fill: none; stroke: #000000; stroke-width: 0.8; stroke-linejoin: miter; stroke-linecap: square"/>
   </g>
   <g id="patch_4">
    <path d="M 500.847187 255.878125 
L 500.847187 22.318125 
" style="fill: none; stroke: #000000; stroke-width: 0.8; stroke-linejoin: miter; stroke-linecap: square"/>
   </g>
   <g id="patch_5">
    <path d="M 55.367188 255.878125 
L 500.847187 255.878125 
" style="fill: none; stroke: #000000; stroke-width: 0.8; stroke-linejoin: miter; stroke-linecap: square"/>
   </g>
   <g id="patch_6">
    <path d="M 55.367188 22.318125 
L 500.847187 22.318125 
" style="fill: none; stroke: #000000; stroke-width: 0.8; stroke-linejoin: miter; stroke-linecap: square"/>
   </g>
   <g id="text_19">
    <!-- Seguimiento MRAC con tren de pulsos: q -->
    <g transform="translate(156.079375 16.318125) scale(0.12 -0.12)">
     <defs>
      <path id="DejaVuSans-53" d="M 3425 4513 
L 3425 3897 
Q 3066 4069 2747 4153 
Q 2428 4238 2131 4238 
Q 1616 4238 1336 4038 
Q 1056 3838 1056 3469 
Q 1056 3159 1242 3001 
Q 1428 2844 1947 2747 
L 2328 2669 
Q 3034 2534 3370 2195 
Q 3706 1856 3706 1288 
Q 3706 609 3251 259 
Q 2797 -91 1919 -91 
Q 1588 -91 1214 -16 
Q 841 59 441 206 
L 441 856 
Q 825 641 1194 531 
Q 1563 422 1919 422 
Q 2459 422 2753 634 
Q 3047 847 3047 1241 
Q 3047 1584 2836 1778 
Q 2625 1972 2144 2069 
L 1759 2144 
Q 1053 2284 737 2584 
Q 422 2884 422 3419 
Q 422 4038 858 4394 
Q 1294 4750 2059 4750 
Q 2388 4750 2728 4690 
Q 3069 4631 3425 4513 
z
" transform="scale(0.015625)"/>
      <path id="DejaVuSans-75" d="M 544 1381 
L 544 3500 
L 1119 3500 
L 1119 1403 
Q 1119 906 1312 657 
Q 1506 409 1894 409 
Q 2359 409 2629 706 
Q 2900 1003 2900 1516 
L 2900 3500 
L 3475 3500 
L 3475 0 
L 2900 0 
L 2900 538 
Q 2691 219 2414 64 
Q 2138 -91 1772 -91 
Q 1169 -91 856 284 
Q 544 659 544 1381 
z
M 1991 3584 
L 1991 3584 
z
" transform="scale(0.015625)"/>
      <path id="DejaVuSans-6e" d="M 3513 2113 
L 3513 0 
L 2938 0 
L 2938 2094 
Q 2938 2591 2744 2837 
Q 2550 3084 2163 3084 
Q 1697 3084 1428 2787 
Q 1159 2491 1159 1978 
L 1159 0 
L 581 0 
L 581 3500 
L 1159 3500 
L 1159 2956 
Q 1366 3272 1645 3428 
Q 1925 3584 2291 3584 
Q 2894 3584 3203 3211 
Q 3513 2838 3513 2113 
z
" transform="scale(0.015625)"/>
      <path id="DejaVuSans-74" d="M 1172 4494 
L 1172 3500 
L 2356 3500 
L 2356 3053 
L 1172 3053 
L 1172 1153 
Q 1172 725 1289 603 
Q 1406 481 1766 481 
L 2356 481 
L 2356 0 
L 1766 0 
Q 1100 0 847 248 
Q 594 497 594 1153 
L 594 3053 
L 172 3053 
L 172 3500 
L 594 3500 
L 594 4494 
L 1172 4494 
z
" transform="scale(0.015625)"/>
      <path id="DejaVuSans-4d" d="M 628 4666 
L 1569 4666 
L 2759 1491 
L 3956 4666 
L 4897 4666 
L 4897 0 
L 4281 0 
L 4281 4097 
L 3078 897 
L 2444 897 
L 1241 4097 
L 1241 0 
L 628 0 
L 628 4666 
z
" transform="scale(0.015625)"/>
      <path id="DejaVuSans-52" d="M 2841 2188 
Q 3044 2119 3236 1894 
Q 3428 1669 3622 1275 
L 4263 0 
L 3584 0 
L 2988 1197 
Q 2756 1666 2539 1819 
Q 2322 1972 1947 1972 
L 1259 1972 
L 1259 0 
L 628 0 
L 628 4666 
L 2053 4666 
Q 2853 4666 3247 4331 
Q 3641 3997 3641 3322 
Q 3641 2881 3436 2590 
Q 3231 2300 2841 2188 
z
M 1259 4147 
L 1259 2491 
L 2053 2491 
Q 2509 2491 2742 2702 
Q 2975 2913 2975 3322 
Q 2975 3731 2742 3939 
Q 2509 4147 2053 4147 
L 1259 4147 
z
" transform="scale(0.015625)"/>
      <path id="DejaVuSans-41" d="M 2188 4044 
L 1331 1722 
L 3047 1722 
L 2188 4044 
z
M 1831 4666 
L 2547 4666 
L 4325 0 
L 3669 0 
L 3244 1197 
L 1141 1197 
L 716 0 
L 50 0 
L 1831 4666 
z
" transform="scale(0.015625)"/>
      <path id="DejaVuSans-43" d="M 4122 4306 
L 4122 3641 
Q 3803 3938 3442 4084 
Q 3081 4231 2675 4231 
Q 1875 4231 1450 3742 
Q 1025 3253 1025 2328 
Q 1025 1406 1450 917 
Q 1875 428 2675 428 
Q 3081 428 3442 575 
Q 3803 722 4122 1019 
L 4122 359 
Q 3791 134 3420 21 
Q 3050 -91 2638 -91 
Q 1578 -91 968 557 
Q 359 1206 359 2328 
Q 359 3453 968 4101 
Q 1578 4750 2638 4750 
Q 3056 4750 3426 4639 
Q 3797 4528 4122 4306 
z
" transform="scale(0.015625)"/>
      <path id="DejaVuSans-63" d="M 3122 3366 
L 3122 2828 
Q 2878 2963 2633 3030 
Q 2388 3097 2138 3097 
Q 1578 3097 1268 2742 
Q 959 2388 959 1747 
Q 959 1106 1268 751 
Q 1578 397 2138 397 
Q 2388 397 2633 464 
Q 2878 531 3122 666 
L 3122 134 
Q 2881 22 2623 -34 
Q 2366 -91 2075 -91 
Q 1284 -91 818 406 
Q 353 903 353 1747 
Q 353 2603 823 3093 
Q 1294 3584 2113 3584 
Q 2378 3584 2631 3529 
Q 2884 3475 3122 3366 
z
" transform="scale(0.015625)"/>
      <path id="DejaVuSans-72" d="M 2631 2963 
Q 2534 3019 2420 3045 
Q 2306 3072 2169 3072 
Q 1681 3072 1420 2755 
Q 1159 2438 1159 1844 
L 1159 0 
L 581 0 
L 581 3500 
L 1159 3500 
L 1159 2956 
Q 1341 3275 1631 3429 
Q 1922 3584 2338 3584 
Q 2397 3584 2469 3576 
Q 2541 3569 2628 3553 
L 2631 2963 
z
" transform="scale(0.015625)"/>
      <path id="DejaVuSans-6c" d="M 603 4863 
L 1178 4863 
L 1178 0 
L 603 0 
L 603 4863 
z
" transform="scale(0.015625)"/>
      <path id="DejaVuSans-3a" d="M 750 794 
L 1409 794 
L 1409 0 
L 750 0 
L 750 794 
z
M 750 3309 
L 1409 3309 
L 1409 2516 
L 750 2516 
L 750 3309 
z
" transform="scale(0.015625)"/>
      <path id="DejaVuSans-71" d="M 947 1747 
Q 947 1113 1208 752 
Q 1469 391 1925 391 
Q 2381 391 2643 752 
Q 2906 1113 2906 1747 
Q 2906 2381 2643 2742 
Q 2381 3103 1925 3103 
Q 1469 3103 1208 2742 
Q 947 2381 947 1747 
z
M 2906 525 
Q 2725 213 2448 61 
Q 2172 -91 1784 -91 
Q 1150 -91 751 415 
Q 353 922 353 1747 
Q 353 2572 751 3078 
Q 1150 3584 1784 3584 
Q 2172 3584 2448 3432 
Q 2725 3281 2906 2969 
L 2906 3500 
L 3481 3500 
L 3481 -1331 
L 2906 -1331 
L 2906 525 
z
" transform="scale(0.015625)"/>
     </defs>
     <use xlink:href="#DejaVuSans-53"/>
     <use xlink:href="#DejaVuSans-65" transform="translate(63.476562 0)"/>
     <use xlink:href="#DejaVuSans-67" transform="translate(125 0)"/>
     <use xlink:href="#DejaVuSans-75" transform="translate(188.476562 0)"/>
     <use xlink:href="#DejaVuSans-69" transform="translate(251.855469 0)"/>
     <use xlink:href="#DejaVuSans-6d" transform="translate(279.638672 0)"/>
     <use xlink:href="#DejaVuSans-69" transform="translate(377.050781 0)"/>
     <use xlink:href="#DejaVuSans-65" transform="translate(404.833984 0)"/>
     <use xlink:href="#DejaVuSans-6e" transform="translate(466.357422 0)"/>
     <use xlink:href="#DejaVuSans-74" transform="translate(529.736328 0)"/>
     <use xlink:href="#DejaVuSans-6f" transform="translate(568.945312 0)"/>
     <use xlink:href="#DejaVuSans-20" transform="translate(630.126953 0)"/>
     <use xlink:href="#DejaVuSans-4d" transform="translate(661.914062 0)"/>
     <use xlink:href="#DejaVuSans-52" transform="translate(748.193359 0)"/>
     <use xlink:href="#DejaVuSans-41" transform="translate(813.675781 0)"/>
     <use xlink:href="#DejaVuSans-43" transform="translate(880.333984 0)"/>
     <use xlink:href="#DejaVuSans-20" transform="translate(950.158203 0)"/>
     <use xlink:href="#DejaVuSans-63" transform="translate(981.945312 0)"/>
     <use xlink:href="#DejaVuSans-6f" transform="translate(1036.925781 0)"/>
     <use xlink:href="#DejaVuSans-6e" transform="translate(1098.107422 0)"/>
     <use xlink:href="#DejaVuSans-20" transform="translate(1161.486328 0)"/>
     <use xlink:href="#DejaVuSans-74" transform="translate(1193.273438 0)"/>
     <use xlink:href="#DejaVuSans-72" transform="translate(1232.482422 0)"/>
     <use xlink:href="#DejaVuSans-65" transform="translate(1271.345703 0)"/>
     <use xlink:href="#DejaVuSans-6e" transform="translate(1332.869141 0)"/>
     <use xlink:href="#DejaVuSans-20" transform="translate(1396.248047 0)"/>
     <use xlink:href="#DejaVuSans-64" transform="translate(1428.035156 0)"/>
     <use xlink:href="#DejaVuSans-65" transform="translate(1491.511719 0)"/>
     <use xlink:href="#DejaVuSans-20" transform="translate(1553.035156 0)"/>
     <use xlink:href="#DejaVuSans-70" transform="translate(1584.822266 0)"/>
     <use xlink:href="#DejaVuSans-75" transform="translate(1648.298828 0)"/>
     <use xlink:href="#DejaVuSans-6c" transform="translate(1711.677734 0)"/>
     <use xlink:href="#DejaVuSans-73" transform="translate(1739.460938 0)"/>
     <use xlink:href="#DejaVuSans-6f" transform="translate(1791.560547 0)"/>
     <use xlink:href="#DejaVuSans-73" transform="translate(1852.742188 0)"/>
     <use xlink:href="#DejaVuSans-3a" transform="translate(1904.841797 0)"/>
     <use xlink:href="#DejaVuSans-20" transform="translate(1938.533203 0)"/>
     <use xlink:href="#DejaVuSans-71" transform="translate(1970.320312 0)"/>
    </g>
   </g>
   <g id="legend_1">
    <g id="patch_7">
     <path d="M 356.350312 59.674375 
L 493.847187 59.674375 
Q 495.847187 59.674375 495.847187 57.674375 
L 495.847187 29.318125 
Q 495.847187 27.318125 493.847187 27.318125 
L 356.350312 27.318125 
Q 354.350312 27.318125 354.350312 29.318125 
L 354.350312 57.674375 
Q 354.350312 59.674375 356.350312 59.674375 
z
" style="fill: #ffffff; opacity: 0.8; stroke: #cccccc; stroke-linejoin: miter"/>
    </g>
    <g id="line2d_35">
     <path d="M 358.350312 35.416562 
L 368.350312 35.416562 
L 378.350312 35.416562 
" style="fill: none; stroke-dasharray: 5.55,2.4; stroke-dashoffset: 0; stroke: #1f77b4; stroke-width: 1.5"/>
    </g>
    <g id="text_20">
     <!-- Modelo de referencia -->
     <g transform="translate(386.350312 38.916562) scale(0.1 -0.1)">
      <defs>
       <path id="DejaVuSans-66" d="M 2375 4863 
L 2375 4384 
L 1825 4384 
Q 1516 4384 1395 4259 
Q 1275 4134 1275 3809 
L 1275 3500 
L 2222 3500 
L 2222 3053 
L 1275 3053 
L 1275 0 
L 697 0 
L 697 3053 
L 147 3053 
L 147 3500 
L 697 3500 
L 697 3744 
Q 697 4328 969 4595 
Q 1241 4863 1831 4863 
L 2375 4863 
z
" transform="scale(0.015625)"/>
       <path id="DejaVuSans-61" d="M 2194 1759 
Q 1497 1759 1228 1600 
Q 959 1441 959 1056 
Q 959 750 1161 570 
Q 1363 391 1709 391 
Q 2188 391 2477 730 
Q 2766 1069 2766 1631 
L 2766 1759 
L 2194 1759 
z
M 3341 1997 
L 3341 0 
L 2766 0 
L 2766 531 
Q 2569 213 2275 61 
Q 1981 -91 1556 -91 
Q 1019 -91 701 211 
Q 384 513 384 1019 
Q 384 1609 779 1909 
Q 1175 2209 1959 2209 
L 2766 2209 
L 2766 2266 
Q 2766 2663 2505 2880 
Q 2244 3097 1772 3097 
Q 1472 3097 1187 3025 
Q 903 2953 641 2809 
L 641 3341 
Q 956 3463 1253 3523 
Q 1550 3584 1831 3584 
Q 2591 3584 2966 3190 
Q 3341 2797 3341 1997 
z
" transform="scale(0.015625)"/>
      </defs>
      <use xlink:href="#DejaVuSans-4d"/>
      <use xlink:href="#DejaVuSans-6f" transform="translate(86.279297 0)"/>
      <use xlink:href="#DejaVuSans-64" transform="translate(147.460938 0)"/>
      <use xlink:href="#DejaVuSans-65" transform="translate(210.9375 0)"/>
      <use xlink:href="#DejaVuSans-6c" transform="translate(272.460938 0)"/>
      <use xlink:href="#DejaVuSans-6f" transform="translate(300.244141 0)"/>
      <use xlink:href="#DejaVuSans-20" transform="translate(361.425781 0)"/>
      <use xlink:href="#DejaVuSans-64" transform="translate(393.212891 0)"/>
      <use xlink:href="#DejaVuSans-65" transform="translate(456.689453 0)"/>
      <use xlink:href="#DejaVuSans-20" transform="translate(518.212891 0)"/>
      <use xlink:href="#DejaVuSans-72" transform="translate(550 0)"/>
      <use xlink:href="#DejaVuSans-65" transform="translate(588.863281 0)"/>
      <use xlink:href="#DejaVuSans-66" transform="translate(650.386719 0)"/>
      <use xlink:href="#DejaVuSans-65" transform="translate(685.591797 0)"/>
      <use xlink:href="#DejaVuSans-72" transform="translate(747.115234 0)"/>
      <use xlink:href="#DejaVuSans-65" transform="translate(785.978516 0)"/>
      <use xlink:href="#DejaVuSans-6e" transform="translate(847.501953 0)"/>
      <use xlink:href="#DejaVuSans-63" transform="translate(910.880859 0)"/>
      <use xlink:href="#DejaVuSans-69" transform="translate(965.861328 0)"/>
      <use xlink:href="#DejaVuSans-61" transform="translate(993.644531 0)"/>
     </g>
    </g>
    <g id="line2d_36">
     <path d="M 358.350312 50.094687 
L 368.350312 50.094687 
L 378.350312 50.094687 
" style="fill: none; stroke: #ff7f0e; stroke-width: 1.2; stroke-linecap: square"/>
    </g>
    <g id="text_21">
     <!-- Planta -->
     <g transform="translate(386.350312 53.594687) scale(0.1 -0.1)">
      <defs>
       <path id="DejaVuSans-50" d="M 1259 4147 
L 1259 2394 
L 2053 2394 
Q 2494 2394 2734 2622 
Q 2975 2850 2975 3272 
Q 2975 3691 2734 3919 
Q 2494 4147 2053 4147 
L 1259 4147 
z
M 628 4666 
L 2053 4666 
Q 2838 4666 3239 4311 
Q 3641 3956 3641 3272 
Q 3641 2581 3239 2228 
Q 2838 1875 2053 1875 
L 1259 1875 
L 1259 0 
L 628 0 
L 628 4666 
z
" transform="scale(0.015625)"/>
      </defs>
      <use xlink:href="#DejaVuSans-50"/>
      <use xlink:href="#DejaVuSans-6c" transform="translate(60.302734 0)"/>
      <use xlink:href="#DejaVuSans-61" transform="translate(88.085938 0)"/>
      <use xlink:href="#DejaVuSans-6e" transform="translate(149.365234 0)"/>
      <use xlink:href="#DejaVuSans-74" transform="translate(212.744141 0)"/>
      <use xlink:href="#DejaVuSans-61" transform="translate(251.953125 0)"/>
     </g>
    </g>
   </g>
  </g>
 </g>
 <defs>
  <clipPath id="p33c52f8e1a">
   <rect x="55.367188" y="22.318125" width="445.48" height="233.56"/>
  </clipPath>
 </defs>
</svg>
