<?xml version="1.0" encoding="utf-8" standalone="no"?>
<!DOCTYPE svg PUBLIC "-//W3C//DTD SVG 1.1//EN"
  "http://www.w3.org/Graphics/SVG/1.1/DTD/svg11.dtd">
<svg xmlns:xlink="http://www.w3.org/1999/xlink" width="510.554812pt" height="293.434375pt" viewBox="0 0 510.554812 293.434375" xmlns="http://www.w3.org/2000/svg" version="1.1">
 <metadata>
  <rdf:RDF xmlns:dc="http://purl.org/dc/elements/1.1/" xmlns:cc="http://creativecommons.org/ns#" xmlns:rdf="http://www.w3.org/1999/02/22-rdf-syntax-ns#">
   <cc:Work>
    <dc:type rdf:resource="http://purl.org/dc/dcmitype/StillImage"/>
    <dc:date>2026-07-18T15:47:05.291278</dc:date>
    <dc:format>image/svg+xml</dc:format>
    <dc:creator>
     <cc:Agent>
      <dc:title>Matplotlib v3.10.8, https://matplotlib.org/</dc:title>
     </cc:Agent>
    </dc:creator>
   </cc:Work>
  </rdf:RDF>
 </metadata>
 <defs>
  <style type="text/css">*{stroke-linejoin: round; stroke-linecap: butt}</style>
 </defs>
 <g id="figure_1">
  <g id="patch_1">
   <path d="M 0 293.434375 
L 510.554812 293.434375 
L 510.554812 0 
L 0 0 
z
" style="fill: #ffffff"/>
  </g>
  <g id="axes_1">
   <g id="patch_2">
    <path d="M 48.982813 255.878125 
L 503.354812 255.878125 
L 503.354812 22.318125 
L 48.982813 22.318125 
z
" style="fill: #ffffff"/>
   </g>
   <g id="matplotlib.axis_1">
    <g id="xtick_1">
     <g id="line2d_1">
      <path d="M 69.636085 255.878125 
L 69.636085 22.318125 
" clip-path="url(#pcf0ab18bab)" style="fill: none; stroke: #b0b0b0; stroke-width: 0.8; stroke-linecap: square"/>
     </g>
     <g id="line2d_2">
      <defs>
       <path id="m5dc6bfed10" d="M 0 0 
L 0 3.5 
" style="stroke: #000000; stroke-width: 0.8"/>
      </defs>
      <g>
       <use xlink:href="#m5dc6bfed10" x="69.636085" y="255.878125" style="stroke: #000000; stroke-width: 0.8"/>
      </g>
     </g>
     <g id="text_1">
      <!-- 0 -->
      <g transform="translate(66.454835 270.476562) scale(0.1 -0.1)">
       <defs>
        <path id="DejaVuSans-30" d="M 2034 4250 
Q 1547 4250 1301 3770 
Q 1056 3291 1056 2328 
Q 1056 1369 1301 889 
Q 1547 409 2034 409 
Q 2525 409 2770 889 
Q 3016 1369 3016 2328 
Q 3016 3291 2770 3770 
Q 2525 4250 2034 4250 
z
M 2034 4750 
Q 2819 4750 3233 4129 
Q 3647 3509 3647 2328 
Q 3647 1150 3233 529 
Q 2819 -91 2034 -91 
Q 1250 -91 836 529 
Q 422 1150 422 2328 
Q 422 3509 836 4129 
Q 1250 4750 2034 4750 
z
" transform="scale(0.015625)"/>
       </defs>
       <use xlink:href="#DejaVuSans-30"/>
      </g>
     </g>
    </g>
    <g id="xtick_2">
     <g id="line2d_3">
      <path d="M 138.480328 255.878125 
L 138.480328 22.318125 
" clip-path="url(#pcf0ab18bab)" style="fill: none; stroke: #b0b0b0; stroke-width: 0.8; stroke-linecap: square"/>
     </g>
     <g id="line2d_4">
      <g>
       <use xlink:href="#m5dc6bfed10" x="138.480328" y="255.878125" style="stroke: #000000; stroke-width: 0.8"/>
      </g>
     </g>
     <g id="text_2">
      <!-- 10 -->
      <g transform="translate(132.117828 270.476562) scale(0.1 -0.1)">
       <defs>
        <path id="DejaVuSans-31" d="M 794 531 
L 1825 531 
L 1825 4091 
L 703 3866 
L 703 4441 
L 1819 4666 
L 2450 4666 
L 2450 531 
L 3481 531 
L 3481 0 
L 794 0 
L 794 531 
z
" transform="scale(0.015625)"/>
       </defs>
       <use xlink:href="#DejaVuSans-31"/>
       <use xlink:href="#DejaVuSans-30" transform="translate(63.623047 0)"/>
      </g>
     </g>
    </g>
    <g id="xtick_3">
     <g id="line2d_5">
      <path d="M 207.32457 255.878125 
L 207.32457 22.318125 
" clip-path="url(#pcf0ab18bab)" style="fill: none; stroke: #b0b0b0; stroke-width: 0.8; stroke-linecap: square"/>
     </g>
     <g id="line2d_6">
      <g>
       <use xlink:href="#m5dc6bfed10" x="207.32457" y="255.878125" style="stroke: #000000; stroke-width: 0.8"/>
      </g>
     </g>
     <g id="text_3">
      <!-- 20 -->
      <g transform="translate(200.96207 270.476562) scale(0.1 -0.1)">
       <defs>
        <path id="DejaVuSans-32" d="M 1228 531 
L 3431 531 
L 3431 0 
L 469 0 
L 469 531 
Q 828 903 1448 1529 
Q 2069 2156 2228 2338 
Q 2531 2678 2651 2914 
Q 2772 3150 2772 3378 
Q 2772 3750 2511 3984 
Q 2250 4219 1831 4219 
Q 1534 4219 1204 4116 
Q 875 4013 500 3803 
L 500 4441 
Q 881 4594 1212 4672 
Q 1544 4750 1819 4750 
Q 2544 4750 2975 4387 
Q 3406 4025 3406 3419 
Q 3406 3131 3298 2873 
Q 3191 2616 2906 2266 
Q 2828 2175 2409 1742 
Q 1991 1309 1228 531 
z
" transform="scale(0.015625)"/>
       </defs>
       <use xlink:href="#DejaVuSans-32"/>
       <use xlink:href="#DejaVuSans-30" transform="translate(63.623047 0)"/>
      </g>
     </g>
    </g>
    <g id="xtick_4">
     <g id="line2d_7">
      <path d="M 276.168812 255.878125 
L 276.168812 22.318125 
" clip-path="url(#pcf0ab18bab)" style="fill: none; stroke: #b0b0b0; stroke-width: 0.8; stroke-linecap: square"/>
     </g>
     <g id="line2d_8">
      <g>
       <use xlink:href="#m5dc6bfed10" x="276.168812" y="255.878125" style="stroke: #000000; stroke-width: 0.8"/>
      </g>
     </g>
     <g id="text_4">
      <!-- 30 -->
      <g transform="translate(269.806312 270.476562) scale(0.1 -0.1)">
       <defs>
        <path id="DejaVuSans-33" d="M 2597 2516 
Q 3050 2419 3304 2112 
Q 3559 1806 3559 1356 
Q 3559 666 3084 287 
Q 2609 -91 1734 -91 
Q 1441 -91 1130 -33 
Q 819 25 488 141 
L 488 750 
Q 750 597 1062 519 
Q 1375 441 1716 441 
Q 2309 441 2620 675 
Q 2931 909 2931 1356 
Q 2931 1769 2642 2001 
Q 2353 2234 1838 2234 
L 1294 2234 
L 1294 2753 
L 1863 2753 
Q 2328 2753 2575 2939 
Q 2822 3125 2822 3475 
Q 2822 3834 2567 4026 
Q 2313 4219 1838 4219 
Q 1578 4219 1281 4162 
Q 984 4106 628 3988 
L 628 4550 
Q 988 4650 1302 4700 
Q 1616 4750 1894 4750 
Q 2613 4750 3031 4423 
Q 3450 4097 3450 3541 
Q 3450 3153 3228 2886 
Q 3006 2619 2597 2516 
z
" transform="scale(0.015625)"/>
       </defs>
       <use xlink:href="#DejaVuSans-33"/>
       <use xlink:href="#DejaVuSans-30" transform="translate(63.623047 0)"/>
      </g>
     </g>
    </g>
    <g id="xtick_5">
     <g id="line2d_9">
      <path d="M 345.013055 255.878125 
L 345.013055 22.318125 
" clip-path="url(#pcf0ab18bab)" style="fill: none; stroke: #b0b0b0; stroke-width: 0.8; stroke-linecap: square"/>
     </g>
     <g id="line2d_10">
      <g>
       <use xlink:href="#m5dc6bfed10" x="345.013055" y="255.878125" style="stroke: #000000; stroke-width: 0.8"/>
      </g>
     </g>
     <g id="text_5">
      <!-- 40 -->
      <g transform="translate(338.650555 270.476562) scale(0.1 -0.1)">
       <defs>
        <path id="DejaVuSans-34" d="M 2419 4116 
L 825 1625 
L 2419 1625 
L 2419 4116 
z
M 2253 4666 
L 3047 4666 
L 3047 1625 
L 3713 1625 
L 3713 1100 
L 3047 1100 
L 3047 0 
L 2419 0 
L 2419 1100 
L 313 1100 
L 313 1709 
L 2253 4666 
z
" transform="scale(0.015625)"/>
       </defs>
       <use xlink:href="#DejaVuSans-34"/>
       <use xlink:href="#DejaVuSans-30" transform="translate(63.623047 0)"/>
      </g>
     </g>
    </g>
    <g id="xtick_6">
     <g id="line2d_11">
      <path d="M 413.857297 255.878125 
L 413.857297 22.318125 
" clip-path="url(#pcf0ab18bab)" style="fill: none; stroke: #b0b0b0; stroke-width: 0.8; stroke-linecap: square"/>
     </g>
     <g id="line2d_12">
      <g>
       <use xlink:href="#m5dc6bfed10" x="413.857297" y="255.878125" style="stroke: #000000; stroke-width: 0.8"/>
      </g>
     </g>
     <g id="text_6">
      <!-- 50 -->
      <g transform="translate(407.494797 270.476562) scale(0.1 -0.1)">
       <defs>
        <path id="DejaVuSans-35" d="M 691 4666 
L 3169 4666 
L 3169 4134 
L 1269 4134 
L 1269 2991 
Q 1406 3038 1543 3061 
Q 1681 3084 1819 3084 
Q 2600 3084 3056 2656 
Q 3513 2228 3513 1497 
Q 3513 744 3044 326 
Q 2575 -91 1722 -91 
Q 1428 -91 1123 -41 
Q 819 9 494 109 
L 494 744 
Q 775 591 1075 516 
Q 1375 441 1709 441 
Q 2250 441 2565 725 
Q 2881 1009 2881 1497 
Q 2881 1984 2565 2268 
Q 2250 2553 1709 2553 
Q 1456 2553 1204 2497 
Q 953 2441 691 2322 
L 691 4666 
z
" transform="scale(0.015625)"/>
       </defs>
       <use xlink:href="#DejaVuSans-35"/>
       <use xlink:href="#DejaVuSans-30" transform="translate(63.623047 0)"/>
      </g>
     </g>
    </g>
    <g id="xtick_7">
     <g id="line2d_13">
      <path d="M 482.70154 255.878125 
L 482.70154 22.318125 
" clip-path="url(#pcf0ab18bab)" style="fill: none; stroke: #b0b0b0; stroke-width: 0.8; stroke-linecap: square"/>
     </g>
     <g id="line2d_14">
      <g>
       <use xlink:href="#m5dc6bfed10" x="482.70154" y="255.878125" style="stroke: #000000; stroke-width: 0.8"/>
      </g>
     </g>
     <g id="text_7">
      <!-- 60 -->
      <g transform="translate(476.33904 270.476562) scale(0.1 -0.1)">
       <defs>
        <path id="DejaVuSans-36" d="M 2113 2584 
Q 1688 2584 1439 2293 
Q 1191 2003 1191 1497 
Q 1191 994 1439 701 
Q 1688 409 2113 409 
Q 2538 409 2786 701 
Q 3034 994 3034 1497 
Q 3034 2003 2786 2293 
Q 2538 2584 2113 2584 
z
M 3366 4563 
L 3366 3988 
Q 3128 4100 2886 4159 
Q 2644 4219 2406 4219 
Q 1781 4219 1451 3797 
Q 1122 3375 1075 2522 
Q 1259 2794 1537 2939 
Q 1816 3084 2150 3084 
Q 2853 3084 3261 2657 
Q 3669 2231 3669 1497 
Q 3669 778 3244 343 
Q 2819 -91 2113 -91 
Q 1303 -91 875 529 
Q 447 1150 447 2328 
Q 447 3434 972 4092 
Q 1497 4750 2381 4750 
Q 2619 4750 2861 4703 
Q 3103 4656 3366 4563 
z
" transform="scale(0.015625)"/>
       </defs>
       <use xlink:href="#DejaVuSans-36"/>
       <use xlink:href="#DejaVuSans-30" transform="translate(63.623047 0)"/>
      </g>
     </g>
    </g>
    <g id="text_8">
     <!-- Tiempo [s] -->
     <g transform="translate(249.606313 284.154687) scale(0.1 -0.1)">
      <defs>
       <path id="DejaVuSans-54" d="M -19 4666 
L 3928 4666 
L 3928 4134 
L 2272 4134 
L 2272 0 
L 1638 0 
L 1638 4134 
L -19 4134 
L -19 4666 
z
" transform="scale(0.015625)"/>
       <path id="DejaVuSans-69" d="M 603 3500 
L 1178 3500 
L 1178 0 
L 603 0 
L 603 3500 
z
M 603 4863 
L 1178 4863 
L 1178 4134 
L 603 4134 
L 603 4863 
z
" transform="scale(0.015625)"/>
       <path id="DejaVuSans-65" d="M 3597 1894 
L 3597 1613 
L 953 1613 
Q 991 1019 1311 708 
Q 1631 397 2203 397 
Q 2534 397 2845 478 
Q 3156 559 3463 722 
L 3463 178 
Q 3153 47 2828 -22 
Q 2503 -91 2169 -91 
Q 1331 -91 842 396 
Q 353 884 353 1716 
Q 353 2575 817 3079 
Q 1281 3584 2069 3584 
Q 2775 3584 3186 3129 
Q 3597 2675 3597 1894 
z
M 3022 2063 
Q 3016 2534 2758 2815 
Q 2500 3097 2075 3097 
Q 1594 3097 1305 2825 
Q 1016 2553 972 2059 
L 3022 2063 
z
" transform="scale(0.015625)"/>
       <path id="DejaVuSans-6d" d="M 3328 2828 
Q 3544 3216 3844 3400 
Q 4144 3584 4550 3584 
Q 5097 3584 5394 3201 
Q 5691 2819 5691 2113 
L 5691 0 
L 5113 0 
L 5113 2094 
Q 5113 2597 4934 2840 
Q 4756 3084 4391 3084 
Q 3944 3084 3684 2787 
Q 3425 2491 3425 1978 
L 3425 0 
L 2847 0 
L 2847 2094 
Q 2847 2600 2669 2842 
Q 2491 3084 2119 3084 
Q 1678 3084 1418 2786 
Q 1159 2488 1159 1978 
L 1159 0 
L 581 0 
L 581 3500 
L 1159 3500 
L 1159 2956 
Q 1356 3278 1631 3431 
Q 1906 3584 2284 3584 
Q 2666 3584 2933 3390 
Q 3200 3197 3328 2828 
z
" transform="scale(0.015625)"/>
       <path id="DejaVuSans-70" d="M 1159 525 
L 1159 -1331 
L 581 -1331 
L 581 3500 
L 1159 3500 
L 1159 2969 
Q 1341 3281 1617 3432 
Q 1894 3584 2278 3584 
Q 2916 3584 3314 3078 
Q 3713 2572 3713 1747 
Q 3713 922 3314 415 
Q 2916 -91 2278 -91 
Q 1894 -91 1617 61 
Q 1341 213 1159 525 
z
M 3116 1747 
Q 3116 2381 2855 2742 
Q 2594 3103 2138 3103 
Q 1681 3103 1420 2742 
Q 1159 2381 1159 1747 
Q 1159 1113 1420 752 
Q 1681 391 2138 391 
Q 2594 391 2855 752 
Q 3116 1113 3116 1747 
z
" transform="scale(0.015625)"/>
       <path id="DejaVuSans-6f" d="M 1959 3097 
Q 1497 3097 1228 2736 
Q 959 2375 959 1747 
Q 959 1119 1226 758 
Q 1494 397 1959 397 
Q 2419 397 2687 759 
Q 2956 1122 2956 1747 
Q 2956 2369 2687 2733 
Q 2419 3097 1959 3097 
z
M 1959 3584 
Q 2709 3584 3137 3096 
Q 3566 2609 3566 1747 
Q 3566 888 3137 398 
Q 2709 -91 1959 -91 
Q 1206 -91 779 398 
Q 353 888 353 1747 
Q 353 2609 779 3096 
Q 1206 3584 1959 3584 
z
" transform="scale(0.015625)"/>
       <path id="DejaVuSans-20" transform="scale(0.015625)"/>
       <path id="DejaVuSans-5b" d="M 550 4863 
L 1875 4863 
L 1875 4416 
L 1125 4416 
L 1125 -397 
L 1875 -397 
L 1875 -844 
L 550 -844 
L 550 4863 
z
" transform="scale(0.015625)"/>
       <path id="DejaVuSans-73" d="M 2834 3397 
L 2834 2853 
Q 2591 2978 2328 3040 
Q 2066 3103 1784 3103 
Q 1356 3103 1142 2972 
Q 928 2841 928 2578 
Q 928 2378 1081 2264 
Q 1234 2150 1697 2047 
L 1894 2003 
Q 2506 1872 2764 1633 
Q 3022 1394 3022 966 
Q 3022 478 2636 193 
Q 2250 -91 1575 -91 
Q 1294 -91 989 -36 
Q 684 19 347 128 
L 347 722 
Q 666 556 975 473 
Q 1284 391 1588 391 
Q 1994 391 2212 530 
Q 2431 669 2431 922 
Q 2431 1156 2273 1281 
Q 2116 1406 1581 1522 
L 1381 1569 
Q 847 1681 609 1914 
Q 372 2147 372 2553 
Q 372 3047 722 3315 
Q 1072 3584 1716 3584 
Q 2034 3584 2315 3537 
Q 2597 3491 2834 3397 
z
" transform="scale(0.015625)"/>
       <path id="DejaVuSans-5d" d="M 1947 4863 
L 1947 -844 
L 622 -844 
L 622 -397 
L 1369 -397 
L 1369 4416 
L 622 4416 
L 622 4863 
L 1947 4863 
z
" transform="scale(0.015625)"/>
      </defs>
      <use xlink:href="#DejaVuSans-54"/>
      <use xlink:href="#DejaVuSans-69" transform="translate(57.958984 0)"/>
      <use xlink:href="#DejaVuSans-65" transform="translate(85.742188 0)"/>
      <use xlink:href="#DejaVuSans-6d" transform="translate(147.265625 0)"/>
      <use xlink:href="#DejaVuSans-70" transform="translate(244.677734 0)"/>
      <use xlink:href="#DejaVuSans-6f" transform="translate(308.154297 0)"/>
      <use xlink:href="#DejaVuSans-20" transform="translate(369.335938 0)"/>
      <use xlink:href="#DejaVuSans-5b" transform="translate(401.123047 0)"/>
      <use xlink:href="#DejaVuSans-73" transform="translate(440.136719 0)"/>
      <use xlink:href="#DejaVuSans-5d" transform="translate(492.236328 0)"/>
     </g>
    </g>
   </g>
   <g id="matplotlib.axis_2">
    <g id="ytick_1">
     <g id="line2d_15">
      <path d="M 48.982813 250.151914 
L 503.354812 250.151914 
" clip-path="url(#pcf0ab18bab)" style="fill: none; stroke: #b0b0b0; stroke-width: 0.8; stroke-linecap: square"/>
     </g>
     <g id="line2d_16">
      <defs>
       <path id="m2e370168ea" d="M 0 0 
L -3.5 0 
" style="stroke: #000000; stroke-width: 0.8"/>
      </defs>
      <g>
       <use xlink:href="#m2e370168ea" x="48.982813" y="250.151914" style="stroke: #000000; stroke-width: 0.8"/>
      </g>
     </g>
     <g id="text_9">
      <!-- −15 -->
      <g transform="translate(20.878125 253.951132) scale(0.1 -0.1)">
       <defs>
        <path id="DejaVuSans-2212" d="M 678 2272 
L 4684 2272 
L 4684 1741 
L 678 1741 
L 678 2272 
z
" transform="scale(0.015625)"/>
       </defs>
       <use xlink:href="#DejaVuSans-2212"/>
       <use xlink:href="#DejaVuSans-31" transform="translate(83.789062 0)"/>
       <use xlink:href="#DejaVuSans-35" transform="translate(147.412109 0)"/>
      </g>
     </g>
    </g>
    <g id="ytick_2">
     <g id="line2d_17">
      <path d="M 48.982813 200.640264 
L 503.354812 200.640264 
" clip-path="url(#pcf0ab18bab)" style="fill: none; stroke: #b0b0b0; stroke-width: 0.8; stroke-linecap: square"/>
     </g>
     <g id="line2d_18">
      <g>
       <use xlink:href="#m2e370168ea" x="48.982813" y="200.640264" style="stroke: #000000; stroke-width: 0.8"/>
      </g>
     </g>
     <g id="text_10">
      <!-- −10 -->
      <g transform="translate(20.878125 204.439483) scale(0.1 -0.1)">
       <use xlink:href="#DejaVuSans-2212"/>
       <use xlink:href="#DejaVuSans-31" transform="translate(83.789062 0)"/>
       <use xlink:href="#DejaVuSans-30" transform="translate(147.412109 0)"/>
      </g>
     </g>
    </g>
    <g id="ytick_3">
     <g id="line2d_19">
      <path d="M 48.982813 151.128615 
L 503.354812 151.128615 
" clip-path="url(#pcf0ab18bab)" style="fill: none; stroke: #b0b0b0; stroke-width: 0.8; stroke-linecap: square"/>
     </g>
     <g id="line2d_20">
      <g>
       <use xlink:href="#m2e370168ea" x="48.982813" y="151.128615" style="stroke: #000000; stroke-width: 0.8"/>
      </g>
     </g>
     <g id="text_11">
      <!-- −5 -->
      <g transform="translate(27.240625 154.927834) scale(0.1 -0.1)">
       <use xlink:href="#DejaVuSans-2212"/>
       <use xlink:href="#DejaVuSans-35" transform="translate(83.789062 0)"/>
      </g>
     </g>
    </g>
    <g id="ytick_4">
     <g id="line2d_21">
      <path d="M 48.982813 101.616966 
L 503.354812 101.616966 
" clip-path="url(#pcf0ab18bab)" style="fill: none; stroke: #b0b0b0; stroke-width: 0.8; stroke-linecap: square"/>
     </g>
     <g id="line2d_22">
      <g>
       <use xlink:href="#m2e370168ea" x="48.982813" y="101.616966" style="stroke: #000000; stroke-width: 0.8"/>
      </g>
     </g>
     <g id="text_12">
      <!-- 0 -->
      <g transform="translate(35.620312 105.416184) scale(0.1 -0.1)">
       <use xlink:href="#DejaVuSans-30"/>
      </g>
     </g>
    </g>
    <g id="ytick_5">
     <g id="line2d_23">
      <path d="M 48.982813 52.105316 
L 503.354812 52.105316 
" clip-path="url(#pcf0ab18bab)" style="fill: none; stroke: #b0b0b0; stroke-width: 0.8; stroke-linecap: square"/>
     </g>
     <g id="line2d_24">
      <g>
       <use xlink:href="#m2e370168ea" x="48.982813" y="52.105316" style="stroke: #000000; stroke-width: 0.8"/>
      </g>
     </g>
     <g id="text_13">
      <!-- 5 -->
      <g transform="translate(35.620312 55.904535) scale(0.1 -0.1)">
       <use xlink:href="#DejaVuSans-35"/>
      </g>
     </g>
    </g>
    <g id="text_14">
     <!-- $e_{uz}$ -->
     <g transform="translate(14.798438 146.398125) rotate(-90) scale(0.1 -0.1)">
      <defs>
       <path id="DejaVuSans-Oblique-65" d="M 3078 2063 
Q 3088 2113 3092 2166 
Q 3097 2219 3097 2272 
Q 3097 2653 2873 2875 
Q 2650 3097 2266 3097 
Q 1838 3097 1509 2826 
Q 1181 2556 1013 2059 
L 3078 2063 
z
M 3578 1613 
L 903 1613 
Q 884 1494 878 1425 
Q 872 1356 872 1306 
Q 872 872 1139 634 
Q 1406 397 1894 397 
Q 2269 397 2603 481 
Q 2938 566 3225 728 
L 3116 159 
Q 2806 34 2476 -28 
Q 2147 -91 1806 -91 
Q 1078 -91 686 257 
Q 294 606 294 1247 
Q 294 1794 489 2264 
Q 684 2734 1063 3103 
Q 1306 3334 1642 3459 
Q 1978 3584 2356 3584 
Q 2950 3584 3301 3228 
Q 3653 2872 3653 2272 
Q 3653 2128 3634 1964 
Q 3616 1800 3578 1613 
z
" transform="scale(0.015625)"/>
       <path id="DejaVuSans-Oblique-75" d="M 428 1388 
L 838 3500 
L 1416 3500 
L 1006 1409 
Q 975 1256 961 1147 
Q 947 1038 947 966 
Q 947 700 1109 554 
Q 1272 409 1569 409 
Q 2031 409 2368 721 
Q 2706 1034 2809 1563 
L 3194 3500 
L 3769 3500 
L 3091 0 
L 2516 0 
L 2631 550 
Q 2388 244 2052 76 
Q 1716 -91 1338 -91 
Q 878 -91 622 161 
Q 366 413 366 863 
Q 366 956 381 1097 
Q 397 1238 428 1388 
z
" transform="scale(0.015625)"/>
       <path id="DejaVuSans-Oblique-7a" d="M 744 3500 
L 3475 3500 
L 3372 2975 
L 738 459 
L 2913 459 
L 2822 0 
L -19 0 
L 84 525 
L 2719 3041 
L 653 3041 
L 744 3500 
z
" transform="scale(0.015625)"/>
      </defs>
      <use xlink:href="#DejaVuSans-Oblique-65"/>
      <use xlink:href="#DejaVuSans-Oblique-75" transform="translate(61.523438 -16.40625) scale(0.7)"/>
      <use xlink:href="#DejaVuSans-Oblique-7a" transform="translate(105.888672 -16.40625) scale(0.7)"/>
     </g>
    </g>
   </g>
   <g id="line2d_25">
    <path d="M 69.636085 101.616966 
L 69.842618 93.870983 
L 70.462216 82.490506 
L 71.081814 75.101345 
L 71.632568 71.021781 
L 72.114478 68.910131 
L 72.527543 67.951023 
L 72.871765 67.640882 
L 73.147142 67.664513 
L 73.491363 67.989792 
L 73.904428 68.766697 
L 74.386338 70.18081 
L 74.868248 72.232756 
L 75.350157 75.331771 
L 75.694379 78.876728 
L 76.0386 85.076538 
L 76.313977 94.681747 
L 76.589354 115.067519 
L 76.864731 161.784266 
L 77.140108 215.159925 
L 77.208952 207.225074 
L 77.484329 89.323357 
L 77.690862 34.831681 
L 77.759706 32.934489 
L 77.897394 46.910991 
L 78.241616 88.512007 
L 78.31046 90.013466 
L 78.379304 89.598471 
L 78.861214 77.64192 
L 78.930058 77.76861 
L 79.136591 79.904048 
L 79.411968 82.37608 
L 79.6185 82.785388 
L 79.893877 82.862459 
L 80.10041 83.243578 
L 81.133074 85.679501 
L 82.785336 88.806558 
L 84.299909 91.167759 
L 85.883326 93.23119 
L 87.742121 95.281602 
L 92.285841 100.103545 
L 93.24966 101.598212 
L 94.006947 103.203883 
L 94.626545 105.075943 
L 95.108455 107.205427 
L 95.52152 109.945526 
L 95.934586 114.439129 
L 96.278807 121.206627 
L 96.554184 131.339278 
L 96.829561 151.836235 
L 97.104938 196.225407 
L 97.380315 245.261761 
L 97.449159 238.439225 
L 97.655692 157.611482 
L 97.931069 67.233749 
L 97.999913 62.687732 
L 98.068757 64.819681 
L 98.619511 118.466326 
L 98.688356 118.256975 
L 98.963732 111.392272 
L 99.170265 108.325498 
L 99.239109 108.284468 
L 99.376798 109.385851 
L 100.271773 123.372835 
L 100.615994 131.214508 
L 100.960216 145.348428 
L 101.373281 175.04978 
L 101.648658 191.35038 
L 101.717502 190.975133 
L 101.855191 182.072416 
L 102.474789 117.681208 
L 102.543633 118.192589 
L 102.681322 124.102282 
L 102.956699 149.310947 
L 103.369764 190.528109 
L 103.438608 191.250757 
L 103.576297 182.151179 
L 104.058206 118.26052 
L 104.127051 120.392606 
L 104.264739 125.342549 
L 104.677805 162.079384 
L 104.953182 174.929952 
L 105.022026 174.432354 
L 105.228559 166.13248 
L 105.57278 152.819237 
L 105.641624 152.503239 
L 105.779313 153.992825 
L 106.261222 161.671175 
L 106.398911 160.950336 
L 106.949665 155.797236 
L 107.500419 154.253008 
L 108.739615 146.6359 
L 110.667254 133.204507 
L 113.627556 110.840389 
L 116.243637 89.417003 
L 118.24012 73.453985 
L 119.135096 67.878721 
L 119.892382 64.436553 
L 120.580825 62.323888 
L 121.200423 61.131128 
L 121.751177 60.523246 
L 122.301931 60.251281 
L 122.852685 60.245107 
L 123.472283 60.489396 
L 124.160725 61.008018 
L 125.0557 61.987183 
L 126.157208 63.558632 
L 127.534093 65.950842 
L 129.255199 69.41671 
L 131.733592 74.962827 
L 138.480328 90.531696 
L 138.68686 83.479258 
L 139.16877 76.177501 
L 139.581836 72.570444 
L 139.926057 70.994965 
L 140.201434 70.517951 
L 140.407966 70.561523 
L 140.614499 70.915447 
L 140.95872 72.132453 
L 141.371786 74.535448 
L 141.92254 79.225464 
L 142.542138 86.528821 
L 143.23058 97.31787 
L 144.813998 123.719745 
L 145.158219 125.825297 
L 145.640129 127.336141 
L 146.190883 128.459067 
L 146.603948 128.784826 
L 147.7743 129.204932 
L 148.875808 129.069647 
L 149.770783 128.700245 
L 150.734603 128.092853 
L 151.904955 127.084406 
L 153.212996 125.648932 
L 154.727569 123.637568 
L 156.448675 120.970548 
L 158.514002 117.344171 
L 161.267772 112.018367 
L 166.568779 101.663776 
L 168.427573 98.576807 
L 169.942146 96.466728 
L 171.319031 94.920859 
L 172.558228 93.851754 
L 172.902449 93.609215 
L 173.108982 100.872237 
L 173.522047 106.637836 
L 173.866268 108.808274 
L 174.141645 109.399304 
L 174.279334 109.382206 
L 174.485866 109.024553 
L 174.830088 107.721234 
L 175.380842 104.406367 
L 177.446169 90.627553 
L 178.065767 88.224563 
L 178.685365 86.692342 
L 179.236119 85.892273 
L 179.786873 85.480202 
L 180.337627 85.352536 
L 180.957225 85.457378 
L 181.714512 85.843991 
L 182.678331 86.62547 
L 183.917528 87.951183 
L 185.638634 90.158085 
L 189.080846 95.04612 
L 191.972304 98.965674 
L 194.037631 101.403358 
L 195.827582 103.190439 
L 197.479843 104.544526 
L 199.063261 105.569826 
L 200.646679 106.334153 
L 202.230096 106.851236 
L 203.813514 107.140554 
L 205.53462 107.223863 
L 207.32457 107.089309 
L 207.531103 99.647919 
L 207.944168 93.304429 
L 208.288389 90.667559 
L 208.563766 89.848206 
L 208.701455 89.808949 
L 208.839143 89.994232 
L 209.11452 90.960851 
L 209.527586 93.5866 
L 210.422561 101.483051 
L 211.111003 106.577434 
L 211.661757 109.073405 
L 212.143667 110.346417 
L 212.625577 111.074638 
L 213.176331 111.499955 
L 213.795929 111.671043 
L 214.553216 111.616676 
L 215.448191 111.317472 
L 216.549699 110.711886 
L 217.926583 109.690672 
L 219.716534 108.059285 
L 222.607992 105.065297 
L 225.774827 101.882317 
L 227.702466 100.252914 
L 229.423572 99.085959 
L 231.006989 98.276597 
L 232.590407 97.719895 
L 234.173825 97.399546 
L 235.826086 97.288746 
L 237.684881 97.392716 
L 239.819052 97.743835 
L 241.746691 98.212301 
L 241.953224 105.574567 
L 242.297445 110.044506 
L 242.572822 111.460097 
L 242.848199 111.883639 
L 242.985888 111.812431 
L 243.19242 111.399326 
L 243.536642 110.109906 
L 244.225084 106.441115 
L 245.46428 99.898974 
L 246.152723 97.373028 
L 246.772321 95.83947 
L 247.391919 94.877291 
L 247.942673 94.388999 
L 248.562271 94.145944 
L 249.181869 94.141801 
L 249.939156 94.36847 
L 250.902976 94.907564 
L 252.27986 95.966498 
L 255.446696 98.799242 
L 257.7874 100.717974 
L 259.715039 102.022927 
L 261.573833 103.016061 
L 263.432628 103.754607 
L 265.291422 104.258586 
L 267.287905 104.568517 
L 269.422077 104.673742 
L 271.831625 104.564991 
L 274.654239 104.208734 
L 276.168812 103.94571 
L 276.375345 96.545392 
L 276.788411 90.926798 
L 277.063788 89.378591 
L 277.27032 88.997743 
L 277.408009 89.058944 
L 277.614542 89.571214 
L 277.958763 91.321156 
L 278.647205 96.544286 
L 279.473336 102.368839 
L 280.02409 104.841909 
L 280.574844 106.338045 
L 281.125598 107.200514 
L 281.676352 107.68002 
L 282.29595 107.942617 
L 283.053237 108.016968 
L 283.948212 107.880159 
L 285.118564 107.457984 
L 286.564293 106.684772 
L 288.698465 105.257329 
L 293.65525 101.859256 
L 295.720577 100.757643 
L 297.648216 99.978455 
L 299.575855 99.442852 
L 301.572338 99.125343 
L 303.706509 99.015445 
L 306.116058 99.118149 
L 309.07636 99.47677 
L 310.590934 99.724462 
L 310.797466 107.004348 
L 311.072843 110.40607 
L 311.34822 111.541312 
L 311.554753 111.722514 
L 311.692442 111.644369 
L 311.898974 111.23878 
L 312.243196 109.94065 
L 313.207015 104.947691 
L 314.10199 100.816343 
L 314.790432 98.58258 
L 315.410031 97.23947 
L 316.029629 96.396759 
L 316.649227 95.927555 
L 317.268825 95.730414 
L 317.957268 95.740166 
L 318.852243 96.000287 
L 320.022595 96.603387 
L 321.950234 97.898442 
L 325.667823 100.412222 
L 327.801994 101.568565 
L 329.867322 102.436158 
L 331.932649 103.066465 
L 334.135665 103.503845 
L 336.476369 103.740183 
L 339.09245 103.776848 
L 342.190441 103.58611 
L 345.013055 103.262942 
L 345.219588 95.913631 
L 345.563809 91.347849 
L 345.839186 89.946752 
L 346.045719 89.714483 
L 346.183407 89.868153 
L 346.38994 90.507733 
L 346.734161 92.41746 
L 348.455267 103.352794 
L 349.006021 105.004245 
L 349.556775 105.988211 
L 350.107529 106.563908 
L 350.727127 106.916058 
L 351.484414 107.084454 
L 352.379389 107.047295 
L 353.480897 106.771519 
L 354.926626 106.15989 
L 356.991953 105.013019 
L 362.361804 101.928798 
L 364.56482 100.97658 
L 366.630147 100.318839 
L 368.764319 99.872168 
L 371.036179 99.628587 
L 373.583416 99.589289 
L 376.543718 99.773992 
L 379.435176 100.108717 
L 379.641709 107.340162 
L 379.917086 110.448323 
L 380.123619 111.1382 
L 380.330151 111.242954 
L 380.536684 111.048142 
L 380.812061 110.310774 
L 381.362815 107.788309 
L 382.7397 101.336893 
L 383.428142 99.167112 
L 384.04774 97.856626 
L 384.667339 97.026193 
L 385.286937 96.553181 
L 385.906535 96.340051 
L 386.663822 96.329462 
L 387.558797 96.556954 
L 388.797993 97.130781 
L 390.932165 98.419365 
L 394.305533 100.425095 
L 396.577392 101.504964 
L 398.780408 102.303576 
L 401.052268 102.885456 
L 403.461817 103.265936 
L 406.077898 103.447294 
L 409.0382 103.422855 
L 412.686945 103.156418 
L 413.857297 103.033914 
L 414.06383 95.71534 
L 414.408051 91.423893 
L 414.683428 90.325898 
L 414.821117 90.240386 
L 414.958805 90.393437 
L 415.165338 91.025426 
L 415.509559 92.921857 
L 417.024132 102.44345 
L 417.574886 104.24184 
L 418.12564 105.332546 
L 418.676394 105.983729 
L 419.295993 106.399308 
L 420.053279 106.627994 
L 420.948254 106.649678 
L 422.049762 106.437805 
L 423.426647 105.934967 
L 425.42313 104.943025 
L 431.343735 101.860924 
L 433.615595 101.002476 
L 435.818611 100.406372 
L 438.090471 100.022544 
L 440.568863 99.835447 
L 443.391477 99.855814 
L 446.833689 100.114413 
L 448.279419 100.272179 
L 448.485951 107.474665 
L 448.761328 110.400918 
L 448.967861 110.919657 
L 449.174394 110.909308 
L 449.380926 110.653245 
L 449.656303 109.862411 
L 450.275902 106.975644 
L 451.446254 101.675129 
L 452.134696 99.521694 
L 452.754294 98.214089 
L 453.373893 97.378596 
L 453.993491 96.894781 
L 454.681933 96.653771 
L 455.43922 96.640853 
L 456.334195 96.852982 
L 457.573391 97.390853 
L 459.776407 98.637052 
L 463.149775 100.498522 
L 465.490479 101.521802 
L 467.762339 102.27097 
L 470.103043 102.80841 
L 472.581436 103.150519 
L 475.335206 103.303031 
L 478.502041 103.249 
L 482.495007 102.945173 
L 482.70154 102.924696 
L 482.70154 102.924696 
" clip-path="url(#pcf0ab18bab)" style="fill: none; stroke: #1f77b4; stroke-width: 1.2; stroke-linecap: square"/>
   </g>
   <g id="patch_3">
    <path d="M 48.982813 255.878125 
L 48.982813 22.318125 
" style="fill: none; stroke: #000000; stroke-width: 0.8; stroke-linejoin: miter; stroke-linecap: square"/>
   </g>
   <g id="patch_4">
    <path d="M 503.354812 255.878125 
L 503.354812 22.318125 
" style="fill: none; stroke: #000000; stroke-width: 0.8; stroke-linejoin: miter; stroke-linecap: square"/>
   </g>
   <g id="patch_5">
    <path d="M 48.982813 255.878125 
L 503.354812 255.878125 
" style="fill: none; stroke: #000000; stroke-width: 0.8; stroke-linejoin: miter; stroke-linecap: square"/>
   </g>
   <g id="patch_6">
    <path d="M 48.982813 22.318125 
L 503.354812 22.318125 
" style="fill: none; stroke: #000000; stroke-width: 0.8; stroke-linejoin: miter; stroke-linecap: square"/>
   </g>
   <g id="text_15">
    <!-- Error con tren de pulsos: uz -->
    <g transform="translate(193.386625 16.318125) scale(0.12 -0.12)">
     <defs>
      <path id="DejaVuSans-45" d="M 628 4666 
L 3578 4666 
L 3578 4134 
L 1259 4134 
L 1259 2753 
L 3481 2753 
L 3481 2222 
L 1259 2222 
L 1259 531 
L 3634 531 
L 3634 0 
L 628 0 
L 628 4666 
z
" transform="scale(0.015625)"/>
      <path id="DejaVuSans-72" d="M 2631 2963 
Q 2534 3019 2420 3045 
Q 2306 3072 2169 3072 
Q 1681 3072 1420 2755 
Q 1159 2438 1159 1844 
L 1159 0 
L 581 0 
L 581 3500 
L 1159 3500 
L 1159 2956 
Q 1341 3275 1631 3429 
Q 1922 3584 2338 3584 
Q 2397 3584 2469 3576 
Q 2541 3569 2628 3553 
L 2631 2963 
z
" transform="scale(0.015625)"/>
      <path id="DejaVuSans-63" d="M 3122 3366 
L 3122 2828 
Q 2878 2963 2633 3030 
Q 2388 3097 2138 3097 
Q 1578 3097 1268 2742 
Q 959 2388 959 1747 
Q 959 1106 1268 751 
Q 1578 397 2138 397 
Q 2388 397 2633 464 
Q 2878 531 3122 666 
L 3122 134 
Q 2881 22 2623 -34 
Q 2366 -91 2075 -91 
Q 1284 -91 818 406 
Q 353 903 353 1747 
Q 353 2603 823 3093 
Q 1294 3584 2113 3584 
Q 2378 3584 2631 3529 
Q 2884 3475 3122 3366 
z
" transform="scale(0.015625)"/>
      <path id="DejaVuSans-6e" d="M 3513 2113 
L 3513 0 
L 2938 0 
L 2938 2094 
Q 2938 2591 2744 2837 
Q 2550 3084 2163 3084 
Q 1697 3084 1428 2787 
Q 1159 2491 1159 1978 
L 1159 0 
L 581 0 
L 581 3500 
L 1159 3500 
L 1159 2956 
Q 1366 3272 1645 3428 
Q 1925 3584 2291 3584 
Q 2894 3584 3203 3211 
Q 3513 2838 3513 2113 
z
" transform="scale(0.015625)"/>
      <path id="DejaVuSans-74" d="M 1172 4494 
L 1172 3500 
L 2356 3500 
L 2356 3053 
L 1172 3053 
L 1172 1153 
Q 1172 725 1289 603 
Q 1406 481 1766 481 
L 2356 481 
L 2356 0 
L 1766 0 
Q 1100 0 847 248 
Q 594 497 594 1153 
L 594 3053 
L 172 3053 
L 172 3500 
L 594 3500 
L 594 4494 
L 1172 4494 
z
" transform="scale(0.015625)"/>
      <path id="DejaVuSans-64" d="M 2906 2969 
L 2906 4863 
L 3481 4863 
L 3481 0 
L 2906 0 
L 2906 525 
Q 2725 213 2448 61 
Q 2172 -91 1784 -91 
Q 1150 -91 751 415 
Q 353 922 353 1747 
Q 353 2572 751 3078 
Q 1150 3584 1784 3584 
Q 2172 3584 2448 3432 
Q 2725 3281 2906 2969 
z
M 947 1747 
Q 947 1113 1208 752 
Q 1469 391 1925 391 
Q 2381 391 2643 752 
Q 2906 1113 2906 1747 
Q 2906 2381 2643 2742 
Q 2381 3103 1925 3103 
Q 1469 3103 1208 2742 
Q 947 2381 947 1747 
z
" transform="scale(0.015625)"/>
      <path id="DejaVuSans-75" d="M 544 1381 
L 544 3500 
L 1119 3500 
L 1119 1403 
Q 1119 906 1312 657 
Q 1506 409 1894 409 
Q 2359 409 2629 706 
Q 2900 1003 2900 1516 
L 2900 3500 
L 3475 3500 
L 3475 0 
L 2900 0 
L 2900 538 
Q 2691 219 2414 64 
Q 2138 -91 1772 -91 
Q 1169 -91 856 284 
Q 544 659 544 1381 
z
M 1991 3584 
L 1991 3584 
z
" transform="scale(0.015625)"/>
      <path id="DejaVuSans-6c" d="M 603 4863 
L 1178 4863 
L 1178 0 
L 603 0 
L 603 4863 
z
" transform="scale(0.015625)"/>
      <path id="DejaVuSans-3a" d="M 750 794 
L 1409 794 
L 1409 0 
L 750 0 
L 750 794 
z
M 750 3309 
L 1409 3309 
L 1409 2516 
L 750 2516 
L 750 3309 
z
" transform="scale(0.015625)"/>
      <path id="DejaVuSans-7a" d="M 353 3500 
L 3084 3500 
L 3084 2975 
L 922 459 
L 3084 459 
L 3084 0 
L 275 0 
L 275 525 
L 2438 3041 
L 353 3041 
L 353 3500 
z
" transform="scale(0.015625)"/>
     </defs>
     <use xlink:href="#DejaVuSans-45"/>
     <use xlink:href="#DejaVuSans-72" transform="translate(63.183594 0)"/>
     <use xlink:href="#DejaVuSans-72" transform="translate(102.546875 0)"/>
     <use xlink:href="#DejaVuSans-6f" transform="translate(141.410156 0)"/>
     <use xlink:href="#DejaVuSans-72" transform="translate(202.591797 0)"/>
     <use xlink:href="#DejaVuSans-20" transform="translate(243.705078 0)"/>
     <use xlink:href="#DejaVuSans-63" transform="translate(275.492188 0)"/>
     <use xlink:href="#DejaVuSans-6f" transform="translate(330.472656 0)"/>
     <use xlink:href="#DejaVuSans-6e" transform="translate(391.654297 0)"/>
     <use xlink:href="#DejaVuSans-20" transform="translate(455.033203 0)"/>
     <use xlink:href="#DejaVuSans-74" transform="translate(486.820312 0)"/>
     <use xlink:href="#DejaVuSans-72" transform="translate(526.029297 0)"/>
     <use xlink:href="#DejaVuSans-65" transform="translate(564.892578 0)"/>
     <use xlink:href="#DejaVuSans-6e" transform="translate(626.416016 0)"/>
     <use xlink:href="#DejaVuSans-20" transform="translate(689.794922 0)"/>
     <use xlink:href="#DejaVuSans-64" transform="translate(721.582031 0)"/>
     <use xlink:href="#DejaVuSans-65" transform="translate(785.058594 0)"/>
     <use xlink:href="#DejaVuSans-20" transform="translate(846.582031 0)"/>
     <use xlink:href="#DejaVuSans-70" transform="translate(878.369141 0)"/>
     <use xlink:href="#DejaVuSans-75" transform="translate(941.845703 0)"/>
     <use xlink:href="#DejaVuSans-6c" transform="translate(1005.224609 0)"/>
     <use xlink:href="#DejaVuSans-73" transform="translate(1033.007812 0)"/>
     <use xlink:href="#DejaVuSans-6f" transform="translate(1085.107422 0)"/>
     <use xlink:href="#DejaVuSans-73" transform="translate(1146.289062 0)"/>
     <use xlink:href="#DejaVuSans-3a" transform="translate(1198.388672 0)"/>
     <use xlink:href="#DejaVuSans-20" transform="translate(1232.080078 0)"/>
     <use xlink:href="#DejaVuSans-75" transform="translate(1263.867188 0)"/>
     <use xlink:href="#DejaVuSans-7a" transform="translate(1327.246094 0)"/>
    </g>
   </g>
  </g>
 </g>
 <defs>
  <clipPath id="pcf0ab18bab">
   <rect x="48.982813" y="22.318125" width="454.372" height="233.56"/>
  </clipPath>
 </defs>
</svg>
