<?xml version="1.0" encoding="utf-8" standalone="no"?>
<!DOCTYPE svg PUBLIC "-//W3C//DTD SVG 1.1//EN"
  "http://www.w3.org/Graphics/SVG/1.1/DTD/svg11.dtd">
<svg xmlns:xlink="http://www.w3.org/1999/xlink" width="508.764312pt" height="293.434375pt" viewBox="0 0 508.764312 293.434375" xmlns="http://www.w3.org/2000/svg" version="1.1">
 <metadata>
  <rdf:RDF xmlns:dc="http://purl.org/dc/elements/1.1/" xmlns:cc="http://creativecommons.org/ns#" xmlns:rdf="http://www.w3.org/1999/02/22-rdf-syntax-ns#">
   <cc:Work>
    <dc:type rdf:resource="http://purl.org/dc/dcmitype/StillImage"/>
    <dc:date>2026-07-18T15:47:04.589580</dc:date>
    <dc:format>image/svg+xml</dc:format>
    <dc:creator>
     <cc:Agent>
      <dc:title>Matplotlib v3.10.8, https://matplotlib.org/</dc:title>
     </cc:Agent>
    </dc:creator>
   </cc:Work>
  </rdf:RDF>
 </metadata>
 <defs>
  <style type="text/css">*{stroke-linejoin: round; stroke-linecap: butt}</style>
 </defs>
 <g id="figure_1">
  <g id="patch_1">
   <path d="M 0 293.434375 
L 508.764312 293.434375 
L 508.764312 0 
L 0 0 
z
" style="fill: #ffffff"/>
  </g>
  <g id="axes_1">
   <g id="patch_2">
    <path d="M 42.620313 255.878125 
L 501.564312 255.878125 
L 501.564312 22.318125 
L 42.620313 22.318125 
z
" style="fill: #ffffff"/>
   </g>
   <g id="matplotlib.axis_1">
    <g id="xtick_1">
     <g id="line2d_1">
      <path d="M 63.481403 255.878125 
L 63.481403 22.318125 
" clip-path="url(#p5d62f31bb3)" style="fill: none; stroke: #b0b0b0; stroke-width: 0.8; stroke-linecap: square"/>
     </g>
     <g id="line2d_2">
      <defs>
       <path id="mcb11b13d81" d="M 0 0 
L 0 3.5 
" style="stroke: #000000; stroke-width: 0.8"/>
      </defs>
      <g>
       <use xlink:href="#mcb11b13d81" x="63.481403" y="255.878125" style="stroke: #000000; stroke-width: 0.8"/>
      </g>
     </g>
     <g id="text_1">
      <!-- 0 -->
      <g transform="translate(60.300153 270.476562) scale(0.1 -0.1)">
       <defs>
        <path id="DejaVuSans-30" d="M 2034 4250 
Q 1547 4250 1301 3770 
Q 1056 3291 1056 2328 
Q 1056 1369 1301 889 
Q 1547 409 2034 409 
Q 2525 409 2770 889 
Q 3016 1369 3016 2328 
Q 3016 3291 2770 3770 
Q 2525 4250 2034 4250 
z
M 2034 4750 
Q 2819 4750 3233 4129 
Q 3647 3509 3647 2328 
Q 3647 1150 3233 529 
Q 2819 -91 2034 -91 
Q 1250 -91 836 529 
Q 422 1150 422 2328 
Q 422 3509 836 4129 
Q 1250 4750 2034 4750 
z
" transform="scale(0.015625)"/>
       </defs>
       <use xlink:href="#DejaVuSans-30"/>
      </g>
     </g>
    </g>
    <g id="xtick_2">
     <g id="line2d_3">
      <path d="M 133.018373 255.878125 
L 133.018373 22.318125 
" clip-path="url(#p5d62f31bb3)" style="fill: none; stroke: #b0b0b0; stroke-width: 0.8; stroke-linecap: square"/>
     </g>
     <g id="line2d_4">
      <g>
       <use xlink:href="#mcb11b13d81" x="133.018373" y="255.878125" style="stroke: #000000; stroke-width: 0.8"/>
      </g>
     </g>
     <g id="text_2">
      <!-- 10 -->
      <g transform="translate(126.655873 270.476562) scale(0.1 -0.1)">
       <defs>
        <path id="DejaVuSans-31" d="M 794 531 
L 1825 531 
L 1825 4091 
L 703 3866 
L 703 4441 
L 1819 4666 
L 2450 4666 
L 2450 531 
L 3481 531 
L 3481 0 
L 794 0 
L 794 531 
z
" transform="scale(0.015625)"/>
       </defs>
       <use xlink:href="#DejaVuSans-31"/>
       <use xlink:href="#DejaVuSans-30" transform="translate(63.623047 0)"/>
      </g>
     </g>
    </g>
    <g id="xtick_3">
     <g id="line2d_5">
      <path d="M 202.555343 255.878125 
L 202.555343 22.318125 
" clip-path="url(#p5d62f31bb3)" style="fill: none; stroke: #b0b0b0; stroke-width: 0.8; stroke-linecap: square"/>
     </g>
     <g id="line2d_6">
      <g>
       <use xlink:href="#mcb11b13d81" x="202.555343" y="255.878125" style="stroke: #000000; stroke-width: 0.8"/>
      </g>
     </g>
     <g id="text_3">
      <!-- 20 -->
      <g transform="translate(196.192843 270.476562) scale(0.1 -0.1)">
       <defs>
        <path id="DejaVuSans-32" d="M 1228 531 
L 3431 531 
L 3431 0 
L 469 0 
L 469 531 
Q 828 903 1448 1529 
Q 2069 2156 2228 2338 
Q 2531 2678 2651 2914 
Q 2772 3150 2772 3378 
Q 2772 3750 2511 3984 
Q 2250 4219 1831 4219 
Q 1534 4219 1204 4116 
Q 875 4013 500 3803 
L 500 4441 
Q 881 4594 1212 4672 
Q 1544 4750 1819 4750 
Q 2544 4750 2975 4387 
Q 3406 4025 3406 3419 
Q 3406 3131 3298 2873 
Q 3191 2616 2906 2266 
Q 2828 2175 2409 1742 
Q 1991 1309 1228 531 
z
" transform="scale(0.015625)"/>
       </defs>
       <use xlink:href="#DejaVuSans-32"/>
       <use xlink:href="#DejaVuSans-30" transform="translate(63.623047 0)"/>
      </g>
     </g>
    </g>
    <g id="xtick_4">
     <g id="line2d_7">
      <path d="M 272.092313 255.878125 
L 272.092313 22.318125 
" clip-path="url(#p5d62f31bb3)" style="fill: none; stroke: #b0b0b0; stroke-width: 0.8; stroke-linecap: square"/>
     </g>
     <g id="line2d_8">
      <g>
       <use xlink:href="#mcb11b13d81" x="272.092313" y="255.878125" style="stroke: #000000; stroke-width: 0.8"/>
      </g>
     </g>
     <g id="text_4">
      <!-- 30 -->
      <g transform="translate(265.729813 270.476562) scale(0.1 -0.1)">
       <defs>
        <path id="DejaVuSans-33" d="M 2597 2516 
Q 3050 2419 3304 2112 
Q 3559 1806 3559 1356 
Q 3559 666 3084 287 
Q 2609 -91 1734 -91 
Q 1441 -91 1130 -33 
Q 819 25 488 141 
L 488 750 
Q 750 597 1062 519 
Q 1375 441 1716 441 
Q 2309 441 2620 675 
Q 2931 909 2931 1356 
Q 2931 1769 2642 2001 
Q 2353 2234 1838 2234 
L 1294 2234 
L 1294 2753 
L 1863 2753 
Q 2328 2753 2575 2939 
Q 2822 3125 2822 3475 
Q 2822 3834 2567 4026 
Q 2313 4219 1838 4219 
Q 1578 4219 1281 4162 
Q 984 4106 628 3988 
L 628 4550 
Q 988 4650 1302 4700 
Q 1616 4750 1894 4750 
Q 2613 4750 3031 4423 
Q 3450 4097 3450 3541 
Q 3450 3153 3228 2886 
Q 3006 2619 2597 2516 
z
" transform="scale(0.015625)"/>
       </defs>
       <use xlink:href="#DejaVuSans-33"/>
       <use xlink:href="#DejaVuSans-30" transform="translate(63.623047 0)"/>
      </g>
     </g>
    </g>
    <g id="xtick_5">
     <g id="line2d_9">
      <path d="M 341.629282 255.878125 
L 341.629282 22.318125 
" clip-path="url(#p5d62f31bb3)" style="fill: none; stroke: #b0b0b0; stroke-width: 0.8; stroke-linecap: square"/>
     </g>
     <g id="line2d_10">
      <g>
       <use xlink:href="#mcb11b13d81" x="341.629282" y="255.878125" style="stroke: #000000; stroke-width: 0.8"/>
      </g>
     </g>
     <g id="text_5">
      <!-- 40 -->
      <g transform="translate(335.266782 270.476562) scale(0.1 -0.1)">
       <defs>
        <path id="DejaVuSans-34" d="M 2419 4116 
L 825 1625 
L 2419 1625 
L 2419 4116 
z
M 2253 4666 
L 3047 4666 
L 3047 1625 
L 3713 1625 
L 3713 1100 
L 3047 1100 
L 3047 0 
L 2419 0 
L 2419 1100 
L 313 1100 
L 313 1709 
L 2253 4666 
z
" transform="scale(0.015625)"/>
       </defs>
       <use xlink:href="#DejaVuSans-34"/>
       <use xlink:href="#DejaVuSans-30" transform="translate(63.623047 0)"/>
      </g>
     </g>
    </g>
    <g id="xtick_6">
     <g id="line2d_11">
      <path d="M 411.166252 255.878125 
L 411.166252 22.318125 
" clip-path="url(#p5d62f31bb3)" style="fill: none; stroke: #b0b0b0; stroke-width: 0.8; stroke-linecap: square"/>
     </g>
     <g id="line2d_12">
      <g>
       <use xlink:href="#mcb11b13d81" x="411.166252" y="255.878125" style="stroke: #000000; stroke-width: 0.8"/>
      </g>
     </g>
     <g id="text_6">
      <!-- 50 -->
      <g transform="translate(404.803752 270.476562) scale(0.1 -0.1)">
       <defs>
        <path id="DejaVuSans-35" d="M 691 4666 
L 3169 4666 
L 3169 4134 
L 1269 4134 
L 1269 2991 
Q 1406 3038 1543 3061 
Q 1681 3084 1819 3084 
Q 2600 3084 3056 2656 
Q 3513 2228 3513 1497 
Q 3513 744 3044 326 
Q 2575 -91 1722 -91 
Q 1428 -91 1123 -41 
Q 819 9 494 109 
L 494 744 
Q 775 591 1075 516 
Q 1375 441 1709 441 
Q 2250 441 2565 725 
Q 2881 1009 2881 1497 
Q 2881 1984 2565 2268 
Q 2250 2553 1709 2553 
Q 1456 2553 1204 2497 
Q 953 2441 691 2322 
L 691 4666 
z
" transform="scale(0.015625)"/>
       </defs>
       <use xlink:href="#DejaVuSans-35"/>
       <use xlink:href="#DejaVuSans-30" transform="translate(63.623047 0)"/>
      </g>
     </g>
    </g>
    <g id="xtick_7">
     <g id="line2d_13">
      <path d="M 480.703222 255.878125 
L 480.703222 22.318125 
" clip-path="url(#p5d62f31bb3)" style="fill: none; stroke: #b0b0b0; stroke-width: 0.8; stroke-linecap: square"/>
     </g>
     <g id="line2d_14">
      <g>
       <use xlink:href="#mcb11b13d81" x="480.703222" y="255.878125" style="stroke: #000000; stroke-width: 0.8"/>
      </g>
     </g>
     <g id="text_7">
      <!-- 60 -->
      <g transform="translate(474.340722 270.476562) scale(0.1 -0.1)">
       <defs>
        <path id="DejaVuSans-36" d="M 2113 2584 
Q 1688 2584 1439 2293 
Q 1191 2003 1191 1497 
Q 1191 994 1439 701 
Q 1688 409 2113 409 
Q 2538 409 2786 701 
Q 3034 994 3034 1497 
Q 3034 2003 2786 2293 
Q 2538 2584 2113 2584 
z
M 3366 4563 
L 3366 3988 
Q 3128 4100 2886 4159 
Q 2644 4219 2406 4219 
Q 1781 4219 1451 3797 
Q 1122 3375 1075 2522 
Q 1259 2794 1537 2939 
Q 1816 3084 2150 3084 
Q 2853 3084 3261 2657 
Q 3669 2231 3669 1497 
Q 3669 778 3244 343 
Q 2819 -91 2113 -91 
Q 1303 -91 875 529 
Q 447 1150 447 2328 
Q 447 3434 972 4092 
Q 1497 4750 2381 4750 
Q 2619 4750 2861 4703 
Q 3103 4656 3366 4563 
z
" transform="scale(0.015625)"/>
       </defs>
       <use xlink:href="#DejaVuSans-36"/>
       <use xlink:href="#DejaVuSans-30" transform="translate(63.623047 0)"/>
      </g>
     </g>
    </g>
    <g id="text_8">
     <!-- Tiempo [s] -->
     <g transform="translate(245.529812 284.154687) scale(0.1 -0.1)">
      <defs>
       <path id="DejaVuSans-54" d="M -19 4666 
L 3928 4666 
L 3928 4134 
L 2272 4134 
L 2272 0 
L 1638 0 
L 1638 4134 
L -19 4134 
L -19 4666 
z
" transform="scale(0.015625)"/>
       <path id="DejaVuSans-69" d="M 603 3500 
L 1178 3500 
L 1178 0 
L 603 0 
L 603 3500 
z
M 603 4863 
L 1178 4863 
L 1178 4134 
L 603 4134 
L 603 4863 
z
" transform="scale(0.015625)"/>
       <path id="DejaVuSans-65" d="M 3597 1894 
L 3597 1613 
L 953 1613 
Q 991 1019 1311 708 
Q 1631 397 2203 397 
Q 2534 397 2845 478 
Q 3156 559 3463 722 
L 3463 178 
Q 3153 47 2828 -22 
Q 2503 -91 2169 -91 
Q 1331 -91 842 396 
Q 353 884 353 1716 
Q 353 2575 817 3079 
Q 1281 3584 2069 3584 
Q 2775 3584 3186 3129 
Q 3597 2675 3597 1894 
z
M 3022 2063 
Q 3016 2534 2758 2815 
Q 2500 3097 2075 3097 
Q 1594 3097 1305 2825 
Q 1016 2553 972 2059 
L 3022 2063 
z
" transform="scale(0.015625)"/>
       <path id="DejaVuSans-6d" d="M 3328 2828 
Q 3544 3216 3844 3400 
Q 4144 3584 4550 3584 
Q 5097 3584 5394 3201 
Q 5691 2819 5691 2113 
L 5691 0 
L 5113 0 
L 5113 2094 
Q 5113 2597 4934 2840 
Q 4756 3084 4391 3084 
Q 3944 3084 3684 2787 
Q 3425 2491 3425 1978 
L 3425 0 
L 2847 0 
L 2847 2094 
Q 2847 2600 2669 2842 
Q 2491 3084 2119 3084 
Q 1678 3084 1418 2786 
Q 1159 2488 1159 1978 
L 1159 0 
L 581 0 
L 581 3500 
L 1159 3500 
L 1159 2956 
Q 1356 3278 1631 3431 
Q 1906 3584 2284 3584 
Q 2666 3584 2933 3390 
Q 3200 3197 3328 2828 
z
" transform="scale(0.015625)"/>
       <path id="DejaVuSans-70" d="M 1159 525 
L 1159 -1331 
L 581 -1331 
L 581 3500 
L 1159 3500 
L 1159 2969 
Q 1341 3281 1617 3432 
Q 1894 3584 2278 3584 
Q 2916 3584 3314 3078 
Q 3713 2572 3713 1747 
Q 3713 922 3314 415 
Q 2916 -91 2278 -91 
Q 1894 -91 1617 61 
Q 1341 213 1159 525 
z
M 3116 1747 
Q 3116 2381 2855 2742 
Q 2594 3103 2138 3103 
Q 1681 3103 1420 2742 
Q 1159 2381 1159 1747 
Q 1159 1113 1420 752 
Q 1681 391 2138 391 
Q 2594 391 2855 752 
Q 3116 1113 3116 1747 
z
" transform="scale(0.015625)"/>
       <path id="DejaVuSans-6f" d="M 1959 3097 
Q 1497 3097 1228 2736 
Q 959 2375 959 1747 
Q 959 1119 1226 758 
Q 1494 397 1959 397 
Q 2419 397 2687 759 
Q 2956 1122 2956 1747 
Q 2956 2369 2687 2733 
Q 2419 3097 1959 3097 
z
M 1959 3584 
Q 2709 3584 3137 3096 
Q 3566 2609 3566 1747 
Q 3566 888 3137 398 
Q 2709 -91 1959 -91 
Q 1206 -91 779 398 
Q 353 888 353 1747 
Q 353 2609 779 3096 
Q 1206 3584 1959 3584 
z
" transform="scale(0.015625)"/>
       <path id="DejaVuSans-20" transform="scale(0.015625)"/>
       <path id="DejaVuSans-5b" d="M 550 4863 
L 1875 4863 
L 1875 4416 
L 1125 4416 
L 1125 -397 
L 1875 -397 
L 1875 -844 
L 550 -844 
L 550 4863 
z
" transform="scale(0.015625)"/>
       <path id="DejaVuSans-73" d="M 2834 3397 
L 2834 2853 
Q 2591 2978 2328 3040 
Q 2066 3103 1784 3103 
Q 1356 3103 1142 2972 
Q 928 2841 928 2578 
Q 928 2378 1081 2264 
Q 1234 2150 1697 2047 
L 1894 2003 
Q 2506 1872 2764 1633 
Q 3022 1394 3022 966 
Q 3022 478 2636 193 
Q 2250 -91 1575 -91 
Q 1294 -91 989 -36 
Q 684 19 347 128 
L 347 722 
Q 666 556 975 473 
Q 1284 391 1588 391 
Q 1994 391 2212 530 
Q 2431 669 2431 922 
Q 2431 1156 2273 1281 
Q 2116 1406 1581 1522 
L 1381 1569 
Q 847 1681 609 1914 
Q 372 2147 372 2553 
Q 372 3047 722 3315 
Q 1072 3584 1716 3584 
Q 2034 3584 2315 3537 
Q 2597 3491 2834 3397 
z
" transform="scale(0.015625)"/>
       <path id="DejaVuSans-5d" d="M 1947 4863 
L 1947 -844 
L 622 -844 
L 622 -397 
L 1369 -397 
L 1369 4416 
L 622 4416 
L 622 4863 
L 1947 4863 
z
" transform="scale(0.015625)"/>
      </defs>
      <use xlink:href="#DejaVuSans-54"/>
      <use xlink:href="#DejaVuSans-69" transform="translate(57.958984 0)"/>
      <use xlink:href="#DejaVuSans-65" transform="translate(85.742188 0)"/>
      <use xlink:href="#DejaVuSans-6d" transform="translate(147.265625 0)"/>
      <use xlink:href="#DejaVuSans-70" transform="translate(244.677734 0)"/>
      <use xlink:href="#DejaVuSans-6f" transform="translate(308.154297 0)"/>
      <use xlink:href="#DejaVuSans-20" transform="translate(369.335938 0)"/>
      <use xlink:href="#DejaVuSans-5b" transform="translate(401.123047 0)"/>
      <use xlink:href="#DejaVuSans-73" transform="translate(440.136719 0)"/>
      <use xlink:href="#DejaVuSans-5d" transform="translate(492.236328 0)"/>
     </g>
    </g>
   </g>
   <g id="matplotlib.axis_2">
    <g id="ytick_1">
     <g id="line2d_15">
      <path d="M 42.620313 220.363015 
L 501.564312 220.363015 
" clip-path="url(#p5d62f31bb3)" style="fill: none; stroke: #b0b0b0; stroke-width: 0.8; stroke-linecap: square"/>
     </g>
     <g id="line2d_16">
      <defs>
       <path id="mba60e9df17" d="M 0 0 
L -3.5 0 
" style="stroke: #000000; stroke-width: 0.8"/>
      </defs>
      <g>
       <use xlink:href="#mba60e9df17" x="42.620313" y="220.363015" style="stroke: #000000; stroke-width: 0.8"/>
      </g>
     </g>
     <g id="text_9">
      <!-- −8 -->
      <g transform="translate(20.878125 224.162233) scale(0.1 -0.1)">
       <defs>
        <path id="DejaVuSans-2212" d="M 678 2272 
L 4684 2272 
L 4684 1741 
L 678 1741 
L 678 2272 
z
" transform="scale(0.015625)"/>
        <path id="DejaVuSans-38" d="M 2034 2216 
Q 1584 2216 1326 1975 
Q 1069 1734 1069 1313 
Q 1069 891 1326 650 
Q 1584 409 2034 409 
Q 2484 409 2743 651 
Q 3003 894 3003 1313 
Q 3003 1734 2745 1975 
Q 2488 2216 2034 2216 
z
M 1403 2484 
Q 997 2584 770 2862 
Q 544 3141 544 3541 
Q 544 4100 942 4425 
Q 1341 4750 2034 4750 
Q 2731 4750 3128 4425 
Q 3525 4100 3525 3541 
Q 3525 3141 3298 2862 
Q 3072 2584 2669 2484 
Q 3125 2378 3379 2068 
Q 3634 1759 3634 1313 
Q 3634 634 3220 271 
Q 2806 -91 2034 -91 
Q 1263 -91 848 271 
Q 434 634 434 1313 
Q 434 1759 690 2068 
Q 947 2378 1403 2484 
z
M 1172 3481 
Q 1172 3119 1398 2916 
Q 1625 2713 2034 2713 
Q 2441 2713 2670 2916 
Q 2900 3119 2900 3481 
Q 2900 3844 2670 4047 
Q 2441 4250 2034 4250 
Q 1625 4250 1398 4047 
Q 1172 3844 1172 3481 
z
" transform="scale(0.015625)"/>
       </defs>
       <use xlink:href="#DejaVuSans-2212"/>
       <use xlink:href="#DejaVuSans-38" transform="translate(83.789062 0)"/>
      </g>
     </g>
    </g>
    <g id="ytick_2">
     <g id="line2d_17">
      <path d="M 42.620313 175.003529 
L 501.564312 175.003529 
" clip-path="url(#p5d62f31bb3)" style="fill: none; stroke: #b0b0b0; stroke-width: 0.8; stroke-linecap: square"/>
     </g>
     <g id="line2d_18">
      <g>
       <use xlink:href="#mba60e9df17" x="42.620313" y="175.003529" style="stroke: #000000; stroke-width: 0.8"/>
      </g>
     </g>
     <g id="text_10">
      <!-- −6 -->
      <g transform="translate(20.878125 178.802748) scale(0.1 -0.1)">
       <use xlink:href="#DejaVuSans-2212"/>
       <use xlink:href="#DejaVuSans-36" transform="translate(83.789062 0)"/>
      </g>
     </g>
    </g>
    <g id="ytick_3">
     <g id="line2d_19">
      <path d="M 42.620313 129.644044 
L 501.564312 129.644044 
" clip-path="url(#p5d62f31bb3)" style="fill: none; stroke: #b0b0b0; stroke-width: 0.8; stroke-linecap: square"/>
     </g>
     <g id="line2d_20">
      <g>
       <use xlink:href="#mba60e9df17" x="42.620313" y="129.644044" style="stroke: #000000; stroke-width: 0.8"/>
      </g>
     </g>
     <g id="text_11">
      <!-- −4 -->
      <g transform="translate(20.878125 133.443263) scale(0.1 -0.1)">
       <use xlink:href="#DejaVuSans-2212"/>
       <use xlink:href="#DejaVuSans-34" transform="translate(83.789062 0)"/>
      </g>
     </g>
    </g>
    <g id="ytick_4">
     <g id="line2d_21">
      <path d="M 42.620313 84.284559 
L 501.564312 84.284559 
" clip-path="url(#p5d62f31bb3)" style="fill: none; stroke: #b0b0b0; stroke-width: 0.8; stroke-linecap: square"/>
     </g>
     <g id="line2d_22">
      <g>
       <use xlink:href="#mba60e9df17" x="42.620313" y="84.284559" style="stroke: #000000; stroke-width: 0.8"/>
      </g>
     </g>
     <g id="text_12">
      <!-- −2 -->
      <g transform="translate(20.878125 88.083778) scale(0.1 -0.1)">
       <use xlink:href="#DejaVuSans-2212"/>
       <use xlink:href="#DejaVuSans-32" transform="translate(83.789062 0)"/>
      </g>
     </g>
    </g>
    <g id="ytick_5">
     <g id="line2d_23">
      <path d="M 42.620313 38.925074 
L 501.564312 38.925074 
" clip-path="url(#p5d62f31bb3)" style="fill: none; stroke: #b0b0b0; stroke-width: 0.8; stroke-linecap: square"/>
     </g>
     <g id="line2d_24">
      <g>
       <use xlink:href="#mba60e9df17" x="42.620313" y="38.925074" style="stroke: #000000; stroke-width: 0.8"/>
      </g>
     </g>
     <g id="text_13">
      <!-- 0 -->
      <g transform="translate(29.257813 42.724292) scale(0.1 -0.1)">
       <use xlink:href="#DejaVuSans-30"/>
      </g>
     </g>
    </g>
    <g id="text_14">
     <!-- $u_x$ [m/s] -->
     <g transform="translate(14.798438 159.148125) rotate(-90) scale(0.1 -0.1)">
      <defs>
       <path id="DejaVuSans-Oblique-75" d="M 428 1388 
L 838 3500 
L 1416 3500 
L 1006 1409 
Q 975 1256 961 1147 
Q 947 1038 947 966 
Q 947 700 1109 554 
Q 1272 409 1569 409 
Q 2031 409 2368 721 
Q 2706 1034 2809 1563 
L 3194 3500 
L 3769 3500 
L 3091 0 
L 2516 0 
L 2631 550 
Q 2388 244 2052 76 
Q 1716 -91 1338 -91 
Q 878 -91 622 161 
Q 366 413 366 863 
Q 366 956 381 1097 
Q 397 1238 428 1388 
z
" transform="scale(0.015625)"/>
       <path id="DejaVuSans-Oblique-78" d="M 3841 3500 
L 2234 1784 
L 3219 0 
L 2559 0 
L 1819 1388 
L 531 0 
L -166 0 
L 1556 1844 
L 641 3500 
L 1300 3500 
L 1972 2234 
L 3144 3500 
L 3841 3500 
z
" transform="scale(0.015625)"/>
       <path id="DejaVuSans-2f" d="M 1625 4666 
L 2156 4666 
L 531 -594 
L 0 -594 
L 1625 4666 
z
" transform="scale(0.015625)"/>
      </defs>
      <use xlink:href="#DejaVuSans-Oblique-75" transform="translate(0 0.015625)"/>
      <use xlink:href="#DejaVuSans-Oblique-78" transform="translate(63.378906 -16.390625) scale(0.7)"/>
      <use xlink:href="#DejaVuSans-20" transform="translate(107.539062 0.015625)"/>
      <use xlink:href="#DejaVuSans-5b" transform="translate(139.326172 0.015625)"/>
      <use xlink:href="#DejaVuSans-6d" transform="translate(178.339844 0.015625)"/>
      <use xlink:href="#DejaVuSans-2f" transform="translate(275.751953 0.015625)"/>
      <use xlink:href="#DejaVuSans-73" transform="translate(309.443359 0.015625)"/>
      <use xlink:href="#DejaVuSans-5d" transform="translate(361.542969 0.015625)"/>
     </g>
    </g>
   </g>
   <g id="line2d_25">
    <path d="M 63.481403 38.925074 
L 63.690014 40.467899 
L 64.454921 43.328414 
L 65.219828 45.370768 
L 66.123808 47.13966 
L 67.2364 48.808116 
L 72.312599 55.863003 
L 74.190097 59.14225 
L 76.345743 63.374293 
L 78.988148 69.083092 
L 82.464996 77.16239 
L 88.236565 91.221448 
L 98.249888 115.621887 
L 98.458499 114.576939 
L 98.945258 113.801647 
L 99.432017 113.408998 
L 99.918776 113.303615 
L 100.475071 113.439334 
L 101.170441 113.869401 
L 102.213496 114.816151 
L 105.898955 118.38134 
L 107.359231 119.3847 
L 108.749971 120.068574 
L 110.14071 120.507564 
L 111.600986 120.737554 
L 113.200337 120.760399 
L 115.008298 120.55191 
L 117.02487 120.090493 
L 119.458664 119.295885 
L 122.448754 118.075239 
L 126.481898 116.17185 
L 133.018373 112.810509 
L 133.226984 114.243893 
L 133.922354 116.518601 
L 134.617723 118.090657 
L 135.38263 119.292956 
L 136.286611 120.291386 
L 137.607813 121.377565 
L 140.250218 123.505247 
L 141.849568 125.133928 
L 143.518456 127.171948 
L 145.395954 129.839694 
L 147.621137 133.418126 
L 150.333079 138.223034 
L 154.018538 145.235654 
L 160.763624 158.64346 
L 167.786858 172.569262 
L 167.995469 171.434196 
L 168.551765 170.342231 
L 169.10806 169.732204 
L 169.664356 169.468533 
L 170.220652 169.448103 
L 170.916022 169.647589 
L 172.028613 170.241615 
L 175.018703 171.945247 
L 176.339905 172.403639 
L 177.661108 172.626026 
L 178.98231 172.622707 
L 180.373049 172.400547 
L 181.902863 171.933861 
L 183.641287 171.170909 
L 185.727396 170.000007 
L 188.230727 168.326003 
L 191.429428 165.904673 
L 196.088405 162.069336 
L 202.555343 156.540457 
L 202.763954 157.904593 
L 203.459323 159.949265 
L 204.154693 161.292499 
L 204.850063 162.174591 
L 205.684506 162.860356 
L 206.797098 163.455253 
L 209.926262 164.982927 
L 211.386538 166.026302 
L 212.916351 167.409303 
L 214.585239 169.229389 
L 216.532274 171.697371 
L 218.896531 175.077849 
L 221.88662 179.767449 
L 226.197913 186.987253 
L 237.323828 206.148242 
L 237.532439 204.960003 
L 238.088734 203.726652 
L 238.64503 202.975836 
L 239.201326 202.571969 
L 239.827159 202.404956 
L 240.592065 202.463682 
L 241.704657 202.806973 
L 244.347062 203.686248 
L 245.668264 203.863335 
L 246.989466 203.808048 
L 248.310669 203.527433 
L 249.770945 202.981259 
L 251.370296 202.139897 
L 253.247794 200.888897 
L 255.472977 199.124578 
L 258.254456 196.617103 
L 262.009452 192.906271 
L 268.406853 186.217076 
L 272.092313 182.324789 
L 272.300923 183.648094 
L 272.926756 185.402461 
L 273.552589 186.567151 
L 274.247959 187.391578 
L 275.012865 187.934566 
L 275.986383 188.324245 
L 280.019527 189.625811 
L 281.410266 190.456916 
L 282.870543 191.59275 
L 284.53943 193.187502 
L 286.486465 195.380282 
L 288.781185 198.316971 
L 291.701738 202.436111 
L 295.804419 208.640111 
L 306.860797 225.947288 
L 307.069408 224.727696 
L 307.695241 223.283484 
L 308.251537 222.499735 
L 308.807833 222.04879 
L 309.433665 221.816227 
L 310.198572 221.781941 
L 311.3807 221.989959 
L 313.814494 222.451033 
L 315.135697 222.452482 
L 316.456899 222.223756 
L 317.847639 221.741015 
L 319.307915 220.993903 
L 320.976802 219.883969 
L 322.923837 218.311261 
L 325.288094 216.099533 
L 328.278184 212.979087 
L 332.519939 208.199537 
L 341.629282 197.527905 
L 341.837893 198.827136 
L 342.463726 200.509506 
L 343.089559 201.602542 
L 343.715391 202.290126 
L 344.410761 202.741479 
L 345.314742 203.041518 
L 347.053166 203.302848 
L 348.722053 203.651736 
L 350.112792 204.182351 
L 351.503532 204.96325 
L 352.963808 206.040226 
L 354.632696 207.553913 
L 356.579731 209.632248 
L 358.943988 212.498655 
L 361.934077 216.491169 
L 366.245369 222.653643 
L 376.397767 237.621323 
L 376.606378 236.383244 
L 377.232211 234.883749 
L 377.858043 233.972722 
L 378.483876 233.466282 
L 379.179246 233.215194 
L 380.013689 233.169915 
L 381.543503 233.365059 
L 383.351464 233.524373 
L 384.672666 233.415235 
L 385.993869 233.077026 
L 387.384608 232.48022 
L 388.914422 231.567894 
L 390.652846 230.256583 
L 392.669418 228.444571 
L 395.172749 225.874699 
L 398.371449 222.249728 
L 403.099963 216.520254 
L 411.166252 206.492061 
L 411.374863 207.777096 
L 412.000696 209.417015 
L 412.626528 210.467802 
L 413.252361 211.113337 
L 413.947731 211.518203 
L 414.851711 211.758174 
L 416.520599 211.899856 
L 418.189486 212.129954 
L 419.510688 212.531608 
L 420.831891 213.159855 
L 422.292167 214.108922 
L 423.891517 215.420943 
L 425.769016 217.262757 
L 427.994199 219.77178 
L 430.775677 223.258485 
L 434.600211 228.436213 
L 441.832056 238.685213 
L 445.934737 244.504639 
L 446.143348 243.25566 
L 446.76918 241.723569 
L 447.395013 240.7801 
L 448.020846 240.241372 
L 448.716216 239.954588 
L 449.550659 239.866721 
L 451.080473 239.984486 
L 452.888434 240.053505 
L 454.209636 239.879161 
L 455.530839 239.476397 
L 456.921578 238.812336 
L 458.451391 237.826845 
L 460.189816 236.433417 
L 462.275925 234.457179 
L 464.779256 231.764551 
L 468.047493 227.90497 
L 473.054155 221.605632 
L 480.703222 211.777561 
L 480.703222 211.777561 
" clip-path="url(#p5d62f31bb3)" style="fill: none; stroke-dasharray: 5.55,2.4; stroke-dashoffset: 0; stroke: #1f77b4; stroke-width: 1.5"/>
   </g>
   <g id="line2d_26">
    <path d="M 63.481403 38.925074 
L 66.819178 39.034275 
L 68.14038 39.291006 
L 68.83575 39.613736 
L 69.322509 40.078707 
L 69.670194 40.721348 
L 69.948342 41.670518 
L 70.226489 43.511895 
L 70.4351 46.200333 
L 70.643711 51.312453 
L 71.060933 67.903188 
L 71.13047 66.479818 
L 71.408618 43.800771 
L 71.617229 33.288549 
L 71.686766 32.934489 
L 71.82584 35.66847 
L 72.173525 43.748014 
L 72.243062 44.040145 
L 72.312599 43.96223 
L 72.799357 41.697256 
L 72.868894 41.731165 
L 73.633801 42.808174 
L 74.051023 42.963601 
L 76.554354 44.544581 
L 82.60407 48.427967 
L 85.316012 50.429216 
L 87.054436 51.975158 
L 88.236565 53.306139 
L 89.071008 54.566445 
L 89.696841 55.938147 
L 90.114063 57.352519 
L 90.461748 59.289005 
L 90.739896 62.037027 
L 91.018043 67.442017 
L 91.296191 78.384224 
L 91.504802 85.64195 
L 91.574339 84.552467 
L 91.78295 69.396576 
L 92.061098 52.408062 
L 92.130635 51.650151 
L 92.200172 52.185466 
L 92.826005 63.596313 
L 92.965079 63.255984 
L 93.243226 62.533764 
L 93.3823 62.683224 
L 93.660448 63.826568 
L 94.77304 70.074312 
L 95.120725 73.753179 
L 95.537946 80.885462 
L 95.816094 85.124556 
L 95.885631 85.326488 
L 96.024705 84.136085 
L 96.650538 73.784181 
L 96.789612 74.761976 
L 97.06776 79.870302 
L 97.624056 91.799703 
L 97.693593 91.565694 
L 97.832666 89.158358 
L 98.249888 80.205115 
L 98.319425 80.011285 
L 98.458499 80.8711 
L 98.806184 86.859038 
L 99.084332 90.637392 
L 99.223406 90.967014 
L 99.36248 90.2973 
L 99.710165 88.012002 
L 99.779702 87.950172 
L 99.918776 88.33329 
L 100.683682 92.134355 
L 101.031367 92.681675 
L 101.448589 94.091377 
L 102.630717 97.953733 
L 106.942009 112.065597 
L 108.54136 116.518524 
L 109.862562 119.580301 
L 111.044691 121.766987 
L 112.226819 123.481518 
L 114.104317 125.729973 
L 116.3295 128.139206 
L 117.581166 129.183012 
L 118.693757 129.830785 
L 119.736812 130.1822 
L 120.710329 130.287859 
L 121.753384 130.171064 
L 122.796439 129.828471 
L 123.90903 129.230401 
L 125.160696 128.293644 
L 126.551435 126.958212 
L 128.150785 125.089387 
L 129.958746 122.622528 
L 132.253466 119.087745 
L 133.713743 116.909627 
L 134.548186 116.14627 
L 135.38263 115.679305 
L 136.008463 115.553748 
L 136.564759 115.664183 
L 137.051517 115.992988 
L 137.538276 116.601149 
L 138.094572 117.687428 
L 139.346237 120.416838 
L 139.693922 120.659647 
L 140.389292 120.770916 
L 142.544938 121.178919 
L 143.448919 121.658977 
L 144.491973 122.46791 
L 145.604565 123.621766 
L 146.85623 125.249998 
L 148.246969 127.427447 
L 149.915857 130.483067 
L 151.862892 134.546953 
L 154.296686 140.183921 
L 157.843071 149.029385 
L 165.561675 168.387261 
L 168.065006 174.167026 
L 168.482228 174.637263 
L 168.968986 174.841945 
L 169.525282 174.840132 
L 170.429263 174.575191 
L 171.611391 174.25562 
L 172.376298 174.284119 
L 173.280279 174.569192 
L 176.896201 176.000982 
L 178.008792 176.088483 
L 179.190921 175.950664 
L 180.442586 175.563591 
L 181.763789 174.916996 
L 183.293602 173.91068 
L 185.101563 172.438287 
L 187.326746 170.323193 
L 190.525447 166.945683 
L 198.661273 158.240436 
L 202.138121 154.914902 
L 202.833491 154.39078 
L 203.181176 154.411646 
L 203.598397 154.719435 
L 204.154693 155.456793 
L 204.9196 156.932207 
L 206.310339 159.683312 
L 207.005709 160.509164 
L 207.909689 161.19198 
L 210.760705 163.129304 
L 212.151445 164.441683 
L 213.681258 166.208223 
L 215.419682 168.574657 
L 217.505791 171.812635 
L 220.148196 176.348277 
L 224.18134 183.768638 
L 232.942999 199.971279 
L 237.323828 207.551333 
L 237.671513 207.903501 
L 237.94966 207.857651 
L 238.505956 207.401427 
L 240.731139 205.334166 
L 241.496046 205.043008 
L 242.400026 204.956342 
L 244.068914 205.092258 
L 245.737801 205.128856 
L 247.059003 204.929965 
L 248.380206 204.502863 
L 249.770945 203.818814 
L 251.370296 202.770903 
L 253.178257 201.310823 
L 255.40344 199.215371 
L 258.463066 195.998452 
L 272.300923 181.025347 
L 272.579071 181.026947 
L 272.926756 181.320398 
L 273.483052 182.143775 
L 274.526106 184.252775 
L 275.36055 185.699533 
L 276.05592 186.449617 
L 276.820826 186.937251 
L 278.420177 187.603609 
L 280.019527 188.385985 
L 281.410266 189.325156 
L 282.870543 190.589214 
L 284.469893 192.272045 
L 286.347391 194.5808 
L 288.642111 197.776395 
L 291.632201 202.350126 
L 296.777937 210.705902 
L 304.218392 222.702552 
L 307.069408 227.011087 
L 307.278019 227.023742 
L 307.556167 226.757257 
L 309.920424 223.916925 
L 310.685331 223.508123 
L 311.519774 223.327405 
L 312.840977 223.315639 
L 314.857549 223.281788 
L 316.178751 223.031552 
L 317.499954 222.554194 
L 318.890693 221.812925 
L 320.420506 220.74476 
L 322.228468 219.198681 
L 324.384114 217.049353 
L 327.235129 213.868813 
L 331.894106 208.284887 
L 340.447154 198.046703 
L 341.90743 196.506476 
L 342.116041 196.555075 
L 342.463726 196.925883 
L 343.089559 197.991677 
L 344.619372 200.808526 
L 345.245205 201.438721 
L 345.940574 201.833359 
L 347.053166 202.173116 
L 349.208812 202.820978 
L 350.599551 203.50798 
L 351.990291 204.453332 
L 353.520104 205.774961 
L 355.258528 207.587064 
L 357.2751 210.020741 
L 359.847968 213.500087 
L 363.394354 218.706965 
L 376.606378 238.469872 
L 376.814989 238.427494 
L 377.162674 237.953173 
L 378.762024 235.602145 
L 379.526931 234.900812 
L 380.291837 234.513966 
L 381.195818 234.33039 
L 383.073316 234.266038 
L 384.603129 234.094119 
L 385.924332 233.722551 
L 387.245534 233.121919 
L 388.705811 232.204887 
L 390.305161 230.9331 
L 392.182659 229.149951 
L 394.546916 226.57513 
L 397.67608 222.812322 
L 403.656259 215.193485 
L 410.888104 206.10847 
L 411.4444 205.58263 
L 411.653011 205.648719 
L 412.000696 206.068816 
L 412.696065 207.334131 
L 413.808657 209.409469 
L 414.434489 210.11896 
L 415.129859 210.546775 
L 416.03384 210.808337 
L 419.093466 211.511446 
L 420.414669 212.120554 
L 421.805408 213.01312 
L 423.335222 214.271356 
L 425.073646 216.003129 
L 427.159755 218.418639 
L 429.732623 221.761709 
L 433.348545 226.860546 
L 446.143348 245.255043 
L 446.351959 245.178445 
L 446.76918 244.510535 
L 448.15992 242.326845 
L 448.924826 241.551106 
L 449.689733 241.108613 
L 450.524177 240.887191 
L 451.984453 240.774753 
L 453.792414 240.578444 
L 455.113617 240.211431 
L 456.434819 239.615776 
L 457.895096 238.699193 
L 459.494446 237.419141 
L 461.371944 235.613936 
L 463.666664 233.075203 
L 466.656754 229.411598 
L 471.732953 222.780586 
L 480.355537 211.55222 
L 480.703222 211.112621 
L 480.703222 211.112621 
" clip-path="url(#p5d62f31bb3)" style="fill: none; stroke: #ff7f0e; stroke-width: 1.2; stroke-linecap: square"/>
   </g>
   <g id="patch_3">
    <path d="M 42.620313 255.878125 
L 42.620313 22.318125 
" style="fill: none; stroke: #000000; stroke-width: 0.8; stroke-linejoin: miter; stroke-linecap: square"/>
   </g>
   <g id="patch_4">
    <path d="M 501.564312 255.878125 
L 501.564312 22.318125 
" style="fill: none; stroke: #000000; stroke-width: 0.8; stroke-linejoin: miter; stroke-linecap: square"/>
   </g>
   <g id="patch_5">
    <path d="M 42.620313 255.878125 
L 501.564313 255.878125 
" style="fill: none; stroke: #000000; stroke-width: 0.8; stroke-linejoin: miter; stroke-linecap: square"/>
   </g>
   <g id="patch_6">
    <path d="M 42.620313 22.318125 
L 501.564313 22.318125 
" style="fill: none; stroke: #000000; stroke-width: 0.8; stroke-linejoin: miter; stroke-linecap: square"/>
   </g>
   <g id="text_15">
    <!-- Seguimiento MRAC con tren de pulsos: ux -->
    <g transform="translate(146.519813 16.318125) scale(0.12 -0.12)">
     <defs>
      <path id="DejaVuSans-53" d="M 3425 4513 
L 3425 3897 
Q 3066 4069 2747 4153 
Q 2428 4238 2131 4238 
Q 1616 4238 1336 4038 
Q 1056 3838 1056 3469 
Q 1056 3159 1242 3001 
Q 1428 2844 1947 2747 
L 2328 2669 
Q 3034 2534 3370 2195 
Q 3706 1856 3706 1288 
Q 3706 609 3251 259 
Q 2797 -91 1919 -91 
Q 1588 -91 1214 -16 
Q 841 59 441 206 
L 441 856 
Q 825 641 1194 531 
Q 1563 422 1919 422 
Q 2459 422 2753 634 
Q 3047 847 3047 1241 
Q 3047 1584 2836 1778 
Q 2625 1972 2144 2069 
L 1759 2144 
Q 1053 2284 737 2584 
Q 422 2884 422 3419 
Q 422 4038 858 4394 
Q 1294 4750 2059 4750 
Q 2388 4750 2728 4690 
Q 3069 4631 3425 4513 
z
" transform="scale(0.015625)"/>
      <path id="DejaVuSans-67" d="M 2906 1791 
Q 2906 2416 2648 2759 
Q 2391 3103 1925 3103 
Q 1463 3103 1205 2759 
Q 947 2416 947 1791 
Q 947 1169 1205 825 
Q 1463 481 1925 481 
Q 2391 481 2648 825 
Q 2906 1169 2906 1791 
z
M 3481 434 
Q 3481 -459 3084 -895 
Q 2688 -1331 1869 -1331 
Q 1566 -1331 1297 -1286 
Q 1028 -1241 775 -1147 
L 775 -588 
Q 1028 -725 1275 -790 
Q 1522 -856 1778 -856 
Q 2344 -856 2625 -561 
Q 2906 -266 2906 331 
L 2906 616 
Q 2728 306 2450 153 
Q 2172 0 1784 0 
Q 1141 0 747 490 
Q 353 981 353 1791 
Q 353 2603 747 3093 
Q 1141 3584 1784 3584 
Q 2172 3584 2450 3431 
Q 2728 3278 2906 2969 
L 2906 3500 
L 3481 3500 
L 3481 434 
z
" transform="scale(0.015625)"/>
      <path id="DejaVuSans-75" d="M 544 1381 
L 544 3500 
L 1119 3500 
L 1119 1403 
Q 1119 906 1312 657 
Q 1506 409 1894 409 
Q 2359 409 2629 706 
Q 2900 1003 2900 1516 
L 2900 3500 
L 3475 3500 
L 3475 0 
L 2900 0 
L 2900 538 
Q 2691 219 2414 64 
Q 2138 -91 1772 -91 
Q 1169 -91 856 284 
Q 544 659 544 1381 
z
M 1991 3584 
L 1991 3584 
z
" transform="scale(0.015625)"/>
      <path id="DejaVuSans-6e" d="M 3513 2113 
L 3513 0 
L 2938 0 
L 2938 2094 
Q 2938 2591 2744 2837 
Q 2550 3084 2163 3084 
Q 1697 3084 1428 2787 
Q 1159 2491 1159 1978 
L 1159 0 
L 581 0 
L 581 3500 
L 1159 3500 
L 1159 2956 
Q 1366 3272 1645 3428 
Q 1925 3584 2291 3584 
Q 2894 3584 3203 3211 
Q 3513 2838 3513 2113 
z
" transform="scale(0.015625)"/>
      <path id="DejaVuSans-74" d="M 1172 4494 
L 1172 3500 
L 2356 3500 
L 2356 3053 
L 1172 3053 
L 1172 1153 
Q 1172 725 1289 603 
Q 1406 481 1766 481 
L 2356 481 
L 2356 0 
L 1766 0 
Q 1100 0 847 248 
Q 594 497 594 1153 
L 594 3053 
L 172 3053 
L 172 3500 
L 594 3500 
L 594 4494 
L 1172 4494 
z
" transform="scale(0.015625)"/>
      <path id="DejaVuSans-4d" d="M 628 4666 
L 1569 4666 
L 2759 1491 
L 3956 4666 
L 4897 4666 
L 4897 0 
L 4281 0 
L 4281 4097 
L 3078 897 
L 2444 897 
L 1241 4097 
L 1241 0 
L 628 0 
L 628 4666 
z
" transform="scale(0.015625)"/>
      <path id="DejaVuSans-52" d="M 2841 2188 
Q 3044 2119 3236 1894 
Q 3428 1669 3622 1275 
L 4263 0 
L 3584 0 
L 2988 1197 
Q 2756 1666 2539 1819 
Q 2322 1972 1947 1972 
L 1259 1972 
L 1259 0 
L 628 0 
L 628 4666 
L 2053 4666 
Q 2853 4666 3247 4331 
Q 3641 3997 3641 3322 
Q 3641 2881 3436 2590 
Q 3231 2300 2841 2188 
z
M 1259 4147 
L 1259 2491 
L 2053 2491 
Q 2509 2491 2742 2702 
Q 2975 2913 2975 3322 
Q 2975 3731 2742 3939 
Q 2509 4147 2053 4147 
L 1259 4147 
z
" transform="scale(0.015625)"/>
      <path id="DejaVuSans-41" d="M 2188 4044 
L 1331 1722 
L 3047 1722 
L 2188 4044 
z
M 1831 4666 
L 2547 4666 
L 4325 0 
L 3669 0 
L 3244 1197 
L 1141 1197 
L 716 0 
L 50 0 
L 1831 4666 
z
" transform="scale(0.015625)"/>
      <path id="DejaVuSans-43" d="M 4122 4306 
L 4122 3641 
Q 3803 3938 3442 4084 
Q 3081 4231 2675 4231 
Q 1875 4231 1450 3742 
Q 1025 3253 1025 2328 
Q 1025 1406 1450 917 
Q 1875 428 2675 428 
Q 3081 428 3442 575 
Q 3803 722 4122 1019 
L 4122 359 
Q 3791 134 3420 21 
Q 3050 -91 2638 -91 
Q 1578 -91 968 557 
Q 359 1206 359 2328 
Q 359 3453 968 4101 
Q 1578 4750 2638 4750 
Q 3056 4750 3426 4639 
Q 3797 4528 4122 4306 
z
" transform="scale(0.015625)"/>
      <path id="DejaVuSans-63" d="M 3122 3366 
L 3122 2828 
Q 2878 2963 2633 3030 
Q 2388 3097 2138 3097 
Q 1578 3097 1268 2742 
Q 959 2388 959 1747 
Q 959 1106 1268 751 
Q 1578 397 2138 397 
Q 2388 397 2633 464 
Q 2878 531 3122 666 
L 3122 134 
Q 2881 22 2623 -34 
Q 2366 -91 2075 -91 
Q 1284 -91 818 406 
Q 353 903 353 1747 
Q 353 2603 823 3093 
Q 1294 3584 2113 3584 
Q 2378 3584 2631 3529 
Q 2884 3475 3122 3366 
z
" transform="scale(0.015625)"/>
      <path id="DejaVuSans-72" d="M 2631 2963 
Q 2534 3019 2420 3045 
Q 2306 3072 2169 3072 
Q 1681 3072 1420 2755 
Q 1159 2438 1159 1844 
L 1159 0 
L 581 0 
L 581 3500 
L 1159 3500 
L 1159 2956 
Q 1341 3275 1631 3429 
Q 1922 3584 2338 3584 
Q 2397 3584 2469 3576 
Q 2541 3569 2628 3553 
L 2631 2963 
z
" transform="scale(0.015625)"/>
      <path id="DejaVuSans-64" d="M 2906 2969 
L 2906 4863 
L 3481 4863 
L 3481 0 
L 2906 0 
L 2906 525 
Q 2725 213 2448 61 
Q 2172 -91 1784 -91 
Q 1150 -91 751 415 
Q 353 922 353 1747 
Q 353 2572 751 3078 
Q 1150 3584 1784 3584 
Q 2172 3584 2448 3432 
Q 2725 3281 2906 2969 
z
M 947 1747 
Q 947 1113 1208 752 
Q 1469 391 1925 391 
Q 2381 391 2643 752 
Q 2906 1113 2906 1747 
Q 2906 2381 2643 2742 
Q 2381 3103 1925 3103 
Q 1469 3103 1208 2742 
Q 947 2381 947 1747 
z
" transform="scale(0.015625)"/>
      <path id="DejaVuSans-6c" d="M 603 4863 
L 1178 4863 
L 1178 0 
L 603 0 
L 603 4863 
z
" transform="scale(0.015625)"/>
      <path id="DejaVuSans-3a" d="M 750 794 
L 1409 794 
L 1409 0 
L 750 0 
L 750 794 
z
M 750 3309 
L 1409 3309 
L 1409 2516 
L 750 2516 
L 750 3309 
z
" transform="scale(0.015625)"/>
      <path id="DejaVuSans-78" d="M 3513 3500 
L 2247 1797 
L 3578 0 
L 2900 0 
L 1881 1375 
L 863 0 
L 184 0 
L 1544 1831 
L 300 3500 
L 978 3500 
L 1906 2253 
L 2834 3500 
L 3513 3500 
z
" transform="scale(0.015625)"/>
     </defs>
     <use xlink:href="#DejaVuSans-53"/>
     <use xlink:href="#DejaVuSans-65" transform="translate(63.476562 0)"/>
     <use xlink:href="#DejaVuSans-67" transform="translate(125 0)"/>
     <use xlink:href="#DejaVuSans-75" transform="translate(188.476562 0)"/>
     <use xlink:href="#DejaVuSans-69" transform="translate(251.855469 0)"/>
     <use xlink:href="#DejaVuSans-6d" transform="translate(279.638672 0)"/>
     <use xlink:href="#DejaVuSans-69" transform="translate(377.050781 0)"/>
     <use xlink:href="#DejaVuSans-65" transform="translate(404.833984 0)"/>
     <use xlink:href="#DejaVuSans-6e" transform="translate(466.357422 0)"/>
     <use xlink:href="#DejaVuSans-74" transform="translate(529.736328 0)"/>
     <use xlink:href="#DejaVuSans-6f" transform="translate(568.945312 0)"/>
     <use xlink:href="#DejaVuSans-20" transform="translate(630.126953 0)"/>
     <use xlink:href="#DejaVuSans-4d" transform="translate(661.914062 0)"/>
     <use xlink:href="#DejaVuSans-52" transform="translate(748.193359 0)"/>
     <use xlink:href="#DejaVuSans-41" transform="translate(813.675781 0)"/>
     <use xlink:href="#DejaVuSans-43" transform="translate(880.333984 0)"/>
     <use xlink:href="#DejaVuSans-20" transform="translate(950.158203 0)"/>
     <use xlink:href="#DejaVuSans-63" transform="translate(981.945312 0)"/>
     <use xlink:href="#DejaVuSans-6f" transform="translate(1036.925781 0)"/>
     <use xlink:href="#DejaVuSans-6e" transform="translate(1098.107422 0)"/>
     <use xlink:href="#DejaVuSans-20" transform="translate(1161.486328 0)"/>
     <use xlink:href="#DejaVuSans-74" transform="translate(1193.273438 0)"/>
     <use xlink:href="#DejaVuSans-72" transform="translate(1232.482422 0)"/>
     <use xlink:href="#DejaVuSans-65" transform="translate(1271.345703 0)"/>
     <use xlink:href="#DejaVuSans-6e" transform="translate(1332.869141 0)"/>
     <use xlink:href="#DejaVuSans-20" transform="translate(1396.248047 0)"/>
     <use xlink:href="#DejaVuSans-64" transform="translate(1428.035156 0)"/>
     <use xlink:href="#DejaVuSans-65" transform="translate(1491.511719 0)"/>
     <use xlink:href="#DejaVuSans-20" transform="translate(1553.035156 0)"/>
     <use xlink:href="#DejaVuSans-70" transform="translate(1584.822266 0)"/>
     <use xlink:href="#DejaVuSans-75" transform="translate(1648.298828 0)"/>
     <use xlink:href="#DejaVuSans-6c" transform="translate(1711.677734 0)"/>
     <use xlink:href="#DejaVuSans-73" transform="translate(1739.460938 0)"/>
     <use xlink:href="#DejaVuSans-6f" transform="translate(1791.560547 0)"/>
     <use xlink:href="#DejaVuSans-73" transform="translate(1852.742188 0)"/>
     <use xlink:href="#DejaVuSans-3a" transform="translate(1904.841797 0)"/>
     <use xlink:href="#DejaVuSans-20" transform="translate(1938.533203 0)"/>
     <use xlink:href="#DejaVuSans-75" transform="translate(1970.320312 0)"/>
     <use xlink:href="#DejaVuSans-78" transform="translate(2033.699219 0)"/>
    </g>
   </g>
   <g id="legend_1">
    <g id="patch_7">
     <path d="M 357.067437 59.674375 
L 494.564312 59.674375 
Q 496.564312 59.674375 496.564312 57.674375 
L 496.564312 29.318125 
Q 496.564312 27.318125 494.564312 27.318125 
L 357.067437 27.318125 
Q 355.067437 27.318125 355.067437 29.318125 
L 355.067437 57.674375 
Q 355.067437 59.674375 357.067437 59.674375 
z
" style="fill: #ffffff; opacity: 0.8; stroke: #cccccc; stroke-linejoin: miter"/>
    </g>
    <g id="line2d_27">
     <path d="M 359.067437 35.416562 
L 369.067437 35.416562 
L 379.067437 35.416562 
" style="fill: none; stroke-dasharray: 5.55,2.4; stroke-dashoffset: 0; stroke: #1f77b4; stroke-width: 1.5"/>
    </g>
    <g id="text_16">
     <!-- Modelo de referencia -->
     <g transform="translate(387.067437 38.916562) scale(0.1 -0.1)">
      <defs>
       <path id="DejaVuSans-66" d="M 2375 4863 
L 2375 4384 
L 1825 4384 
Q 1516 4384 1395 4259 
Q 1275 4134 1275 3809 
L 1275 3500 
L 2222 3500 
L 2222 3053 
L 1275 3053 
L 1275 0 
L 697 0 
L 697 3053 
L 147 3053 
L 147 3500 
L 697 3500 
L 697 3744 
Q 697 4328 969 4595 
Q 1241 4863 1831 4863 
L 2375 4863 
z
" transform="scale(0.015625)"/>
       <path id="DejaVuSans-61" d="M 2194 1759 
Q 1497 1759 1228 1600 
Q 959 1441 959 1056 
Q 959 750 1161 570 
Q 1363 391 1709 391 
Q 2188 391 2477 730 
Q 2766 1069 2766 1631 
L 2766 1759 
L 2194 1759 
z
M 3341 1997 
L 3341 0 
L 2766 0 
L 2766 531 
Q 2569 213 2275 61 
Q 1981 -91 1556 -91 
Q 1019 -91 701 211 
Q 384 513 384 1019 
Q 384 1609 779 1909 
Q 1175 2209 1959 2209 
L 2766 2209 
L 2766 2266 
Q 2766 2663 2505 2880 
Q 2244 3097 1772 3097 
Q 1472 3097 1187 3025 
Q 903 2953 641 2809 
L 641 3341 
Q 956 3463 1253 3523 
Q 1550 3584 1831 3584 
Q 2591 3584 2966 3190 
Q 3341 2797 3341 1997 
z
" transform="scale(0.015625)"/>
      </defs>
      <use xlink:href="#DejaVuSans-4d"/>
      <use xlink:href="#DejaVuSans-6f" transform="translate(86.279297 0)"/>
      <use xlink:href="#DejaVuSans-64" transform="translate(147.460938 0)"/>
      <use xlink:href="#DejaVuSans-65" transform="translate(210.9375 0)"/>
      <use xlink:href="#DejaVuSans-6c" transform="translate(272.460938 0)"/>
      <use xlink:href="#DejaVuSans-6f" transform="translate(300.244141 0)"/>
      <use xlink:href="#DejaVuSans-20" transform="translate(361.425781 0)"/>
      <use xlink:href="#DejaVuSans-64" transform="translate(393.212891 0)"/>
      <use xlink:href="#DejaVuSans-65" transform="translate(456.689453 0)"/>
      <use xlink:href="#DejaVuSans-20" transform="translate(518.212891 0)"/>
      <use xlink:href="#DejaVuSans-72" transform="translate(550 0)"/>
      <use xlink:href="#DejaVuSans-65" transform="translate(588.863281 0)"/>
      <use xlink:href="#DejaVuSans-66" transform="translate(650.386719 0)"/>
      <use xlink:href="#DejaVuSans-65" transform="translate(685.591797 0)"/>
      <use xlink:href="#DejaVuSans-72" transform="translate(747.115234 0)"/>
      <use xlink:href="#DejaVuSans-65" transform="translate(785.978516 0)"/>
      <use xlink:href="#DejaVuSans-6e" transform="translate(847.501953 0)"/>
      <use xlink:href="#DejaVuSans-63" transform="translate(910.880859 0)"/>
      <use xlink:href="#DejaVuSans-69" transform="translate(965.861328 0)"/>
      <use xlink:href="#DejaVuSans-61" transform="translate(993.644531 0)"/>
     </g>
    </g>
    <g id="line2d_28">
     <path d="M 359.067437 50.094687 
L 369.067437 50.094687 
L 379.067437 50.094687 
" style="fill: none; stroke: #ff7f0e; stroke-width: 1.2; stroke-linecap: square"/>
    </g>
    <g id="text_17">
     <!-- Planta -->
     <g transform="translate(387.067437 53.594687) scale(0.1 -0.1)">
      <defs>
       <path id="DejaVuSans-50" d="M 1259 4147 
L 1259 2394 
L 2053 2394 
Q 2494 2394 2734 2622 
Q 2975 2850 2975 3272 
Q 2975 3691 2734 3919 
Q 2494 4147 2053 4147 
L 1259 4147 
z
M 628 4666 
L 2053 4666 
Q 2838 4666 3239 4311 
Q 3641 3956 3641 3272 
Q 3641 2581 3239 2228 
Q 2838 1875 2053 1875 
L 1259 1875 
L 1259 0 
L 628 0 
L 628 4666 
z
" transform="scale(0.015625)"/>
      </defs>
      <use xlink:href="#DejaVuSans-50"/>
      <use xlink:href="#DejaVuSans-6c" transform="translate(60.302734 0)"/>
      <use xlink:href="#DejaVuSans-61" transform="translate(88.085938 0)"/>
      <use xlink:href="#DejaVuSans-6e" transform="translate(149.365234 0)"/>
      <use xlink:href="#DejaVuSans-74" transform="translate(212.744141 0)"/>
      <use xlink:href="#DejaVuSans-61" transform="translate(251.953125 0)"/>
     </g>
    </g>
   </g>
  </g>
 </g>
 <defs>
  <clipPath id="p5d62f31bb3">
   <rect x="42.620313" y="22.318125" width="458.944" height="233.56"/>
  </clipPath>
 </defs>
</svg>
