<?xml version="1.0" encoding="utf-8" standalone="no"?>
<!DOCTYPE svg PUBLIC "-//W3C//DTD SVG 1.1//EN"
  "http://www.w3.org/Graphics/SVG/1.1/DTD/svg11.dtd">
<svg xmlns:xlink="http://www.w3.org/1999/xlink" width="508.944937pt" height="293.434375pt" viewBox="0 0 508.944937 293.434375" xmlns="http://www.w3.org/2000/svg" version="1.1">
 <metadata>
  <rdf:RDF xmlns:dc="http://purl.org/dc/elements/1.1/" xmlns:cc="http://creativecommons.org/ns#" xmlns:rdf="http://www.w3.org/1999/02/22-rdf-syntax-ns#">
   <cc:Work>
    <dc:type rdf:resource="http://purl.org/dc/dcmitype/StillImage"/>
    <dc:date>2026-07-18T15:47:05.043218</dc:date>
    <dc:format>image/svg+xml</dc:format>
    <dc:creator>
     <cc:Agent>
      <dc:title>Matplotlib v3.10.8, https://matplotlib.org/</dc:title>
     </cc:Agent>
    </dc:creator>
   </cc:Work>
  </rdf:RDF>
 </metadata>
 <defs>
  <style type="text/css">*{stroke-linejoin: round; stroke-linecap: butt}</style>
 </defs>
 <g id="figure_1">
  <g id="patch_1">
   <path d="M 0 293.434375 
L 508.944937 293.434375 
L 508.944937 0 
L 0 0 
z
" style="fill: #ffffff"/>
  </g>
  <g id="axes_1">
   <g id="patch_2">
    <path d="M 52.160938 255.878125 
L 501.744937 255.878125 
L 501.744937 22.318125 
L 52.160938 22.318125 
z
" style="fill: #ffffff"/>
   </g>
   <g id="matplotlib.axis_1">
    <g id="xtick_1">
     <g id="line2d_1">
      <path d="M 72.596574 255.878125 
L 72.596574 22.318125 
" clip-path="url(#p709dbc4532)" style="fill: none; stroke: #b0b0b0; stroke-width: 0.8; stroke-linecap: square"/>
     </g>
     <g id="line2d_2">
      <defs>
       <path id="m02a7aa3116" d="M 0 0 
L 0 3.5 
" style="stroke: #000000; stroke-width: 0.8"/>
      </defs>
      <g>
       <use xlink:href="#m02a7aa3116" x="72.596574" y="255.878125" style="stroke: #000000; stroke-width: 0.8"/>
      </g>
     </g>
     <g id="text_1">
      <!-- 0 -->
      <g transform="translate(69.415324 270.476562) scale(0.1 -0.1)">
       <defs>
        <path id="DejaVuSans-30" d="M 2034 4250 
Q 1547 4250 1301 3770 
Q 1056 3291 1056 2328 
Q 1056 1369 1301 889 
Q 1547 409 2034 409 
Q 2525 409 2770 889 
Q 3016 1369 3016 2328 
Q 3016 3291 2770 3770 
Q 2525 4250 2034 4250 
z
M 2034 4750 
Q 2819 4750 3233 4129 
Q 3647 3509 3647 2328 
Q 3647 1150 3233 529 
Q 2819 -91 2034 -91 
Q 1250 -91 836 529 
Q 422 1150 422 2328 
Q 422 3509 836 4129 
Q 1250 4750 2034 4750 
z
" transform="scale(0.015625)"/>
       </defs>
       <use xlink:href="#DejaVuSans-30"/>
      </g>
     </g>
    </g>
    <g id="xtick_2">
     <g id="line2d_3">
      <path d="M 140.715362 255.878125 
L 140.715362 22.318125 
" clip-path="url(#p709dbc4532)" style="fill: none; stroke: #b0b0b0; stroke-width: 0.8; stroke-linecap: square"/>
     </g>
     <g id="line2d_4">
      <g>
       <use xlink:href="#m02a7aa3116" x="140.715362" y="255.878125" style="stroke: #000000; stroke-width: 0.8"/>
      </g>
     </g>
     <g id="text_2">
      <!-- 10 -->
      <g transform="translate(134.352862 270.476562) scale(0.1 -0.1)">
       <defs>
        <path id="DejaVuSans-31" d="M 794 531 
L 1825 531 
L 1825 4091 
L 703 3866 
L 703 4441 
L 1819 4666 
L 2450 4666 
L 2450 531 
L 3481 531 
L 3481 0 
L 794 0 
L 794 531 
z
" transform="scale(0.015625)"/>
       </defs>
       <use xlink:href="#DejaVuSans-31"/>
       <use xlink:href="#DejaVuSans-30" transform="translate(63.623047 0)"/>
      </g>
     </g>
    </g>
    <g id="xtick_3">
     <g id="line2d_5">
      <path d="M 208.83415 255.878125 
L 208.83415 22.318125 
" clip-path="url(#p709dbc4532)" style="fill: none; stroke: #b0b0b0; stroke-width: 0.8; stroke-linecap: square"/>
     </g>
     <g id="line2d_6">
      <g>
       <use xlink:href="#m02a7aa3116" x="208.83415" y="255.878125" style="stroke: #000000; stroke-width: 0.8"/>
      </g>
     </g>
     <g id="text_3">
      <!-- 20 -->
      <g transform="translate(202.47165 270.476562) scale(0.1 -0.1)">
       <defs>
        <path id="DejaVuSans-32" d="M 1228 531 
L 3431 531 
L 3431 0 
L 469 0 
L 469 531 
Q 828 903 1448 1529 
Q 2069 2156 2228 2338 
Q 2531 2678 2651 2914 
Q 2772 3150 2772 3378 
Q 2772 3750 2511 3984 
Q 2250 4219 1831 4219 
Q 1534 4219 1204 4116 
Q 875 4013 500 3803 
L 500 4441 
Q 881 4594 1212 4672 
Q 1544 4750 1819 4750 
Q 2544 4750 2975 4387 
Q 3406 4025 3406 3419 
Q 3406 3131 3298 2873 
Q 3191 2616 2906 2266 
Q 2828 2175 2409 1742 
Q 1991 1309 1228 531 
z
" transform="scale(0.015625)"/>
       </defs>
       <use xlink:href="#DejaVuSans-32"/>
       <use xlink:href="#DejaVuSans-30" transform="translate(63.623047 0)"/>
      </g>
     </g>
    </g>
    <g id="xtick_4">
     <g id="line2d_7">
      <path d="M 276.952938 255.878125 
L 276.952938 22.318125 
" clip-path="url(#p709dbc4532)" style="fill: none; stroke: #b0b0b0; stroke-width: 0.8; stroke-linecap: square"/>
     </g>
     <g id="line2d_8">
      <g>
       <use xlink:href="#m02a7aa3116" x="276.952938" y="255.878125" style="stroke: #000000; stroke-width: 0.8"/>
      </g>
     </g>
     <g id="text_4">
      <!-- 30 -->
      <g transform="translate(270.590438 270.476562) scale(0.1 -0.1)">
       <defs>
        <path id="DejaVuSans-33" d="M 2597 2516 
Q 3050 2419 3304 2112 
Q 3559 1806 3559 1356 
Q 3559 666 3084 287 
Q 2609 -91 1734 -91 
Q 1441 -91 1130 -33 
Q 819 25 488 141 
L 488 750 
Q 750 597 1062 519 
Q 1375 441 1716 441 
Q 2309 441 2620 675 
Q 2931 909 2931 1356 
Q 2931 1769 2642 2001 
Q 2353 2234 1838 2234 
L 1294 2234 
L 1294 2753 
L 1863 2753 
Q 2328 2753 2575 2939 
Q 2822 3125 2822 3475 
Q 2822 3834 2567 4026 
Q 2313 4219 1838 4219 
Q 1578 4219 1281 4162 
Q 984 4106 628 3988 
L 628 4550 
Q 988 4650 1302 4700 
Q 1616 4750 1894 4750 
Q 2613 4750 3031 4423 
Q 3450 4097 3450 3541 
Q 3450 3153 3228 2886 
Q 3006 2619 2597 2516 
z
" transform="scale(0.015625)"/>
       </defs>
       <use xlink:href="#DejaVuSans-33"/>
       <use xlink:href="#DejaVuSans-30" transform="translate(63.623047 0)"/>
      </g>
     </g>
    </g>
    <g id="xtick_5">
     <g id="line2d_9">
      <path d="M 345.071725 255.878125 
L 345.071725 22.318125 
" clip-path="url(#p709dbc4532)" style="fill: none; stroke: #b0b0b0; stroke-width: 0.8; stroke-linecap: square"/>
     </g>
     <g id="line2d_10">
      <g>
       <use xlink:href="#m02a7aa3116" x="345.071725" y="255.878125" style="stroke: #000000; stroke-width: 0.8"/>
      </g>
     </g>
     <g id="text_5">
      <!-- 40 -->
      <g transform="translate(338.709225 270.476562) scale(0.1 -0.1)">
       <defs>
        <path id="DejaVuSans-34" d="M 2419 4116 
L 825 1625 
L 2419 1625 
L 2419 4116 
z
M 2253 4666 
L 3047 4666 
L 3047 1625 
L 3713 1625 
L 3713 1100 
L 3047 1100 
L 3047 0 
L 2419 0 
L 2419 1100 
L 313 1100 
L 313 1709 
L 2253 4666 
z
" transform="scale(0.015625)"/>
       </defs>
       <use xlink:href="#DejaVuSans-34"/>
       <use xlink:href="#DejaVuSans-30" transform="translate(63.623047 0)"/>
      </g>
     </g>
    </g>
    <g id="xtick_6">
     <g id="line2d_11">
      <path d="M 413.190513 255.878125 
L 413.190513 22.318125 
" clip-path="url(#p709dbc4532)" style="fill: none; stroke: #b0b0b0; stroke-width: 0.8; stroke-linecap: square"/>
     </g>
     <g id="line2d_12">
      <g>
       <use xlink:href="#m02a7aa3116" x="413.190513" y="255.878125" style="stroke: #000000; stroke-width: 0.8"/>
      </g>
     </g>
     <g id="text_6">
      <!-- 50 -->
      <g transform="translate(406.828013 270.476562) scale(0.1 -0.1)">
       <defs>
        <path id="DejaVuSans-35" d="M 691 4666 
L 3169 4666 
L 3169 4134 
L 1269 4134 
L 1269 2991 
Q 1406 3038 1543 3061 
Q 1681 3084 1819 3084 
Q 2600 3084 3056 2656 
Q 3513 2228 3513 1497 
Q 3513 744 3044 326 
Q 2575 -91 1722 -91 
Q 1428 -91 1123 -41 
Q 819 9 494 109 
L 494 744 
Q 775 591 1075 516 
Q 1375 441 1709 441 
Q 2250 441 2565 725 
Q 2881 1009 2881 1497 
Q 2881 1984 2565 2268 
Q 2250 2553 1709 2553 
Q 1456 2553 1204 2497 
Q 953 2441 691 2322 
L 691 4666 
z
" transform="scale(0.015625)"/>
       </defs>
       <use xlink:href="#DejaVuSans-35"/>
       <use xlink:href="#DejaVuSans-30" transform="translate(63.623047 0)"/>
      </g>
     </g>
    </g>
    <g id="xtick_7">
     <g id="line2d_13">
      <path d="M 481.309301 255.878125 
L 481.309301 22.318125 
" clip-path="url(#p709dbc4532)" style="fill: none; stroke: #b0b0b0; stroke-width: 0.8; stroke-linecap: square"/>
     </g>
     <g id="line2d_14">
      <g>
       <use xlink:href="#m02a7aa3116" x="481.309301" y="255.878125" style="stroke: #000000; stroke-width: 0.8"/>
      </g>
     </g>
     <g id="text_7">
      <!-- 60 -->
      <g transform="translate(474.946801 270.476562) scale(0.1 -0.1)">
       <defs>
        <path id="DejaVuSans-36" d="M 2113 2584 
Q 1688 2584 1439 2293 
Q 1191 2003 1191 1497 
Q 1191 994 1439 701 
Q 1688 409 2113 409 
Q 2538 409 2786 701 
Q 3034 994 3034 1497 
Q 3034 2003 2786 2293 
Q 2538 2584 2113 2584 
z
M 3366 4563 
L 3366 3988 
Q 3128 4100 2886 4159 
Q 2644 4219 2406 4219 
Q 1781 4219 1451 3797 
Q 1122 3375 1075 2522 
Q 1259 2794 1537 2939 
Q 1816 3084 2150 3084 
Q 2853 3084 3261 2657 
Q 3669 2231 3669 1497 
Q 3669 778 3244 343 
Q 2819 -91 2113 -91 
Q 1303 -91 875 529 
Q 447 1150 447 2328 
Q 447 3434 972 4092 
Q 1497 4750 2381 4750 
Q 2619 4750 2861 4703 
Q 3103 4656 3366 4563 
z
" transform="scale(0.015625)"/>
       </defs>
       <use xlink:href="#DejaVuSans-36"/>
       <use xlink:href="#DejaVuSans-30" transform="translate(63.623047 0)"/>
      </g>
     </g>
    </g>
    <g id="text_8">
     <!-- Tiempo [s] -->
     <g transform="translate(250.390438 284.154687) scale(0.1 -0.1)">
      <defs>
       <path id="DejaVuSans-54" d="M -19 4666 
L 3928 4666 
L 3928 4134 
L 2272 4134 
L 2272 0 
L 1638 0 
L 1638 4134 
L -19 4134 
L -19 4666 
z
" transform="scale(0.015625)"/>
       <path id="DejaVuSans-69" d="M 603 3500 
L 1178 3500 
L 1178 0 
L 603 0 
L 603 3500 
z
M 603 4863 
L 1178 4863 
L 1178 4134 
L 603 4134 
L 603 4863 
z
" transform="scale(0.015625)"/>
       <path id="DejaVuSans-65" d="M 3597 1894 
L 3597 1613 
L 953 1613 
Q 991 1019 1311 708 
Q 1631 397 2203 397 
Q 2534 397 2845 478 
Q 3156 559 3463 722 
L 3463 178 
Q 3153 47 2828 -22 
Q 2503 -91 2169 -91 
Q 1331 -91 842 396 
Q 353 884 353 1716 
Q 353 2575 817 3079 
Q 1281 3584 2069 3584 
Q 2775 3584 3186 3129 
Q 3597 2675 3597 1894 
z
M 3022 2063 
Q 3016 2534 2758 2815 
Q 2500 3097 2075 3097 
Q 1594 3097 1305 2825 
Q 1016 2553 972 2059 
L 3022 2063 
z
" transform="scale(0.015625)"/>
       <path id="DejaVuSans-6d" d="M 3328 2828 
Q 3544 3216 3844 3400 
Q 4144 3584 4550 3584 
Q 5097 3584 5394 3201 
Q 5691 2819 5691 2113 
L 5691 0 
L 5113 0 
L 5113 2094 
Q 5113 2597 4934 2840 
Q 4756 3084 4391 3084 
Q 3944 3084 3684 2787 
Q 3425 2491 3425 1978 
L 3425 0 
L 2847 0 
L 2847 2094 
Q 2847 2600 2669 2842 
Q 2491 3084 2119 3084 
Q 1678 3084 1418 2786 
Q 1159 2488 1159 1978 
L 1159 0 
L 581 0 
L 581 3500 
L 1159 3500 
L 1159 2956 
Q 1356 3278 1631 3431 
Q 1906 3584 2284 3584 
Q 2666 3584 2933 3390 
Q 3200 3197 3328 2828 
z
" transform="scale(0.015625)"/>
       <path id="DejaVuSans-70" d="M 1159 525 
L 1159 -1331 
L 581 -1331 
L 581 3500 
L 1159 3500 
L 1159 2969 
Q 1341 3281 1617 3432 
Q 1894 3584 2278 3584 
Q 2916 3584 3314 3078 
Q 3713 2572 3713 1747 
Q 3713 922 3314 415 
Q 2916 -91 2278 -91 
Q 1894 -91 1617 61 
Q 1341 213 1159 525 
z
M 3116 1747 
Q 3116 2381 2855 2742 
Q 2594 3103 2138 3103 
Q 1681 3103 1420 2742 
Q 1159 2381 1159 1747 
Q 1159 1113 1420 752 
Q 1681 391 2138 391 
Q 2594 391 2855 752 
Q 3116 1113 3116 1747 
z
" transform="scale(0.015625)"/>
       <path id="DejaVuSans-6f" d="M 1959 3097 
Q 1497 3097 1228 2736 
Q 959 2375 959 1747 
Q 959 1119 1226 758 
Q 1494 397 1959 397 
Q 2419 397 2687 759 
Q 2956 1122 2956 1747 
Q 2956 2369 2687 2733 
Q 2419 3097 1959 3097 
z
M 1959 3584 
Q 2709 3584 3137 3096 
Q 3566 2609 3566 1747 
Q 3566 888 3137 398 
Q 2709 -91 1959 -91 
Q 1206 -91 779 398 
Q 353 888 353 1747 
Q 353 2609 779 3096 
Q 1206 3584 1959 3584 
z
" transform="scale(0.015625)"/>
       <path id="DejaVuSans-20" transform="scale(0.015625)"/>
       <path id="DejaVuSans-5b" d="M 550 4863 
L 1875 4863 
L 1875 4416 
L 1125 4416 
L 1125 -397 
L 1875 -397 
L 1875 -844 
L 550 -844 
L 550 4863 
z
" transform="scale(0.015625)"/>
       <path id="DejaVuSans-73" d="M 2834 3397 
L 2834 2853 
Q 2591 2978 2328 3040 
Q 2066 3103 1784 3103 
Q 1356 3103 1142 2972 
Q 928 2841 928 2578 
Q 928 2378 1081 2264 
Q 1234 2150 1697 2047 
L 1894 2003 
Q 2506 1872 2764 1633 
Q 3022 1394 3022 966 
Q 3022 478 2636 193 
Q 2250 -91 1575 -91 
Q 1294 -91 989 -36 
Q 684 19 347 128 
L 347 722 
Q 666 556 975 473 
Q 1284 391 1588 391 
Q 1994 391 2212 530 
Q 2431 669 2431 922 
Q 2431 1156 2273 1281 
Q 2116 1406 1581 1522 
L 1381 1569 
Q 847 1681 609 1914 
Q 372 2147 372 2553 
Q 372 3047 722 3315 
Q 1072 3584 1716 3584 
Q 2034 3584 2315 3537 
Q 2597 3491 2834 3397 
z
" transform="scale(0.015625)"/>
       <path id="DejaVuSans-5d" d="M 1947 4863 
L 1947 -844 
L 622 -844 
L 622 -397 
L 1369 -397 
L 1369 4416 
L 622 4416 
L 622 4863 
L 1947 4863 
z
" transform="scale(0.015625)"/>
      </defs>
      <use xlink:href="#DejaVuSans-54"/>
      <use xlink:href="#DejaVuSans-69" transform="translate(57.958984 0)"/>
      <use xlink:href="#DejaVuSans-65" transform="translate(85.742188 0)"/>
      <use xlink:href="#DejaVuSans-6d" transform="translate(147.265625 0)"/>
      <use xlink:href="#DejaVuSans-70" transform="translate(244.677734 0)"/>
      <use xlink:href="#DejaVuSans-6f" transform="translate(308.154297 0)"/>
      <use xlink:href="#DejaVuSans-20" transform="translate(369.335938 0)"/>
      <use xlink:href="#DejaVuSans-5b" transform="translate(401.123047 0)"/>
      <use xlink:href="#DejaVuSans-73" transform="translate(440.136719 0)"/>
      <use xlink:href="#DejaVuSans-5d" transform="translate(492.236328 0)"/>
     </g>
    </g>
   </g>
   <g id="matplotlib.axis_2">
    <g id="ytick_1">
     <g id="line2d_15">
      <path d="M 52.160938 250.830036 
L 501.744937 250.830036 
" clip-path="url(#p709dbc4532)" style="fill: none; stroke: #b0b0b0; stroke-width: 0.8; stroke-linecap: square"/>
     </g>
     <g id="line2d_16">
      <defs>
       <path id="m0ead46bc49" d="M 0 0 
L -3.5 0 
" style="stroke: #000000; stroke-width: 0.8"/>
      </defs>
      <g>
       <use xlink:href="#m0ead46bc49" x="52.160938" y="250.830036" style="stroke: #000000; stroke-width: 0.8"/>
      </g>
     </g>
     <g id="text_9">
      <!-- −5.0 -->
      <g transform="translate(20.878125 254.629255) scale(0.1 -0.1)">
       <defs>
        <path id="DejaVuSans-2212" d="M 678 2272 
L 4684 2272 
L 4684 1741 
L 678 1741 
L 678 2272 
z
" transform="scale(0.015625)"/>
        <path id="DejaVuSans-2e" d="M 684 794 
L 1344 794 
L 1344 0 
L 684 0 
L 684 794 
z
" transform="scale(0.015625)"/>
       </defs>
       <use xlink:href="#DejaVuSans-2212"/>
       <use xlink:href="#DejaVuSans-35" transform="translate(83.789062 0)"/>
       <use xlink:href="#DejaVuSans-2e" transform="translate(147.412109 0)"/>
       <use xlink:href="#DejaVuSans-30" transform="translate(179.199219 0)"/>
      </g>
     </g>
    </g>
    <g id="ytick_2">
     <g id="line2d_17">
      <path d="M 52.160938 223.548531 
L 501.744937 223.548531 
" clip-path="url(#p709dbc4532)" style="fill: none; stroke: #b0b0b0; stroke-width: 0.8; stroke-linecap: square"/>
     </g>
     <g id="line2d_18">
      <g>
       <use xlink:href="#m0ead46bc49" x="52.160938" y="223.548531" style="stroke: #000000; stroke-width: 0.8"/>
      </g>
     </g>
     <g id="text_10">
      <!-- −2.5 -->
      <g transform="translate(20.878125 227.347749) scale(0.1 -0.1)">
       <use xlink:href="#DejaVuSans-2212"/>
       <use xlink:href="#DejaVuSans-32" transform="translate(83.789062 0)"/>
       <use xlink:href="#DejaVuSans-2e" transform="translate(147.412109 0)"/>
       <use xlink:href="#DejaVuSans-35" transform="translate(179.199219 0)"/>
      </g>
     </g>
    </g>
    <g id="ytick_3">
     <g id="line2d_19">
      <path d="M 52.160938 196.267026 
L 501.744937 196.267026 
" clip-path="url(#p709dbc4532)" style="fill: none; stroke: #b0b0b0; stroke-width: 0.8; stroke-linecap: square"/>
     </g>
     <g id="line2d_20">
      <g>
       <use xlink:href="#m0ead46bc49" x="52.160938" y="196.267026" style="stroke: #000000; stroke-width: 0.8"/>
      </g>
     </g>
     <g id="text_11">
      <!-- 0.0 -->
      <g transform="translate(29.257812 200.066244) scale(0.1 -0.1)">
       <use xlink:href="#DejaVuSans-30"/>
       <use xlink:href="#DejaVuSans-2e" transform="translate(63.623047 0)"/>
       <use xlink:href="#DejaVuSans-30" transform="translate(95.410156 0)"/>
      </g>
     </g>
    </g>
    <g id="ytick_4">
     <g id="line2d_21">
      <path d="M 52.160938 168.985521 
L 501.744937 168.985521 
" clip-path="url(#p709dbc4532)" style="fill: none; stroke: #b0b0b0; stroke-width: 0.8; stroke-linecap: square"/>
     </g>
     <g id="line2d_22">
      <g>
       <use xlink:href="#m0ead46bc49" x="52.160938" y="168.985521" style="stroke: #000000; stroke-width: 0.8"/>
      </g>
     </g>
     <g id="text_12">
      <!-- 2.5 -->
      <g transform="translate(29.257812 172.784739) scale(0.1 -0.1)">
       <use xlink:href="#DejaVuSans-32"/>
       <use xlink:href="#DejaVuSans-2e" transform="translate(63.623047 0)"/>
       <use xlink:href="#DejaVuSans-35" transform="translate(95.410156 0)"/>
      </g>
     </g>
    </g>
    <g id="ytick_5">
     <g id="line2d_23">
      <path d="M 52.160938 141.704016 
L 501.744937 141.704016 
" clip-path="url(#p709dbc4532)" style="fill: none; stroke: #b0b0b0; stroke-width: 0.8; stroke-linecap: square"/>
     </g>
     <g id="line2d_24">
      <g>
       <use xlink:href="#m0ead46bc49" x="52.160938" y="141.704016" style="stroke: #000000; stroke-width: 0.8"/>
      </g>
     </g>
     <g id="text_13">
      <!-- 5.0 -->
      <g transform="translate(29.257812 145.503234) scale(0.1 -0.1)">
       <use xlink:href="#DejaVuSans-35"/>
       <use xlink:href="#DejaVuSans-2e" transform="translate(63.623047 0)"/>
       <use xlink:href="#DejaVuSans-30" transform="translate(95.410156 0)"/>
      </g>
     </g>
    </g>
    <g id="ytick_6">
     <g id="line2d_25">
      <path d="M 52.160938 114.422511 
L 501.744937 114.422511 
" clip-path="url(#p709dbc4532)" style="fill: none; stroke: #b0b0b0; stroke-width: 0.8; stroke-linecap: square"/>
     </g>
     <g id="line2d_26">
      <g>
       <use xlink:href="#m0ead46bc49" x="52.160938" y="114.422511" style="stroke: #000000; stroke-width: 0.8"/>
      </g>
     </g>
     <g id="text_14">
      <!-- 7.5 -->
      <g transform="translate(29.257812 118.221729) scale(0.1 -0.1)">
       <defs>
        <path id="DejaVuSans-37" d="M 525 4666 
L 3525 4666 
L 3525 4397 
L 1831 0 
L 1172 0 
L 2766 4134 
L 525 4134 
L 525 4666 
z
" transform="scale(0.015625)"/>
       </defs>
       <use xlink:href="#DejaVuSans-37"/>
       <use xlink:href="#DejaVuSans-2e" transform="translate(63.623047 0)"/>
       <use xlink:href="#DejaVuSans-35" transform="translate(95.410156 0)"/>
      </g>
     </g>
    </g>
    <g id="ytick_7">
     <g id="line2d_27">
      <path d="M 52.160938 87.141006 
L 501.744937 87.141006 
" clip-path="url(#p709dbc4532)" style="fill: none; stroke: #b0b0b0; stroke-width: 0.8; stroke-linecap: square"/>
     </g>
     <g id="line2d_28">
      <g>
       <use xlink:href="#m0ead46bc49" x="52.160938" y="87.141006" style="stroke: #000000; stroke-width: 0.8"/>
      </g>
     </g>
     <g id="text_15">
      <!-- 10.0 -->
      <g transform="translate(22.895313 90.940224) scale(0.1 -0.1)">
       <use xlink:href="#DejaVuSans-31"/>
       <use xlink:href="#DejaVuSans-30" transform="translate(63.623047 0)"/>
       <use xlink:href="#DejaVuSans-2e" transform="translate(127.246094 0)"/>
       <use xlink:href="#DejaVuSans-30" transform="translate(159.033203 0)"/>
      </g>
     </g>
    </g>
    <g id="ytick_8">
     <g id="line2d_29">
      <path d="M 52.160938 59.859501 
L 501.744937 59.859501 
" clip-path="url(#p709dbc4532)" style="fill: none; stroke: #b0b0b0; stroke-width: 0.8; stroke-linecap: square"/>
     </g>
     <g id="line2d_30">
      <g>
       <use xlink:href="#m0ead46bc49" x="52.160938" y="59.859501" style="stroke: #000000; stroke-width: 0.8"/>
      </g>
     </g>
     <g id="text_16">
      <!-- 12.5 -->
      <g transform="translate(22.895313 63.658719) scale(0.1 -0.1)">
       <use xlink:href="#DejaVuSans-31"/>
       <use xlink:href="#DejaVuSans-32" transform="translate(63.623047 0)"/>
       <use xlink:href="#DejaVuSans-2e" transform="translate(127.246094 0)"/>
       <use xlink:href="#DejaVuSans-35" transform="translate(159.033203 0)"/>
      </g>
     </g>
    </g>
    <g id="ytick_9">
     <g id="line2d_31">
      <path d="M 52.160938 32.577996 
L 501.744937 32.577996 
" clip-path="url(#p709dbc4532)" style="fill: none; stroke: #b0b0b0; stroke-width: 0.8; stroke-linecap: square"/>
     </g>
     <g id="line2d_32">
      <g>
       <use xlink:href="#m0ead46bc49" x="52.160938" y="32.577996" style="stroke: #000000; stroke-width: 0.8"/>
      </g>
     </g>
     <g id="text_17">
      <!-- 15.0 -->
      <g transform="translate(22.895313 36.377214) scale(0.1 -0.1)">
       <use xlink:href="#DejaVuSans-31"/>
       <use xlink:href="#DejaVuSans-35" transform="translate(63.623047 0)"/>
       <use xlink:href="#DejaVuSans-2e" transform="translate(127.246094 0)"/>
       <use xlink:href="#DejaVuSans-30" transform="translate(159.033203 0)"/>
      </g>
     </g>
    </g>
    <g id="text_18">
     <!-- $u_z$ [m/s] -->
     <g transform="translate(14.798437 158.898125) rotate(-90) scale(0.1 -0.1)">
      <defs>
       <path id="DejaVuSans-Oblique-75" d="M 428 1388 
L 838 3500 
L 1416 3500 
L 1006 1409 
Q 975 1256 961 1147 
Q 947 1038 947 966 
Q 947 700 1109 554 
Q 1272 409 1569 409 
Q 2031 409 2368 721 
Q 2706 1034 2809 1563 
L 3194 3500 
L 3769 3500 
L 3091 0 
L 2516 0 
L 2631 550 
Q 2388 244 2052 76 
Q 1716 -91 1338 -91 
Q 878 -91 622 161 
Q 366 413 366 863 
Q 366 956 381 1097 
Q 397 1238 428 1388 
z
" transform="scale(0.015625)"/>
       <path id="DejaVuSans-Oblique-7a" d="M 744 3500 
L 3475 3500 
L 3372 2975 
L 738 459 
L 2913 459 
L 2822 0 
L -19 0 
L 84 525 
L 2719 3041 
L 653 3041 
L 744 3500 
z
" transform="scale(0.015625)"/>
       <path id="DejaVuSans-2f" d="M 1625 4666 
L 2156 4666 
L 531 -594 
L 0 -594 
L 1625 4666 
z
" transform="scale(0.015625)"/>
      </defs>
      <use xlink:href="#DejaVuSans-Oblique-75" transform="translate(0 0.015625)"/>
      <use xlink:href="#DejaVuSans-Oblique-7a" transform="translate(63.378906 -16.390625) scale(0.7)"/>
      <use xlink:href="#DejaVuSans-20" transform="translate(102.856445 0.015625)"/>
      <use xlink:href="#DejaVuSans-5b" transform="translate(134.643555 0.015625)"/>
      <use xlink:href="#DejaVuSans-6d" transform="translate(173.657227 0.015625)"/>
      <use xlink:href="#DejaVuSans-2f" transform="translate(271.069336 0.015625)"/>
      <use xlink:href="#DejaVuSans-73" transform="translate(304.760742 0.015625)"/>
      <use xlink:href="#DejaVuSans-5d" transform="translate(356.860352 0.015625)"/>
     </g>
    </g>
   </g>
   <g id="line2d_33">
    <path d="M 72.596574 196.267026 
L 72.80093 187.730718 
L 73.413999 175.184195 
L 74.027068 167.011763 
L 74.572019 162.446494 
L 75.04885 160.007616 
L 75.525682 158.671503 
L 75.866276 158.245039 
L 76.20687 158.168838 
L 76.547464 158.377283 
L 76.956176 158.925891 
L 77.569245 160.199735 
L 78.45479 162.638381 
L 80.634591 169.572045 
L 82.405679 174.797437 
L 83.904293 178.544814 
L 85.266668 181.383479 
L 86.629044 183.720197 
L 87.99142 185.613705 
L 89.353796 187.126575 
L 90.716171 188.317891 
L 92.146666 189.280247 
L 93.645279 190.027514 
L 95.28013 190.596428 
L 97.119338 190.993598 
L 99.162901 191.20338 
L 101.547059 191.220893 
L 104.476167 191.0091 
L 106.655968 190.737526 
L 106.860324 199.244631 
L 107.473393 211.700273 
L 108.086462 219.777282 
L 108.631413 224.254273 
L 109.108244 226.613467 
L 109.516957 227.745681 
L 109.857551 228.191691 
L 110.130026 228.281762 
L 110.402501 228.173349 
L 110.811214 227.704948 
L 111.356164 226.641805 
L 112.105471 224.629051 
L 113.399728 220.410127 
L 116.260717 211.013857 
L 117.827449 206.692922 
L 119.257944 203.370596 
L 120.688438 200.602574 
L 122.118933 198.322338 
L 123.549427 196.458352 
L 125.048041 194.878875 
L 126.546654 193.614374 
L 128.181505 192.526486 
L 129.952593 191.62198 
L 131.859919 190.896718 
L 134.039721 190.307819 
L 136.560116 189.860541 
L 139.625461 189.550402 
L 140.715362 189.484756 
L 140.919718 180.938234 
L 141.532787 168.364687 
L 142.145856 160.170293 
L 142.690807 155.589396 
L 143.167638 153.139622 
L 143.64447 151.79502 
L 143.985064 151.363876 
L 144.325658 151.284082 
L 144.666251 151.48997 
L 145.074964 152.036803 
L 145.688033 153.31046 
L 146.573577 155.753604 
L 148.68526 162.502312 
L 150.524467 167.985472 
L 152.023081 171.776797 
L 153.453575 174.791481 
L 154.815951 177.154128 
L 156.178327 179.079869 
L 157.540702 180.630544 
L 158.971197 181.918735 
L 160.46981 182.958643 
L 162.036542 183.769583 
L 163.739512 184.394399 
L 165.578719 184.833286 
L 167.690402 185.106595 
L 170.142678 185.196907 
L 173.139905 185.078277 
L 174.774756 184.939501 
L 174.979112 193.45562 
L 175.592181 205.938247 
L 176.20525 214.042152 
L 176.750201 218.542974 
L 177.227032 220.92296 
L 177.635745 222.072949 
L 177.976339 222.533739 
L 178.248814 222.635612 
L 178.521289 222.538981 
L 178.861883 222.185652 
L 179.338714 221.347239 
L 180.019902 219.655192 
L 181.109803 216.2719 
L 184.788218 204.448856 
L 186.286831 200.541448 
L 187.717325 197.414591 
L 189.14782 194.8269 
L 190.578314 192.709328 
L 192.008809 190.990801 
L 193.439304 189.605742 
L 194.937917 188.449945 
L 196.572768 187.469194 
L 198.343856 186.669657 
L 200.319301 186.028635 
L 202.567221 185.541601 
L 205.223854 185.205993 
L 208.425437 185.036108 
L 208.83415 185.027908 
L 209.038506 176.488443 
L 209.651575 163.935997 
L 210.264644 155.762605 
L 210.809594 151.200294 
L 211.286426 148.766718 
L 211.695139 147.570952 
L 212.035733 147.072124 
L 212.376327 146.93914 
L 212.716921 147.104064 
L 213.125633 147.615185 
L 213.670584 148.696785 
L 214.488009 150.881084 
L 216.054741 155.875073 
L 218.302661 162.892388 
L 219.869393 167.044944 
L 221.299888 170.214991 
L 222.662264 172.714858 
L 224.024639 174.765081 
L 225.387015 176.42757 
L 226.81751 177.820678 
L 228.248004 178.913048 
L 229.814736 179.826758 
L 231.449587 180.525747 
L 233.288794 181.066943 
L 235.332358 181.434005 
L 237.716516 181.63152 
L 240.577505 181.638152 
L 242.893544 181.517178 
L 243.0979 190.038716 
L 243.710969 202.53755 
L 244.324038 210.657585 
L 244.868988 215.17268 
L 245.34582 217.565106 
L 245.754533 218.725721 
L 246.095127 219.195341 
L 246.435721 219.299195 
L 246.776314 219.105217 
L 247.185027 218.559333 
L 247.729978 217.431554 
L 248.547403 215.178349 
L 250.114135 210.053508 
L 252.430174 202.650548 
L 253.996906 198.401797 
L 255.427401 195.144886 
L 256.789776 192.560977 
L 258.152152 190.424787 
L 259.582647 188.59591 
L 261.013141 187.124226 
L 262.511754 185.899598 
L 264.078487 184.902742 
L 265.781456 184.083056 
L 267.688782 183.421231 
L 269.800465 182.92955 
L 272.252741 182.592235 
L 275.181849 182.419236 
L 276.952938 182.400004 
L 277.157294 173.864701 
L 277.770363 161.3247 
L 278.383432 153.163693 
L 278.928382 148.612343 
L 279.405214 146.188319 
L 279.813927 145.000712 
L 280.154521 144.508665 
L 280.495114 144.382443 
L 280.835708 144.554111 
L 281.244421 145.073301 
L 281.789371 146.16562 
L 282.606797 148.365915 
L 284.173529 153.390278 
L 286.421449 160.450534 
L 287.988181 164.63258 
L 289.418676 167.829241 
L 290.781051 170.354181 
L 292.143427 172.429215 
L 293.505803 174.116253 
L 294.936298 175.53486 
L 296.434911 176.699093 
L 298.001643 177.628555 
L 299.704613 178.371158 
L 301.54382 178.926723 
L 303.655502 179.32325 
L 306.107779 179.545454 
L 309.036887 179.577293 
L 311.012331 179.499286 
L 311.216688 188.02402 
L 311.829757 200.53241 
L 312.442826 208.661956 
L 312.987776 213.185467 
L 313.464608 215.585228 
L 313.873321 216.752108 
L 314.213914 217.226934 
L 314.554508 217.33598 
L 314.895102 217.147181 
L 315.303815 216.607494 
L 315.848765 215.487945 
L 316.666191 213.247023 
L 318.232923 208.145505 
L 320.548962 200.77651 
L 322.115694 196.55039 
L 323.546188 193.313905 
L 324.908564 190.749239 
L 326.27094 188.63209 
L 327.701434 186.82299 
L 329.131929 185.370865 
L 330.630542 184.166497 
L 332.197274 183.190571 
L 333.900244 182.393349 
L 335.80757 181.756333 
L 337.919253 181.291695 
L 340.371529 180.985233 
L 343.300637 180.848326 
L 345.071725 180.850524 
L 345.276082 172.317674 
L 345.889151 159.785011 
L 346.50222 151.631307 
L 347.04717 147.086419 
L 347.524002 144.668027 
L 347.932714 143.485232 
L 348.273308 142.997182 
L 348.613902 142.874947 
L 348.954496 143.050591 
L 349.363209 143.574539 
L 349.908159 144.67318 
L 350.725585 146.882905 
L 352.292317 151.925178 
L 354.608356 159.207903 
L 356.175088 163.376535 
L 357.605582 166.561139 
L 358.967958 169.076926 
L 360.330334 171.145709 
L 361.69271 172.829413 
L 363.123204 174.247386 
L 364.621818 175.413681 
L 366.18855 176.347783 
L 367.891519 177.097753 
L 369.730727 177.663394 
L 371.842409 178.073523 
L 374.294685 178.31345 
L 377.223793 178.36821 
L 379.131119 178.309485 
L 379.335476 186.836103 
L 379.948545 199.350127 
L 380.561614 207.485281 
L 381.106564 212.013754 
L 381.583396 214.417839 
L 381.992108 215.588414 
L 382.332702 216.06631 
L 382.673296 216.178418 
L 383.01389 215.992672 
L 383.422603 215.456638 
L 383.967553 214.341943 
L 384.784979 212.108263 
L 386.351711 207.020497 
L 388.66775 199.671527 
L 390.234482 195.458753 
L 391.664976 192.23431 
L 393.027352 189.68099 
L 394.389728 187.575069 
L 395.752104 185.854617 
L 397.182598 184.398474 
L 398.681211 183.192643 
L 400.247944 182.217696 
L 401.950913 181.42389 
L 403.790121 180.81155 
L 405.901803 180.34862 
L 408.354079 180.048451 
L 411.283187 179.92322 
L 413.190513 179.93691 
L 413.39487 171.405506 
L 414.007939 158.87717 
L 414.621008 150.727772 
L 415.165958 146.186694 
L 415.64279 143.771623 
L 416.051502 142.591665 
L 416.392096 142.105972 
L 416.73269 141.986088 
L 417.073284 142.164077 
L 417.481997 142.690831 
L 418.026947 143.793198 
L 418.844373 146.008484 
L 420.411105 151.061317 
L 422.727144 158.359419 
L 424.293876 162.538298 
L 425.72437 165.732149 
L 427.086746 168.256649 
L 428.449122 170.334053 
L 429.811497 172.026287 
L 431.241992 173.453121 
L 432.740605 174.628593 
L 434.307338 175.572176 
L 436.010307 176.332322 
L 437.849514 176.908803 
L 439.961197 177.331189 
L 442.413473 177.585099 
L 445.342581 177.656218 
L 447.249907 177.607947 
L 447.454264 186.135676 
L 448.067333 198.653022 
L 448.680402 206.791482 
L 449.225352 211.322881 
L 449.702184 213.729517 
L 450.110896 214.90227 
L 450.45149 215.381976 
L 450.792084 215.495888 
L 451.132678 215.311943 
L 451.541391 214.778064 
L 452.086341 213.66623 
L 452.903767 211.43682 
L 454.470499 206.357163 
L 456.786538 199.020001 
L 458.35327 194.815094 
L 459.783764 191.597753 
L 461.14614 189.051123 
L 462.508516 186.951821 
L 463.870891 185.23792 
L 465.301386 183.78858 
L 466.799999 182.589797 
L 468.366731 181.62213 
L 470.069701 180.836137 
L 471.908908 180.232121 
L 474.020591 179.778602 
L 476.472867 179.489171 
L 479.401975 179.376502 
L 481.309301 179.398219 
L 481.309301 179.398219 
" clip-path="url(#p709dbc4532)" style="fill: none; stroke-dasharray: 5.55,2.4; stroke-dashoffset: 0; stroke: #1f77b4; stroke-width: 1.5"/>
   </g>
   <g id="line2d_34">
    <path d="M 72.596574 196.267026 
L 74.572019 196.163111 
L 75.525682 195.876718 
L 76.274988 195.431796 
L 76.888058 194.831394 
L 77.433008 193.958255 
L 77.841721 192.875318 
L 78.182314 191.39861 
L 78.522908 188.844267 
L 78.795384 185.184524 
L 79.067859 178.359806 
L 79.340334 164.090068 
L 79.54469 142.005692 
L 79.817165 81.762653 
L 80.021522 42.490054 
L 80.089641 51.453711 
L 80.362116 182.25681 
L 80.566472 242.956295 
L 80.634591 245.261761 
L 80.770828 230.286398 
L 81.111422 185.493343 
L 81.179541 184.046245 
L 81.24766 184.710091 
L 81.79261 199.358863 
L 81.996967 197.590385 
L 82.269442 195.628157 
L 82.405679 195.600469 
L 82.95063 196.484567 
L 83.768055 196.251611 
L 84.517362 196.217955 
L 87.650826 195.857199 
L 89.762508 195.376874 
L 91.465478 194.768679 
L 92.895973 194.020245 
L 94.053992 193.162992 
L 95.007655 192.184982 
L 95.825081 191.025898 
L 96.506268 189.681067 
L 97.119338 187.958042 
L 97.664288 185.678725 
L 98.141119 182.546296 
L 98.549832 178.068683 
L 98.890426 171.491823 
L 99.162901 161.944242 
L 99.435376 143.247071 
L 99.707851 102.583262 
L 100.048445 32.934489 
L 100.116564 40.454187 
L 100.320921 129.530538 
L 100.593396 229.12959 
L 100.661514 234.13916 
L 100.729633 231.789291 
L 101.274584 172.660525 
L 101.342702 172.889445 
L 101.615178 180.44591 
L 101.819534 183.817645 
L 101.887653 183.859947 
L 102.02389 182.639969 
L 102.909434 167.17315 
L 103.250028 158.505803 
L 103.590622 142.901524 
L 103.999335 110.132489 
L 104.27181 92.141922 
L 104.339929 92.548488 
L 104.476167 102.345288 
L 105.089236 173.237638 
L 105.157354 172.666076 
L 105.293592 166.137192 
L 105.566067 138.323177 
L 105.97478 92.848419 
L 106.042899 92.043044 
L 106.179136 102.052786 
L 106.724087 174.993359 
L 106.792205 175.111455 
L 106.928443 169.388768 
L 107.541512 131.996347 
L 107.67775 136.621024 
L 108.2227 165.026456 
L 108.290819 165.139967 
L 108.427056 163.538847 
L 108.76765 159.077873 
L 108.835769 159.238928 
L 109.040125 161.774264 
L 109.448838 167.599585 
L 109.721313 168.798275 
L 109.993788 169.880743 
L 111.832996 179.870977 
L 115.715767 198.961824 
L 117.21438 207.846671 
L 118.849231 218.984049 
L 120.892794 232.846615 
L 121.71022 236.898259 
L 122.391408 239.189925 
L 122.936358 240.323812 
L 123.41319 240.870649 
L 123.821902 241.061437 
L 124.230615 241.039446 
L 124.707447 240.79387 
L 125.320516 240.203524 
L 126.137941 239.057295 
L 127.159723 237.214442 
L 128.522099 234.273603 
L 130.361306 229.732216 
L 133.086058 222.346313 
L 139.489224 204.824062 
L 140.987837 200.662521 
L 141.464668 198.383874 
L 142.213975 193.419914 
L 143.167638 185.632253 
L 144.121301 175.96969 
L 144.938727 165.214946 
L 145.756152 151.193783 
L 146.709815 135.054527 
L 147.050409 132.273918 
L 147.322884 131.42433 
L 147.595359 131.258876 
L 147.935953 131.369432 
L 148.276547 131.718152 
L 148.68526 132.599958 
L 150.93318 138.81068 
L 156.791396 155.553249 
L 161.695948 168.720401 
L 165.442482 178.220188 
L 167.758521 183.538474 
L 169.529609 187.097542 
L 171.028222 189.646493 
L 172.390598 191.532512 
L 173.616736 192.851971 
L 174.706637 193.719443 
L 174.842874 193.902803 
L 175.047231 194.539046 
L 175.319706 196.232433 
L 175.864656 201.6286 
L 178.45317 229.459525 
L 178.998121 232.563606 
L 179.474952 234.160901 
L 179.883665 234.788055 
L 180.15614 234.88117 
L 180.428615 234.7538 
L 180.769209 234.334024 
L 181.246041 233.361436 
L 181.927228 231.422274 
L 183.017129 227.558083 
L 189.079701 204.899332 
L 190.918908 199.292377 
L 192.689997 194.596862 
L 194.324848 190.871465 
L 195.89158 187.836395 
L 197.390193 185.405057 
L 198.820688 183.49349 
L 200.183064 182.022524 
L 201.545439 180.8689 
L 202.907815 180.007289 
L 204.270191 179.411131 
L 205.632567 179.053324 
L 207.063061 178.904549 
L 208.629793 178.972557 
L 208.902268 178.911318 
L 209.106625 178.471541 
L 209.3791 177.18142 
L 209.787813 173.855404 
L 210.469001 166.172929 
L 212.376327 142.907341 
L 212.853158 140.215584 
L 213.193752 139.262431 
L 213.466227 138.953554 
L 213.738702 138.958253 
L 214.011178 139.208015 
L 214.41989 139.923746 
L 215.032959 141.508116 
L 216.054741 144.871953 
L 221.776719 164.804203 
L 223.615927 169.992562 
L 225.318896 174.133852 
L 226.885628 177.375169 
L 228.384242 179.967308 
L 229.746618 181.901049 
L 231.040874 183.379485 
L 232.335131 184.528516 
L 233.629388 185.373407 
L 234.923645 185.943454 
L 236.217902 186.270243 
L 237.580278 186.386867 
L 239.078891 186.288957 
L 240.781861 185.946739 
L 242.825425 185.294457 
L 242.961662 185.343045 
L 243.0979 185.677345 
L 243.302256 186.955617 
L 243.710969 191.690186 
L 245.482057 213.593904 
L 246.163245 218.987338 
L 246.708196 221.696175 
L 247.185027 223.002955 
L 247.525621 223.415032 
L 247.798096 223.478596 
L 248.070571 223.33898 
L 248.479284 222.811231 
L 249.024234 221.645166 
L 249.773541 219.45323 
L 251.067798 214.839063 
L 254.678094 201.662438 
L 256.312945 196.650474 
L 257.811558 192.738845 
L 259.242053 189.599487 
L 260.604428 187.110658 
L 261.966804 185.063736 
L 263.32918 183.409955 
L 264.691556 182.101859 
L 266.053931 181.095226 
L 267.484426 180.318712 
L 268.983039 179.768619 
L 270.549771 179.436157 
L 272.252741 179.30675 
L 274.160067 179.390762 
L 276.407987 179.723668 
L 277.021056 179.751278 
L 277.225413 179.202799 
L 277.497888 177.37034 
L 277.974719 172.023138 
L 278.996501 157.398473 
L 279.813927 147.083168 
L 280.358877 142.762697 
L 280.76759 140.944872 
L 281.108184 140.181869 
L 281.380659 139.955973 
L 281.653134 139.999075 
L 281.993728 140.347662 
L 282.470559 141.239043 
L 283.151747 143.045726 
L 284.309767 146.85392 
L 288.533131 161.27055 
L 290.236101 166.09846 
L 291.802833 169.895052 
L 293.301447 172.959198 
L 294.731941 175.393814 
L 296.094317 177.299113 
L 297.456693 178.835718 
L 298.819068 180.040097 
L 300.181444 180.949514 
L 301.54382 181.600693 
L 302.974314 182.04495 
L 304.541047 182.294244 
L 306.244016 182.335285 
L 308.219461 182.14915 
L 310.603619 181.684008 
L 311.08045 181.670354 
L 311.216688 182.086997 
L 311.421044 183.720462 
L 311.897876 190.511141 
L 313.192133 208.266969 
L 313.873321 214.624437 
L 314.418271 217.915852 
L 314.895102 219.617877 
L 315.303815 220.33571 
L 315.644409 220.500627 
L 315.916884 220.395736 
L 316.257478 220.018365 
L 316.73431 219.122997 
L 317.415498 217.311609 
L 318.505398 213.668193 
L 322.865001 198.393643 
L 324.431733 193.987605 
L 325.862227 190.59739 
L 327.292722 187.77307 
L 328.655098 185.557093 
L 330.017473 183.748701 
L 331.379849 182.295676 
L 332.810344 181.099997 
L 334.240838 180.193647 
L 335.739451 179.50715 
L 337.306184 179.03086 
L 339.009153 178.743903 
L 340.916479 178.651445 
L 343.096281 178.772986 
L 345.139844 178.949026 
L 345.344201 178.297454 
L 345.616676 176.046787 
L 346.161626 168.76386 
L 347.796477 145.727734 
L 348.341427 141.645646 
L 348.75014 139.97589 
L 349.090734 139.289439 
L 349.363209 139.098484 
L 349.635684 139.158782 
L 349.976278 139.511559 
L 350.45311 140.391084 
L 351.134298 142.168548 
L 352.292317 145.930051 
L 356.447563 159.972128 
L 358.082414 164.535306 
L 359.649146 168.253496 
L 361.147759 171.231269 
L 362.578254 173.583911 
L 363.94063 175.420246 
L 365.303005 176.902972 
L 366.665381 178.07231 
L 368.095876 179.005277 
L 369.52637 179.677689 
L 371.024984 180.144816 
L 372.659834 180.423833 
L 374.499042 180.505751 
L 376.610724 180.367223 
L 379.199238 180.062825 
L 379.335476 180.529005 
L 379.539832 182.384187 
L 380.152901 191.981412 
L 381.242802 207.187981 
L 381.92399 213.541495 
L 382.46894 216.739521 
L 382.945771 218.343267 
L 383.354484 218.98266 
L 383.626959 219.097134 
L 383.899434 219.002182 
L 384.240028 218.636011 
L 384.71686 217.755395 
L 385.398048 215.96476 
L 386.487948 212.356175 
L 390.779432 197.493648 
L 392.278045 193.327385 
L 393.70854 189.970576 
L 395.139034 187.178354 
L 396.50141 184.98906 
L 397.863786 183.201782 
L 399.226162 181.763327 
L 400.656656 180.575488 
L 402.087151 179.669388 
L 403.585764 178.975445 
L 405.220615 178.46711 
L 406.991704 178.156103 
L 408.967148 178.042904 
L 411.215068 178.142033 
L 413.258632 178.285341 
L 413.39487 177.909237 
L 413.599226 176.528501 
L 414.007939 171.320194 
L 415.915265 144.20484 
L 416.392096 140.892392 
L 416.800809 139.305093 
L 417.141403 138.659931 
L 417.413878 138.487981 
L 417.686353 138.558226 
L 418.026947 138.914841 
L 418.503779 139.791295 
L 419.184967 141.558755 
L 420.342986 145.304712 
L 424.498232 159.283401 
L 426.133083 163.797351 
L 427.631696 167.312239 
L 429.062191 170.134765 
L 430.492685 172.477791 
L 431.92318 174.388767 
L 433.285556 175.852199 
L 434.71605 177.060759 
L 436.146545 177.978 
L 437.645158 178.671959 
L 439.21189 179.151596 
L 440.91486 179.438149 
L 442.822186 179.52732 
L 445.001987 179.401362 
L 447.318026 179.184102 
L 447.454264 179.680352 
L 447.65862 181.673267 
L 448.544164 195.936378 
L 449.36159 206.987468 
L 449.974659 212.680155 
L 450.519609 215.912779 
L 450.996441 217.528004 
L 451.405153 218.17146 
L 451.677628 218.287732 
L 451.950104 218.194521 
L 452.290698 217.83081 
L 452.767529 216.95454 
L 453.448717 215.171956 
L 454.538618 211.580055 
L 458.761982 197.030553 
L 460.260596 192.883005 
L 461.69109 189.544615 
L 463.121585 186.769963 
L 464.483961 184.595444 
L 465.846336 182.82026 
L 467.208712 181.390787 
L 468.639207 180.208836 
L 470.069701 179.305005 
L 471.636433 178.583557 
L 473.271284 178.07946 
L 475.042373 177.766996 
L 477.017818 177.646106 
L 479.333856 177.736169 
L 481.309301 177.957069 
L 481.309301 177.957069 
" clip-path="url(#p709dbc4532)" style="fill: none; stroke: #ff7f0e; stroke-width: 1.2; stroke-linecap: square"/>
   </g>
   <g id="patch_3">
    <path d="M 52.160938 255.878125 
L 52.160938 22.318125 
" style="fill: none; stroke: #000000; stroke-width: 0.8; stroke-linejoin: miter; stroke-linecap: square"/>
   </g>
   <g id="patch_4">
    <path d="M 501.744937 255.878125 
L 501.744937 22.318125 
" style="fill: none; stroke: #000000; stroke-width: 0.8; stroke-linejoin: miter; stroke-linecap: square"/>
   </g>
   <g id="patch_5">
    <path d="M 52.160938 255.878125 
L 501.744937 255.878125 
" style="fill: none; stroke: #000000; stroke-width: 0.8; stroke-linejoin: miter; stroke-linecap: square"/>
   </g>
   <g id="patch_6">
    <path d="M 52.160938 22.318125 
L 501.744937 22.318125 
" style="fill: none; stroke: #000000; stroke-width: 0.8; stroke-linejoin: miter; stroke-linecap: square"/>
   </g>
   <g id="text_19">
    <!-- Seguimiento MRAC con tren de pulsos: uz -->
    <g transform="translate(151.782625 16.318125) scale(0.12 -0.12)">
     <defs>
      <path id="DejaVuSans-53" d="M 3425 4513 
L 3425 3897 
Q 3066 4069 2747 4153 
Q 2428 4238 2131 4238 
Q 1616 4238 1336 4038 
Q 1056 3838 1056 3469 
Q 1056 3159 1242 3001 
Q 1428 2844 1947 2747 
L 2328 2669 
Q 3034 2534 3370 2195 
Q 3706 1856 3706 1288 
Q 3706 609 3251 259 
Q 2797 -91 1919 -91 
Q 1588 -91 1214 -16 
Q 841 59 441 206 
L 441 856 
Q 825 641 1194 531 
Q 1563 422 1919 422 
Q 2459 422 2753 634 
Q 3047 847 3047 1241 
Q 3047 1584 2836 1778 
Q 2625 1972 2144 2069 
L 1759 2144 
Q 1053 2284 737 2584 
Q 422 2884 422 3419 
Q 422 4038 858 4394 
Q 1294 4750 2059 4750 
Q 2388 4750 2728 4690 
Q 3069 4631 3425 4513 
z
" transform="scale(0.015625)"/>
      <path id="DejaVuSans-67" d="M 2906 1791 
Q 2906 2416 2648 2759 
Q 2391 3103 1925 3103 
Q 1463 3103 1205 2759 
Q 947 2416 947 1791 
Q 947 1169 1205 825 
Q 1463 481 1925 481 
Q 2391 481 2648 825 
Q 2906 1169 2906 1791 
z
M 3481 434 
Q 3481 -459 3084 -895 
Q 2688 -1331 1869 -1331 
Q 1566 -1331 1297 -1286 
Q 1028 -1241 775 -1147 
L 775 -588 
Q 1028 -725 1275 -790 
Q 1522 -856 1778 -856 
Q 2344 -856 2625 -561 
Q 2906 -266 2906 331 
L 2906 616 
Q 2728 306 2450 153 
Q 2172 0 1784 0 
Q 1141 0 747 490 
Q 353 981 353 1791 
Q 353 2603 747 3093 
Q 1141 3584 1784 3584 
Q 2172 3584 2450 3431 
Q 2728 3278 2906 2969 
L 2906 3500 
L 3481 3500 
L 3481 434 
z
" transform="scale(0.015625)"/>
      <path id="DejaVuSans-75" d="M 544 1381 
L 544 3500 
L 1119 3500 
L 1119 1403 
Q 1119 906 1312 657 
Q 1506 409 1894 409 
Q 2359 409 2629 706 
Q 2900 1003 2900 1516 
L 2900 3500 
L 3475 3500 
L 3475 0 
L 2900 0 
L 2900 538 
Q 2691 219 2414 64 
Q 2138 -91 1772 -91 
Q 1169 -91 856 284 
Q 544 659 544 1381 
z
M 1991 3584 
L 1991 3584 
z
" transform="scale(0.015625)"/>
      <path id="DejaVuSans-6e" d="M 3513 2113 
L 3513 0 
L 2938 0 
L 2938 2094 
Q 2938 2591 2744 2837 
Q 2550 3084 2163 3084 
Q 1697 3084 1428 2787 
Q 1159 2491 1159 1978 
L 1159 0 
L 581 0 
L 581 3500 
L 1159 3500 
L 1159 2956 
Q 1366 3272 1645 3428 
Q 1925 3584 2291 3584 
Q 2894 3584 3203 3211 
Q 3513 2838 3513 2113 
z
" transform="scale(0.015625)"/>
      <path id="DejaVuSans-74" d="M 1172 4494 
L 1172 3500 
L 2356 3500 
L 2356 3053 
L 1172 3053 
L 1172 1153 
Q 1172 725 1289 603 
Q 1406 481 1766 481 
L 2356 481 
L 2356 0 
L 1766 0 
Q 1100 0 847 248 
Q 594 497 594 1153 
L 594 3053 
L 172 3053 
L 172 3500 
L 594 3500 
L 594 4494 
L 1172 4494 
z
" transform="scale(0.015625)"/>
      <path id="DejaVuSans-4d" d="M 628 4666 
L 1569 4666 
L 2759 1491 
L 3956 4666 
L 4897 4666 
L 4897 0 
L 4281 0 
L 4281 4097 
L 3078 897 
L 2444 897 
L 1241 4097 
L 1241 0 
L 628 0 
L 628 4666 
z
" transform="scale(0.015625)"/>
      <path id="DejaVuSans-52" d="M 2841 2188 
Q 3044 2119 3236 1894 
Q 3428 1669 3622 1275 
L 4263 0 
L 3584 0 
L 2988 1197 
Q 2756 1666 2539 1819 
Q 2322 1972 1947 1972 
L 1259 1972 
L 1259 0 
L 628 0 
L 628 4666 
L 2053 4666 
Q 2853 4666 3247 4331 
Q 3641 3997 3641 3322 
Q 3641 2881 3436 2590 
Q 3231 2300 2841 2188 
z
M 1259 4147 
L 1259 2491 
L 2053 2491 
Q 2509 2491 2742 2702 
Q 2975 2913 2975 3322 
Q 2975 3731 2742 3939 
Q 2509 4147 2053 4147 
L 1259 4147 
z
" transform="scale(0.015625)"/>
      <path id="DejaVuSans-41" d="M 2188 4044 
L 1331 1722 
L 3047 1722 
L 2188 4044 
z
M 1831 4666 
L 2547 4666 
L 4325 0 
L 3669 0 
L 3244 1197 
L 1141 1197 
L 716 0 
L 50 0 
L 1831 4666 
z
" transform="scale(0.015625)"/>
      <path id="DejaVuSans-43" d="M 4122 4306 
L 4122 3641 
Q 3803 3938 3442 4084 
Q 3081 4231 2675 4231 
Q 1875 4231 1450 3742 
Q 1025 3253 1025 2328 
Q 1025 1406 1450 917 
Q 1875 428 2675 428 
Q 3081 428 3442 575 
Q 3803 722 4122 1019 
L 4122 359 
Q 3791 134 3420 21 
Q 3050 -91 2638 -91 
Q 1578 -91 968 557 
Q 359 1206 359 2328 
Q 359 3453 968 4101 
Q 1578 4750 2638 4750 
Q 3056 4750 3426 4639 
Q 3797 4528 4122 4306 
z
" transform="scale(0.015625)"/>
      <path id="DejaVuSans-63" d="M 3122 3366 
L 3122 2828 
Q 2878 2963 2633 3030 
Q 2388 3097 2138 3097 
Q 1578 3097 1268 2742 
Q 959 2388 959 1747 
Q 959 1106 1268 751 
Q 1578 397 2138 397 
Q 2388 397 2633 464 
Q 2878 531 3122 666 
L 3122 134 
Q 2881 22 2623 -34 
Q 2366 -91 2075 -91 
Q 1284 -91 818 406 
Q 353 903 353 1747 
Q 353 2603 823 3093 
Q 1294 3584 2113 3584 
Q 2378 3584 2631 3529 
Q 2884 3475 3122 3366 
z
" transform="scale(0.015625)"/>
      <path id="DejaVuSans-72" d="M 2631 2963 
Q 2534 3019 2420 3045 
Q 2306 3072 2169 3072 
Q 1681 3072 1420 2755 
Q 1159 2438 1159 1844 
L 1159 0 
L 581 0 
L 581 3500 
L 1159 3500 
L 1159 2956 
Q 1341 3275 1631 3429 
Q 1922 3584 2338 3584 
Q 2397 3584 2469 3576 
Q 2541 3569 2628 3553 
L 2631 2963 
z
" transform="scale(0.015625)"/>
      <path id="DejaVuSans-64" d="M 2906 2969 
L 2906 4863 
L 3481 4863 
L 3481 0 
L 2906 0 
L 2906 525 
Q 2725 213 2448 61 
Q 2172 -91 1784 -91 
Q 1150 -91 751 415 
Q 353 922 353 1747 
Q 353 2572 751 3078 
Q 1150 3584 1784 3584 
Q 2172 3584 2448 3432 
Q 2725 3281 2906 2969 
z
M 947 1747 
Q 947 1113 1208 752 
Q 1469 391 1925 391 
Q 2381 391 2643 752 
Q 2906 1113 2906 1747 
Q 2906 2381 2643 2742 
Q 2381 3103 1925 3103 
Q 1469 3103 1208 2742 
Q 947 2381 947 1747 
z
" transform="scale(0.015625)"/>
      <path id="DejaVuSans-6c" d="M 603 4863 
L 1178 4863 
L 1178 0 
L 603 0 
L 603 4863 
z
" transform="scale(0.015625)"/>
      <path id="DejaVuSans-3a" d="M 750 794 
L 1409 794 
L 1409 0 
L 750 0 
L 750 794 
z
M 750 3309 
L 1409 3309 
L 1409 2516 
L 750 2516 
L 750 3309 
z
" transform="scale(0.015625)"/>
      <path id="DejaVuSans-7a" d="M 353 3500 
L 3084 3500 
L 3084 2975 
L 922 459 
L 3084 459 
L 3084 0 
L 275 0 
L 275 525 
L 2438 3041 
L 353 3041 
L 353 3500 
z
" transform="scale(0.015625)"/>
     </defs>
     <use xlink:href="#DejaVuSans-53"/>
     <use xlink:href="#DejaVuSans-65" transform="translate(63.476562 0)"/>
     <use xlink:href="#DejaVuSans-67" transform="translate(125 0)"/>
     <use xlink:href="#DejaVuSans-75" transform="translate(188.476562 0)"/>
     <use xlink:href="#DejaVuSans-69" transform="translate(251.855469 0)"/>
     <use xlink:href="#DejaVuSans-6d" transform="translate(279.638672 0)"/>
     <use xlink:href="#DejaVuSans-69" transform="translate(377.050781 0)"/>
     <use xlink:href="#DejaVuSans-65" transform="translate(404.833984 0)"/>
     <use xlink:href="#DejaVuSans-6e" transform="translate(466.357422 0)"/>
     <use xlink:href="#DejaVuSans-74" transform="translate(529.736328 0)"/>
     <use xlink:href="#DejaVuSans-6f" transform="translate(568.945312 0)"/>
     <use xlink:href="#DejaVuSans-20" transform="translate(630.126953 0)"/>
     <use xlink:href="#DejaVuSans-4d" transform="translate(661.914062 0)"/>
     <use xlink:href="#DejaVuSans-52" transform="translate(748.193359 0)"/>
     <use xlink:href="#DejaVuSans-41" transform="translate(813.675781 0)"/>
     <use xlink:href="#DejaVuSans-43" transform="translate(880.333984 0)"/>
     <use xlink:href="#DejaVuSans-20" transform="translate(950.158203 0)"/>
     <use xlink:href="#DejaVuSans-63" transform="translate(981.945312 0)"/>
     <use xlink:href="#DejaVuSans-6f" transform="translate(1036.925781 0)"/>
     <use xlink:href="#DejaVuSans-6e" transform="translate(1098.107422 0)"/>
     <use xlink:href="#DejaVuSans-20" transform="translate(1161.486328 0)"/>
     <use xlink:href="#DejaVuSans-74" transform="translate(1193.273438 0)"/>
     <use xlink:href="#DejaVuSans-72" transform="translate(1232.482422 0)"/>
     <use xlink:href="#DejaVuSans-65" transform="translate(1271.345703 0)"/>
     <use xlink:href="#DejaVuSans-6e" transform="translate(1332.869141 0)"/>
     <use xlink:href="#DejaVuSans-20" transform="translate(1396.248047 0)"/>
     <use xlink:href="#DejaVuSans-64" transform="translate(1428.035156 0)"/>
     <use xlink:href="#DejaVuSans-65" transform="translate(1491.511719 0)"/>
     <use xlink:href="#DejaVuSans-20" transform="translate(1553.035156 0)"/>
     <use xlink:href="#DejaVuSans-70" transform="translate(1584.822266 0)"/>
     <use xlink:href="#DejaVuSans-75" transform="translate(1648.298828 0)"/>
     <use xlink:href="#DejaVuSans-6c" transform="translate(1711.677734 0)"/>
     <use xlink:href="#DejaVuSans-73" transform="translate(1739.460938 0)"/>
     <use xlink:href="#DejaVuSans-6f" transform="translate(1791.560547 0)"/>
     <use xlink:href="#DejaVuSans-73" transform="translate(1852.742188 0)"/>
     <use xlink:href="#DejaVuSans-3a" transform="translate(1904.841797 0)"/>
     <use xlink:href="#DejaVuSans-20" transform="translate(1938.533203 0)"/>
     <use xlink:href="#DejaVuSans-75" transform="translate(1970.320312 0)"/>
     <use xlink:href="#DejaVuSans-7a" transform="translate(2033.699219 0)"/>
    </g>
   </g>
   <g id="legend_1">
    <g id="patch_7">
     <path d="M 357.248063 59.674375 
L 494.744937 59.674375 
Q 496.744937 59.674375 496.744937 57.674375 
L 496.744937 29.318125 
Q 496.744937 27.318125 494.744937 27.318125 
L 357.248063 27.318125 
Q 355.248063 27.318125 355.248063 29.318125 
L 355.248063 57.674375 
Q 355.248063 59.674375 357.248063 59.674375 
z
" style="fill: #ffffff; opacity: 0.8; stroke: #cccccc; stroke-linejoin: miter"/>
    </g>
    <g id="line2d_35">
     <path d="M 359.248063 35.416562 
L 369.248063 35.416562 
L 379.248063 35.416562 
" style="fill: none; stroke-dasharray: 5.55,2.4; stroke-dashoffset: 0; stroke: #1f77b4; stroke-width: 1.5"/>
    </g>
    <g id="text_20">
     <!-- Modelo de referencia -->
     <g transform="translate(387.248063 38.916562) scale(0.1 -0.1)">
      <defs>
       <path id="DejaVuSans-66" d="M 2375 4863 
L 2375 4384 
L 1825 4384 
Q 1516 4384 1395 4259 
Q 1275 4134 1275 3809 
L 1275 3500 
L 2222 3500 
L 2222 3053 
L 1275 3053 
L 1275 0 
L 697 0 
L 697 3053 
L 147 3053 
L 147 3500 
L 697 3500 
L 697 3744 
Q 697 4328 969 4595 
Q 1241 4863 1831 4863 
L 2375 4863 
z
" transform="scale(0.015625)"/>
       <path id="DejaVuSans-61" d="M 2194 1759 
Q 1497 1759 1228 1600 
Q 959 1441 959 1056 
Q 959 750 1161 570 
Q 1363 391 1709 391 
Q 2188 391 2477 730 
Q 2766 1069 2766 1631 
L 2766 1759 
L 2194 1759 
z
M 3341 1997 
L 3341 0 
L 2766 0 
L 2766 531 
Q 2569 213 2275 61 
Q 1981 -91 1556 -91 
Q 1019 -91 701 211 
Q 384 513 384 1019 
Q 384 1609 779 1909 
Q 1175 2209 1959 2209 
L 2766 2209 
L 2766 2266 
Q 2766 2663 2505 2880 
Q 2244 3097 1772 3097 
Q 1472 3097 1187 3025 
Q 903 2953 641 2809 
L 641 3341 
Q 956 3463 1253 3523 
Q 1550 3584 1831 3584 
Q 2591 3584 2966 3190 
Q 3341 2797 3341 1997 
z
" transform="scale(0.015625)"/>
      </defs>
      <use xlink:href="#DejaVuSans-4d"/>
      <use xlink:href="#DejaVuSans-6f" transform="translate(86.279297 0)"/>
      <use xlink:href="#DejaVuSans-64" transform="translate(147.460938 0)"/>
      <use xlink:href="#DejaVuSans-65" transform="translate(210.9375 0)"/>
      <use xlink:href="#DejaVuSans-6c" transform="translate(272.460938 0)"/>
      <use xlink:href="#DejaVuSans-6f" transform="translate(300.244141 0)"/>
      <use xlink:href="#DejaVuSans-20" transform="translate(361.425781 0)"/>
      <use xlink:href="#DejaVuSans-64" transform="translate(393.212891 0)"/>
      <use xlink:href="#DejaVuSans-65" transform="translate(456.689453 0)"/>
      <use xlink:href="#DejaVuSans-20" transform="translate(518.212891 0)"/>
      <use xlink:href="#DejaVuSans-72" transform="translate(550 0)"/>
      <use xlink:href="#DejaVuSans-65" transform="translate(588.863281 0)"/>
      <use xlink:href="#DejaVuSans-66" transform="translate(650.386719 0)"/>
      <use xlink:href="#DejaVuSans-65" transform="translate(685.591797 0)"/>
      <use xlink:href="#DejaVuSans-72" transform="translate(747.115234 0)"/>
      <use xlink:href="#DejaVuSans-65" transform="translate(785.978516 0)"/>
      <use xlink:href="#DejaVuSans-6e" transform="translate(847.501953 0)"/>
      <use xlink:href="#DejaVuSans-63" transform="translate(910.880859 0)"/>
      <use xlink:href="#DejaVuSans-69" transform="translate(965.861328 0)"/>
      <use xlink:href="#DejaVuSans-61" transform="translate(993.644531 0)"/>
     </g>
    </g>
    <g id="line2d_36">
     <path d="M 359.248063 50.094687 
L 369.248063 50.094687 
L 379.248063 50.094687 
" style="fill: none; stroke: #ff7f0e; stroke-width: 1.2; stroke-linecap: square"/>
    </g>
    <g id="text_21">
     <!-- Planta -->
     <g transform="translate(387.248063 53.594687) scale(0.1 -0.1)">
      <defs>
       <path id="DejaVuSans-50" d="M 1259 4147 
L 1259 2394 
L 2053 2394 
Q 2494 2394 2734 2622 
Q 2975 2850 2975 3272 
Q 2975 3691 2734 3919 
Q 2494 4147 2053 4147 
L 1259 4147 
z
M 628 4666 
L 2053 4666 
Q 2838 4666 3239 4311 
Q 3641 3956 3641 3272 
Q 3641 2581 3239 2228 
Q 2838 1875 2053 1875 
L 1259 1875 
L 1259 0 
L 628 0 
L 628 4666 
z
" transform="scale(0.015625)"/>
      </defs>
      <use xlink:href="#DejaVuSans-50"/>
      <use xlink:href="#DejaVuSans-6c" transform="translate(60.302734 0)"/>
      <use xlink:href="#DejaVuSans-61" transform="translate(88.085938 0)"/>
      <use xlink:href="#DejaVuSans-6e" transform="translate(149.365234 0)"/>
      <use xlink:href="#DejaVuSans-74" transform="translate(212.744141 0)"/>
      <use xlink:href="#DejaVuSans-61" transform="translate(251.953125 0)"/>
     </g>
    </g>
   </g>
  </g>
 </g>
 <defs>
  <clipPath id="p709dbc4532">
   <rect x="52.160938" y="22.318125" width="449.584" height="233.56"/>
  </clipPath>
 </defs>
</svg>
