<?xml version="1.0" encoding="utf-8" standalone="no"?>
<!DOCTYPE svg PUBLIC "-//W3C//DTD SVG 1.1//EN"
  "http://www.w3.org/Graphics/SVG/1.1/DTD/svg11.dtd">
<svg xmlns:xlink="http://www.w3.org/1999/xlink" width="509.052312pt" height="291.75625pt" viewBox="0 0 509.052312 291.75625" xmlns="http://www.w3.org/2000/svg" version="1.1">
 <metadata>
  <rdf:RDF xmlns:dc="http://purl.org/dc/elements/1.1/" xmlns:cc="http://creativecommons.org/ns#" xmlns:rdf="http://www.w3.org/1999/02/22-rdf-syntax-ns#">
   <cc:Work>
    <dc:type rdf:resource="http://purl.org/dc/dcmitype/StillImage"/>
    <dc:date>2026-07-18T15:47:07.092211</dc:date>
    <dc:format>image/svg+xml</dc:format>
    <dc:creator>
     <cc:Agent>
      <dc:title>Matplotlib v3.10.8, https://matplotlib.org/</dc:title>
     </cc:Agent>
    </dc:creator>
   </cc:Work>
  </rdf:RDF>
 </metadata>
 <defs>
  <style type="text/css">*{stroke-linejoin: round; stroke-linecap: butt}</style>
 </defs>
 <g id="figure_1">
  <g id="patch_1">
   <path d="M 0 291.75625 
L 509.052312 291.75625 
L 509.052312 0 
L 0 0 
z
" style="fill: #ffffff"/>
  </g>
  <g id="axes_1">
   <g id="patch_2">
    <path d="M 42.620313 254.2 
L 501.852312 254.2 
L 501.852312 22.8 
L 42.620313 22.8 
z
" style="fill: #ffffff"/>
   </g>
   <g id="matplotlib.axis_1">
    <g id="xtick_1">
     <g id="line2d_1">
      <path d="M 63.494494 254.2 
L 63.494494 22.8 
" clip-path="url(#p8cfcc348c8)" style="fill: none; stroke: #b0b0b0; stroke-width: 0.8; stroke-linecap: square"/>
     </g>
     <g id="line2d_2">
      <defs>
       <path id="m1cff8d4206" d="M 0 0 
L 0 3.5 
" style="stroke: #000000; stroke-width: 0.8"/>
      </defs>
      <g>
       <use xlink:href="#m1cff8d4206" x="63.494494" y="254.2" style="stroke: #000000; stroke-width: 0.8"/>
      </g>
     </g>
     <g id="text_1">
      <!-- 0 -->
      <g transform="translate(60.313244 268.798437) scale(0.1 -0.1)">
       <defs>
        <path id="DejaVuSans-30" d="M 2034 4250 
Q 1547 4250 1301 3770 
Q 1056 3291 1056 2328 
Q 1056 1369 1301 889 
Q 1547 409 2034 409 
Q 2525 409 2770 889 
Q 3016 1369 3016 2328 
Q 3016 3291 2770 3770 
Q 2525 4250 2034 4250 
z
M 2034 4750 
Q 2819 4750 3233 4129 
Q 3647 3509 3647 2328 
Q 3647 1150 3233 529 
Q 2819 -91 2034 -91 
Q 1250 -91 836 529 
Q 422 1150 422 2328 
Q 422 3509 836 4129 
Q 1250 4750 2034 4750 
z
" transform="scale(0.015625)"/>
       </defs>
       <use xlink:href="#DejaVuSans-30"/>
      </g>
     </g>
    </g>
    <g id="xtick_2">
     <g id="line2d_3">
      <path d="M 133.0751 254.2 
L 133.0751 22.8 
" clip-path="url(#p8cfcc348c8)" style="fill: none; stroke: #b0b0b0; stroke-width: 0.8; stroke-linecap: square"/>
     </g>
     <g id="line2d_4">
      <g>
       <use xlink:href="#m1cff8d4206" x="133.0751" y="254.2" style="stroke: #000000; stroke-width: 0.8"/>
      </g>
     </g>
     <g id="text_2">
      <!-- 10 -->
      <g transform="translate(126.7126 268.798437) scale(0.1 -0.1)">
       <defs>
        <path id="DejaVuSans-31" d="M 794 531 
L 1825 531 
L 1825 4091 
L 703 3866 
L 703 4441 
L 1819 4666 
L 2450 4666 
L 2450 531 
L 3481 531 
L 3481 0 
L 794 0 
L 794 531 
z
" transform="scale(0.015625)"/>
       </defs>
       <use xlink:href="#DejaVuSans-31"/>
       <use xlink:href="#DejaVuSans-30" transform="translate(63.623047 0)"/>
      </g>
     </g>
    </g>
    <g id="xtick_3">
     <g id="line2d_5">
      <path d="M 202.655706 254.2 
L 202.655706 22.8 
" clip-path="url(#p8cfcc348c8)" style="fill: none; stroke: #b0b0b0; stroke-width: 0.8; stroke-linecap: square"/>
     </g>
     <g id="line2d_6">
      <g>
       <use xlink:href="#m1cff8d4206" x="202.655706" y="254.2" style="stroke: #000000; stroke-width: 0.8"/>
      </g>
     </g>
     <g id="text_3">
      <!-- 20 -->
      <g transform="translate(196.293206 268.798437) scale(0.1 -0.1)">
       <defs>
        <path id="DejaVuSans-32" d="M 1228 531 
L 3431 531 
L 3431 0 
L 469 0 
L 469 531 
Q 828 903 1448 1529 
Q 2069 2156 2228 2338 
Q 2531 2678 2651 2914 
Q 2772 3150 2772 3378 
Q 2772 3750 2511 3984 
Q 2250 4219 1831 4219 
Q 1534 4219 1204 4116 
Q 875 4013 500 3803 
L 500 4441 
Q 881 4594 1212 4672 
Q 1544 4750 1819 4750 
Q 2544 4750 2975 4387 
Q 3406 4025 3406 3419 
Q 3406 3131 3298 2873 
Q 3191 2616 2906 2266 
Q 2828 2175 2409 1742 
Q 1991 1309 1228 531 
z
" transform="scale(0.015625)"/>
       </defs>
       <use xlink:href="#DejaVuSans-32"/>
       <use xlink:href="#DejaVuSans-30" transform="translate(63.623047 0)"/>
      </g>
     </g>
    </g>
    <g id="xtick_4">
     <g id="line2d_7">
      <path d="M 272.236312 254.2 
L 272.236312 22.8 
" clip-path="url(#p8cfcc348c8)" style="fill: none; stroke: #b0b0b0; stroke-width: 0.8; stroke-linecap: square"/>
     </g>
     <g id="line2d_8">
      <g>
       <use xlink:href="#m1cff8d4206" x="272.236312" y="254.2" style="stroke: #000000; stroke-width: 0.8"/>
      </g>
     </g>
     <g id="text_4">
      <!-- 30 -->
      <g transform="translate(265.873812 268.798437) scale(0.1 -0.1)">
       <defs>
        <path id="DejaVuSans-33" d="M 2597 2516 
Q 3050 2419 3304 2112 
Q 3559 1806 3559 1356 
Q 3559 666 3084 287 
Q 2609 -91 1734 -91 
Q 1441 -91 1130 -33 
Q 819 25 488 141 
L 488 750 
Q 750 597 1062 519 
Q 1375 441 1716 441 
Q 2309 441 2620 675 
Q 2931 909 2931 1356 
Q 2931 1769 2642 2001 
Q 2353 2234 1838 2234 
L 1294 2234 
L 1294 2753 
L 1863 2753 
Q 2328 2753 2575 2939 
Q 2822 3125 2822 3475 
Q 2822 3834 2567 4026 
Q 2313 4219 1838 4219 
Q 1578 4219 1281 4162 
Q 984 4106 628 3988 
L 628 4550 
Q 988 4650 1302 4700 
Q 1616 4750 1894 4750 
Q 2613 4750 3031 4423 
Q 3450 4097 3450 3541 
Q 3450 3153 3228 2886 
Q 3006 2619 2597 2516 
z
" transform="scale(0.015625)"/>
       </defs>
       <use xlink:href="#DejaVuSans-33"/>
       <use xlink:href="#DejaVuSans-30" transform="translate(63.623047 0)"/>
      </g>
     </g>
    </g>
    <g id="xtick_5">
     <g id="line2d_9">
      <path d="M 341.816919 254.2 
L 341.816919 22.8 
" clip-path="url(#p8cfcc348c8)" style="fill: none; stroke: #b0b0b0; stroke-width: 0.8; stroke-linecap: square"/>
     </g>
     <g id="line2d_10">
      <g>
       <use xlink:href="#m1cff8d4206" x="341.816919" y="254.2" style="stroke: #000000; stroke-width: 0.8"/>
      </g>
     </g>
     <g id="text_5">
      <!-- 40 -->
      <g transform="translate(335.454419 268.798437) scale(0.1 -0.1)">
       <defs>
        <path id="DejaVuSans-34" d="M 2419 4116 
L 825 1625 
L 2419 1625 
L 2419 4116 
z
M 2253 4666 
L 3047 4666 
L 3047 1625 
L 3713 1625 
L 3713 1100 
L 3047 1100 
L 3047 0 
L 2419 0 
L 2419 1100 
L 313 1100 
L 313 1709 
L 2253 4666 
z
" transform="scale(0.015625)"/>
       </defs>
       <use xlink:href="#DejaVuSans-34"/>
       <use xlink:href="#DejaVuSans-30" transform="translate(63.623047 0)"/>
      </g>
     </g>
    </g>
    <g id="xtick_6">
     <g id="line2d_11">
      <path d="M 411.397525 254.2 
L 411.397525 22.8 
" clip-path="url(#p8cfcc348c8)" style="fill: none; stroke: #b0b0b0; stroke-width: 0.8; stroke-linecap: square"/>
     </g>
     <g id="line2d_12">
      <g>
       <use xlink:href="#m1cff8d4206" x="411.397525" y="254.2" style="stroke: #000000; stroke-width: 0.8"/>
      </g>
     </g>
     <g id="text_6">
      <!-- 50 -->
      <g transform="translate(405.035025 268.798437) scale(0.1 -0.1)">
       <defs>
        <path id="DejaVuSans-35" d="M 691 4666 
L 3169 4666 
L 3169 4134 
L 1269 4134 
L 1269 2991 
Q 1406 3038 1543 3061 
Q 1681 3084 1819 3084 
Q 2600 3084 3056 2656 
Q 3513 2228 3513 1497 
Q 3513 744 3044 326 
Q 2575 -91 1722 -91 
Q 1428 -91 1123 -41 
Q 819 9 494 109 
L 494 744 
Q 775 591 1075 516 
Q 1375 441 1709 441 
Q 2250 441 2565 725 
Q 2881 1009 2881 1497 
Q 2881 1984 2565 2268 
Q 2250 2553 1709 2553 
Q 1456 2553 1204 2497 
Q 953 2441 691 2322 
L 691 4666 
z
" transform="scale(0.015625)"/>
       </defs>
       <use xlink:href="#DejaVuSans-35"/>
       <use xlink:href="#DejaVuSans-30" transform="translate(63.623047 0)"/>
      </g>
     </g>
    </g>
    <g id="xtick_7">
     <g id="line2d_13">
      <path d="M 480.978131 254.2 
L 480.978131 22.8 
" clip-path="url(#p8cfcc348c8)" style="fill: none; stroke: #b0b0b0; stroke-width: 0.8; stroke-linecap: square"/>
     </g>
     <g id="line2d_14">
      <g>
       <use xlink:href="#m1cff8d4206" x="480.978131" y="254.2" style="stroke: #000000; stroke-width: 0.8"/>
      </g>
     </g>
     <g id="text_7">
      <!-- 60 -->
      <g transform="translate(474.615631 268.798437) scale(0.1 -0.1)">
       <defs>
        <path id="DejaVuSans-36" d="M 2113 2584 
Q 1688 2584 1439 2293 
Q 1191 2003 1191 1497 
Q 1191 994 1439 701 
Q 1688 409 2113 409 
Q 2538 409 2786 701 
Q 3034 994 3034 1497 
Q 3034 2003 2786 2293 
Q 2538 2584 2113 2584 
z
M 3366 4563 
L 3366 3988 
Q 3128 4100 2886 4159 
Q 2644 4219 2406 4219 
Q 1781 4219 1451 3797 
Q 1122 3375 1075 2522 
Q 1259 2794 1537 2939 
Q 1816 3084 2150 3084 
Q 2853 3084 3261 2657 
Q 3669 2231 3669 1497 
Q 3669 778 3244 343 
Q 2819 -91 2113 -91 
Q 1303 -91 875 529 
Q 447 1150 447 2328 
Q 447 3434 972 4092 
Q 1497 4750 2381 4750 
Q 2619 4750 2861 4703 
Q 3103 4656 3366 4563 
z
" transform="scale(0.015625)"/>
       </defs>
       <use xlink:href="#DejaVuSans-36"/>
       <use xlink:href="#DejaVuSans-30" transform="translate(63.623047 0)"/>
      </g>
     </g>
    </g>
    <g id="text_8">
     <!-- Tiempo [s] -->
     <g transform="translate(245.673812 282.476562) scale(0.1 -0.1)">
      <defs>
       <path id="DejaVuSans-54" d="M -19 4666 
L 3928 4666 
L 3928 4134 
L 2272 4134 
L 2272 0 
L 1638 0 
L 1638 4134 
L -19 4134 
L -19 4666 
z
" transform="scale(0.015625)"/>
       <path id="DejaVuSans-69" d="M 603 3500 
L 1178 3500 
L 1178 0 
L 603 0 
L 603 3500 
z
M 603 4863 
L 1178 4863 
L 1178 4134 
L 603 4134 
L 603 4863 
z
" transform="scale(0.015625)"/>
       <path id="DejaVuSans-65" d="M 3597 1894 
L 3597 1613 
L 953 1613 
Q 991 1019 1311 708 
Q 1631 397 2203 397 
Q 2534 397 2845 478 
Q 3156 559 3463 722 
L 3463 178 
Q 3153 47 2828 -22 
Q 2503 -91 2169 -91 
Q 1331 -91 842 396 
Q 353 884 353 1716 
Q 353 2575 817 3079 
Q 1281 3584 2069 3584 
Q 2775 3584 3186 3129 
Q 3597 2675 3597 1894 
z
M 3022 2063 
Q 3016 2534 2758 2815 
Q 2500 3097 2075 3097 
Q 1594 3097 1305 2825 
Q 1016 2553 972 2059 
L 3022 2063 
z
" transform="scale(0.015625)"/>
       <path id="DejaVuSans-6d" d="M 3328 2828 
Q 3544 3216 3844 3400 
Q 4144 3584 4550 3584 
Q 5097 3584 5394 3201 
Q 5691 2819 5691 2113 
L 5691 0 
L 5113 0 
L 5113 2094 
Q 5113 2597 4934 2840 
Q 4756 3084 4391 3084 
Q 3944 3084 3684 2787 
Q 3425 2491 3425 1978 
L 3425 0 
L 2847 0 
L 2847 2094 
Q 2847 2600 2669 2842 
Q 2491 3084 2119 3084 
Q 1678 3084 1418 2786 
Q 1159 2488 1159 1978 
L 1159 0 
L 581 0 
L 581 3500 
L 1159 3500 
L 1159 2956 
Q 1356 3278 1631 3431 
Q 1906 3584 2284 3584 
Q 2666 3584 2933 3390 
Q 3200 3197 3328 2828 
z
" transform="scale(0.015625)"/>
       <path id="DejaVuSans-70" d="M 1159 525 
L 1159 -1331 
L 581 -1331 
L 581 3500 
L 1159 3500 
L 1159 2969 
Q 1341 3281 1617 3432 
Q 1894 3584 2278 3584 
Q 2916 3584 3314 3078 
Q 3713 2572 3713 1747 
Q 3713 922 3314 415 
Q 2916 -91 2278 -91 
Q 1894 -91 1617 61 
Q 1341 213 1159 525 
z
M 3116 1747 
Q 3116 2381 2855 2742 
Q 2594 3103 2138 3103 
Q 1681 3103 1420 2742 
Q 1159 2381 1159 1747 
Q 1159 1113 1420 752 
Q 1681 391 2138 391 
Q 2594 391 2855 752 
Q 3116 1113 3116 1747 
z
" transform="scale(0.015625)"/>
       <path id="DejaVuSans-6f" d="M 1959 3097 
Q 1497 3097 1228 2736 
Q 959 2375 959 1747 
Q 959 1119 1226 758 
Q 1494 397 1959 397 
Q 2419 397 2687 759 
Q 2956 1122 2956 1747 
Q 2956 2369 2687 2733 
Q 2419 3097 1959 3097 
z
M 1959 3584 
Q 2709 3584 3137 3096 
Q 3566 2609 3566 1747 
Q 3566 888 3137 398 
Q 2709 -91 1959 -91 
Q 1206 -91 779 398 
Q 353 888 353 1747 
Q 353 2609 779 3096 
Q 1206 3584 1959 3584 
z
" transform="scale(0.015625)"/>
       <path id="DejaVuSans-20" transform="scale(0.015625)"/>
       <path id="DejaVuSans-5b" d="M 550 4863 
L 1875 4863 
L 1875 4416 
L 1125 4416 
L 1125 -397 
L 1875 -397 
L 1875 -844 
L 550 -844 
L 550 4863 
z
" transform="scale(0.015625)"/>
       <path id="DejaVuSans-73" d="M 2834 3397 
L 2834 2853 
Q 2591 2978 2328 3040 
Q 2066 3103 1784 3103 
Q 1356 3103 1142 2972 
Q 928 2841 928 2578 
Q 928 2378 1081 2264 
Q 1234 2150 1697 2047 
L 1894 2003 
Q 2506 1872 2764 1633 
Q 3022 1394 3022 966 
Q 3022 478 2636 193 
Q 2250 -91 1575 -91 
Q 1294 -91 989 -36 
Q 684 19 347 128 
L 347 722 
Q 666 556 975 473 
Q 1284 391 1588 391 
Q 1994 391 2212 530 
Q 2431 669 2431 922 
Q 2431 1156 2273 1281 
Q 2116 1406 1581 1522 
L 1381 1569 
Q 847 1681 609 1914 
Q 372 2147 372 2553 
Q 372 3047 722 3315 
Q 1072 3584 1716 3584 
Q 2034 3584 2315 3537 
Q 2597 3491 2834 3397 
z
" transform="scale(0.015625)"/>
       <path id="DejaVuSans-5d" d="M 1947 4863 
L 1947 -844 
L 622 -844 
L 622 -397 
L 1369 -397 
L 1369 4416 
L 622 4416 
L 622 4863 
L 1947 4863 
z
" transform="scale(0.015625)"/>
      </defs>
      <use xlink:href="#DejaVuSans-54"/>
      <use xlink:href="#DejaVuSans-69" transform="translate(57.958984 0)"/>
      <use xlink:href="#DejaVuSans-65" transform="translate(85.742188 0)"/>
      <use xlink:href="#DejaVuSans-6d" transform="translate(147.265625 0)"/>
      <use xlink:href="#DejaVuSans-70" transform="translate(244.677734 0)"/>
      <use xlink:href="#DejaVuSans-6f" transform="translate(308.154297 0)"/>
      <use xlink:href="#DejaVuSans-20" transform="translate(369.335938 0)"/>
      <use xlink:href="#DejaVuSans-5b" transform="translate(401.123047 0)"/>
      <use xlink:href="#DejaVuSans-73" transform="translate(440.136719 0)"/>
      <use xlink:href="#DejaVuSans-5d" transform="translate(492.236328 0)"/>
     </g>
    </g>
   </g>
   <g id="matplotlib.axis_2">
    <g id="ytick_1">
     <g id="line2d_15">
      <path d="M 42.620313 226.580512 
L 501.852312 226.580512 
" clip-path="url(#p8cfcc348c8)" style="fill: none; stroke: #b0b0b0; stroke-width: 0.8; stroke-linecap: square"/>
     </g>
     <g id="line2d_16">
      <defs>
       <path id="m89fdda7fa4" d="M 0 0 
L -3.5 0 
" style="stroke: #000000; stroke-width: 0.8"/>
      </defs>
      <g>
       <use xlink:href="#m89fdda7fa4" x="42.620313" y="226.580512" style="stroke: #000000; stroke-width: 0.8"/>
      </g>
     </g>
     <g id="text_9">
      <!-- −8 -->
      <g transform="translate(20.878125 230.379731) scale(0.1 -0.1)">
       <defs>
        <path id="DejaVuSans-2212" d="M 678 2272 
L 4684 2272 
L 4684 1741 
L 678 1741 
L 678 2272 
z
" transform="scale(0.015625)"/>
        <path id="DejaVuSans-38" d="M 2034 2216 
Q 1584 2216 1326 1975 
Q 1069 1734 1069 1313 
Q 1069 891 1326 650 
Q 1584 409 2034 409 
Q 2484 409 2743 651 
Q 3003 894 3003 1313 
Q 3003 1734 2745 1975 
Q 2488 2216 2034 2216 
z
M 1403 2484 
Q 997 2584 770 2862 
Q 544 3141 544 3541 
Q 544 4100 942 4425 
Q 1341 4750 2034 4750 
Q 2731 4750 3128 4425 
Q 3525 4100 3525 3541 
Q 3525 3141 3298 2862 
Q 3072 2584 2669 2484 
Q 3125 2378 3379 2068 
Q 3634 1759 3634 1313 
Q 3634 634 3220 271 
Q 2806 -91 2034 -91 
Q 1263 -91 848 271 
Q 434 634 434 1313 
Q 434 1759 690 2068 
Q 947 2378 1403 2484 
z
M 1172 3481 
Q 1172 3119 1398 2916 
Q 1625 2713 2034 2713 
Q 2441 2713 2670 2916 
Q 2900 3119 2900 3481 
Q 2900 3844 2670 4047 
Q 2441 4250 2034 4250 
Q 1625 4250 1398 4047 
Q 1172 3844 1172 3481 
z
" transform="scale(0.015625)"/>
       </defs>
       <use xlink:href="#DejaVuSans-2212"/>
       <use xlink:href="#DejaVuSans-38" transform="translate(83.789062 0)"/>
      </g>
     </g>
    </g>
    <g id="ytick_2">
     <g id="line2d_17">
      <path d="M 42.620313 184.441788 
L 501.852312 184.441788 
" clip-path="url(#p8cfcc348c8)" style="fill: none; stroke: #b0b0b0; stroke-width: 0.8; stroke-linecap: square"/>
     </g>
     <g id="line2d_18">
      <g>
       <use xlink:href="#m89fdda7fa4" x="42.620313" y="184.441788" style="stroke: #000000; stroke-width: 0.8"/>
      </g>
     </g>
     <g id="text_10">
      <!-- −6 -->
      <g transform="translate(20.878125 188.241007) scale(0.1 -0.1)">
       <use xlink:href="#DejaVuSans-2212"/>
       <use xlink:href="#DejaVuSans-36" transform="translate(83.789062 0)"/>
      </g>
     </g>
    </g>
    <g id="ytick_3">
     <g id="line2d_19">
      <path d="M 42.620313 142.303065 
L 501.852312 142.303065 
" clip-path="url(#p8cfcc348c8)" style="fill: none; stroke: #b0b0b0; stroke-width: 0.8; stroke-linecap: square"/>
     </g>
     <g id="line2d_20">
      <g>
       <use xlink:href="#m89fdda7fa4" x="42.620313" y="142.303065" style="stroke: #000000; stroke-width: 0.8"/>
      </g>
     </g>
     <g id="text_11">
      <!-- −4 -->
      <g transform="translate(20.878125 146.102284) scale(0.1 -0.1)">
       <use xlink:href="#DejaVuSans-2212"/>
       <use xlink:href="#DejaVuSans-34" transform="translate(83.789062 0)"/>
      </g>
     </g>
    </g>
    <g id="ytick_4">
     <g id="line2d_21">
      <path d="M 42.620313 100.164341 
L 501.852312 100.164341 
" clip-path="url(#p8cfcc348c8)" style="fill: none; stroke: #b0b0b0; stroke-width: 0.8; stroke-linecap: square"/>
     </g>
     <g id="line2d_22">
      <g>
       <use xlink:href="#m89fdda7fa4" x="42.620313" y="100.164341" style="stroke: #000000; stroke-width: 0.8"/>
      </g>
     </g>
     <g id="text_12">
      <!-- −2 -->
      <g transform="translate(20.878125 103.96356) scale(0.1 -0.1)">
       <use xlink:href="#DejaVuSans-2212"/>
       <use xlink:href="#DejaVuSans-32" transform="translate(83.789062 0)"/>
      </g>
     </g>
    </g>
    <g id="ytick_5">
     <g id="line2d_23">
      <path d="M 42.620313 58.025618 
L 501.852312 58.025618 
" clip-path="url(#p8cfcc348c8)" style="fill: none; stroke: #b0b0b0; stroke-width: 0.8; stroke-linecap: square"/>
     </g>
     <g id="line2d_24">
      <g>
       <use xlink:href="#m89fdda7fa4" x="42.620313" y="58.025618" style="stroke: #000000; stroke-width: 0.8"/>
      </g>
     </g>
     <g id="text_13">
      <!-- 0 -->
      <g transform="translate(29.257813 61.824836) scale(0.1 -0.1)">
       <use xlink:href="#DejaVuSans-30"/>
      </g>
     </g>
    </g>
    <g id="text_14">
     <!-- $K_{x2}$ -->
     <g transform="translate(14.798438 146.25) rotate(-90) scale(0.1 -0.1)">
      <defs>
       <path id="DejaVuSans-Oblique-4b" d="M 1081 4666 
L 1716 4666 
L 1331 2700 
L 3781 4666 
L 4622 4666 
L 1850 2438 
L 3878 0 
L 3109 0 
L 1247 2272 
L 806 0 
L 172 0 
L 1081 4666 
z
" transform="scale(0.015625)"/>
       <path id="DejaVuSans-Oblique-78" d="M 3841 3500 
L 2234 1784 
L 3219 0 
L 2559 0 
L 1819 1388 
L 531 0 
L -166 0 
L 1556 1844 
L 641 3500 
L 1300 3500 
L 1972 2234 
L 3144 3500 
L 3841 3500 
z
" transform="scale(0.015625)"/>
      </defs>
      <use xlink:href="#DejaVuSans-Oblique-4b" transform="translate(0 0.09375)"/>
      <use xlink:href="#DejaVuSans-Oblique-78" transform="translate(65.576172 -16.3125) scale(0.7)"/>
      <use xlink:href="#DejaVuSans-32" transform="translate(107.001953 -16.3125) scale(0.7)"/>
     </g>
    </g>
   </g>
   <g id="line2d_25">
    <path d="M 63.494494 58.025618 
L 65.999396 57.917362 
L 66.695202 57.669581 
L 67.251847 57.263416 
L 67.808492 56.564924 
L 68.295556 55.594178 
L 68.78262 54.101742 
L 69.200104 52.149137 
L 69.617588 49.117161 
L 70.035071 44.128364 
L 70.661297 33.318182 
L 70.730877 33.967279 
L 70.870039 42.333745 
L 71.07878 89.468521 
L 71.357103 151.574935 
L 71.635425 158.887855 
L 71.983328 183.180553 
L 72.052909 183.758009 
L 72.122489 183.445865 
L 72.609554 179.238828 
L 72.679134 179.243086 
L 72.887876 179.880336 
L 73.166199 180.568622 
L 73.37494 180.533012 
L 73.792424 180.301982 
L 76.088584 180.338272 
L 77.480196 180.085304 
L 78.593486 179.657065 
L 79.567614 179.045633 
L 80.472162 178.213072 
L 81.307129 177.153137 
L 82.142097 175.739908 
L 82.977064 173.884568 
L 83.812031 171.475849 
L 84.646999 168.371715 
L 85.481966 164.38606 
L 86.316933 159.266124 
L 87.1519 152.651126 
L 87.917287 144.807798 
L 88.682674 134.550542 
L 89.37848 122.076111 
L 90.004705 106.655393 
L 90.56135 87.118242 
L 91.187576 60.883298 
L 91.257156 61.286739 
L 91.396317 71.948173 
L 91.883382 155.498307 
L 91.952962 155.028673 
L 92.022543 155.856471 
L 92.231285 170.988242 
L 92.440026 182.477713 
L 92.509607 182.583364 
L 92.718349 177.155221 
L 93.274994 161.694033 
L 93.901219 147.338037 
L 94.666606 121.464933 
L 95.501573 93.709387 
L 95.571154 93.643539 
L 95.710315 96.472115 
L 95.988637 113.053661 
L 96.26696 124.488653 
L 96.33654 124.514043 
L 96.545282 121.170414 
L 97.032346 108.437947 
L 97.310669 101.863453 
L 97.380249 102.178452 
L 97.519411 107.035998 
L 98.076056 140.095569 
L 98.145636 139.805017 
L 98.493539 134.87669 
L 98.841442 130.361344 
L 98.911023 130.576095 
L 99.050184 133.103757 
L 99.885151 157.324806 
L 100.233054 161.562444 
L 100.650538 170.486266 
L 101.415925 185.668356 
L 102.946698 211.792357 
L 103.920826 224.756201 
L 104.755794 233.298636 
L 105.4516 238.491494 
L 106.077825 241.60208 
L 106.564889 242.967424 
L 106.912792 243.368468 
L 107.191115 243.342398 
L 107.469437 243.007815 
L 107.81734 242.158075 
L 108.234824 240.515109 
L 108.791469 237.305871 
L 109.487275 231.79634 
L 110.391823 222.651528 
L 112.966305 195.197668 
L 113.662111 190.470392 
L 114.218756 187.951419 
L 114.70582 186.598298 
L 115.123304 185.984665 
L 115.471207 185.798708 
L 115.81911 185.861335 
L 116.236594 186.208237 
L 116.793239 187.035919 
L 117.489045 188.506328 
L 118.463173 191.121898 
L 119.854785 195.575423 
L 121.733462 202.40552 
L 124.586266 213.739138 
L 128.343619 228.547116 
L 130.013554 234.249566 
L 131.335585 238.030437 
L 132.448875 240.559449 
L 133.979648 243.364017 
L 134.257971 243.462687 
L 134.466712 243.243953 
L 134.745035 242.476043 
L 135.092938 240.632336 
L 135.510422 236.970873 
L 135.997486 230.562041 
L 136.623711 218.919718 
L 137.458679 198.274227 
L 138.850291 163.209819 
L 139.267774 157.620436 
L 139.615677 155.304967 
L 139.96358 154.377081 
L 140.241903 154.189442 
L 140.450645 154.266848 
L 140.728967 154.614579 
L 141.216031 155.699101 
L 142.050999 158.159713 
L 143.164288 162.245243 
L 144.625481 168.482472 
L 146.434577 177.2317 
L 148.939479 190.548432 
L 153.392637 214.344472 
L 155.201733 222.711181 
L 156.662926 228.477889 
L 157.984957 232.809533 
L 159.167828 235.94139 
L 160.281117 238.264604 
L 161.324826 239.935472 
L 162.298955 241.104564 
L 163.273083 241.955055 
L 164.316792 242.581785 
L 165.499663 243.025728 
L 166.960856 243.31485 
L 168.63079 243.480921 
L 168.909112 243.098523 
L 169.187435 242.292088 
L 169.604919 240.217785 
L 170.161563 236.053302 
L 171.970659 221.187587 
L 172.457723 219.039583 
L 172.875207 218.038081 
L 173.22311 217.730789 
L 173.501432 217.780413 
L 173.849336 218.150239 
L 174.3364 219.118883 
L 175.032206 221.123258 
L 176.284657 225.591914 
L 178.441656 233.217794 
L 179.694106 236.818637 
L 180.807396 239.348211 
L 181.781525 241.035509 
L 182.686072 242.183206 
L 183.52104 242.912007 
L 184.356007 243.354657 
L 185.190974 243.54486 
L 186.095522 243.506839 
L 187.069651 243.232091 
L 188.252521 242.648327 
L 189.783294 241.621831 
L 196.393452 236.869413 
L 198.132967 236.059066 
L 199.733321 235.55093 
L 201.333675 235.266879 
L 202.794868 235.057368 
L 203.003609 234.459096 
L 203.351513 232.503644 
L 203.768996 228.711506 
L 204.395222 220.531076 
L 206.134737 195.981945 
L 206.621801 192.631303 
L 207.039285 191.219431 
L 207.317607 190.865764 
L 207.526349 190.843895 
L 207.804671 191.076584 
L 208.152574 191.699005 
L 208.709219 193.243655 
L 209.544186 196.352677 
L 210.935799 202.54593 
L 214.484409 218.586614 
L 216.015183 224.375552 
L 217.406795 228.788116 
L 218.659246 232.054356 
L 219.842116 234.559514 
L 221.024986 236.557452 
L 222.207857 238.115886 
L 223.390727 239.306712 
L 224.643178 240.24397 
L 225.965209 240.951913 
L 227.426402 241.483057 
L 229.165917 241.870713 
L 231.253336 242.099974 
L 233.897399 242.155377 
L 237.306848 241.99066 
L 237.585171 242.052037 
L 237.863493 242.527813 
L 238.420138 243.567812 
L 238.69846 243.665507 
L 238.907202 243.492042 
L 239.185525 242.942184 
L 239.603008 241.570134 
L 241.412104 234.785658 
L 241.899168 233.993698 
L 242.247071 233.759456 
L 242.594974 233.764862 
L 243.012458 234.031392 
L 243.569103 234.714236 
L 244.40407 236.150852 
L 246.908972 240.668348 
L 247.952681 242.002358 
L 248.857229 242.814777 
L 249.761777 243.328155 
L 250.666325 243.580877 
L 251.640453 243.614153 
L 252.753743 243.421271 
L 254.214936 242.919064 
L 256.650257 241.795496 
L 260.198868 240.198085 
L 262.564608 239.391001 
L 264.791188 238.864479 
L 267.156928 238.539737 
L 269.731411 238.419578 
L 272.375474 238.363749 
L 272.584216 237.805489 
L 272.932119 235.957548 
L 273.349602 232.368075 
L 273.975828 224.853452 
L 275.158698 210.352692 
L 275.715343 206.256565 
L 276.132826 204.551619 
L 276.480729 203.855091 
L 276.759052 203.670439 
L 277.037374 203.747959 
L 277.385277 204.13434 
L 277.872342 205.076263 
L 278.568148 206.962078 
L 279.751018 210.936003 
L 283.43879 223.762324 
L 284.899983 227.889888 
L 286.222014 230.991817 
L 287.474465 233.39664 
L 288.726916 235.332861 
L 289.979367 236.86418 
L 291.231818 238.057233 
L 292.553849 239.01895 
L 294.015042 239.802634 
L 295.615396 240.406229 
L 297.494072 240.868728 
L 299.720652 241.179672 
L 302.503876 241.334313 
L 306.191648 241.303087 
L 307.165777 241.377755 
L 307.444099 242.024174 
L 308.000744 243.428561 
L 308.279066 243.677153 
L 308.487808 243.62331 
L 308.766131 243.257463 
L 309.183614 242.242137 
L 310.783968 237.866486 
L 311.271032 237.274243 
L 311.688516 237.092519 
L 312.106 237.162679 
L 312.593064 237.488829 
L 313.28887 238.252648 
L 316.628739 242.357496 
L 317.602868 243.042503 
L 318.576996 243.448304 
L 319.551125 243.613565 
L 320.664414 243.569733 
L 321.986446 243.288935 
L 323.934703 242.620015 
L 330.057796 240.366774 
L 332.632279 239.72455 
L 335.276342 239.293798 
L 338.198727 239.051062 
L 341.608177 239.002994 
L 341.886499 238.970547 
L 342.095241 238.531905 
L 342.373563 237.257613 
L 342.791047 234.039006 
L 343.417272 227.052289 
L 344.530562 214.430941 
L 345.087207 210.614418 
L 345.504691 208.99536 
L 345.852594 208.298753 
L 346.200497 208.061595 
L 346.478819 208.1303 
L 346.826722 208.466878 
L 347.313786 209.289315 
L 348.009592 210.943852 
L 349.192463 214.44431 
L 352.741074 225.293592 
L 354.202266 228.916758 
L 355.524298 231.634227 
L 356.846329 233.846779 
L 358.09878 235.52891 
L 359.420812 236.932754 
L 360.742843 238.021721 
L 362.204036 238.933229 
L 363.80439 239.659974 
L 365.613486 240.228095 
L 367.700904 240.646214 
L 370.275386 240.92627 
L 373.545675 241.047745 
L 376.746383 241.141427 
L 377.024705 241.857417 
L 377.58135 243.356763 
L 377.859672 243.633725 
L 378.068414 243.609479 
L 378.346737 243.302761 
L 378.76422 242.430075 
L 380.225413 239.061286 
L 380.712477 238.539263 
L 381.129961 238.373308 
L 381.547445 238.425012 
L 382.104089 238.748726 
L 382.869476 239.486521 
L 385.6527 242.401446 
L 386.696409 243.06789 
L 387.670538 243.430747 
L 388.714247 243.578598 
L 389.897117 243.510183 
L 391.35831 243.188575 
L 393.584889 242.440198 
L 398.733854 240.65818 
L 401.517079 239.966628 
L 404.300303 239.503243 
L 407.361849 239.222647 
L 410.980041 239.125955 
L 411.467105 239.089134 
L 411.675847 238.631546 
L 411.954169 237.311903 
L 412.371653 234.025837 
L 413.067459 226.277994 
L 413.972007 216.577688 
L 414.528652 212.823782 
L 415.015716 211.008085 
L 415.4332 210.299779 
L 415.781103 210.156625 
L 416.129006 210.320554 
L 416.546489 210.822949 
L 417.172715 212.017545 
L 418.077263 214.31099 
L 420.0951 220.254169 
L 422.043357 225.670713 
L 423.50455 229.106346 
L 424.896162 231.812415 
L 426.218194 233.898273 
L 427.540225 235.566907 
L 428.862257 236.882512 
L 430.253869 237.955405 
L 431.715062 238.808336 
L 433.384996 239.51971 
L 435.263672 240.071772 
L 437.490252 240.486329 
L 440.203896 240.757373 
L 443.752506 240.874267 
L 446.326989 240.988712 
L 446.605311 241.74065 
L 447.161956 243.275813 
L 447.440279 243.562277 
L 447.64902 243.551729 
L 447.927343 243.275805 
L 448.344826 242.480459 
L 449.666858 239.685415 
L 450.153922 239.157098 
L 450.640986 238.955447 
L 451.128051 239.024092 
L 451.684696 239.342988 
L 452.589243 240.168424 
L 454.815823 242.301582 
L 455.859532 242.963312 
L 456.903241 243.354358 
L 457.94695 243.505529 
L 459.12982 243.448072 
L 460.591013 243.145335 
L 462.817592 242.428637 
L 468.175299 240.642126 
L 471.028104 239.963545 
L 473.950489 239.500666 
L 477.151197 239.224455 
L 480.978131 239.129316 
L 480.978131 239.129316 
" clip-path="url(#p8cfcc348c8)" style="fill: none; stroke: #1f77b4; stroke-width: 1.2; stroke-linecap: square"/>
   </g>
   <g id="patch_3">
    <path d="M 42.620313 254.2 
L 42.620313 22.8 
" style="fill: none; stroke: #000000; stroke-width: 0.8; stroke-linejoin: miter; stroke-linecap: square"/>
   </g>
   <g id="patch_4">
    <path d="M 501.852312 254.2 
L 501.852312 22.8 
" style="fill: none; stroke: #000000; stroke-width: 0.8; stroke-linejoin: miter; stroke-linecap: square"/>
   </g>
   <g id="patch_5">
    <path d="M 42.620313 254.2 
L 501.852312 254.2 
" style="fill: none; stroke: #000000; stroke-width: 0.8; stroke-linejoin: miter; stroke-linecap: square"/>
   </g>
   <g id="patch_6">
    <path d="M 42.620313 22.8 
L 501.852312 22.8 
" style="fill: none; stroke: #000000; stroke-width: 0.8; stroke-linejoin: miter; stroke-linecap: square"/>
   </g>
   <g id="text_15">
    <!-- Evolución de $K_{x2}$ - tren de pulsos -->
    <g transform="translate(173.896312 16.8) scale(0.12 -0.12)">
     <defs>
      <path id="DejaVuSans-45" d="M 628 4666 
L 3578 4666 
L 3578 4134 
L 1259 4134 
L 1259 2753 
L 3481 2753 
L 3481 2222 
L 1259 2222 
L 1259 531 
L 3634 531 
L 3634 0 
L 628 0 
L 628 4666 
z
" transform="scale(0.015625)"/>
      <path id="DejaVuSans-76" d="M 191 3500 
L 800 3500 
L 1894 563 
L 2988 3500 
L 3597 3500 
L 2284 0 
L 1503 0 
L 191 3500 
z
" transform="scale(0.015625)"/>
      <path id="DejaVuSans-6c" d="M 603 4863 
L 1178 4863 
L 1178 0 
L 603 0 
L 603 4863 
z
" transform="scale(0.015625)"/>
      <path id="DejaVuSans-75" d="M 544 1381 
L 544 3500 
L 1119 3500 
L 1119 1403 
Q 1119 906 1312 657 
Q 1506 409 1894 409 
Q 2359 409 2629 706 
Q 2900 1003 2900 1516 
L 2900 3500 
L 3475 3500 
L 3475 0 
L 2900 0 
L 2900 538 
Q 2691 219 2414 64 
Q 2138 -91 1772 -91 
Q 1169 -91 856 284 
Q 544 659 544 1381 
z
M 1991 3584 
L 1991 3584 
z
" transform="scale(0.015625)"/>
      <path id="DejaVuSans-63" d="M 3122 3366 
L 3122 2828 
Q 2878 2963 2633 3030 
Q 2388 3097 2138 3097 
Q 1578 3097 1268 2742 
Q 959 2388 959 1747 
Q 959 1106 1268 751 
Q 1578 397 2138 397 
Q 2388 397 2633 464 
Q 2878 531 3122 666 
L 3122 134 
Q 2881 22 2623 -34 
Q 2366 -91 2075 -91 
Q 1284 -91 818 406 
Q 353 903 353 1747 
Q 353 2603 823 3093 
Q 1294 3584 2113 3584 
Q 2378 3584 2631 3529 
Q 2884 3475 3122 3366 
z
" transform="scale(0.015625)"/>
      <path id="DejaVuSans-f3" d="M 1959 3097 
Q 1497 3097 1228 2736 
Q 959 2375 959 1747 
Q 959 1119 1226 758 
Q 1494 397 1959 397 
Q 2419 397 2687 759 
Q 2956 1122 2956 1747 
Q 2956 2369 2687 2733 
Q 2419 3097 1959 3097 
z
M 1959 3584 
Q 2709 3584 3137 3096 
Q 3566 2609 3566 1747 
Q 3566 888 3137 398 
Q 2709 -91 1959 -91 
Q 1206 -91 779 398 
Q 353 888 353 1747 
Q 353 2609 779 3096 
Q 1206 3584 1959 3584 
z
M 2394 5119 
L 3016 5119 
L 1998 3944 
L 1519 3944 
L 2394 5119 
z
" transform="scale(0.015625)"/>
      <path id="DejaVuSans-6e" d="M 3513 2113 
L 3513 0 
L 2938 0 
L 2938 2094 
Q 2938 2591 2744 2837 
Q 2550 3084 2163 3084 
Q 1697 3084 1428 2787 
Q 1159 2491 1159 1978 
L 1159 0 
L 581 0 
L 581 3500 
L 1159 3500 
L 1159 2956 
Q 1366 3272 1645 3428 
Q 1925 3584 2291 3584 
Q 2894 3584 3203 3211 
Q 3513 2838 3513 2113 
z
" transform="scale(0.015625)"/>
      <path id="DejaVuSans-64" d="M 2906 2969 
L 2906 4863 
L 3481 4863 
L 3481 0 
L 2906 0 
L 2906 525 
Q 2725 213 2448 61 
Q 2172 -91 1784 -91 
Q 1150 -91 751 415 
Q 353 922 353 1747 
Q 353 2572 751 3078 
Q 1150 3584 1784 3584 
Q 2172 3584 2448 3432 
Q 2725 3281 2906 2969 
z
M 947 1747 
Q 947 1113 1208 752 
Q 1469 391 1925 391 
Q 2381 391 2643 752 
Q 2906 1113 2906 1747 
Q 2906 2381 2643 2742 
Q 2381 3103 1925 3103 
Q 1469 3103 1208 2742 
Q 947 2381 947 1747 
z
" transform="scale(0.015625)"/>
      <path id="DejaVuSans-2d" d="M 313 2009 
L 1997 2009 
L 1997 1497 
L 313 1497 
L 313 2009 
z
" transform="scale(0.015625)"/>
      <path id="DejaVuSans-74" d="M 1172 4494 
L 1172 3500 
L 2356 3500 
L 2356 3053 
L 1172 3053 
L 1172 1153 
Q 1172 725 1289 603 
Q 1406 481 1766 481 
L 2356 481 
L 2356 0 
L 1766 0 
Q 1100 0 847 248 
Q 594 497 594 1153 
L 594 3053 
L 172 3053 
L 172 3500 
L 594 3500 
L 594 4494 
L 1172 4494 
z
" transform="scale(0.015625)"/>
      <path id="DejaVuSans-72" d="M 2631 2963 
Q 2534 3019 2420 3045 
Q 2306 3072 2169 3072 
Q 1681 3072 1420 2755 
Q 1159 2438 1159 1844 
L 1159 0 
L 581 0 
L 581 3500 
L 1159 3500 
L 1159 2956 
Q 1341 3275 1631 3429 
Q 1922 3584 2338 3584 
Q 2397 3584 2469 3576 
Q 2541 3569 2628 3553 
L 2631 2963 
z
" transform="scale(0.015625)"/>
     </defs>
     <use xlink:href="#DejaVuSans-45" transform="translate(0 0.015625)"/>
     <use xlink:href="#DejaVuSans-76" transform="translate(63.183594 0.015625)"/>
     <use xlink:href="#DejaVuSans-6f" transform="translate(122.363281 0.015625)"/>
     <use xlink:href="#DejaVuSans-6c" transform="translate(183.544922 0.015625)"/>
     <use xlink:href="#DejaVuSans-75" transform="translate(211.328125 0.015625)"/>
     <use xlink:href="#DejaVuSans-63" transform="translate(274.707031 0.015625)"/>
     <use xlink:href="#DejaVuSans-69" transform="translate(329.6875 0.015625)"/>
     <use xlink:href="#DejaVuSans-f3" transform="translate(357.470703 0.015625)"/>
     <use xlink:href="#DejaVuSans-6e" transform="translate(418.652344 0.015625)"/>
     <use xlink:href="#DejaVuSans-20" transform="translate(482.03125 0.015625)"/>
     <use xlink:href="#DejaVuSans-64" transform="translate(513.818359 0.015625)"/>
     <use xlink:href="#DejaVuSans-65" transform="translate(577.294922 0.015625)"/>
     <use xlink:href="#DejaVuSans-20" transform="translate(638.818359 0.015625)"/>
     <use xlink:href="#DejaVuSans-Oblique-4b" transform="translate(670.605469 0.015625)"/>
     <use xlink:href="#DejaVuSans-Oblique-78" transform="translate(736.181641 -16.390625) scale(0.7)"/>
     <use xlink:href="#DejaVuSans-32" transform="translate(777.607422 -16.390625) scale(0.7)"/>
     <use xlink:href="#DejaVuSans-20" transform="translate(824.87793 0.015625)"/>
     <use xlink:href="#DejaVuSans-2d" transform="translate(856.665039 0.015625)"/>
     <use xlink:href="#DejaVuSans-20" transform="translate(892.749023 0.015625)"/>
     <use xlink:href="#DejaVuSans-74" transform="translate(924.536133 0.015625)"/>
     <use xlink:href="#DejaVuSans-72" transform="translate(963.745117 0.015625)"/>
     <use xlink:href="#DejaVuSans-65" transform="translate(1004.858398 0.015625)"/>
     <use xlink:href="#DejaVuSans-6e" transform="translate(1066.381836 0.015625)"/>
     <use xlink:href="#DejaVuSans-20" transform="translate(1129.760742 0.015625)"/>
     <use xlink:href="#DejaVuSans-64" transform="translate(1161.547852 0.015625)"/>
     <use xlink:href="#DejaVuSans-65" transform="translate(1225.024414 0.015625)"/>
     <use xlink:href="#DejaVuSans-20" transform="translate(1286.547852 0.015625)"/>
     <use xlink:href="#DejaVuSans-70" transform="translate(1318.334961 0.015625)"/>
     <use xlink:href="#DejaVuSans-75" transform="translate(1381.811523 0.015625)"/>
     <use xlink:href="#DejaVuSans-6c" transform="translate(1445.19043 0.015625)"/>
     <use xlink:href="#DejaVuSans-73" transform="translate(1472.973633 0.015625)"/>
     <use xlink:href="#DejaVuSans-6f" transform="translate(1525.073242 0.015625)"/>
     <use xlink:href="#DejaVuSans-73" transform="translate(1586.254883 0.015625)"/>
    </g>
   </g>
  </g>
 </g>
 <defs>
  <clipPath id="p8cfcc348c8">
   <rect x="42.620313" y="22.8" width="459.232" height="231.4"/>
  </clipPath>
 </defs>
</svg>
