<?xml version="1.0" encoding="utf-8" standalone="no"?>
<!DOCTYPE svg PUBLIC "-//W3C//DTD SVG 1.1//EN"
  "http://www.w3.org/Graphics/SVG/1.1/DTD/svg11.dtd">
<svg xmlns:xlink="http://www.w3.org/1999/xlink" width="508.202812pt" height="293.434375pt" viewBox="0 0 508.202812 293.434375" xmlns="http://www.w3.org/2000/svg" version="1.1">
 <metadata>
  <rdf:RDF xmlns:dc="http://purl.org/dc/elements/1.1/" xmlns:cc="http://creativecommons.org/ns#" xmlns:rdf="http://www.w3.org/1999/02/22-rdf-syntax-ns#">
   <cc:Work>
    <dc:type rdf:resource="http://purl.org/dc/dcmitype/StillImage"/>
    <dc:date>2026-07-18T15:47:05.513258</dc:date>
    <dc:format>image/svg+xml</dc:format>
    <dc:creator>
     <cc:Agent>
      <dc:title>Matplotlib v3.10.8, https://matplotlib.org/</dc:title>
     </cc:Agent>
    </dc:creator>
   </cc:Work>
  </rdf:RDF>
 </metadata>
 <defs>
  <style type="text/css">*{stroke-linejoin: round; stroke-linecap: butt}</style>
 </defs>
 <g id="figure_1">
  <g id="patch_1">
   <path d="M 0 293.434375 
L 508.202812 293.434375 
L 508.202812 0 
L 0 0 
z
" style="fill: #ffffff"/>
  </g>
  <g id="axes_1">
   <g id="patch_2">
    <path d="M 52.282813 255.878125 
L 501.002812 255.878125 
L 501.002812 22.318125 
L 52.282813 22.318125 
z
" style="fill: #ffffff"/>
   </g>
   <g id="matplotlib.axis_1">
    <g id="xtick_1">
     <g id="line2d_1">
      <path d="M 72.679176 255.878125 
L 72.679176 22.318125 
" clip-path="url(#p496da7ce9d)" style="fill: none; stroke: #b0b0b0; stroke-width: 0.8; stroke-linecap: square"/>
     </g>
     <g id="line2d_2">
      <defs>
       <path id="m6b674e2eb7" d="M 0 0 
L 0 3.5 
" style="stroke: #000000; stroke-width: 0.8"/>
      </defs>
      <g>
       <use xlink:href="#m6b674e2eb7" x="72.679176" y="255.878125" style="stroke: #000000; stroke-width: 0.8"/>
      </g>
     </g>
     <g id="text_1">
      <!-- 0 -->
      <g transform="translate(69.497926 270.476562) scale(0.1 -0.1)">
       <defs>
        <path id="DejaVuSans-30" d="M 2034 4250 
Q 1547 4250 1301 3770 
Q 1056 3291 1056 2328 
Q 1056 1369 1301 889 
Q 1547 409 2034 409 
Q 2525 409 2770 889 
Q 3016 1369 3016 2328 
Q 3016 3291 2770 3770 
Q 2525 4250 2034 4250 
z
M 2034 4750 
Q 2819 4750 3233 4129 
Q 3647 3509 3647 2328 
Q 3647 1150 3233 529 
Q 2819 -91 2034 -91 
Q 1250 -91 836 529 
Q 422 1150 422 2328 
Q 422 3509 836 4129 
Q 1250 4750 2034 4750 
z
" transform="scale(0.015625)"/>
       </defs>
       <use xlink:href="#DejaVuSans-30"/>
      </g>
     </g>
    </g>
    <g id="xtick_2">
     <g id="line2d_3">
      <path d="M 140.667055 255.878125 
L 140.667055 22.318125 
" clip-path="url(#p496da7ce9d)" style="fill: none; stroke: #b0b0b0; stroke-width: 0.8; stroke-linecap: square"/>
     </g>
     <g id="line2d_4">
      <g>
       <use xlink:href="#m6b674e2eb7" x="140.667055" y="255.878125" style="stroke: #000000; stroke-width: 0.8"/>
      </g>
     </g>
     <g id="text_2">
      <!-- 10 -->
      <g transform="translate(134.304555 270.476562) scale(0.1 -0.1)">
       <defs>
        <path id="DejaVuSans-31" d="M 794 531 
L 1825 531 
L 1825 4091 
L 703 3866 
L 703 4441 
L 1819 4666 
L 2450 4666 
L 2450 531 
L 3481 531 
L 3481 0 
L 794 0 
L 794 531 
z
" transform="scale(0.015625)"/>
       </defs>
       <use xlink:href="#DejaVuSans-31"/>
       <use xlink:href="#DejaVuSans-30" transform="translate(63.623047 0)"/>
      </g>
     </g>
    </g>
    <g id="xtick_3">
     <g id="line2d_5">
      <path d="M 208.654934 255.878125 
L 208.654934 22.318125 
" clip-path="url(#p496da7ce9d)" style="fill: none; stroke: #b0b0b0; stroke-width: 0.8; stroke-linecap: square"/>
     </g>
     <g id="line2d_6">
      <g>
       <use xlink:href="#m6b674e2eb7" x="208.654934" y="255.878125" style="stroke: #000000; stroke-width: 0.8"/>
      </g>
     </g>
     <g id="text_3">
      <!-- 20 -->
      <g transform="translate(202.292434 270.476562) scale(0.1 -0.1)">
       <defs>
        <path id="DejaVuSans-32" d="M 1228 531 
L 3431 531 
L 3431 0 
L 469 0 
L 469 531 
Q 828 903 1448 1529 
Q 2069 2156 2228 2338 
Q 2531 2678 2651 2914 
Q 2772 3150 2772 3378 
Q 2772 3750 2511 3984 
Q 2250 4219 1831 4219 
Q 1534 4219 1204 4116 
Q 875 4013 500 3803 
L 500 4441 
Q 881 4594 1212 4672 
Q 1544 4750 1819 4750 
Q 2544 4750 2975 4387 
Q 3406 4025 3406 3419 
Q 3406 3131 3298 2873 
Q 3191 2616 2906 2266 
Q 2828 2175 2409 1742 
Q 1991 1309 1228 531 
z
" transform="scale(0.015625)"/>
       </defs>
       <use xlink:href="#DejaVuSans-32"/>
       <use xlink:href="#DejaVuSans-30" transform="translate(63.623047 0)"/>
      </g>
     </g>
    </g>
    <g id="xtick_4">
     <g id="line2d_7">
      <path d="M 276.642812 255.878125 
L 276.642812 22.318125 
" clip-path="url(#p496da7ce9d)" style="fill: none; stroke: #b0b0b0; stroke-width: 0.8; stroke-linecap: square"/>
     </g>
     <g id="line2d_8">
      <g>
       <use xlink:href="#m6b674e2eb7" x="276.642812" y="255.878125" style="stroke: #000000; stroke-width: 0.8"/>
      </g>
     </g>
     <g id="text_4">
      <!-- 30 -->
      <g transform="translate(270.280312 270.476562) scale(0.1 -0.1)">
       <defs>
        <path id="DejaVuSans-33" d="M 2597 2516 
Q 3050 2419 3304 2112 
Q 3559 1806 3559 1356 
Q 3559 666 3084 287 
Q 2609 -91 1734 -91 
Q 1441 -91 1130 -33 
Q 819 25 488 141 
L 488 750 
Q 750 597 1062 519 
Q 1375 441 1716 441 
Q 2309 441 2620 675 
Q 2931 909 2931 1356 
Q 2931 1769 2642 2001 
Q 2353 2234 1838 2234 
L 1294 2234 
L 1294 2753 
L 1863 2753 
Q 2328 2753 2575 2939 
Q 2822 3125 2822 3475 
Q 2822 3834 2567 4026 
Q 2313 4219 1838 4219 
Q 1578 4219 1281 4162 
Q 984 4106 628 3988 
L 628 4550 
Q 988 4650 1302 4700 
Q 1616 4750 1894 4750 
Q 2613 4750 3031 4423 
Q 3450 4097 3450 3541 
Q 3450 3153 3228 2886 
Q 3006 2619 2597 2516 
z
" transform="scale(0.015625)"/>
       </defs>
       <use xlink:href="#DejaVuSans-33"/>
       <use xlink:href="#DejaVuSans-30" transform="translate(63.623047 0)"/>
      </g>
     </g>
    </g>
    <g id="xtick_5">
     <g id="line2d_9">
      <path d="M 344.630691 255.878125 
L 344.630691 22.318125 
" clip-path="url(#p496da7ce9d)" style="fill: none; stroke: #b0b0b0; stroke-width: 0.8; stroke-linecap: square"/>
     </g>
     <g id="line2d_10">
      <g>
       <use xlink:href="#m6b674e2eb7" x="344.630691" y="255.878125" style="stroke: #000000; stroke-width: 0.8"/>
      </g>
     </g>
     <g id="text_5">
      <!-- 40 -->
      <g transform="translate(338.268191 270.476562) scale(0.1 -0.1)">
       <defs>
        <path id="DejaVuSans-34" d="M 2419 4116 
L 825 1625 
L 2419 1625 
L 2419 4116 
z
M 2253 4666 
L 3047 4666 
L 3047 1625 
L 3713 1625 
L 3713 1100 
L 3047 1100 
L 3047 0 
L 2419 0 
L 2419 1100 
L 313 1100 
L 313 1709 
L 2253 4666 
z
" transform="scale(0.015625)"/>
       </defs>
       <use xlink:href="#DejaVuSans-34"/>
       <use xlink:href="#DejaVuSans-30" transform="translate(63.623047 0)"/>
      </g>
     </g>
    </g>
    <g id="xtick_6">
     <g id="line2d_11">
      <path d="M 412.61857 255.878125 
L 412.61857 22.318125 
" clip-path="url(#p496da7ce9d)" style="fill: none; stroke: #b0b0b0; stroke-width: 0.8; stroke-linecap: square"/>
     </g>
     <g id="line2d_12">
      <g>
       <use xlink:href="#m6b674e2eb7" x="412.61857" y="255.878125" style="stroke: #000000; stroke-width: 0.8"/>
      </g>
     </g>
     <g id="text_6">
      <!-- 50 -->
      <g transform="translate(406.25607 270.476562) scale(0.1 -0.1)">
       <defs>
        <path id="DejaVuSans-35" d="M 691 4666 
L 3169 4666 
L 3169 4134 
L 1269 4134 
L 1269 2991 
Q 1406 3038 1543 3061 
Q 1681 3084 1819 3084 
Q 2600 3084 3056 2656 
Q 3513 2228 3513 1497 
Q 3513 744 3044 326 
Q 2575 -91 1722 -91 
Q 1428 -91 1123 -41 
Q 819 9 494 109 
L 494 744 
Q 775 591 1075 516 
Q 1375 441 1709 441 
Q 2250 441 2565 725 
Q 2881 1009 2881 1497 
Q 2881 1984 2565 2268 
Q 2250 2553 1709 2553 
Q 1456 2553 1204 2497 
Q 953 2441 691 2322 
L 691 4666 
z
" transform="scale(0.015625)"/>
       </defs>
       <use xlink:href="#DejaVuSans-35"/>
       <use xlink:href="#DejaVuSans-30" transform="translate(63.623047 0)"/>
      </g>
     </g>
    </g>
    <g id="xtick_7">
     <g id="line2d_13">
      <path d="M 480.606449 255.878125 
L 480.606449 22.318125 
" clip-path="url(#p496da7ce9d)" style="fill: none; stroke: #b0b0b0; stroke-width: 0.8; stroke-linecap: square"/>
     </g>
     <g id="line2d_14">
      <g>
       <use xlink:href="#m6b674e2eb7" x="480.606449" y="255.878125" style="stroke: #000000; stroke-width: 0.8"/>
      </g>
     </g>
     <g id="text_7">
      <!-- 60 -->
      <g transform="translate(474.243949 270.476562) scale(0.1 -0.1)">
       <defs>
        <path id="DejaVuSans-36" d="M 2113 2584 
Q 1688 2584 1439 2293 
Q 1191 2003 1191 1497 
Q 1191 994 1439 701 
Q 1688 409 2113 409 
Q 2538 409 2786 701 
Q 3034 994 3034 1497 
Q 3034 2003 2786 2293 
Q 2538 2584 2113 2584 
z
M 3366 4563 
L 3366 3988 
Q 3128 4100 2886 4159 
Q 2644 4219 2406 4219 
Q 1781 4219 1451 3797 
Q 1122 3375 1075 2522 
Q 1259 2794 1537 2939 
Q 1816 3084 2150 3084 
Q 2853 3084 3261 2657 
Q 3669 2231 3669 1497 
Q 3669 778 3244 343 
Q 2819 -91 2113 -91 
Q 1303 -91 875 529 
Q 447 1150 447 2328 
Q 447 3434 972 4092 
Q 1497 4750 2381 4750 
Q 2619 4750 2861 4703 
Q 3103 4656 3366 4563 
z
" transform="scale(0.015625)"/>
       </defs>
       <use xlink:href="#DejaVuSans-36"/>
       <use xlink:href="#DejaVuSans-30" transform="translate(63.623047 0)"/>
      </g>
     </g>
    </g>
    <g id="text_8">
     <!-- Tiempo [s] -->
     <g transform="translate(250.080312 284.154687) scale(0.1 -0.1)">
      <defs>
       <path id="DejaVuSans-54" d="M -19 4666 
L 3928 4666 
L 3928 4134 
L 2272 4134 
L 2272 0 
L 1638 0 
L 1638 4134 
L -19 4134 
L -19 4666 
z
" transform="scale(0.015625)"/>
       <path id="DejaVuSans-69" d="M 603 3500 
L 1178 3500 
L 1178 0 
L 603 0 
L 603 3500 
z
M 603 4863 
L 1178 4863 
L 1178 4134 
L 603 4134 
L 603 4863 
z
" transform="scale(0.015625)"/>
       <path id="DejaVuSans-65" d="M 3597 1894 
L 3597 1613 
L 953 1613 
Q 991 1019 1311 708 
Q 1631 397 2203 397 
Q 2534 397 2845 478 
Q 3156 559 3463 722 
L 3463 178 
Q 3153 47 2828 -22 
Q 2503 -91 2169 -91 
Q 1331 -91 842 396 
Q 353 884 353 1716 
Q 353 2575 817 3079 
Q 1281 3584 2069 3584 
Q 2775 3584 3186 3129 
Q 3597 2675 3597 1894 
z
M 3022 2063 
Q 3016 2534 2758 2815 
Q 2500 3097 2075 3097 
Q 1594 3097 1305 2825 
Q 1016 2553 972 2059 
L 3022 2063 
z
" transform="scale(0.015625)"/>
       <path id="DejaVuSans-6d" d="M 3328 2828 
Q 3544 3216 3844 3400 
Q 4144 3584 4550 3584 
Q 5097 3584 5394 3201 
Q 5691 2819 5691 2113 
L 5691 0 
L 5113 0 
L 5113 2094 
Q 5113 2597 4934 2840 
Q 4756 3084 4391 3084 
Q 3944 3084 3684 2787 
Q 3425 2491 3425 1978 
L 3425 0 
L 2847 0 
L 2847 2094 
Q 2847 2600 2669 2842 
Q 2491 3084 2119 3084 
Q 1678 3084 1418 2786 
Q 1159 2488 1159 1978 
L 1159 0 
L 581 0 
L 581 3500 
L 1159 3500 
L 1159 2956 
Q 1356 3278 1631 3431 
Q 1906 3584 2284 3584 
Q 2666 3584 2933 3390 
Q 3200 3197 3328 2828 
z
" transform="scale(0.015625)"/>
       <path id="DejaVuSans-70" d="M 1159 525 
L 1159 -1331 
L 581 -1331 
L 581 3500 
L 1159 3500 
L 1159 2969 
Q 1341 3281 1617 3432 
Q 1894 3584 2278 3584 
Q 2916 3584 3314 3078 
Q 3713 2572 3713 1747 
Q 3713 922 3314 415 
Q 2916 -91 2278 -91 
Q 1894 -91 1617 61 
Q 1341 213 1159 525 
z
M 3116 1747 
Q 3116 2381 2855 2742 
Q 2594 3103 2138 3103 
Q 1681 3103 1420 2742 
Q 1159 2381 1159 1747 
Q 1159 1113 1420 752 
Q 1681 391 2138 391 
Q 2594 391 2855 752 
Q 3116 1113 3116 1747 
z
" transform="scale(0.015625)"/>
       <path id="DejaVuSans-6f" d="M 1959 3097 
Q 1497 3097 1228 2736 
Q 959 2375 959 1747 
Q 959 1119 1226 758 
Q 1494 397 1959 397 
Q 2419 397 2687 759 
Q 2956 1122 2956 1747 
Q 2956 2369 2687 2733 
Q 2419 3097 1959 3097 
z
M 1959 3584 
Q 2709 3584 3137 3096 
Q 3566 2609 3566 1747 
Q 3566 888 3137 398 
Q 2709 -91 1959 -91 
Q 1206 -91 779 398 
Q 353 888 353 1747 
Q 353 2609 779 3096 
Q 1206 3584 1959 3584 
z
" transform="scale(0.015625)"/>
       <path id="DejaVuSans-20" transform="scale(0.015625)"/>
       <path id="DejaVuSans-5b" d="M 550 4863 
L 1875 4863 
L 1875 4416 
L 1125 4416 
L 1125 -397 
L 1875 -397 
L 1875 -844 
L 550 -844 
L 550 4863 
z
" transform="scale(0.015625)"/>
       <path id="DejaVuSans-73" d="M 2834 3397 
L 2834 2853 
Q 2591 2978 2328 3040 
Q 2066 3103 1784 3103 
Q 1356 3103 1142 2972 
Q 928 2841 928 2578 
Q 928 2378 1081 2264 
Q 1234 2150 1697 2047 
L 1894 2003 
Q 2506 1872 2764 1633 
Q 3022 1394 3022 966 
Q 3022 478 2636 193 
Q 2250 -91 1575 -91 
Q 1294 -91 989 -36 
Q 684 19 347 128 
L 347 722 
Q 666 556 975 473 
Q 1284 391 1588 391 
Q 1994 391 2212 530 
Q 2431 669 2431 922 
Q 2431 1156 2273 1281 
Q 2116 1406 1581 1522 
L 1381 1569 
Q 847 1681 609 1914 
Q 372 2147 372 2553 
Q 372 3047 722 3315 
Q 1072 3584 1716 3584 
Q 2034 3584 2315 3537 
Q 2597 3491 2834 3397 
z
" transform="scale(0.015625)"/>
       <path id="DejaVuSans-5d" d="M 1947 4863 
L 1947 -844 
L 622 -844 
L 622 -397 
L 1369 -397 
L 1369 4416 
L 622 4416 
L 622 4863 
L 1947 4863 
z
" transform="scale(0.015625)"/>
      </defs>
      <use xlink:href="#DejaVuSans-54"/>
      <use xlink:href="#DejaVuSans-69" transform="translate(57.958984 0)"/>
      <use xlink:href="#DejaVuSans-65" transform="translate(85.742188 0)"/>
      <use xlink:href="#DejaVuSans-6d" transform="translate(147.265625 0)"/>
      <use xlink:href="#DejaVuSans-70" transform="translate(244.677734 0)"/>
      <use xlink:href="#DejaVuSans-6f" transform="translate(308.154297 0)"/>
      <use xlink:href="#DejaVuSans-20" transform="translate(369.335938 0)"/>
      <use xlink:href="#DejaVuSans-5b" transform="translate(401.123047 0)"/>
      <use xlink:href="#DejaVuSans-73" transform="translate(440.136719 0)"/>
      <use xlink:href="#DejaVuSans-5d" transform="translate(492.236328 0)"/>
     </g>
    </g>
   </g>
   <g id="matplotlib.axis_2">
    <g id="ytick_1">
     <g id="line2d_15">
      <path d="M 52.282813 235.685236 
L 501.002812 235.685236 
" clip-path="url(#p496da7ce9d)" style="fill: none; stroke: #b0b0b0; stroke-width: 0.8; stroke-linecap: square"/>
     </g>
     <g id="line2d_16">
      <defs>
       <path id="mbeb25af2dc" d="M 0 0 
L -3.5 0 
" style="stroke: #000000; stroke-width: 0.8"/>
      </defs>
      <g>
       <use xlink:href="#mbeb25af2dc" x="52.282813" y="235.685236" style="stroke: #000000; stroke-width: 0.8"/>
      </g>
     </g>
     <g id="text_9">
      <!-- −2.5 -->
      <g transform="translate(21 239.484455) scale(0.1 -0.1)">
       <defs>
        <path id="DejaVuSans-2212" d="M 678 2272 
L 4684 2272 
L 4684 1741 
L 678 1741 
L 678 2272 
z
" transform="scale(0.015625)"/>
        <path id="DejaVuSans-2e" d="M 684 794 
L 1344 794 
L 1344 0 
L 684 0 
L 684 794 
z
" transform="scale(0.015625)"/>
       </defs>
       <use xlink:href="#DejaVuSans-2212"/>
       <use xlink:href="#DejaVuSans-32" transform="translate(83.789062 0)"/>
       <use xlink:href="#DejaVuSans-2e" transform="translate(147.412109 0)"/>
       <use xlink:href="#DejaVuSans-35" transform="translate(179.199219 0)"/>
      </g>
     </g>
    </g>
    <g id="ytick_2">
     <g id="line2d_17">
      <path d="M 52.282813 205.643869 
L 501.002812 205.643869 
" clip-path="url(#p496da7ce9d)" style="fill: none; stroke: #b0b0b0; stroke-width: 0.8; stroke-linecap: square"/>
     </g>
     <g id="line2d_18">
      <g>
       <use xlink:href="#mbeb25af2dc" x="52.282813" y="205.643869" style="stroke: #000000; stroke-width: 0.8"/>
      </g>
     </g>
     <g id="text_10">
      <!-- 0.0 -->
      <g transform="translate(29.379688 209.443088) scale(0.1 -0.1)">
       <use xlink:href="#DejaVuSans-30"/>
       <use xlink:href="#DejaVuSans-2e" transform="translate(63.623047 0)"/>
       <use xlink:href="#DejaVuSans-30" transform="translate(95.410156 0)"/>
      </g>
     </g>
    </g>
    <g id="ytick_3">
     <g id="line2d_19">
      <path d="M 52.282813 175.602502 
L 501.002812 175.602502 
" clip-path="url(#p496da7ce9d)" style="fill: none; stroke: #b0b0b0; stroke-width: 0.8; stroke-linecap: square"/>
     </g>
     <g id="line2d_20">
      <g>
       <use xlink:href="#mbeb25af2dc" x="52.282813" y="175.602502" style="stroke: #000000; stroke-width: 0.8"/>
      </g>
     </g>
     <g id="text_11">
      <!-- 2.5 -->
      <g transform="translate(29.379688 179.401721) scale(0.1 -0.1)">
       <use xlink:href="#DejaVuSans-32"/>
       <use xlink:href="#DejaVuSans-2e" transform="translate(63.623047 0)"/>
       <use xlink:href="#DejaVuSans-35" transform="translate(95.410156 0)"/>
      </g>
     </g>
    </g>
    <g id="ytick_4">
     <g id="line2d_21">
      <path d="M 52.282813 145.561135 
L 501.002812 145.561135 
" clip-path="url(#p496da7ce9d)" style="fill: none; stroke: #b0b0b0; stroke-width: 0.8; stroke-linecap: square"/>
     </g>
     <g id="line2d_22">
      <g>
       <use xlink:href="#mbeb25af2dc" x="52.282813" y="145.561135" style="stroke: #000000; stroke-width: 0.8"/>
      </g>
     </g>
     <g id="text_12">
      <!-- 5.0 -->
      <g transform="translate(29.379688 149.360354) scale(0.1 -0.1)">
       <use xlink:href="#DejaVuSans-35"/>
       <use xlink:href="#DejaVuSans-2e" transform="translate(63.623047 0)"/>
       <use xlink:href="#DejaVuSans-30" transform="translate(95.410156 0)"/>
      </g>
     </g>
    </g>
    <g id="ytick_5">
     <g id="line2d_23">
      <path d="M 52.282813 115.519768 
L 501.002812 115.519768 
" clip-path="url(#p496da7ce9d)" style="fill: none; stroke: #b0b0b0; stroke-width: 0.8; stroke-linecap: square"/>
     </g>
     <g id="line2d_24">
      <g>
       <use xlink:href="#mbeb25af2dc" x="52.282813" y="115.519768" style="stroke: #000000; stroke-width: 0.8"/>
      </g>
     </g>
     <g id="text_13">
      <!-- 7.5 -->
      <g transform="translate(29.379688 119.318987) scale(0.1 -0.1)">
       <defs>
        <path id="DejaVuSans-37" d="M 525 4666 
L 3525 4666 
L 3525 4397 
L 1831 0 
L 1172 0 
L 2766 4134 
L 525 4134 
L 525 4666 
z
" transform="scale(0.015625)"/>
       </defs>
       <use xlink:href="#DejaVuSans-37"/>
       <use xlink:href="#DejaVuSans-2e" transform="translate(63.623047 0)"/>
       <use xlink:href="#DejaVuSans-35" transform="translate(95.410156 0)"/>
      </g>
     </g>
    </g>
    <g id="ytick_6">
     <g id="line2d_25">
      <path d="M 52.282813 85.478401 
L 501.002812 85.478401 
" clip-path="url(#p496da7ce9d)" style="fill: none; stroke: #b0b0b0; stroke-width: 0.8; stroke-linecap: square"/>
     </g>
     <g id="line2d_26">
      <g>
       <use xlink:href="#mbeb25af2dc" x="52.282813" y="85.478401" style="stroke: #000000; stroke-width: 0.8"/>
      </g>
     </g>
     <g id="text_14">
      <!-- 10.0 -->
      <g transform="translate(23.017188 89.27762) scale(0.1 -0.1)">
       <use xlink:href="#DejaVuSans-31"/>
       <use xlink:href="#DejaVuSans-30" transform="translate(63.623047 0)"/>
       <use xlink:href="#DejaVuSans-2e" transform="translate(127.246094 0)"/>
       <use xlink:href="#DejaVuSans-30" transform="translate(159.033203 0)"/>
      </g>
     </g>
    </g>
    <g id="ytick_7">
     <g id="line2d_27">
      <path d="M 52.282813 55.437034 
L 501.002812 55.437034 
" clip-path="url(#p496da7ce9d)" style="fill: none; stroke: #b0b0b0; stroke-width: 0.8; stroke-linecap: square"/>
     </g>
     <g id="line2d_28">
      <g>
       <use xlink:href="#mbeb25af2dc" x="52.282813" y="55.437034" style="stroke: #000000; stroke-width: 0.8"/>
      </g>
     </g>
     <g id="text_15">
      <!-- 12.5 -->
      <g transform="translate(23.017188 59.236253) scale(0.1 -0.1)">
       <use xlink:href="#DejaVuSans-31"/>
       <use xlink:href="#DejaVuSans-32" transform="translate(63.623047 0)"/>
       <use xlink:href="#DejaVuSans-2e" transform="translate(127.246094 0)"/>
       <use xlink:href="#DejaVuSans-35" transform="translate(159.033203 0)"/>
      </g>
     </g>
    </g>
    <g id="ytick_8">
     <g id="line2d_29">
      <path d="M 52.282813 25.395667 
L 501.002812 25.395667 
" clip-path="url(#p496da7ce9d)" style="fill: none; stroke: #b0b0b0; stroke-width: 0.8; stroke-linecap: square"/>
     </g>
     <g id="line2d_30">
      <g>
       <use xlink:href="#mbeb25af2dc" x="52.282813" y="25.395667" style="stroke: #000000; stroke-width: 0.8"/>
      </g>
     </g>
     <g id="text_16">
      <!-- 15.0 -->
      <g transform="translate(23.017188 29.194886) scale(0.1 -0.1)">
       <use xlink:href="#DejaVuSans-31"/>
       <use xlink:href="#DejaVuSans-35" transform="translate(63.623047 0)"/>
       <use xlink:href="#DejaVuSans-2e" transform="translate(127.246094 0)"/>
       <use xlink:href="#DejaVuSans-30" transform="translate(159.033203 0)"/>
      </g>
     </g>
    </g>
    <g id="text_17">
     <!-- $\theta$ [deg] -->
     <g transform="translate(14.9 157.098125) rotate(-90) scale(0.1 -0.1)">
      <defs>
       <path id="DejaVuSans-Oblique-3b8" d="M 2913 2219 
L 925 2219 
Q 791 1284 928 888 
Q 1100 400 1566 400 
Q 2034 400 2391 891 
Q 2703 1322 2913 2219 
z
M 3009 2750 
Q 3094 3638 2984 3950 
Q 2813 4444 2353 4444 
Q 1875 4444 1525 3956 
Q 1250 3563 1034 2750 
L 3009 2750 
z
M 2444 4913 
Q 3194 4913 3494 4250 
Q 3794 3591 3566 2422 
Q 3341 1256 2781 594 
Q 2225 -72 1475 -72 
Q 722 -72 425 594 
Q 128 1256 353 2422 
Q 581 3591 1134 4250 
Q 1691 4913 2444 4913 
z
" transform="scale(0.015625)"/>
       <path id="DejaVuSans-64" d="M 2906 2969 
L 2906 4863 
L 3481 4863 
L 3481 0 
L 2906 0 
L 2906 525 
Q 2725 213 2448 61 
Q 2172 -91 1784 -91 
Q 1150 -91 751 415 
Q 353 922 353 1747 
Q 353 2572 751 3078 
Q 1150 3584 1784 3584 
Q 2172 3584 2448 3432 
Q 2725 3281 2906 2969 
z
M 947 1747 
Q 947 1113 1208 752 
Q 1469 391 1925 391 
Q 2381 391 2643 752 
Q 2906 1113 2906 1747 
Q 2906 2381 2643 2742 
Q 2381 3103 1925 3103 
Q 1469 3103 1208 2742 
Q 947 2381 947 1747 
z
" transform="scale(0.015625)"/>
       <path id="DejaVuSans-67" d="M 2906 1791 
Q 2906 2416 2648 2759 
Q 2391 3103 1925 3103 
Q 1463 3103 1205 2759 
Q 947 2416 947 1791 
Q 947 1169 1205 825 
Q 1463 481 1925 481 
Q 2391 481 2648 825 
Q 2906 1169 2906 1791 
z
M 3481 434 
Q 3481 -459 3084 -895 
Q 2688 -1331 1869 -1331 
Q 1566 -1331 1297 -1286 
Q 1028 -1241 775 -1147 
L 775 -588 
Q 1028 -725 1275 -790 
Q 1522 -856 1778 -856 
Q 2344 -856 2625 -561 
Q 2906 -266 2906 331 
L 2906 616 
Q 2728 306 2450 153 
Q 2172 0 1784 0 
Q 1141 0 747 490 
Q 353 981 353 1791 
Q 353 2603 747 3093 
Q 1141 3584 1784 3584 
Q 2172 3584 2450 3431 
Q 2728 3278 2906 2969 
L 2906 3500 
L 3481 3500 
L 3481 434 
z
" transform="scale(0.015625)"/>
      </defs>
      <use xlink:href="#DejaVuSans-Oblique-3b8" transform="translate(0 0.234375)"/>
      <use xlink:href="#DejaVuSans-20" transform="translate(61.181641 0.234375)"/>
      <use xlink:href="#DejaVuSans-5b" transform="translate(92.96875 0.234375)"/>
      <use xlink:href="#DejaVuSans-64" transform="translate(131.982422 0.234375)"/>
      <use xlink:href="#DejaVuSans-65" transform="translate(195.458984 0.234375)"/>
      <use xlink:href="#DejaVuSans-67" transform="translate(256.982422 0.234375)"/>
      <use xlink:href="#DejaVuSans-5d" transform="translate(320.458984 0.234375)"/>
     </g>
    </g>
   </g>
   <g id="line2d_31">
    <path d="M 72.679176 205.643869 
L 74.242897 174.20413 
L 74.990764 165.45008 
L 75.738631 159.271685 
L 76.486497 154.91099 
L 77.234364 151.833158 
L 77.982231 149.660786 
L 78.730097 148.127553 
L 79.545952 146.9646 
L 80.361806 146.169674 
L 81.313637 145.554521 
L 82.401443 145.11729 
L 83.829188 144.797488 
L 85.868825 144.594557 
L 89.404194 144.504598 
L 100.010303 144.549481 
L 106.673116 144.597664 
L 108.236837 176.048699 
L 108.984703 184.80813 
L 109.73257 190.991891 
L 110.480437 195.357934 
L 111.228303 198.441095 
L 111.97617 200.618777 
L 112.724037 202.157298 
L 113.539891 203.325995 
L 114.355746 204.126639 
L 115.307576 204.748427 
L 116.395382 205.193193 
L 117.823128 205.522805 
L 119.862764 205.739588 
L 123.398134 205.853097 
L 133.800279 205.875509 
L 140.667055 205.866574 
L 142.230776 174.42451 
L 142.978643 165.669331 
L 143.726509 159.489798 
L 144.474376 155.127959 
L 145.222243 152.048977 
L 145.970109 149.87545 
L 146.717976 148.34106 
L 147.533831 147.176842 
L 148.349685 146.38065 
L 149.301516 145.764019 
L 150.389322 145.325101 
L 151.817067 145.00309 
L 153.856703 144.79702 
L 157.392073 144.701684 
L 167.998182 144.731101 
L 174.660994 144.770144 
L 176.224716 176.219098 
L 176.972582 184.977544 
L 177.720449 191.160323 
L 178.468316 195.525391 
L 179.216182 198.607583 
L 179.964049 200.784301 
L 180.711916 202.321863 
L 181.52777 203.489522 
L 182.343625 204.289133 
L 183.295455 204.909724 
L 184.383261 205.353133 
L 185.811006 205.680981 
L 187.850643 205.895278 
L 191.386012 206.004569 
L 201.856146 206.015078 
L 208.654934 205.999027 
L 210.218655 174.555364 
L 210.966522 165.799427 
L 211.714388 159.619141 
L 212.462255 155.256551 
L 213.210122 152.176824 
L 213.957988 150.002557 
L 214.705855 148.467431 
L 215.521709 147.302414 
L 216.337564 146.505428 
L 217.289394 145.887878 
L 218.3772 145.447917 
L 219.804946 145.124551 
L 221.844582 144.916572 
L 225.379952 144.817996 
L 235.918073 144.837881 
L 242.648873 144.871851 
L 244.212594 176.319577 
L 244.960461 185.07744 
L 245.708328 191.259641 
L 246.456194 195.624134 
L 247.204061 198.705754 
L 247.951928 200.881903 
L 248.699794 202.4189 
L 249.515649 203.585945 
L 250.331503 204.384946 
L 251.283334 205.004832 
L 252.37114 205.44744 
L 253.798885 205.774248 
L 255.838522 205.987079 
L 259.373891 206.093882 
L 269.844025 206.097413 
L 276.642812 206.077125 
L 278.206534 174.632519 
L 278.9544 165.876135 
L 279.702267 159.695404 
L 280.450134 155.332373 
L 281.198 152.252207 
L 281.945867 150.077502 
L 282.693734 148.541942 
L 283.509588 147.376454 
L 284.325443 146.579001 
L 285.277273 145.960909 
L 286.365079 145.520333 
L 287.792825 145.196168 
L 289.832461 144.987063 
L 293.367831 144.886577 
L 303.905952 144.90107 
L 310.636752 144.93182 
L 312.200473 176.378822 
L 312.94834 185.136342 
L 313.696206 191.318202 
L 314.444073 195.682355 
L 315.19194 198.763638 
L 315.939806 200.939451 
L 316.687673 202.476115 
L 317.503528 203.642798 
L 318.319382 204.441441 
L 319.271212 205.06091 
L 320.359019 205.503046 
L 321.786764 205.829241 
L 323.8264 206.041206 
L 327.36177 206.146544 
L 337.831903 206.145959 
L 344.630691 206.123174 
L 346.194412 174.678012 
L 346.942279 165.921364 
L 347.690146 159.740371 
L 348.438013 155.37708 
L 349.185879 152.296654 
L 349.933746 150.121692 
L 350.681612 148.585876 
L 351.497467 147.420111 
L 352.313322 146.622381 
L 353.265152 146.003969 
L 354.352958 145.563032 
L 355.780703 145.238395 
L 357.82034 145.028626 
L 361.355709 144.927014 
L 371.893831 144.938328 
L 378.624631 144.96718 
L 380.188352 176.413755 
L 380.936219 185.171072 
L 381.684085 191.352731 
L 382.431952 195.716684 
L 383.179819 198.797767 
L 383.927685 200.973383 
L 384.675552 202.50985 
L 385.491406 203.676321 
L 386.307261 204.474751 
L 387.259091 205.093975 
L 388.346897 205.535833 
L 389.774643 205.861666 
L 391.814279 206.073122 
L 395.349649 206.177594 
L 405.819782 206.174584 
L 412.61857 206.150326 
L 414.182291 174.704835 
L 414.930158 165.948032 
L 415.678025 159.766885 
L 416.425891 155.40344 
L 417.173758 152.322862 
L 417.921625 150.147748 
L 418.669491 148.61178 
L 419.485346 147.445851 
L 420.3012 146.647959 
L 421.253031 146.029359 
L 422.340837 145.588208 
L 423.768582 145.263294 
L 425.808219 145.053133 
L 429.343588 144.950857 
L 439.881709 144.960296 
L 446.612509 144.988029 
L 448.176231 176.434352 
L 448.924097 185.19155 
L 449.671964 191.37309 
L 450.419831 195.736925 
L 451.167697 198.817891 
L 451.915564 200.993391 
L 452.663431 202.529742 
L 453.479285 203.696086 
L 454.29514 204.494392 
L 455.24697 205.113471 
L 456.334776 205.555165 
L 457.762522 205.880784 
L 459.802158 206.09194 
L 463.337528 206.195902 
L 473.807661 206.191461 
L 480.606449 206.166335 
L 480.606449 206.166335 
" clip-path="url(#p496da7ce9d)" style="fill: none; stroke-dasharray: 5.55,2.4; stroke-dashoffset: 0; stroke: #1f77b4; stroke-width: 1.5"/>
   </g>
   <g id="line2d_32">
    <path d="M 72.679176 205.643869 
L 74.7868 205.534545 
L 75.670643 205.259847 
L 76.418509 204.795181 
L 77.0304 204.156644 
L 77.574303 203.231249 
L 77.982231 202.104065 
L 78.390158 200.202404 
L 78.730097 197.357703 
L 79.002049 193.291421 
L 79.274 185.68853 
L 79.545952 169.679551 
L 79.749916 144.966942 
L 80.157843 62.22914 
L 80.225831 64.376414 
L 80.361806 99.616046 
L 80.769734 225.618006 
L 80.837722 226.87025 
L 80.973697 216.034006 
L 81.313637 184.681966 
L 81.381625 183.588642 
L 81.449613 183.98315 
L 81.993516 194.197257 
L 82.129491 193.504738 
L 82.469431 191.620804 
L 82.605406 191.597237 
L 83.149309 192.227271 
L 84.10114 192.095001 
L 85.664861 192.03909 
L 88.044437 191.788121 
L 89.812122 191.384746 
L 91.307855 190.814989 
L 92.531637 190.1188 
L 93.619443 189.247282 
L 94.571273 188.200658 
L 95.387128 186.991431 
L 96.134994 185.498045 
L 96.814873 183.633098 
L 97.426764 181.254948 
L 97.970667 178.121649 
L 98.378594 174.560089 
L 98.786522 168.826401 
L 99.126461 160.323981 
L 99.398413 147.679909 
L 99.670364 122.213201 
L 99.942316 70.287698 
L 100.146279 32.934489 
L 100.214267 34.22678 
L 100.350243 66.089116 
L 100.75817 193.448807 
L 100.826158 196.743137 
L 100.894146 194.801371 
L 101.506037 150.859404 
L 101.71 154.211815 
L 101.981952 157.419997 
L 102.04994 157.240668 
L 102.253903 154.804032 
L 103.137746 137.385265 
L 103.477685 126.104289 
L 103.817625 106.548003 
L 104.429516 60.37814 
L 104.497503 61.152719 
L 104.633479 70.039191 
L 105.177382 123.94208 
L 105.24537 124.609529 
L 105.381346 120.755428 
L 105.585309 104.544618 
L 106.129212 47.653722 
L 106.1972 47.727892 
L 106.333176 57.190655 
L 106.877079 112.81183 
L 106.945067 112.370301 
L 107.081043 106.627645 
L 107.624946 72.998758 
L 107.692934 72.909494 
L 107.828909 76.49358 
L 108.372812 96.622005 
L 108.4408 96.416349 
L 108.644764 93.462123 
L 108.916716 90.23976 
L 108.984703 90.197394 
L 109.120679 90.954206 
L 109.596594 94.932468 
L 109.800558 95.223351 
L 110.004522 95.311421 
L 110.208485 95.695361 
L 113.26794 104.844844 
L 114.287758 109.102642 
L 115.307576 114.400623 
L 116.327394 120.947157 
L 117.4152 129.519071 
L 118.570994 140.566127 
L 119.99874 156.589871 
L 122.310328 182.607421 
L 123.534109 193.57302 
L 124.825879 203.063318 
L 126.253625 211.856223 
L 127.749358 219.68386 
L 129.177103 226.041257 
L 130.536861 231.161176 
L 131.828631 235.222411 
L 133.052413 238.381578 
L 134.208206 240.779384 
L 135.296012 242.541434 
L 136.315831 243.778538 
L 137.267661 244.587514 
L 138.151503 245.052422 
L 138.967358 245.246018 
L 139.783212 245.220947 
L 140.599067 244.983535 
L 140.803031 244.82524 
L 141.210958 244.05055 
L 141.618885 242.63639 
L 142.230776 239.428992 
L 142.978643 234.097638 
L 143.726509 227.107816 
L 144.474376 217.903525 
L 145.154255 206.80375 
L 145.970109 189.325355 
L 146.92194 169.062424 
L 147.397855 163.242055 
L 148.145722 157.259754 
L 148.893588 152.749052 
L 150.457309 145.016376 
L 151.953043 138.783781 
L 153.448776 133.462527 
L 154.876522 129.173891 
L 156.168291 125.948745 
L 157.392073 123.4698 
L 158.479879 121.740863 
L 159.499697 120.527897 
L 160.38354 119.79615 
L 161.199394 119.382602 
L 162.015249 119.21753 
L 162.831103 119.2961 
L 163.646958 119.611214 
L 164.5308 120.208233 
L 165.482631 121.130388 
L 166.570437 122.506661 
L 167.862206 124.524958 
L 169.493916 127.530982 
L 172.077455 132.847118 
L 174.932946 138.983959 
L 175.204897 140.599826 
L 175.612825 144.637373 
L 176.360691 154.643184 
L 179.012219 192.555089 
L 179.828073 200.300807 
L 180.643928 205.954369 
L 181.459782 210.095943 
L 182.343625 213.426676 
L 183.227467 215.930939 
L 184.179297 217.963442 
L 185.131128 219.468542 
L 186.082958 220.548106 
L 186.9668 221.228741 
L 187.850643 221.639997 
L 188.734485 221.813162 
L 189.686316 221.763758 
L 190.706134 221.471958 
L 191.79394 220.924908 
L 193.085709 220.01011 
L 194.581443 218.665282 
L 196.485103 216.639515 
L 199.612546 212.931656 
L 203.623831 208.251073 
L 206.003406 205.820934 
L 208.043043 204.046405 
L 208.790909 203.398824 
L 209.062861 202.612104 
L 209.334812 201.050792 
L 209.810728 196.590062 
L 210.490606 187.580797 
L 212.93817 151.678431 
L 213.618049 146.570767 
L 214.297928 143.030042 
L 215.045794 140.215289 
L 215.861649 137.952241 
L 216.745491 136.140155 
L 217.629334 134.812214 
L 218.513176 133.861221 
L 219.397019 133.219957 
L 220.280861 132.842623 
L 221.164703 132.695292 
L 222.116534 132.762471 
L 223.136352 133.061205 
L 224.292146 133.641028 
L 225.651903 134.588216 
L 227.3516 136.063266 
L 230.071116 138.765935 
L 233.810449 142.422606 
L 236.054049 144.293514 
L 238.025697 145.654341 
L 239.929358 146.69693 
L 241.765031 147.449916 
L 242.784849 147.850306 
L 242.988812 148.484711 
L 243.260764 150.632944 
L 243.804667 157.771805 
L 246.184243 191.023159 
L 247.000097 198.566573 
L 247.747964 203.576554 
L 248.495831 207.175536 
L 249.243697 209.74267 
L 249.991564 211.565329 
L 250.739431 212.844066 
L 251.487297 213.716474 
L 252.235164 214.278439 
L 253.051019 214.617832 
L 253.934861 214.736457 
L 254.954679 214.629203 
L 256.110473 214.275276 
L 257.606206 213.565993 
L 259.645843 212.326908 
L 264.472982 209.025905 
L 267.7364 206.971272 
L 270.31994 205.604328 
L 272.699516 204.597689 
L 274.943116 203.886938 
L 276.846776 203.282206 
L 277.05074 202.582394 
L 277.322691 200.612068 
L 277.798606 195.028781 
L 278.546473 183.338173 
L 279.906231 161.852659 
L 280.586109 154.622113 
L 281.265988 149.687379 
L 281.945867 146.253395 
L 282.693734 143.560662 
L 283.509588 141.461752 
L 284.325443 139.959465 
L 285.141297 138.88706 
L 286.02514 138.090053 
L 286.908982 137.587202 
L 287.860813 137.304995 
L 288.880631 137.240159 
L 290.036425 137.40063 
L 291.396182 137.831589 
L 293.095879 138.627927 
L 295.543443 140.055874 
L 301.3904 143.547178 
L 303.905952 144.750898 
L 306.285528 145.644806 
L 308.597116 146.276026 
L 310.772728 146.754741 
L 310.908703 147.130229 
L 311.112667 148.539019 
L 311.520594 153.993858 
L 313.764194 187.276105 
L 314.580049 195.306334 
L 315.327916 200.606357 
L 316.075782 204.391691 
L 316.823649 207.075715 
L 317.571516 208.971028 
L 318.319382 210.296921 
L 319.067249 211.204984 
L 319.883103 211.842963 
L 320.698958 212.207138 
L 321.650788 212.377962 
L 322.738594 212.332992 
L 324.098352 212.033212 
L 325.866037 211.395225 
L 328.585552 210.146286 
L 335.588303 206.848884 
L 338.511782 205.761007 
L 341.231297 204.983766 
L 343.882825 204.4576 
L 344.766667 204.248231 
L 344.970631 203.673197 
L 345.242582 201.677361 
L 345.718497 195.52826 
L 346.60234 180.547234 
L 347.622158 164.346709 
L 348.302037 156.868513 
L 348.981916 151.729953 
L 349.661794 148.133645 
L 350.409661 145.310906 
L 351.225516 143.119511 
L 352.04137 141.561373 
L 352.857225 140.455147 
L 353.741067 139.632944 
L 354.624909 139.106414 
L 355.57674 138.792164 
L 356.664546 138.678763 
L 357.888328 138.786803 
L 359.316073 139.140277 
L 361.219734 139.860462 
L 364.2112 141.269754 
L 369.242303 143.629711 
L 372.097794 144.711019 
L 374.749322 145.479895 
L 377.332861 146.001934 
L 378.760606 146.29146 
L 378.896582 146.698032 
L 379.100546 148.27053 
L 379.508473 154.262259 
L 381.344146 183.022906 
L 382.16 192.022978 
L 382.907867 198.000478 
L 383.655734 202.275635 
L 384.4036 205.306379 
L 385.151467 207.448192 
L 385.899334 208.953011 
L 386.6472 209.995367 
L 387.463055 210.747265 
L 388.278909 211.204473 
L 389.23074 211.468957 
L 390.318546 211.521355 
L 391.610316 211.35192 
L 393.310013 210.893216 
L 395.825564 209.961304 
L 405.003928 206.371767 
L 408.063382 205.510437 
L 410.918873 204.933913 
L 412.754546 204.594626 
L 412.890522 204.265826 
L 413.094485 203.077843 
L 413.434425 199.186534 
L 414.182291 186.924446 
L 415.474061 165.494065 
L 416.15394 157.908643 
L 416.833819 152.676081 
L 417.513697 148.998895 
L 418.261564 146.108521 
L 419.009431 144.026588 
L 419.825285 142.392747 
L 420.64114 141.23545 
L 421.524982 140.373914 
L 422.408825 139.816214 
L 423.360655 139.471077 
L 424.448461 139.320536 
L 425.672243 139.380685 
L 427.167976 139.686668 
L 429.139625 140.338361 
L 432.335055 141.67095 
L 437.434146 143.776158 
L 440.425612 144.762821 
L 443.213116 145.45395 
L 446.000619 145.917496 
L 446.748485 146.100506 
L 446.884461 146.527321 
L 447.088425 148.203644 
L 447.496352 154.51636 
L 449.128061 180.810443 
L 449.943916 190.325064 
L 450.691782 196.66053 
L 451.439649 201.194713 
L 452.187516 204.408932 
L 452.935382 206.680865 
L 453.683249 208.279479 
L 454.431116 209.391423 
L 455.24697 210.201422 
L 456.062825 210.705222 
L 456.946667 211.001513 
L 457.966485 211.114516 
L 459.258255 211.020092 
L 460.889964 210.665176 
L 463.26954 209.898426 
L 474.419552 206.013481 
L 477.479006 205.324746 
L 480.470473 204.877023 
L 480.606449 204.861912 
L 480.606449 204.861912 
" clip-path="url(#p496da7ce9d)" style="fill: none; stroke: #ff7f0e; stroke-width: 1.2; stroke-linecap: square"/>
   </g>
   <g id="patch_3">
    <path d="M 52.282813 255.878125 
L 52.282813 22.318125 
" style="fill: none; stroke: #000000; stroke-width: 0.8; stroke-linejoin: miter; stroke-linecap: square"/>
   </g>
   <g id="patch_4">
    <path d="M 501.002812 255.878125 
L 501.002812 22.318125 
" style="fill: none; stroke: #000000; stroke-width: 0.8; stroke-linejoin: miter; stroke-linecap: square"/>
   </g>
   <g id="patch_5">
    <path d="M 52.282813 255.878125 
L 501.002812 255.878125 
" style="fill: none; stroke: #000000; stroke-width: 0.8; stroke-linejoin: miter; stroke-linecap: square"/>
   </g>
   <g id="patch_6">
    <path d="M 52.282813 22.318125 
L 501.002812 22.318125 
" style="fill: none; stroke: #000000; stroke-width: 0.8; stroke-linejoin: miter; stroke-linecap: square"/>
   </g>
   <g id="text_18">
    <!-- Seguimiento MRAC con tren de pulsos: theta -->
    <g transform="translate(142.548438 16.318125) scale(0.12 -0.12)">
     <defs>
      <path id="DejaVuSans-53" d="M 3425 4513 
L 3425 3897 
Q 3066 4069 2747 4153 
Q 2428 4238 2131 4238 
Q 1616 4238 1336 4038 
Q 1056 3838 1056 3469 
Q 1056 3159 1242 3001 
Q 1428 2844 1947 2747 
L 2328 2669 
Q 3034 2534 3370 2195 
Q 3706 1856 3706 1288 
Q 3706 609 3251 259 
Q 2797 -91 1919 -91 
Q 1588 -91 1214 -16 
Q 841 59 441 206 
L 441 856 
Q 825 641 1194 531 
Q 1563 422 1919 422 
Q 2459 422 2753 634 
Q 3047 847 3047 1241 
Q 3047 1584 2836 1778 
Q 2625 1972 2144 2069 
L 1759 2144 
Q 1053 2284 737 2584 
Q 422 2884 422 3419 
Q 422 4038 858 4394 
Q 1294 4750 2059 4750 
Q 2388 4750 2728 4690 
Q 3069 4631 3425 4513 
z
" transform="scale(0.015625)"/>
      <path id="DejaVuSans-75" d="M 544 1381 
L 544 3500 
L 1119 3500 
L 1119 1403 
Q 1119 906 1312 657 
Q 1506 409 1894 409 
Q 2359 409 2629 706 
Q 2900 1003 2900 1516 
L 2900 3500 
L 3475 3500 
L 3475 0 
L 2900 0 
L 2900 538 
Q 2691 219 2414 64 
Q 2138 -91 1772 -91 
Q 1169 -91 856 284 
Q 544 659 544 1381 
z
M 1991 3584 
L 1991 3584 
z
" transform="scale(0.015625)"/>
      <path id="DejaVuSans-6e" d="M 3513 2113 
L 3513 0 
L 2938 0 
L 2938 2094 
Q 2938 2591 2744 2837 
Q 2550 3084 2163 3084 
Q 1697 3084 1428 2787 
Q 1159 2491 1159 1978 
L 1159 0 
L 581 0 
L 581 3500 
L 1159 3500 
L 1159 2956 
Q 1366 3272 1645 3428 
Q 1925 3584 2291 3584 
Q 2894 3584 3203 3211 
Q 3513 2838 3513 2113 
z
" transform="scale(0.015625)"/>
      <path id="DejaVuSans-74" d="M 1172 4494 
L 1172 3500 
L 2356 3500 
L 2356 3053 
L 1172 3053 
L 1172 1153 
Q 1172 725 1289 603 
Q 1406 481 1766 481 
L 2356 481 
L 2356 0 
L 1766 0 
Q 1100 0 847 248 
Q 594 497 594 1153 
L 594 3053 
L 172 3053 
L 172 3500 
L 594 3500 
L 594 4494 
L 1172 4494 
z
" transform="scale(0.015625)"/>
      <path id="DejaVuSans-4d" d="M 628 4666 
L 1569 4666 
L 2759 1491 
L 3956 4666 
L 4897 4666 
L 4897 0 
L 4281 0 
L 4281 4097 
L 3078 897 
L 2444 897 
L 1241 4097 
L 1241 0 
L 628 0 
L 628 4666 
z
" transform="scale(0.015625)"/>
      <path id="DejaVuSans-52" d="M 2841 2188 
Q 3044 2119 3236 1894 
Q 3428 1669 3622 1275 
L 4263 0 
L 3584 0 
L 2988 1197 
Q 2756 1666 2539 1819 
Q 2322 1972 1947 1972 
L 1259 1972 
L 1259 0 
L 628 0 
L 628 4666 
L 2053 4666 
Q 2853 4666 3247 4331 
Q 3641 3997 3641 3322 
Q 3641 2881 3436 2590 
Q 3231 2300 2841 2188 
z
M 1259 4147 
L 1259 2491 
L 2053 2491 
Q 2509 2491 2742 2702 
Q 2975 2913 2975 3322 
Q 2975 3731 2742 3939 
Q 2509 4147 2053 4147 
L 1259 4147 
z
" transform="scale(0.015625)"/>
      <path id="DejaVuSans-41" d="M 2188 4044 
L 1331 1722 
L 3047 1722 
L 2188 4044 
z
M 1831 4666 
L 2547 4666 
L 4325 0 
L 3669 0 
L 3244 1197 
L 1141 1197 
L 716 0 
L 50 0 
L 1831 4666 
z
" transform="scale(0.015625)"/>
      <path id="DejaVuSans-43" d="M 4122 4306 
L 4122 3641 
Q 3803 3938 3442 4084 
Q 3081 4231 2675 4231 
Q 1875 4231 1450 3742 
Q 1025 3253 1025 2328 
Q 1025 1406 1450 917 
Q 1875 428 2675 428 
Q 3081 428 3442 575 
Q 3803 722 4122 1019 
L 4122 359 
Q 3791 134 3420 21 
Q 3050 -91 2638 -91 
Q 1578 -91 968 557 
Q 359 1206 359 2328 
Q 359 3453 968 4101 
Q 1578 4750 2638 4750 
Q 3056 4750 3426 4639 
Q 3797 4528 4122 4306 
z
" transform="scale(0.015625)"/>
      <path id="DejaVuSans-63" d="M 3122 3366 
L 3122 2828 
Q 2878 2963 2633 3030 
Q 2388 3097 2138 3097 
Q 1578 3097 1268 2742 
Q 959 2388 959 1747 
Q 959 1106 1268 751 
Q 1578 397 2138 397 
Q 2388 397 2633 464 
Q 2878 531 3122 666 
L 3122 134 
Q 2881 22 2623 -34 
Q 2366 -91 2075 -91 
Q 1284 -91 818 406 
Q 353 903 353 1747 
Q 353 2603 823 3093 
Q 1294 3584 2113 3584 
Q 2378 3584 2631 3529 
Q 2884 3475 3122 3366 
z
" transform="scale(0.015625)"/>
      <path id="DejaVuSans-72" d="M 2631 2963 
Q 2534 3019 2420 3045 
Q 2306 3072 2169 3072 
Q 1681 3072 1420 2755 
Q 1159 2438 1159 1844 
L 1159 0 
L 581 0 
L 581 3500 
L 1159 3500 
L 1159 2956 
Q 1341 3275 1631 3429 
Q 1922 3584 2338 3584 
Q 2397 3584 2469 3576 
Q 2541 3569 2628 3553 
L 2631 2963 
z
" transform="scale(0.015625)"/>
      <path id="DejaVuSans-6c" d="M 603 4863 
L 1178 4863 
L 1178 0 
L 603 0 
L 603 4863 
z
" transform="scale(0.015625)"/>
      <path id="DejaVuSans-3a" d="M 750 794 
L 1409 794 
L 1409 0 
L 750 0 
L 750 794 
z
M 750 3309 
L 1409 3309 
L 1409 2516 
L 750 2516 
L 750 3309 
z
" transform="scale(0.015625)"/>
      <path id="DejaVuSans-68" d="M 3513 2113 
L 3513 0 
L 2938 0 
L 2938 2094 
Q 2938 2591 2744 2837 
Q 2550 3084 2163 3084 
Q 1697 3084 1428 2787 
Q 1159 2491 1159 1978 
L 1159 0 
L 581 0 
L 581 4863 
L 1159 4863 
L 1159 2956 
Q 1366 3272 1645 3428 
Q 1925 3584 2291 3584 
Q 2894 3584 3203 3211 
Q 3513 2838 3513 2113 
z
" transform="scale(0.015625)"/>
      <path id="DejaVuSans-61" d="M 2194 1759 
Q 1497 1759 1228 1600 
Q 959 1441 959 1056 
Q 959 750 1161 570 
Q 1363 391 1709 391 
Q 2188 391 2477 730 
Q 2766 1069 2766 1631 
L 2766 1759 
L 2194 1759 
z
M 3341 1997 
L 3341 0 
L 2766 0 
L 2766 531 
Q 2569 213 2275 61 
Q 1981 -91 1556 -91 
Q 1019 -91 701 211 
Q 384 513 384 1019 
Q 384 1609 779 1909 
Q 1175 2209 1959 2209 
L 2766 2209 
L 2766 2266 
Q 2766 2663 2505 2880 
Q 2244 3097 1772 3097 
Q 1472 3097 1187 3025 
Q 903 2953 641 2809 
L 641 3341 
Q 956 3463 1253 3523 
Q 1550 3584 1831 3584 
Q 2591 3584 2966 3190 
Q 3341 2797 3341 1997 
z
" transform="scale(0.015625)"/>
     </defs>
     <use xlink:href="#DejaVuSans-53"/>
     <use xlink:href="#DejaVuSans-65" transform="translate(63.476562 0)"/>
     <use xlink:href="#DejaVuSans-67" transform="translate(125 0)"/>
     <use xlink:href="#DejaVuSans-75" transform="translate(188.476562 0)"/>
     <use xlink:href="#DejaVuSans-69" transform="translate(251.855469 0)"/>
     <use xlink:href="#DejaVuSans-6d" transform="translate(279.638672 0)"/>
     <use xlink:href="#DejaVuSans-69" transform="translate(377.050781 0)"/>
     <use xlink:href="#DejaVuSans-65" transform="translate(404.833984 0)"/>
     <use xlink:href="#DejaVuSans-6e" transform="translate(466.357422 0)"/>
     <use xlink:href="#DejaVuSans-74" transform="translate(529.736328 0)"/>
     <use xlink:href="#DejaVuSans-6f" transform="translate(568.945312 0)"/>
     <use xlink:href="#DejaVuSans-20" transform="translate(630.126953 0)"/>
     <use xlink:href="#DejaVuSans-4d" transform="translate(661.914062 0)"/>
     <use xlink:href="#DejaVuSans-52" transform="translate(748.193359 0)"/>
     <use xlink:href="#DejaVuSans-41" transform="translate(813.675781 0)"/>
     <use xlink:href="#DejaVuSans-43" transform="translate(880.333984 0)"/>
     <use xlink:href="#DejaVuSans-20" transform="translate(950.158203 0)"/>
     <use xlink:href="#DejaVuSans-63" transform="translate(981.945312 0)"/>
     <use xlink:href="#DejaVuSans-6f" transform="translate(1036.925781 0)"/>
     <use xlink:href="#DejaVuSans-6e" transform="translate(1098.107422 0)"/>
     <use xlink:href="#DejaVuSans-20" transform="translate(1161.486328 0)"/>
     <use xlink:href="#DejaVuSans-74" transform="translate(1193.273438 0)"/>
     <use xlink:href="#DejaVuSans-72" transform="translate(1232.482422 0)"/>
     <use xlink:href="#DejaVuSans-65" transform="translate(1271.345703 0)"/>
     <use xlink:href="#DejaVuSans-6e" transform="translate(1332.869141 0)"/>
     <use xlink:href="#DejaVuSans-20" transform="translate(1396.248047 0)"/>
     <use xlink:href="#DejaVuSans-64" transform="translate(1428.035156 0)"/>
     <use xlink:href="#DejaVuSans-65" transform="translate(1491.511719 0)"/>
     <use xlink:href="#DejaVuSans-20" transform="translate(1553.035156 0)"/>
     <use xlink:href="#DejaVuSans-70" transform="translate(1584.822266 0)"/>
     <use xlink:href="#DejaVuSans-75" transform="translate(1648.298828 0)"/>
     <use xlink:href="#DejaVuSans-6c" transform="translate(1711.677734 0)"/>
     <use xlink:href="#DejaVuSans-73" transform="translate(1739.460938 0)"/>
     <use xlink:href="#DejaVuSans-6f" transform="translate(1791.560547 0)"/>
     <use xlink:href="#DejaVuSans-73" transform="translate(1852.742188 0)"/>
     <use xlink:href="#DejaVuSans-3a" transform="translate(1904.841797 0)"/>
     <use xlink:href="#DejaVuSans-20" transform="translate(1938.533203 0)"/>
     <use xlink:href="#DejaVuSans-74" transform="translate(1970.320312 0)"/>
     <use xlink:href="#DejaVuSans-68" transform="translate(2009.529297 0)"/>
     <use xlink:href="#DejaVuSans-65" transform="translate(2072.908203 0)"/>
     <use xlink:href="#DejaVuSans-74" transform="translate(2134.431641 0)"/>
     <use xlink:href="#DejaVuSans-61" transform="translate(2173.640625 0)"/>
    </g>
   </g>
   <g id="legend_1">
    <g id="patch_7">
     <path d="M 356.505937 59.674375 
L 494.002812 59.674375 
Q 496.002812 59.674375 496.002812 57.674375 
L 496.002812 29.318125 
Q 496.002812 27.318125 494.002812 27.318125 
L 356.505937 27.318125 
Q 354.505937 27.318125 354.505937 29.318125 
L 354.505937 57.674375 
Q 354.505937 59.674375 356.505937 59.674375 
z
" style="fill: #ffffff; opacity: 0.8; stroke: #cccccc; stroke-linejoin: miter"/>
    </g>
    <g id="line2d_33">
     <path d="M 358.505937 35.416562 
L 368.505937 35.416562 
L 378.505937 35.416562 
" style="fill: none; stroke-dasharray: 5.55,2.4; stroke-dashoffset: 0; stroke: #1f77b4; stroke-width: 1.5"/>
    </g>
    <g id="text_19">
     <!-- Modelo de referencia -->
     <g transform="translate(386.505937 38.916562) scale(0.1 -0.1)">
      <defs>
       <path id="DejaVuSans-66" d="M 2375 4863 
L 2375 4384 
L 1825 4384 
Q 1516 4384 1395 4259 
Q 1275 4134 1275 3809 
L 1275 3500 
L 2222 3500 
L 2222 3053 
L 1275 3053 
L 1275 0 
L 697 0 
L 697 3053 
L 147 3053 
L 147 3500 
L 697 3500 
L 697 3744 
Q 697 4328 969 4595 
Q 1241 4863 1831 4863 
L 2375 4863 
z
" transform="scale(0.015625)"/>
      </defs>
      <use xlink:href="#DejaVuSans-4d"/>
      <use xlink:href="#DejaVuSans-6f" transform="translate(86.279297 0)"/>
      <use xlink:href="#DejaVuSans-64" transform="translate(147.460938 0)"/>
      <use xlink:href="#DejaVuSans-65" transform="translate(210.9375 0)"/>
      <use xlink:href="#DejaVuSans-6c" transform="translate(272.460938 0)"/>
      <use xlink:href="#DejaVuSans-6f" transform="translate(300.244141 0)"/>
      <use xlink:href="#DejaVuSans-20" transform="translate(361.425781 0)"/>
      <use xlink:href="#DejaVuSans-64" transform="translate(393.212891 0)"/>
      <use xlink:href="#DejaVuSans-65" transform="translate(456.689453 0)"/>
      <use xlink:href="#DejaVuSans-20" transform="translate(518.212891 0)"/>
      <use xlink:href="#DejaVuSans-72" transform="translate(550 0)"/>
      <use xlink:href="#DejaVuSans-65" transform="translate(588.863281 0)"/>
      <use xlink:href="#DejaVuSans-66" transform="translate(650.386719 0)"/>
      <use xlink:href="#DejaVuSans-65" transform="translate(685.591797 0)"/>
      <use xlink:href="#DejaVuSans-72" transform="translate(747.115234 0)"/>
      <use xlink:href="#DejaVuSans-65" transform="translate(785.978516 0)"/>
      <use xlink:href="#DejaVuSans-6e" transform="translate(847.501953 0)"/>
      <use xlink:href="#DejaVuSans-63" transform="translate(910.880859 0)"/>
      <use xlink:href="#DejaVuSans-69" transform="translate(965.861328 0)"/>
      <use xlink:href="#DejaVuSans-61" transform="translate(993.644531 0)"/>
     </g>
    </g>
    <g id="line2d_34">
     <path d="M 358.505937 50.094687 
L 368.505937 50.094687 
L 378.505937 50.094687 
" style="fill: none; stroke: #ff7f0e; stroke-width: 1.2; stroke-linecap: square"/>
    </g>
    <g id="text_20">
     <!-- Planta -->
     <g transform="translate(386.505937 53.594687) scale(0.1 -0.1)">
      <defs>
       <path id="DejaVuSans-50" d="M 1259 4147 
L 1259 2394 
L 2053 2394 
Q 2494 2394 2734 2622 
Q 2975 2850 2975 3272 
Q 2975 3691 2734 3919 
Q 2494 4147 2053 4147 
L 1259 4147 
z
M 628 4666 
L 2053 4666 
Q 2838 4666 3239 4311 
Q 3641 3956 3641 3272 
Q 3641 2581 3239 2228 
Q 2838 1875 2053 1875 
L 1259 1875 
L 1259 0 
L 628 0 
L 628 4666 
z
" transform="scale(0.015625)"/>
      </defs>
      <use xlink:href="#DejaVuSans-50"/>
      <use xlink:href="#DejaVuSans-6c" transform="translate(60.302734 0)"/>
      <use xlink:href="#DejaVuSans-61" transform="translate(88.085938 0)"/>
      <use xlink:href="#DejaVuSans-6e" transform="translate(149.365234 0)"/>
      <use xlink:href="#DejaVuSans-74" transform="translate(212.744141 0)"/>
      <use xlink:href="#DejaVuSans-61" transform="translate(251.953125 0)"/>
     </g>
    </g>
   </g>
  </g>
 </g>
 <defs>
  <clipPath id="p496da7ce9d">
   <rect x="52.282813" y="22.318125" width="448.72" height="233.56"/>
  </clipPath>
 </defs>
</svg>
