<?xml version="1.0" encoding="utf-8" standalone="no"?>
<!DOCTYPE svg PUBLIC "-//W3C//DTD SVG 1.1//EN"
  "http://www.w3.org/Graphics/SVG/1.1/DTD/svg11.dtd">
<svg xmlns:xlink="http://www.w3.org/1999/xlink" width="510.582937pt" height="293.434375pt" viewBox="0 0 510.582937 293.434375" xmlns="http://www.w3.org/2000/svg" version="1.1">
 <metadata>
  <rdf:RDF xmlns:dc="http://purl.org/dc/elements/1.1/" xmlns:cc="http://creativecommons.org/ns#" xmlns:rdf="http://www.w3.org/1999/02/22-rdf-syntax-ns#">
   <cc:Work>
    <dc:type rdf:resource="http://purl.org/dc/dcmitype/StillImage"/>
    <dc:date>2026-07-18T15:47:04.822642</dc:date>
    <dc:format>image/svg+xml</dc:format>
    <dc:creator>
     <cc:Agent>
      <dc:title>Matplotlib v3.10.8, https://matplotlib.org/</dc:title>
     </cc:Agent>
    </dc:creator>
   </cc:Work>
  </rdf:RDF>
 </metadata>
 <defs>
  <style type="text/css">*{stroke-linejoin: round; stroke-linecap: butt}</style>
 </defs>
 <g id="figure_1">
  <g id="patch_1">
   <path d="M 0 293.434375 
L 510.582937 293.434375 
L 510.582937 0 
L 0 0 
z
" style="fill: #ffffff"/>
  </g>
  <g id="axes_1">
   <g id="patch_2">
    <path d="M 52.160938 255.878125 
L 503.382937 255.878125 
L 503.382937 22.318125 
L 52.160938 22.318125 
z
" style="fill: #ffffff"/>
   </g>
   <g id="matplotlib.axis_1">
    <g id="xtick_1">
     <g id="line2d_1">
      <path d="M 72.671028 255.878125 
L 72.671028 22.318125 
" clip-path="url(#p91c7d339b0)" style="fill: none; stroke: #b0b0b0; stroke-width: 0.8; stroke-linecap: square"/>
     </g>
     <g id="line2d_2">
      <defs>
       <path id="m020298ab95" d="M 0 0 
L 0 3.5 
" style="stroke: #000000; stroke-width: 0.8"/>
      </defs>
      <g>
       <use xlink:href="#m020298ab95" x="72.671028" y="255.878125" style="stroke: #000000; stroke-width: 0.8"/>
      </g>
     </g>
     <g id="text_1">
      <!-- 0 -->
      <g transform="translate(69.489778 270.476562) scale(0.1 -0.1)">
       <defs>
        <path id="DejaVuSans-30" d="M 2034 4250 
Q 1547 4250 1301 3770 
Q 1056 3291 1056 2328 
Q 1056 1369 1301 889 
Q 1547 409 2034 409 
Q 2525 409 2770 889 
Q 3016 1369 3016 2328 
Q 3016 3291 2770 3770 
Q 2525 4250 2034 4250 
z
M 2034 4750 
Q 2819 4750 3233 4129 
Q 3647 3509 3647 2328 
Q 3647 1150 3233 529 
Q 2819 -91 2034 -91 
Q 1250 -91 836 529 
Q 422 1150 422 2328 
Q 422 3509 836 4129 
Q 1250 4750 2034 4750 
z
" transform="scale(0.015625)"/>
       </defs>
       <use xlink:href="#DejaVuSans-30"/>
      </g>
     </g>
    </g>
    <g id="xtick_2">
     <g id="line2d_3">
      <path d="M 141.037998 255.878125 
L 141.037998 22.318125 
" clip-path="url(#p91c7d339b0)" style="fill: none; stroke: #b0b0b0; stroke-width: 0.8; stroke-linecap: square"/>
     </g>
     <g id="line2d_4">
      <g>
       <use xlink:href="#m020298ab95" x="141.037998" y="255.878125" style="stroke: #000000; stroke-width: 0.8"/>
      </g>
     </g>
     <g id="text_2">
      <!-- 10 -->
      <g transform="translate(134.675498 270.476562) scale(0.1 -0.1)">
       <defs>
        <path id="DejaVuSans-31" d="M 794 531 
L 1825 531 
L 1825 4091 
L 703 3866 
L 703 4441 
L 1819 4666 
L 2450 4666 
L 2450 531 
L 3481 531 
L 3481 0 
L 794 0 
L 794 531 
z
" transform="scale(0.015625)"/>
       </defs>
       <use xlink:href="#DejaVuSans-31"/>
       <use xlink:href="#DejaVuSans-30" transform="translate(63.623047 0)"/>
      </g>
     </g>
    </g>
    <g id="xtick_3">
     <g id="line2d_5">
      <path d="M 209.404968 255.878125 
L 209.404968 22.318125 
" clip-path="url(#p91c7d339b0)" style="fill: none; stroke: #b0b0b0; stroke-width: 0.8; stroke-linecap: square"/>
     </g>
     <g id="line2d_6">
      <g>
       <use xlink:href="#m020298ab95" x="209.404968" y="255.878125" style="stroke: #000000; stroke-width: 0.8"/>
      </g>
     </g>
     <g id="text_3">
      <!-- 20 -->
      <g transform="translate(203.042468 270.476562) scale(0.1 -0.1)">
       <defs>
        <path id="DejaVuSans-32" d="M 1228 531 
L 3431 531 
L 3431 0 
L 469 0 
L 469 531 
Q 828 903 1448 1529 
Q 2069 2156 2228 2338 
Q 2531 2678 2651 2914 
Q 2772 3150 2772 3378 
Q 2772 3750 2511 3984 
Q 2250 4219 1831 4219 
Q 1534 4219 1204 4116 
Q 875 4013 500 3803 
L 500 4441 
Q 881 4594 1212 4672 
Q 1544 4750 1819 4750 
Q 2544 4750 2975 4387 
Q 3406 4025 3406 3419 
Q 3406 3131 3298 2873 
Q 3191 2616 2906 2266 
Q 2828 2175 2409 1742 
Q 1991 1309 1228 531 
z
" transform="scale(0.015625)"/>
       </defs>
       <use xlink:href="#DejaVuSans-32"/>
       <use xlink:href="#DejaVuSans-30" transform="translate(63.623047 0)"/>
      </g>
     </g>
    </g>
    <g id="xtick_4">
     <g id="line2d_7">
      <path d="M 277.771937 255.878125 
L 277.771937 22.318125 
" clip-path="url(#p91c7d339b0)" style="fill: none; stroke: #b0b0b0; stroke-width: 0.8; stroke-linecap: square"/>
     </g>
     <g id="line2d_8">
      <g>
       <use xlink:href="#m020298ab95" x="277.771937" y="255.878125" style="stroke: #000000; stroke-width: 0.8"/>
      </g>
     </g>
     <g id="text_4">
      <!-- 30 -->
      <g transform="translate(271.409437 270.476562) scale(0.1 -0.1)">
       <defs>
        <path id="DejaVuSans-33" d="M 2597 2516 
Q 3050 2419 3304 2112 
Q 3559 1806 3559 1356 
Q 3559 666 3084 287 
Q 2609 -91 1734 -91 
Q 1441 -91 1130 -33 
Q 819 25 488 141 
L 488 750 
Q 750 597 1062 519 
Q 1375 441 1716 441 
Q 2309 441 2620 675 
Q 2931 909 2931 1356 
Q 2931 1769 2642 2001 
Q 2353 2234 1838 2234 
L 1294 2234 
L 1294 2753 
L 1863 2753 
Q 2328 2753 2575 2939 
Q 2822 3125 2822 3475 
Q 2822 3834 2567 4026 
Q 2313 4219 1838 4219 
Q 1578 4219 1281 4162 
Q 984 4106 628 3988 
L 628 4550 
Q 988 4650 1302 4700 
Q 1616 4750 1894 4750 
Q 2613 4750 3031 4423 
Q 3450 4097 3450 3541 
Q 3450 3153 3228 2886 
Q 3006 2619 2597 2516 
z
" transform="scale(0.015625)"/>
       </defs>
       <use xlink:href="#DejaVuSans-33"/>
       <use xlink:href="#DejaVuSans-30" transform="translate(63.623047 0)"/>
      </g>
     </g>
    </g>
    <g id="xtick_5">
     <g id="line2d_9">
      <path d="M 346.138907 255.878125 
L 346.138907 22.318125 
" clip-path="url(#p91c7d339b0)" style="fill: none; stroke: #b0b0b0; stroke-width: 0.8; stroke-linecap: square"/>
     </g>
     <g id="line2d_10">
      <g>
       <use xlink:href="#m020298ab95" x="346.138907" y="255.878125" style="stroke: #000000; stroke-width: 0.8"/>
      </g>
     </g>
     <g id="text_5">
      <!-- 40 -->
      <g transform="translate(339.776407 270.476562) scale(0.1 -0.1)">
       <defs>
        <path id="DejaVuSans-34" d="M 2419 4116 
L 825 1625 
L 2419 1625 
L 2419 4116 
z
M 2253 4666 
L 3047 4666 
L 3047 1625 
L 3713 1625 
L 3713 1100 
L 3047 1100 
L 3047 0 
L 2419 0 
L 2419 1100 
L 313 1100 
L 313 1709 
L 2253 4666 
z
" transform="scale(0.015625)"/>
       </defs>
       <use xlink:href="#DejaVuSans-34"/>
       <use xlink:href="#DejaVuSans-30" transform="translate(63.623047 0)"/>
      </g>
     </g>
    </g>
    <g id="xtick_6">
     <g id="line2d_11">
      <path d="M 414.505877 255.878125 
L 414.505877 22.318125 
" clip-path="url(#p91c7d339b0)" style="fill: none; stroke: #b0b0b0; stroke-width: 0.8; stroke-linecap: square"/>
     </g>
     <g id="line2d_12">
      <g>
       <use xlink:href="#m020298ab95" x="414.505877" y="255.878125" style="stroke: #000000; stroke-width: 0.8"/>
      </g>
     </g>
     <g id="text_6">
      <!-- 50 -->
      <g transform="translate(408.143377 270.476562) scale(0.1 -0.1)">
       <defs>
        <path id="DejaVuSans-35" d="M 691 4666 
L 3169 4666 
L 3169 4134 
L 1269 4134 
L 1269 2991 
Q 1406 3038 1543 3061 
Q 1681 3084 1819 3084 
Q 2600 3084 3056 2656 
Q 3513 2228 3513 1497 
Q 3513 744 3044 326 
Q 2575 -91 1722 -91 
Q 1428 -91 1123 -41 
Q 819 9 494 109 
L 494 744 
Q 775 591 1075 516 
Q 1375 441 1709 441 
Q 2250 441 2565 725 
Q 2881 1009 2881 1497 
Q 2881 1984 2565 2268 
Q 2250 2553 1709 2553 
Q 1456 2553 1204 2497 
Q 953 2441 691 2322 
L 691 4666 
z
" transform="scale(0.015625)"/>
       </defs>
       <use xlink:href="#DejaVuSans-35"/>
       <use xlink:href="#DejaVuSans-30" transform="translate(63.623047 0)"/>
      </g>
     </g>
    </g>
    <g id="xtick_7">
     <g id="line2d_13">
      <path d="M 482.872847 255.878125 
L 482.872847 22.318125 
" clip-path="url(#p91c7d339b0)" style="fill: none; stroke: #b0b0b0; stroke-width: 0.8; stroke-linecap: square"/>
     </g>
     <g id="line2d_14">
      <g>
       <use xlink:href="#m020298ab95" x="482.872847" y="255.878125" style="stroke: #000000; stroke-width: 0.8"/>
      </g>
     </g>
     <g id="text_7">
      <!-- 60 -->
      <g transform="translate(476.510347 270.476562) scale(0.1 -0.1)">
       <defs>
        <path id="DejaVuSans-36" d="M 2113 2584 
Q 1688 2584 1439 2293 
Q 1191 2003 1191 1497 
Q 1191 994 1439 701 
Q 1688 409 2113 409 
Q 2538 409 2786 701 
Q 3034 994 3034 1497 
Q 3034 2003 2786 2293 
Q 2538 2584 2113 2584 
z
M 3366 4563 
L 3366 3988 
Q 3128 4100 2886 4159 
Q 2644 4219 2406 4219 
Q 1781 4219 1451 3797 
Q 1122 3375 1075 2522 
Q 1259 2794 1537 2939 
Q 1816 3084 2150 3084 
Q 2853 3084 3261 2657 
Q 3669 2231 3669 1497 
Q 3669 778 3244 343 
Q 2819 -91 2113 -91 
Q 1303 -91 875 529 
Q 447 1150 447 2328 
Q 447 3434 972 4092 
Q 1497 4750 2381 4750 
Q 2619 4750 2861 4703 
Q 3103 4656 3366 4563 
z
" transform="scale(0.015625)"/>
       </defs>
       <use xlink:href="#DejaVuSans-36"/>
       <use xlink:href="#DejaVuSans-30" transform="translate(63.623047 0)"/>
      </g>
     </g>
    </g>
    <g id="text_8">
     <!-- Tiempo [s] -->
     <g transform="translate(251.209437 284.154687) scale(0.1 -0.1)">
      <defs>
       <path id="DejaVuSans-54" d="M -19 4666 
L 3928 4666 
L 3928 4134 
L 2272 4134 
L 2272 0 
L 1638 0 
L 1638 4134 
L -19 4134 
L -19 4666 
z
" transform="scale(0.015625)"/>
       <path id="DejaVuSans-69" d="M 603 3500 
L 1178 3500 
L 1178 0 
L 603 0 
L 603 3500 
z
M 603 4863 
L 1178 4863 
L 1178 4134 
L 603 4134 
L 603 4863 
z
" transform="scale(0.015625)"/>
       <path id="DejaVuSans-65" d="M 3597 1894 
L 3597 1613 
L 953 1613 
Q 991 1019 1311 708 
Q 1631 397 2203 397 
Q 2534 397 2845 478 
Q 3156 559 3463 722 
L 3463 178 
Q 3153 47 2828 -22 
Q 2503 -91 2169 -91 
Q 1331 -91 842 396 
Q 353 884 353 1716 
Q 353 2575 817 3079 
Q 1281 3584 2069 3584 
Q 2775 3584 3186 3129 
Q 3597 2675 3597 1894 
z
M 3022 2063 
Q 3016 2534 2758 2815 
Q 2500 3097 2075 3097 
Q 1594 3097 1305 2825 
Q 1016 2553 972 2059 
L 3022 2063 
z
" transform="scale(0.015625)"/>
       <path id="DejaVuSans-6d" d="M 3328 2828 
Q 3544 3216 3844 3400 
Q 4144 3584 4550 3584 
Q 5097 3584 5394 3201 
Q 5691 2819 5691 2113 
L 5691 0 
L 5113 0 
L 5113 2094 
Q 5113 2597 4934 2840 
Q 4756 3084 4391 3084 
Q 3944 3084 3684 2787 
Q 3425 2491 3425 1978 
L 3425 0 
L 2847 0 
L 2847 2094 
Q 2847 2600 2669 2842 
Q 2491 3084 2119 3084 
Q 1678 3084 1418 2786 
Q 1159 2488 1159 1978 
L 1159 0 
L 581 0 
L 581 3500 
L 1159 3500 
L 1159 2956 
Q 1356 3278 1631 3431 
Q 1906 3584 2284 3584 
Q 2666 3584 2933 3390 
Q 3200 3197 3328 2828 
z
" transform="scale(0.015625)"/>
       <path id="DejaVuSans-70" d="M 1159 525 
L 1159 -1331 
L 581 -1331 
L 581 3500 
L 1159 3500 
L 1159 2969 
Q 1341 3281 1617 3432 
Q 1894 3584 2278 3584 
Q 2916 3584 3314 3078 
Q 3713 2572 3713 1747 
Q 3713 922 3314 415 
Q 2916 -91 2278 -91 
Q 1894 -91 1617 61 
Q 1341 213 1159 525 
z
M 3116 1747 
Q 3116 2381 2855 2742 
Q 2594 3103 2138 3103 
Q 1681 3103 1420 2742 
Q 1159 2381 1159 1747 
Q 1159 1113 1420 752 
Q 1681 391 2138 391 
Q 2594 391 2855 752 
Q 3116 1113 3116 1747 
z
" transform="scale(0.015625)"/>
       <path id="DejaVuSans-6f" d="M 1959 3097 
Q 1497 3097 1228 2736 
Q 959 2375 959 1747 
Q 959 1119 1226 758 
Q 1494 397 1959 397 
Q 2419 397 2687 759 
Q 2956 1122 2956 1747 
Q 2956 2369 2687 2733 
Q 2419 3097 1959 3097 
z
M 1959 3584 
Q 2709 3584 3137 3096 
Q 3566 2609 3566 1747 
Q 3566 888 3137 398 
Q 2709 -91 1959 -91 
Q 1206 -91 779 398 
Q 353 888 353 1747 
Q 353 2609 779 3096 
Q 1206 3584 1959 3584 
z
" transform="scale(0.015625)"/>
       <path id="DejaVuSans-20" transform="scale(0.015625)"/>
       <path id="DejaVuSans-5b" d="M 550 4863 
L 1875 4863 
L 1875 4416 
L 1125 4416 
L 1125 -397 
L 1875 -397 
L 1875 -844 
L 550 -844 
L 550 4863 
z
" transform="scale(0.015625)"/>
       <path id="DejaVuSans-73" d="M 2834 3397 
L 2834 2853 
Q 2591 2978 2328 3040 
Q 2066 3103 1784 3103 
Q 1356 3103 1142 2972 
Q 928 2841 928 2578 
Q 928 2378 1081 2264 
Q 1234 2150 1697 2047 
L 1894 2003 
Q 2506 1872 2764 1633 
Q 3022 1394 3022 966 
Q 3022 478 2636 193 
Q 2250 -91 1575 -91 
Q 1294 -91 989 -36 
Q 684 19 347 128 
L 347 722 
Q 666 556 975 473 
Q 1284 391 1588 391 
Q 1994 391 2212 530 
Q 2431 669 2431 922 
Q 2431 1156 2273 1281 
Q 2116 1406 1581 1522 
L 1381 1569 
Q 847 1681 609 1914 
Q 372 2147 372 2553 
Q 372 3047 722 3315 
Q 1072 3584 1716 3584 
Q 2034 3584 2315 3537 
Q 2597 3491 2834 3397 
z
" transform="scale(0.015625)"/>
       <path id="DejaVuSans-5d" d="M 1947 4863 
L 1947 -844 
L 622 -844 
L 622 -397 
L 1369 -397 
L 1369 4416 
L 622 4416 
L 622 4863 
L 1947 4863 
z
" transform="scale(0.015625)"/>
      </defs>
      <use xlink:href="#DejaVuSans-54"/>
      <use xlink:href="#DejaVuSans-69" transform="translate(57.958984 0)"/>
      <use xlink:href="#DejaVuSans-65" transform="translate(85.742188 0)"/>
      <use xlink:href="#DejaVuSans-6d" transform="translate(147.265625 0)"/>
      <use xlink:href="#DejaVuSans-70" transform="translate(244.677734 0)"/>
      <use xlink:href="#DejaVuSans-6f" transform="translate(308.154297 0)"/>
      <use xlink:href="#DejaVuSans-20" transform="translate(369.335938 0)"/>
      <use xlink:href="#DejaVuSans-5b" transform="translate(401.123047 0)"/>
      <use xlink:href="#DejaVuSans-73" transform="translate(440.136719 0)"/>
      <use xlink:href="#DejaVuSans-5d" transform="translate(492.236328 0)"/>
     </g>
    </g>
   </g>
   <g id="matplotlib.axis_2">
    <g id="ytick_1">
     <g id="line2d_15">
      <path d="M 52.160938 232.525364 
L 503.382937 232.525364 
" clip-path="url(#p91c7d339b0)" style="fill: none; stroke: #b0b0b0; stroke-width: 0.8; stroke-linecap: square"/>
     </g>
     <g id="line2d_16">
      <defs>
       <path id="m06288f114d" d="M 0 0 
L -3.5 0 
" style="stroke: #000000; stroke-width: 0.8"/>
      </defs>
      <g>
       <use xlink:href="#m06288f114d" x="52.160938" y="232.525364" style="stroke: #000000; stroke-width: 0.8"/>
      </g>
     </g>
     <g id="text_9">
      <!-- −2.0 -->
      <g transform="translate(20.878125 236.324583) scale(0.1 -0.1)">
       <defs>
        <path id="DejaVuSans-2212" d="M 678 2272 
L 4684 2272 
L 4684 1741 
L 678 1741 
L 678 2272 
z
" transform="scale(0.015625)"/>
        <path id="DejaVuSans-2e" d="M 684 794 
L 1344 794 
L 1344 0 
L 684 0 
L 684 794 
z
" transform="scale(0.015625)"/>
       </defs>
       <use xlink:href="#DejaVuSans-2212"/>
       <use xlink:href="#DejaVuSans-32" transform="translate(83.789062 0)"/>
       <use xlink:href="#DejaVuSans-2e" transform="translate(147.412109 0)"/>
       <use xlink:href="#DejaVuSans-30" transform="translate(179.199219 0)"/>
      </g>
     </g>
    </g>
    <g id="ytick_2">
     <g id="line2d_17">
      <path d="M 52.160938 194.388821 
L 503.382937 194.388821 
" clip-path="url(#p91c7d339b0)" style="fill: none; stroke: #b0b0b0; stroke-width: 0.8; stroke-linecap: square"/>
     </g>
     <g id="line2d_18">
      <g>
       <use xlink:href="#m06288f114d" x="52.160938" y="194.388821" style="stroke: #000000; stroke-width: 0.8"/>
      </g>
     </g>
     <g id="text_10">
      <!-- −1.5 -->
      <g transform="translate(20.878125 198.18804) scale(0.1 -0.1)">
       <use xlink:href="#DejaVuSans-2212"/>
       <use xlink:href="#DejaVuSans-31" transform="translate(83.789062 0)"/>
       <use xlink:href="#DejaVuSans-2e" transform="translate(147.412109 0)"/>
       <use xlink:href="#DejaVuSans-35" transform="translate(179.199219 0)"/>
      </g>
     </g>
    </g>
    <g id="ytick_3">
     <g id="line2d_19">
      <path d="M 52.160938 156.252278 
L 503.382937 156.252278 
" clip-path="url(#p91c7d339b0)" style="fill: none; stroke: #b0b0b0; stroke-width: 0.8; stroke-linecap: square"/>
     </g>
     <g id="line2d_20">
      <g>
       <use xlink:href="#m06288f114d" x="52.160938" y="156.252278" style="stroke: #000000; stroke-width: 0.8"/>
      </g>
     </g>
     <g id="text_11">
      <!-- −1.0 -->
      <g transform="translate(20.878125 160.051497) scale(0.1 -0.1)">
       <use xlink:href="#DejaVuSans-2212"/>
       <use xlink:href="#DejaVuSans-31" transform="translate(83.789062 0)"/>
       <use xlink:href="#DejaVuSans-2e" transform="translate(147.412109 0)"/>
       <use xlink:href="#DejaVuSans-30" transform="translate(179.199219 0)"/>
      </g>
     </g>
    </g>
    <g id="ytick_4">
     <g id="line2d_21">
      <path d="M 52.160938 118.115735 
L 503.382937 118.115735 
" clip-path="url(#p91c7d339b0)" style="fill: none; stroke: #b0b0b0; stroke-width: 0.8; stroke-linecap: square"/>
     </g>
     <g id="line2d_22">
      <g>
       <use xlink:href="#m06288f114d" x="52.160938" y="118.115735" style="stroke: #000000; stroke-width: 0.8"/>
      </g>
     </g>
     <g id="text_12">
      <!-- −0.5 -->
      <g transform="translate(20.878125 121.914954) scale(0.1 -0.1)">
       <use xlink:href="#DejaVuSans-2212"/>
       <use xlink:href="#DejaVuSans-30" transform="translate(83.789062 0)"/>
       <use xlink:href="#DejaVuSans-2e" transform="translate(147.412109 0)"/>
       <use xlink:href="#DejaVuSans-35" transform="translate(179.199219 0)"/>
      </g>
     </g>
    </g>
    <g id="ytick_5">
     <g id="line2d_23">
      <path d="M 52.160938 79.979192 
L 503.382937 79.979192 
" clip-path="url(#p91c7d339b0)" style="fill: none; stroke: #b0b0b0; stroke-width: 0.8; stroke-linecap: square"/>
     </g>
     <g id="line2d_24">
      <g>
       <use xlink:href="#m06288f114d" x="52.160938" y="79.979192" style="stroke: #000000; stroke-width: 0.8"/>
      </g>
     </g>
     <g id="text_13">
      <!-- 0.0 -->
      <g transform="translate(29.257812 83.778411) scale(0.1 -0.1)">
       <use xlink:href="#DejaVuSans-30"/>
       <use xlink:href="#DejaVuSans-2e" transform="translate(63.623047 0)"/>
       <use xlink:href="#DejaVuSans-30" transform="translate(95.410156 0)"/>
      </g>
     </g>
    </g>
    <g id="ytick_6">
     <g id="line2d_25">
      <path d="M 52.160938 41.842649 
L 503.382937 41.842649 
" clip-path="url(#p91c7d339b0)" style="fill: none; stroke: #b0b0b0; stroke-width: 0.8; stroke-linecap: square"/>
     </g>
     <g id="line2d_26">
      <g>
       <use xlink:href="#m06288f114d" x="52.160938" y="41.842649" style="stroke: #000000; stroke-width: 0.8"/>
      </g>
     </g>
     <g id="text_14">
      <!-- 0.5 -->
      <g transform="translate(29.257812 45.641867) scale(0.1 -0.1)">
       <use xlink:href="#DejaVuSans-30"/>
       <use xlink:href="#DejaVuSans-2e" transform="translate(63.623047 0)"/>
       <use xlink:href="#DejaVuSans-35" transform="translate(95.410156 0)"/>
      </g>
     </g>
    </g>
    <g id="text_15">
     <!-- $e_{ux}$ -->
     <g transform="translate(14.798438 146.648125) rotate(-90) scale(0.1 -0.1)">
      <defs>
       <path id="DejaVuSans-Oblique-65" d="M 3078 2063 
Q 3088 2113 3092 2166 
Q 3097 2219 3097 2272 
Q 3097 2653 2873 2875 
Q 2650 3097 2266 3097 
Q 1838 3097 1509 2826 
Q 1181 2556 1013 2059 
L 3078 2063 
z
M 3578 1613 
L 903 1613 
Q 884 1494 878 1425 
Q 872 1356 872 1306 
Q 872 872 1139 634 
Q 1406 397 1894 397 
Q 2269 397 2603 481 
Q 2938 566 3225 728 
L 3116 159 
Q 2806 34 2476 -28 
Q 2147 -91 1806 -91 
Q 1078 -91 686 257 
Q 294 606 294 1247 
Q 294 1794 489 2264 
Q 684 2734 1063 3103 
Q 1306 3334 1642 3459 
Q 1978 3584 2356 3584 
Q 2950 3584 3301 3228 
Q 3653 2872 3653 2272 
Q 3653 2128 3634 1964 
Q 3616 1800 3578 1613 
z
" transform="scale(0.015625)"/>
       <path id="DejaVuSans-Oblique-75" d="M 428 1388 
L 838 3500 
L 1416 3500 
L 1006 1409 
Q 975 1256 961 1147 
Q 947 1038 947 966 
Q 947 700 1109 554 
Q 1272 409 1569 409 
Q 2031 409 2368 721 
Q 2706 1034 2809 1563 
L 3194 3500 
L 3769 3500 
L 3091 0 
L 2516 0 
L 2631 550 
Q 2388 244 2052 76 
Q 1716 -91 1338 -91 
Q 878 -91 622 161 
Q 366 413 366 863 
Q 366 956 381 1097 
Q 397 1238 428 1388 
z
" transform="scale(0.015625)"/>
       <path id="DejaVuSans-Oblique-78" d="M 3841 3500 
L 2234 1784 
L 3219 0 
L 2559 0 
L 1819 1388 
L 531 0 
L -166 0 
L 1556 1844 
L 641 3500 
L 1300 3500 
L 1972 2234 
L 3144 3500 
L 3841 3500 
z
" transform="scale(0.015625)"/>
      </defs>
      <use xlink:href="#DejaVuSans-Oblique-65"/>
      <use xlink:href="#DejaVuSans-Oblique-75" transform="translate(61.523438 -16.40625) scale(0.7)"/>
      <use xlink:href="#DejaVuSans-Oblique-78" transform="translate(105.888672 -16.40625) scale(0.7)"/>
     </g>
    </g>
   </g>
   <g id="line2d_27">
    <path d="M 72.671028 79.979192 
L 72.876129 85.167759 
L 73.628166 94.782627 
L 74.380203 101.617371 
L 75.200606 107.054536 
L 76.089377 111.497585 
L 77.114881 115.502951 
L 77.866918 117.707025 
L 78.27712 118.362878 
L 78.482221 118.379674 
L 78.687322 118.025907 
L 78.892423 117.056621 
L 79.097524 115.007784 
L 79.302624 110.944947 
L 79.507725 102.883692 
L 79.712826 86.687469 
L 80.123028 32.934489 
L 80.191395 38.068485 
L 80.464863 115.747407 
L 80.669964 152.17752 
L 80.738331 153.731248 
L 80.875065 145.26878 
L 81.2169 119.962249 
L 81.285267 119.358913 
L 81.422001 121.482763 
L 81.832202 130.343165 
L 81.968936 130.65279 
L 82.310771 130.117232 
L 82.447505 130.46692 
L 85.04545 142.399056 
L 87.096459 152.922171 
L 89.831138 168.213156 
L 95.779064 201.845473 
L 97.00967 207.490235 
L 97.693339 209.821104 
L 98.103541 210.646592 
L 98.377009 210.774038 
L 98.58211 210.518219 
L 98.787211 209.804341 
L 99.060679 207.679186 
L 99.334147 203.000873 
L 99.607614 192.57163 
L 99.881082 168.453039 
L 100.222917 125.783078 
L 100.291284 130.021068 
L 100.496385 182.712534 
L 100.769853 242.13965 
L 100.83822 245.261761 
L 100.906587 244.034584 
L 101.453523 210.511069 
L 101.52189 210.812263 
L 102.068825 218.454992 
L 102.137192 218.336376 
L 102.342293 216.892618 
L 103.367798 206.271561 
L 103.709633 197.858152 
L 104.051468 182.754647 
L 104.461669 162.873696 
L 104.530036 162.759849 
L 104.66677 167.893203 
L 105.282073 207.782794 
L 105.35044 207.260666 
L 105.487174 203.004089 
L 105.760642 185.50095 
L 106.239211 155.059864 
L 106.307578 156.407066 
L 106.512678 172.389008 
L 106.854513 199.087529 
L 107.127981 189.779321 
L 107.743284 156.137103 
L 107.811651 155.883348 
L 107.948385 157.827788 
L 108.29022 165.087305 
L 108.358587 165.262599 
L 108.495321 163.955621 
L 109.17899 152.190863 
L 109.657559 150.423031 
L 117.588127 87.302618 
L 118.8871 79.235941 
L 120.117705 73.003309 
L 121.963614 65.068539 
L 125.928898 48.622863 
L 127.022769 45.281905 
L 127.979907 43.018939 
L 128.868677 41.480099 
L 129.620714 40.5955 
L 130.304384 40.114807 
L 130.919687 39.937485 
L 131.534989 39.993776 
L 132.150292 40.274975 
L 132.833962 40.8399 
L 133.585998 41.752774 
L 134.474769 43.200455 
L 135.500274 45.327471 
L 136.662512 48.267758 
L 138.029851 52.34727 
L 139.739026 58.203201 
L 141.037998 63.069775 
L 141.243099 68.890876 
L 141.926769 79.40778 
L 142.610438 86.68719 
L 143.294108 91.729782 
L 143.909411 94.741392 
L 144.38798 96.1445 
L 144.729814 96.615653 
L 145.003282 96.643797 
L 145.27675 96.334068 
L 145.618585 95.43758 
L 146.028787 93.617905 
L 147.191025 87.808761 
L 147.396126 87.672109 
L 147.601227 87.886079 
L 148.011429 88.867224 
L 149.105301 92.137686 
L 150.199172 95.421901 
L 151.293044 98.21173 
L 152.386915 100.418129 
L 153.344053 101.872585 
L 154.232823 102.838881 
L 155.053227 103.417157 
L 155.805264 103.695215 
L 156.5573 103.745212 
L 157.309337 103.581264 
L 158.129741 103.176219 
L 159.086878 102.432614 
L 160.18075 101.268304 
L 161.479722 99.522029 
L 163.052162 97.005316 
L 165.308272 92.923937 
L 170.709263 83.008923 
L 172.897006 79.533067 
L 174.811281 76.901415 
L 175.221483 76.393007 
L 175.426584 71.191137 
L 175.905153 65.894449 
L 176.315354 63.458164 
L 176.657189 62.397929 
L 176.930657 62.047297 
L 177.204125 62.036085 
L 177.477593 62.286158 
L 177.887795 63.007813 
L 178.913299 65.491818 
L 179.665336 67.002011 
L 180.280639 67.780419 
L 180.895941 68.194976 
L 181.579611 68.368712 
L 182.605116 68.36125 
L 184.656125 68.319417 
L 185.88673 68.544504 
L 187.117336 69.00673 
L 188.416308 69.740639 
L 189.920381 70.86554 
L 191.697923 72.493996 
L 194.159134 75.087191 
L 199.901959 81.245913 
L 202.021335 83.13852 
L 203.867243 84.500008 
L 205.576417 85.490374 
L 207.217225 86.183563 
L 208.789665 86.609792 
L 209.404968 86.714418 
L 209.610069 91.707611 
L 210.088638 96.719015 
L 210.498839 98.882528 
L 210.772307 99.509113 
L 210.977408 99.604956 
L 211.182509 99.418589 
L 211.455977 98.799112 
L 211.934546 96.97171 
L 213.301885 91.254966 
L 213.848821 90.08796 
L 214.395757 89.431728 
L 215.079426 88.982507 
L 216.310032 88.516497 
L 218.497775 87.673743 
L 220.343683 86.697325 
L 222.531426 85.268532 
L 225.949774 82.727962 
L 230.393627 79.478304 
L 232.923205 77.901581 
L 235.110948 76.793878 
L 237.093591 76.033476 
L 239.007866 75.535095 
L 240.922141 75.268998 
L 242.904783 75.225175 
L 243.588453 75.26053 
L 243.793554 70.381632 
L 244.135388 67.310572 
L 244.477223 66.005756 
L 244.750691 65.601856 
L 244.955792 65.590172 
L 245.22926 65.883078 
L 245.639462 66.738819 
L 246.596599 69.473389 
L 247.553737 71.919357 
L 248.305774 73.268538 
L 249.05781 74.176383 
L 249.878214 74.827385 
L 250.972085 75.392349 
L 252.954727 76.105787 
L 256.099608 77.27706 
L 258.834287 78.557015 
L 266.696488 82.40556 
L 269.020965 83.197449 
L 271.208708 83.708869 
L 273.328084 83.980578 
L 275.515828 84.040103 
L 277.771937 83.891106 
L 277.977038 88.79962 
L 278.38724 92.690616 
L 278.729075 94.143178 
L 279.002543 94.526786 
L 279.207644 94.432406 
L 279.481112 93.889869 
L 279.959681 92.190795 
L 281.190286 87.438784 
L 281.737222 86.233236 
L 282.284157 85.511156 
L 282.967827 84.995977 
L 283.924965 84.596028 
L 286.181075 83.989501 
L 289.189221 83.081373 
L 292.402469 81.856859 
L 301.085074 78.404227 
L 303.683019 77.697136 
L 306.075863 77.270278 
L 308.468707 77.066353 
L 310.998285 77.077922 
L 311.955422 77.136673 
L 312.160523 72.300034 
L 312.502358 69.630923 
L 312.775826 68.900652 
L 313.049294 68.660551 
L 313.254395 68.733747 
L 313.527863 69.122894 
L 314.074798 70.400986 
L 315.647239 74.258301 
L 316.399275 75.427363 
L 317.151312 76.181898 
L 317.971716 76.688932 
L 319.065587 77.07898 
L 320.911495 77.453358 
L 324.329844 78.156657 
L 326.996156 78.960969 
L 336.772632 82.16491 
L 339.370577 82.638775 
L 341.900155 82.876934 
L 344.566467 82.901513 
L 346.138907 82.819264 
L 346.344008 87.708731 
L 346.685843 90.879653 
L 347.027678 92.191911 
L 347.232779 92.432872 
L 347.43788 92.343971 
L 347.711348 91.79382 
L 348.189916 90.113471 
L 349.215421 86.391559 
L 349.762357 85.197407 
L 350.309292 84.483717 
L 350.924595 84.023824 
L 351.813366 83.668598 
L 353.385806 83.33841 
L 357.761292 82.480359 
L 360.906173 81.589816 
L 371.229585 78.455336 
L 373.964264 77.987929 
L 376.630576 77.756064 
L 379.433621 77.738573 
L 380.322392 77.776313 
L 380.527493 72.96176 
L 380.800961 70.800935 
L 381.074429 70.105957 
L 381.347897 69.918159 
L 381.552998 69.992763 
L 381.826465 70.38594 
L 382.441768 71.825414 
L 383.740741 74.845884 
L 384.492777 75.990439 
L 385.244814 76.71964 
L 386.065218 77.194517 
L 387.090722 77.518974 
L 388.799896 77.784392 
L 392.628447 78.344775 
L 395.294758 79.002173 
L 400.21718 80.513361 
L 403.908997 81.518375 
L 406.780409 82.074478 
L 409.515088 82.38308 
L 412.318134 82.477814 
L 414.505877 82.411879 
L 414.710978 87.287499 
L 415.052813 90.285776 
L 415.326281 91.239352 
L 415.531381 91.468416 
L 415.736482 91.373801 
L 416.00995 90.816852 
L 416.556886 88.883776 
L 417.445657 85.850761 
L 417.992592 84.717197 
L 418.539528 84.041376 
L 419.223198 83.57278 
L 420.111968 83.260487 
L 421.684409 82.984286 
L 426.333363 82.240312 
L 429.478243 81.46107 
L 440.143491 78.600155 
L 443.014903 78.197374 
L 445.886316 78.02269 
L 448.689362 78.054782 
L 448.894463 73.255172 
L 449.167931 71.210245 
L 449.441398 70.657345 
L 449.714866 70.546984 
L 449.919967 70.655325 
L 450.193435 71.085399 
L 451.013839 73.039149 
L 451.970976 75.138258 
L 452.723013 76.260687 
L 453.47505 76.971645 
L 454.295453 77.428474 
L 455.320958 77.730637 
L 456.961765 77.949837 
L 460.927049 78.428087 
L 463.593361 79.016712 
L 468.242315 80.327776 
L 472.275966 81.356618 
L 475.284113 81.89641 
L 478.155526 82.188841 
L 481.095305 82.26623 
L 482.872847 82.215417 
L 482.872847 82.215417 
" clip-path="url(#p91c7d339b0)" style="fill: none; stroke: #1f77b4; stroke-width: 1.2; stroke-linecap: square"/>
   </g>
   <g id="patch_3">
    <path d="M 52.160938 255.878125 
L 52.160938 22.318125 
" style="fill: none; stroke: #000000; stroke-width: 0.8; stroke-linejoin: miter; stroke-linecap: square"/>
   </g>
   <g id="patch_4">
    <path d="M 503.382937 255.878125 
L 503.382937 22.318125 
" style="fill: none; stroke: #000000; stroke-width: 0.8; stroke-linejoin: miter; stroke-linecap: square"/>
   </g>
   <g id="patch_5">
    <path d="M 52.160938 255.878125 
L 503.382938 255.878125 
" style="fill: none; stroke: #000000; stroke-width: 0.8; stroke-linejoin: miter; stroke-linecap: square"/>
   </g>
   <g id="patch_6">
    <path d="M 52.160938 22.318125 
L 503.382938 22.318125 
" style="fill: none; stroke: #000000; stroke-width: 0.8; stroke-linejoin: miter; stroke-linecap: square"/>
   </g>
   <g id="text_16">
    <!-- Error con tren de pulsos: ux -->
    <g transform="translate(194.587562 16.318125) scale(0.12 -0.12)">
     <defs>
      <path id="DejaVuSans-45" d="M 628 4666 
L 3578 4666 
L 3578 4134 
L 1259 4134 
L 1259 2753 
L 3481 2753 
L 3481 2222 
L 1259 2222 
L 1259 531 
L 3634 531 
L 3634 0 
L 628 0 
L 628 4666 
z
" transform="scale(0.015625)"/>
      <path id="DejaVuSans-72" d="M 2631 2963 
Q 2534 3019 2420 3045 
Q 2306 3072 2169 3072 
Q 1681 3072 1420 2755 
Q 1159 2438 1159 1844 
L 1159 0 
L 581 0 
L 581 3500 
L 1159 3500 
L 1159 2956 
Q 1341 3275 1631 3429 
Q 1922 3584 2338 3584 
Q 2397 3584 2469 3576 
Q 2541 3569 2628 3553 
L 2631 2963 
z
" transform="scale(0.015625)"/>
      <path id="DejaVuSans-63" d="M 3122 3366 
L 3122 2828 
Q 2878 2963 2633 3030 
Q 2388 3097 2138 3097 
Q 1578 3097 1268 2742 
Q 959 2388 959 1747 
Q 959 1106 1268 751 
Q 1578 397 2138 397 
Q 2388 397 2633 464 
Q 2878 531 3122 666 
L 3122 134 
Q 2881 22 2623 -34 
Q 2366 -91 2075 -91 
Q 1284 -91 818 406 
Q 353 903 353 1747 
Q 353 2603 823 3093 
Q 1294 3584 2113 3584 
Q 2378 3584 2631 3529 
Q 2884 3475 3122 3366 
z
" transform="scale(0.015625)"/>
      <path id="DejaVuSans-6e" d="M 3513 2113 
L 3513 0 
L 2938 0 
L 2938 2094 
Q 2938 2591 2744 2837 
Q 2550 3084 2163 3084 
Q 1697 3084 1428 2787 
Q 1159 2491 1159 1978 
L 1159 0 
L 581 0 
L 581 3500 
L 1159 3500 
L 1159 2956 
Q 1366 3272 1645 3428 
Q 1925 3584 2291 3584 
Q 2894 3584 3203 3211 
Q 3513 2838 3513 2113 
z
" transform="scale(0.015625)"/>
      <path id="DejaVuSans-74" d="M 1172 4494 
L 1172 3500 
L 2356 3500 
L 2356 3053 
L 1172 3053 
L 1172 1153 
Q 1172 725 1289 603 
Q 1406 481 1766 481 
L 2356 481 
L 2356 0 
L 1766 0 
Q 1100 0 847 248 
Q 594 497 594 1153 
L 594 3053 
L 172 3053 
L 172 3500 
L 594 3500 
L 594 4494 
L 1172 4494 
z
" transform="scale(0.015625)"/>
      <path id="DejaVuSans-64" d="M 2906 2969 
L 2906 4863 
L 3481 4863 
L 3481 0 
L 2906 0 
L 2906 525 
Q 2725 213 2448 61 
Q 2172 -91 1784 -91 
Q 1150 -91 751 415 
Q 353 922 353 1747 
Q 353 2572 751 3078 
Q 1150 3584 1784 3584 
Q 2172 3584 2448 3432 
Q 2725 3281 2906 2969 
z
M 947 1747 
Q 947 1113 1208 752 
Q 1469 391 1925 391 
Q 2381 391 2643 752 
Q 2906 1113 2906 1747 
Q 2906 2381 2643 2742 
Q 2381 3103 1925 3103 
Q 1469 3103 1208 2742 
Q 947 2381 947 1747 
z
" transform="scale(0.015625)"/>
      <path id="DejaVuSans-75" d="M 544 1381 
L 544 3500 
L 1119 3500 
L 1119 1403 
Q 1119 906 1312 657 
Q 1506 409 1894 409 
Q 2359 409 2629 706 
Q 2900 1003 2900 1516 
L 2900 3500 
L 3475 3500 
L 3475 0 
L 2900 0 
L 2900 538 
Q 2691 219 2414 64 
Q 2138 -91 1772 -91 
Q 1169 -91 856 284 
Q 544 659 544 1381 
z
M 1991 3584 
L 1991 3584 
z
" transform="scale(0.015625)"/>
      <path id="DejaVuSans-6c" d="M 603 4863 
L 1178 4863 
L 1178 0 
L 603 0 
L 603 4863 
z
" transform="scale(0.015625)"/>
      <path id="DejaVuSans-3a" d="M 750 794 
L 1409 794 
L 1409 0 
L 750 0 
L 750 794 
z
M 750 3309 
L 1409 3309 
L 1409 2516 
L 750 2516 
L 750 3309 
z
" transform="scale(0.015625)"/>
      <path id="DejaVuSans-78" d="M 3513 3500 
L 2247 1797 
L 3578 0 
L 2900 0 
L 1881 1375 
L 863 0 
L 184 0 
L 1544 1831 
L 300 3500 
L 978 3500 
L 1906 2253 
L 2834 3500 
L 3513 3500 
z
" transform="scale(0.015625)"/>
     </defs>
     <use xlink:href="#DejaVuSans-45"/>
     <use xlink:href="#DejaVuSans-72" transform="translate(63.183594 0)"/>
     <use xlink:href="#DejaVuSans-72" transform="translate(102.546875 0)"/>
     <use xlink:href="#DejaVuSans-6f" transform="translate(141.410156 0)"/>
     <use xlink:href="#DejaVuSans-72" transform="translate(202.591797 0)"/>
     <use xlink:href="#DejaVuSans-20" transform="translate(243.705078 0)"/>
     <use xlink:href="#DejaVuSans-63" transform="translate(275.492188 0)"/>
     <use xlink:href="#DejaVuSans-6f" transform="translate(330.472656 0)"/>
     <use xlink:href="#DejaVuSans-6e" transform="translate(391.654297 0)"/>
     <use xlink:href="#DejaVuSans-20" transform="translate(455.033203 0)"/>
     <use xlink:href="#DejaVuSans-74" transform="translate(486.820312 0)"/>
     <use xlink:href="#DejaVuSans-72" transform="translate(526.029297 0)"/>
     <use xlink:href="#DejaVuSans-65" transform="translate(564.892578 0)"/>
     <use xlink:href="#DejaVuSans-6e" transform="translate(626.416016 0)"/>
     <use xlink:href="#DejaVuSans-20" transform="translate(689.794922 0)"/>
     <use xlink:href="#DejaVuSans-64" transform="translate(721.582031 0)"/>
     <use xlink:href="#DejaVuSans-65" transform="translate(785.058594 0)"/>
     <use xlink:href="#DejaVuSans-20" transform="translate(846.582031 0)"/>
     <use xlink:href="#DejaVuSans-70" transform="translate(878.369141 0)"/>
     <use xlink:href="#DejaVuSans-75" transform="translate(941.845703 0)"/>
     <use xlink:href="#DejaVuSans-6c" transform="translate(1005.224609 0)"/>
     <use xlink:href="#DejaVuSans-73" transform="translate(1033.007812 0)"/>
     <use xlink:href="#DejaVuSans-6f" transform="translate(1085.107422 0)"/>
     <use xlink:href="#DejaVuSans-73" transform="translate(1146.289062 0)"/>
     <use xlink:href="#DejaVuSans-3a" transform="translate(1198.388672 0)"/>
     <use xlink:href="#DejaVuSans-20" transform="translate(1232.080078 0)"/>
     <use xlink:href="#DejaVuSans-75" transform="translate(1263.867188 0)"/>
     <use xlink:href="#DejaVuSans-78" transform="translate(1327.246094 0)"/>
    </g>
   </g>
  </g>
 </g>
 <defs>
  <clipPath id="p91c7d339b0">
   <rect x="52.160938" y="22.318125" width="451.222" height="233.56"/>
  </clipPath>
 </defs>
</svg>
