<?xml version="1.0" encoding="utf-8" standalone="no"?>
<!DOCTYPE svg PUBLIC "-//W3C//DTD SVG 1.1//EN"
  "http://www.w3.org/Graphics/SVG/1.1/DTD/svg11.dtd">
<svg xmlns:xlink="http://www.w3.org/1999/xlink" width="510.554812pt" height="293.434375pt" viewBox="0 0 510.554812 293.434375" xmlns="http://www.w3.org/2000/svg" version="1.1">
 <metadata>
  <rdf:RDF xmlns:dc="http://purl.org/dc/elements/1.1/" xmlns:cc="http://creativecommons.org/ns#" xmlns:rdf="http://www.w3.org/1999/02/22-rdf-syntax-ns#">
   <cc:Work>
    <dc:type rdf:resource="http://purl.org/dc/dcmitype/StillImage"/>
    <dc:date>2026-07-18T15:47:05.769910</dc:date>
    <dc:format>image/svg+xml</dc:format>
    <dc:creator>
     <cc:Agent>
      <dc:title>Matplotlib v3.10.8, https://matplotlib.org/</dc:title>
     </cc:Agent>
    </dc:creator>
   </cc:Work>
  </rdf:RDF>
 </metadata>
 <defs>
  <style type="text/css">*{stroke-linejoin: round; stroke-linecap: butt}</style>
 </defs>
 <g id="figure_1">
  <g id="patch_1">
   <path d="M 0 293.434375 
L 510.554812 293.434375 
L 510.554812 0 
L 0 0 
z
" style="fill: #ffffff"/>
  </g>
  <g id="axes_1">
   <g id="patch_2">
    <path d="M 48.982813 255.878125 
L 503.354812 255.878125 
L 503.354812 22.318125 
L 48.982813 22.318125 
z
" style="fill: #ffffff"/>
   </g>
   <g id="matplotlib.axis_1">
    <g id="xtick_1">
     <g id="line2d_1">
      <path d="M 69.636085 255.878125 
L 69.636085 22.318125 
" clip-path="url(#pa51f0de0cf)" style="fill: none; stroke: #b0b0b0; stroke-width: 0.8; stroke-linecap: square"/>
     </g>
     <g id="line2d_2">
      <defs>
       <path id="m33405afafd" d="M 0 0 
L 0 3.5 
" style="stroke: #000000; stroke-width: 0.8"/>
      </defs>
      <g>
       <use xlink:href="#m33405afafd" x="69.636085" y="255.878125" style="stroke: #000000; stroke-width: 0.8"/>
      </g>
     </g>
     <g id="text_1">
      <!-- 0 -->
      <g transform="translate(66.454835 270.476562) scale(0.1 -0.1)">
       <defs>
        <path id="DejaVuSans-30" d="M 2034 4250 
Q 1547 4250 1301 3770 
Q 1056 3291 1056 2328 
Q 1056 1369 1301 889 
Q 1547 409 2034 409 
Q 2525 409 2770 889 
Q 3016 1369 3016 2328 
Q 3016 3291 2770 3770 
Q 2525 4250 2034 4250 
z
M 2034 4750 
Q 2819 4750 3233 4129 
Q 3647 3509 3647 2328 
Q 3647 1150 3233 529 
Q 2819 -91 2034 -91 
Q 1250 -91 836 529 
Q 422 1150 422 2328 
Q 422 3509 836 4129 
Q 1250 4750 2034 4750 
z
" transform="scale(0.015625)"/>
       </defs>
       <use xlink:href="#DejaVuSans-30"/>
      </g>
     </g>
    </g>
    <g id="xtick_2">
     <g id="line2d_3">
      <path d="M 138.480328 255.878125 
L 138.480328 22.318125 
" clip-path="url(#pa51f0de0cf)" style="fill: none; stroke: #b0b0b0; stroke-width: 0.8; stroke-linecap: square"/>
     </g>
     <g id="line2d_4">
      <g>
       <use xlink:href="#m33405afafd" x="138.480328" y="255.878125" style="stroke: #000000; stroke-width: 0.8"/>
      </g>
     </g>
     <g id="text_2">
      <!-- 10 -->
      <g transform="translate(132.117828 270.476562) scale(0.1 -0.1)">
       <defs>
        <path id="DejaVuSans-31" d="M 794 531 
L 1825 531 
L 1825 4091 
L 703 3866 
L 703 4441 
L 1819 4666 
L 2450 4666 
L 2450 531 
L 3481 531 
L 3481 0 
L 794 0 
L 794 531 
z
" transform="scale(0.015625)"/>
       </defs>
       <use xlink:href="#DejaVuSans-31"/>
       <use xlink:href="#DejaVuSans-30" transform="translate(63.623047 0)"/>
      </g>
     </g>
    </g>
    <g id="xtick_3">
     <g id="line2d_5">
      <path d="M 207.32457 255.878125 
L 207.32457 22.318125 
" clip-path="url(#pa51f0de0cf)" style="fill: none; stroke: #b0b0b0; stroke-width: 0.8; stroke-linecap: square"/>
     </g>
     <g id="line2d_6">
      <g>
       <use xlink:href="#m33405afafd" x="207.32457" y="255.878125" style="stroke: #000000; stroke-width: 0.8"/>
      </g>
     </g>
     <g id="text_3">
      <!-- 20 -->
      <g transform="translate(200.96207 270.476562) scale(0.1 -0.1)">
       <defs>
        <path id="DejaVuSans-32" d="M 1228 531 
L 3431 531 
L 3431 0 
L 469 0 
L 469 531 
Q 828 903 1448 1529 
Q 2069 2156 2228 2338 
Q 2531 2678 2651 2914 
Q 2772 3150 2772 3378 
Q 2772 3750 2511 3984 
Q 2250 4219 1831 4219 
Q 1534 4219 1204 4116 
Q 875 4013 500 3803 
L 500 4441 
Q 881 4594 1212 4672 
Q 1544 4750 1819 4750 
Q 2544 4750 2975 4387 
Q 3406 4025 3406 3419 
Q 3406 3131 3298 2873 
Q 3191 2616 2906 2266 
Q 2828 2175 2409 1742 
Q 1991 1309 1228 531 
z
" transform="scale(0.015625)"/>
       </defs>
       <use xlink:href="#DejaVuSans-32"/>
       <use xlink:href="#DejaVuSans-30" transform="translate(63.623047 0)"/>
      </g>
     </g>
    </g>
    <g id="xtick_4">
     <g id="line2d_7">
      <path d="M 276.168812 255.878125 
L 276.168812 22.318125 
" clip-path="url(#pa51f0de0cf)" style="fill: none; stroke: #b0b0b0; stroke-width: 0.8; stroke-linecap: square"/>
     </g>
     <g id="line2d_8">
      <g>
       <use xlink:href="#m33405afafd" x="276.168812" y="255.878125" style="stroke: #000000; stroke-width: 0.8"/>
      </g>
     </g>
     <g id="text_4">
      <!-- 30 -->
      <g transform="translate(269.806312 270.476562) scale(0.1 -0.1)">
       <defs>
        <path id="DejaVuSans-33" d="M 2597 2516 
Q 3050 2419 3304 2112 
Q 3559 1806 3559 1356 
Q 3559 666 3084 287 
Q 2609 -91 1734 -91 
Q 1441 -91 1130 -33 
Q 819 25 488 141 
L 488 750 
Q 750 597 1062 519 
Q 1375 441 1716 441 
Q 2309 441 2620 675 
Q 2931 909 2931 1356 
Q 2931 1769 2642 2001 
Q 2353 2234 1838 2234 
L 1294 2234 
L 1294 2753 
L 1863 2753 
Q 2328 2753 2575 2939 
Q 2822 3125 2822 3475 
Q 2822 3834 2567 4026 
Q 2313 4219 1838 4219 
Q 1578 4219 1281 4162 
Q 984 4106 628 3988 
L 628 4550 
Q 988 4650 1302 4700 
Q 1616 4750 1894 4750 
Q 2613 4750 3031 4423 
Q 3450 4097 3450 3541 
Q 3450 3153 3228 2886 
Q 3006 2619 2597 2516 
z
" transform="scale(0.015625)"/>
       </defs>
       <use xlink:href="#DejaVuSans-33"/>
       <use xlink:href="#DejaVuSans-30" transform="translate(63.623047 0)"/>
      </g>
     </g>
    </g>
    <g id="xtick_5">
     <g id="line2d_9">
      <path d="M 345.013055 255.878125 
L 345.013055 22.318125 
" clip-path="url(#pa51f0de0cf)" style="fill: none; stroke: #b0b0b0; stroke-width: 0.8; stroke-linecap: square"/>
     </g>
     <g id="line2d_10">
      <g>
       <use xlink:href="#m33405afafd" x="345.013055" y="255.878125" style="stroke: #000000; stroke-width: 0.8"/>
      </g>
     </g>
     <g id="text_5">
      <!-- 40 -->
      <g transform="translate(338.650555 270.476562) scale(0.1 -0.1)">
       <defs>
        <path id="DejaVuSans-34" d="M 2419 4116 
L 825 1625 
L 2419 1625 
L 2419 4116 
z
M 2253 4666 
L 3047 4666 
L 3047 1625 
L 3713 1625 
L 3713 1100 
L 3047 1100 
L 3047 0 
L 2419 0 
L 2419 1100 
L 313 1100 
L 313 1709 
L 2253 4666 
z
" transform="scale(0.015625)"/>
       </defs>
       <use xlink:href="#DejaVuSans-34"/>
       <use xlink:href="#DejaVuSans-30" transform="translate(63.623047 0)"/>
      </g>
     </g>
    </g>
    <g id="xtick_6">
     <g id="line2d_11">
      <path d="M 413.857297 255.878125 
L 413.857297 22.318125 
" clip-path="url(#pa51f0de0cf)" style="fill: none; stroke: #b0b0b0; stroke-width: 0.8; stroke-linecap: square"/>
     </g>
     <g id="line2d_12">
      <g>
       <use xlink:href="#m33405afafd" x="413.857297" y="255.878125" style="stroke: #000000; stroke-width: 0.8"/>
      </g>
     </g>
     <g id="text_6">
      <!-- 50 -->
      <g transform="translate(407.494797 270.476562) scale(0.1 -0.1)">
       <defs>
        <path id="DejaVuSans-35" d="M 691 4666 
L 3169 4666 
L 3169 4134 
L 1269 4134 
L 1269 2991 
Q 1406 3038 1543 3061 
Q 1681 3084 1819 3084 
Q 2600 3084 3056 2656 
Q 3513 2228 3513 1497 
Q 3513 744 3044 326 
Q 2575 -91 1722 -91 
Q 1428 -91 1123 -41 
Q 819 9 494 109 
L 494 744 
Q 775 591 1075 516 
Q 1375 441 1709 441 
Q 2250 441 2565 725 
Q 2881 1009 2881 1497 
Q 2881 1984 2565 2268 
Q 2250 2553 1709 2553 
Q 1456 2553 1204 2497 
Q 953 2441 691 2322 
L 691 4666 
z
" transform="scale(0.015625)"/>
       </defs>
       <use xlink:href="#DejaVuSans-35"/>
       <use xlink:href="#DejaVuSans-30" transform="translate(63.623047 0)"/>
      </g>
     </g>
    </g>
    <g id="xtick_7">
     <g id="line2d_13">
      <path d="M 482.70154 255.878125 
L 482.70154 22.318125 
" clip-path="url(#pa51f0de0cf)" style="fill: none; stroke: #b0b0b0; stroke-width: 0.8; stroke-linecap: square"/>
     </g>
     <g id="line2d_14">
      <g>
       <use xlink:href="#m33405afafd" x="482.70154" y="255.878125" style="stroke: #000000; stroke-width: 0.8"/>
      </g>
     </g>
     <g id="text_7">
      <!-- 60 -->
      <g transform="translate(476.33904 270.476562) scale(0.1 -0.1)">
       <defs>
        <path id="DejaVuSans-36" d="M 2113 2584 
Q 1688 2584 1439 2293 
Q 1191 2003 1191 1497 
Q 1191 994 1439 701 
Q 1688 409 2113 409 
Q 2538 409 2786 701 
Q 3034 994 3034 1497 
Q 3034 2003 2786 2293 
Q 2538 2584 2113 2584 
z
M 3366 4563 
L 3366 3988 
Q 3128 4100 2886 4159 
Q 2644 4219 2406 4219 
Q 1781 4219 1451 3797 
Q 1122 3375 1075 2522 
Q 1259 2794 1537 2939 
Q 1816 3084 2150 3084 
Q 2853 3084 3261 2657 
Q 3669 2231 3669 1497 
Q 3669 778 3244 343 
Q 2819 -91 2113 -91 
Q 1303 -91 875 529 
Q 447 1150 447 2328 
Q 447 3434 972 4092 
Q 1497 4750 2381 4750 
Q 2619 4750 2861 4703 
Q 3103 4656 3366 4563 
z
" transform="scale(0.015625)"/>
       </defs>
       <use xlink:href="#DejaVuSans-36"/>
       <use xlink:href="#DejaVuSans-30" transform="translate(63.623047 0)"/>
      </g>
     </g>
    </g>
    <g id="text_8">
     <!-- Tiempo [s] -->
     <g transform="translate(249.606313 284.154687) scale(0.1 -0.1)">
      <defs>
       <path id="DejaVuSans-54" d="M -19 4666 
L 3928 4666 
L 3928 4134 
L 2272 4134 
L 2272 0 
L 1638 0 
L 1638 4134 
L -19 4134 
L -19 4666 
z
" transform="scale(0.015625)"/>
       <path id="DejaVuSans-69" d="M 603 3500 
L 1178 3500 
L 1178 0 
L 603 0 
L 603 3500 
z
M 603 4863 
L 1178 4863 
L 1178 4134 
L 603 4134 
L 603 4863 
z
" transform="scale(0.015625)"/>
       <path id="DejaVuSans-65" d="M 3597 1894 
L 3597 1613 
L 953 1613 
Q 991 1019 1311 708 
Q 1631 397 2203 397 
Q 2534 397 2845 478 
Q 3156 559 3463 722 
L 3463 178 
Q 3153 47 2828 -22 
Q 2503 -91 2169 -91 
Q 1331 -91 842 396 
Q 353 884 353 1716 
Q 353 2575 817 3079 
Q 1281 3584 2069 3584 
Q 2775 3584 3186 3129 
Q 3597 2675 3597 1894 
z
M 3022 2063 
Q 3016 2534 2758 2815 
Q 2500 3097 2075 3097 
Q 1594 3097 1305 2825 
Q 1016 2553 972 2059 
L 3022 2063 
z
" transform="scale(0.015625)"/>
       <path id="DejaVuSans-6d" d="M 3328 2828 
Q 3544 3216 3844 3400 
Q 4144 3584 4550 3584 
Q 5097 3584 5394 3201 
Q 5691 2819 5691 2113 
L 5691 0 
L 5113 0 
L 5113 2094 
Q 5113 2597 4934 2840 
Q 4756 3084 4391 3084 
Q 3944 3084 3684 2787 
Q 3425 2491 3425 1978 
L 3425 0 
L 2847 0 
L 2847 2094 
Q 2847 2600 2669 2842 
Q 2491 3084 2119 3084 
Q 1678 3084 1418 2786 
Q 1159 2488 1159 1978 
L 1159 0 
L 581 0 
L 581 3500 
L 1159 3500 
L 1159 2956 
Q 1356 3278 1631 3431 
Q 1906 3584 2284 3584 
Q 2666 3584 2933 3390 
Q 3200 3197 3328 2828 
z
" transform="scale(0.015625)"/>
       <path id="DejaVuSans-70" d="M 1159 525 
L 1159 -1331 
L 581 -1331 
L 581 3500 
L 1159 3500 
L 1159 2969 
Q 1341 3281 1617 3432 
Q 1894 3584 2278 3584 
Q 2916 3584 3314 3078 
Q 3713 2572 3713 1747 
Q 3713 922 3314 415 
Q 2916 -91 2278 -91 
Q 1894 -91 1617 61 
Q 1341 213 1159 525 
z
M 3116 1747 
Q 3116 2381 2855 2742 
Q 2594 3103 2138 3103 
Q 1681 3103 1420 2742 
Q 1159 2381 1159 1747 
Q 1159 1113 1420 752 
Q 1681 391 2138 391 
Q 2594 391 2855 752 
Q 3116 1113 3116 1747 
z
" transform="scale(0.015625)"/>
       <path id="DejaVuSans-6f" d="M 1959 3097 
Q 1497 3097 1228 2736 
Q 959 2375 959 1747 
Q 959 1119 1226 758 
Q 1494 397 1959 397 
Q 2419 397 2687 759 
Q 2956 1122 2956 1747 
Q 2956 2369 2687 2733 
Q 2419 3097 1959 3097 
z
M 1959 3584 
Q 2709 3584 3137 3096 
Q 3566 2609 3566 1747 
Q 3566 888 3137 398 
Q 2709 -91 1959 -91 
Q 1206 -91 779 398 
Q 353 888 353 1747 
Q 353 2609 779 3096 
Q 1206 3584 1959 3584 
z
" transform="scale(0.015625)"/>
       <path id="DejaVuSans-20" transform="scale(0.015625)"/>
       <path id="DejaVuSans-5b" d="M 550 4863 
L 1875 4863 
L 1875 4416 
L 1125 4416 
L 1125 -397 
L 1875 -397 
L 1875 -844 
L 550 -844 
L 550 4863 
z
" transform="scale(0.015625)"/>
       <path id="DejaVuSans-73" d="M 2834 3397 
L 2834 2853 
Q 2591 2978 2328 3040 
Q 2066 3103 1784 3103 
Q 1356 3103 1142 2972 
Q 928 2841 928 2578 
Q 928 2378 1081 2264 
Q 1234 2150 1697 2047 
L 1894 2003 
Q 2506 1872 2764 1633 
Q 3022 1394 3022 966 
Q 3022 478 2636 193 
Q 2250 -91 1575 -91 
Q 1294 -91 989 -36 
Q 684 19 347 128 
L 347 722 
Q 666 556 975 473 
Q 1284 391 1588 391 
Q 1994 391 2212 530 
Q 2431 669 2431 922 
Q 2431 1156 2273 1281 
Q 2116 1406 1581 1522 
L 1381 1569 
Q 847 1681 609 1914 
Q 372 2147 372 2553 
Q 372 3047 722 3315 
Q 1072 3584 1716 3584 
Q 2034 3584 2315 3537 
Q 2597 3491 2834 3397 
z
" transform="scale(0.015625)"/>
       <path id="DejaVuSans-5d" d="M 1947 4863 
L 1947 -844 
L 622 -844 
L 622 -397 
L 1369 -397 
L 1369 4416 
L 622 4416 
L 622 4863 
L 1947 4863 
z
" transform="scale(0.015625)"/>
      </defs>
      <use xlink:href="#DejaVuSans-54"/>
      <use xlink:href="#DejaVuSans-69" transform="translate(57.958984 0)"/>
      <use xlink:href="#DejaVuSans-65" transform="translate(85.742188 0)"/>
      <use xlink:href="#DejaVuSans-6d" transform="translate(147.265625 0)"/>
      <use xlink:href="#DejaVuSans-70" transform="translate(244.677734 0)"/>
      <use xlink:href="#DejaVuSans-6f" transform="translate(308.154297 0)"/>
      <use xlink:href="#DejaVuSans-20" transform="translate(369.335938 0)"/>
      <use xlink:href="#DejaVuSans-5b" transform="translate(401.123047 0)"/>
      <use xlink:href="#DejaVuSans-73" transform="translate(440.136719 0)"/>
      <use xlink:href="#DejaVuSans-5d" transform="translate(492.236328 0)"/>
     </g>
    </g>
   </g>
   <g id="matplotlib.axis_2">
    <g id="ytick_1">
     <g id="line2d_15">
      <path d="M 48.982813 254.684114 
L 503.354812 254.684114 
" clip-path="url(#pa51f0de0cf)" style="fill: none; stroke: #b0b0b0; stroke-width: 0.8; stroke-linecap: square"/>
     </g>
     <g id="line2d_16">
      <defs>
       <path id="me376e48ced" d="M 0 0 
L -3.5 0 
" style="stroke: #000000; stroke-width: 0.8"/>
      </defs>
      <g>
       <use xlink:href="#me376e48ced" x="48.982813" y="254.684114" style="stroke: #000000; stroke-width: 0.8"/>
      </g>
     </g>
     <g id="text_9">
      <!-- −10 -->
      <g transform="translate(20.878125 258.483333) scale(0.1 -0.1)">
       <defs>
        <path id="DejaVuSans-2212" d="M 678 2272 
L 4684 2272 
L 4684 1741 
L 678 1741 
L 678 2272 
z
" transform="scale(0.015625)"/>
       </defs>
       <use xlink:href="#DejaVuSans-2212"/>
       <use xlink:href="#DejaVuSans-31" transform="translate(83.789062 0)"/>
       <use xlink:href="#DejaVuSans-30" transform="translate(147.412109 0)"/>
      </g>
     </g>
    </g>
    <g id="ytick_2">
     <g id="line2d_17">
      <path d="M 48.982813 228.197405 
L 503.354812 228.197405 
" clip-path="url(#pa51f0de0cf)" style="fill: none; stroke: #b0b0b0; stroke-width: 0.8; stroke-linecap: square"/>
     </g>
     <g id="line2d_18">
      <g>
       <use xlink:href="#me376e48ced" x="48.982813" y="228.197405" style="stroke: #000000; stroke-width: 0.8"/>
      </g>
     </g>
     <g id="text_10">
      <!-- −8 -->
      <g transform="translate(27.240625 231.996624) scale(0.1 -0.1)">
       <defs>
        <path id="DejaVuSans-38" d="M 2034 2216 
Q 1584 2216 1326 1975 
Q 1069 1734 1069 1313 
Q 1069 891 1326 650 
Q 1584 409 2034 409 
Q 2484 409 2743 651 
Q 3003 894 3003 1313 
Q 3003 1734 2745 1975 
Q 2488 2216 2034 2216 
z
M 1403 2484 
Q 997 2584 770 2862 
Q 544 3141 544 3541 
Q 544 4100 942 4425 
Q 1341 4750 2034 4750 
Q 2731 4750 3128 4425 
Q 3525 4100 3525 3541 
Q 3525 3141 3298 2862 
Q 3072 2584 2669 2484 
Q 3125 2378 3379 2068 
Q 3634 1759 3634 1313 
Q 3634 634 3220 271 
Q 2806 -91 2034 -91 
Q 1263 -91 848 271 
Q 434 634 434 1313 
Q 434 1759 690 2068 
Q 947 2378 1403 2484 
z
M 1172 3481 
Q 1172 3119 1398 2916 
Q 1625 2713 2034 2713 
Q 2441 2713 2670 2916 
Q 2900 3119 2900 3481 
Q 2900 3844 2670 4047 
Q 2441 4250 2034 4250 
Q 1625 4250 1398 4047 
Q 1172 3844 1172 3481 
z
" transform="scale(0.015625)"/>
       </defs>
       <use xlink:href="#DejaVuSans-2212"/>
       <use xlink:href="#DejaVuSans-38" transform="translate(83.789062 0)"/>
      </g>
     </g>
    </g>
    <g id="ytick_3">
     <g id="line2d_19">
      <path d="M 48.982813 201.710696 
L 503.354812 201.710696 
" clip-path="url(#pa51f0de0cf)" style="fill: none; stroke: #b0b0b0; stroke-width: 0.8; stroke-linecap: square"/>
     </g>
     <g id="line2d_20">
      <g>
       <use xlink:href="#me376e48ced" x="48.982813" y="201.710696" style="stroke: #000000; stroke-width: 0.8"/>
      </g>
     </g>
     <g id="text_11">
      <!-- −6 -->
      <g transform="translate(27.240625 205.509915) scale(0.1 -0.1)">
       <use xlink:href="#DejaVuSans-2212"/>
       <use xlink:href="#DejaVuSans-36" transform="translate(83.789062 0)"/>
      </g>
     </g>
    </g>
    <g id="ytick_4">
     <g id="line2d_21">
      <path d="M 48.982813 175.223987 
L 503.354812 175.223987 
" clip-path="url(#pa51f0de0cf)" style="fill: none; stroke: #b0b0b0; stroke-width: 0.8; stroke-linecap: square"/>
     </g>
     <g id="line2d_22">
      <g>
       <use xlink:href="#me376e48ced" x="48.982813" y="175.223987" style="stroke: #000000; stroke-width: 0.8"/>
      </g>
     </g>
     <g id="text_12">
      <!-- −4 -->
      <g transform="translate(27.240625 179.023206) scale(0.1 -0.1)">
       <use xlink:href="#DejaVuSans-2212"/>
       <use xlink:href="#DejaVuSans-34" transform="translate(83.789062 0)"/>
      </g>
     </g>
    </g>
    <g id="ytick_5">
     <g id="line2d_23">
      <path d="M 48.982813 148.737278 
L 503.354812 148.737278 
" clip-path="url(#pa51f0de0cf)" style="fill: none; stroke: #b0b0b0; stroke-width: 0.8; stroke-linecap: square"/>
     </g>
     <g id="line2d_24">
      <g>
       <use xlink:href="#me376e48ced" x="48.982813" y="148.737278" style="stroke: #000000; stroke-width: 0.8"/>
      </g>
     </g>
     <g id="text_13">
      <!-- −2 -->
      <g transform="translate(27.240625 152.536497) scale(0.1 -0.1)">
       <use xlink:href="#DejaVuSans-2212"/>
       <use xlink:href="#DejaVuSans-32" transform="translate(83.789062 0)"/>
      </g>
     </g>
    </g>
    <g id="ytick_6">
     <g id="line2d_25">
      <path d="M 48.982813 122.250569 
L 503.354812 122.250569 
" clip-path="url(#pa51f0de0cf)" style="fill: none; stroke: #b0b0b0; stroke-width: 0.8; stroke-linecap: square"/>
     </g>
     <g id="line2d_26">
      <g>
       <use xlink:href="#me376e48ced" x="48.982813" y="122.250569" style="stroke: #000000; stroke-width: 0.8"/>
      </g>
     </g>
     <g id="text_14">
      <!-- 0 -->
      <g transform="translate(35.620312 126.049788) scale(0.1 -0.1)">
       <use xlink:href="#DejaVuSans-30"/>
      </g>
     </g>
    </g>
    <g id="ytick_7">
     <g id="line2d_27">
      <path d="M 48.982813 95.76386 
L 503.354812 95.76386 
" clip-path="url(#pa51f0de0cf)" style="fill: none; stroke: #b0b0b0; stroke-width: 0.8; stroke-linecap: square"/>
     </g>
     <g id="line2d_28">
      <g>
       <use xlink:href="#me376e48ced" x="48.982813" y="95.76386" style="stroke: #000000; stroke-width: 0.8"/>
      </g>
     </g>
     <g id="text_15">
      <!-- 2 -->
      <g transform="translate(35.620312 99.563079) scale(0.1 -0.1)">
       <use xlink:href="#DejaVuSans-32"/>
      </g>
     </g>
    </g>
    <g id="ytick_8">
     <g id="line2d_29">
      <path d="M 48.982813 69.277151 
L 503.354812 69.277151 
" clip-path="url(#pa51f0de0cf)" style="fill: none; stroke: #b0b0b0; stroke-width: 0.8; stroke-linecap: square"/>
     </g>
     <g id="line2d_30">
      <g>
       <use xlink:href="#me376e48ced" x="48.982813" y="69.277151" style="stroke: #000000; stroke-width: 0.8"/>
      </g>
     </g>
     <g id="text_16">
      <!-- 4 -->
      <g transform="translate(35.620312 73.07637) scale(0.1 -0.1)">
       <use xlink:href="#DejaVuSans-34"/>
      </g>
     </g>
    </g>
    <g id="ytick_9">
     <g id="line2d_31">
      <path d="M 48.982813 42.790442 
L 503.354812 42.790442 
" clip-path="url(#pa51f0de0cf)" style="fill: none; stroke: #b0b0b0; stroke-width: 0.8; stroke-linecap: square"/>
     </g>
     <g id="line2d_32">
      <g>
       <use xlink:href="#me376e48ced" x="48.982813" y="42.790442" style="stroke: #000000; stroke-width: 0.8"/>
      </g>
     </g>
     <g id="text_17">
      <!-- 6 -->
      <g transform="translate(35.620312 46.589661) scale(0.1 -0.1)">
       <use xlink:href="#DejaVuSans-36"/>
      </g>
     </g>
    </g>
    <g id="text_18">
     <!-- $e_{theta}$ -->
     <g transform="translate(14.798438 151.598125) rotate(-90) scale(0.1 -0.1)">
      <defs>
       <path id="DejaVuSans-Oblique-65" d="M 3078 2063 
Q 3088 2113 3092 2166 
Q 3097 2219 3097 2272 
Q 3097 2653 2873 2875 
Q 2650 3097 2266 3097 
Q 1838 3097 1509 2826 
Q 1181 2556 1013 2059 
L 3078 2063 
z
M 3578 1613 
L 903 1613 
Q 884 1494 878 1425 
Q 872 1356 872 1306 
Q 872 872 1139 634 
Q 1406 397 1894 397 
Q 2269 397 2603 481 
Q 2938 566 3225 728 
L 3116 159 
Q 2806 34 2476 -28 
Q 2147 -91 1806 -91 
Q 1078 -91 686 257 
Q 294 606 294 1247 
Q 294 1794 489 2264 
Q 684 2734 1063 3103 
Q 1306 3334 1642 3459 
Q 1978 3584 2356 3584 
Q 2950 3584 3301 3228 
Q 3653 2872 3653 2272 
Q 3653 2128 3634 1964 
Q 3616 1800 3578 1613 
z
" transform="scale(0.015625)"/>
       <path id="DejaVuSans-Oblique-74" d="M 2706 3500 
L 2619 3053 
L 1472 3053 
L 1100 1153 
Q 1081 1047 1072 975 
Q 1063 903 1063 863 
Q 1063 663 1183 572 
Q 1303 481 1569 481 
L 2150 481 
L 2053 0 
L 1503 0 
Q 991 0 739 200 
Q 488 400 488 806 
Q 488 878 497 964 
Q 506 1050 525 1153 
L 897 3053 
L 409 3053 
L 500 3500 
L 978 3500 
L 1172 4494 
L 1747 4494 
L 1556 3500 
L 2706 3500 
z
" transform="scale(0.015625)"/>
       <path id="DejaVuSans-Oblique-68" d="M 3566 2113 
L 3156 0 
L 2578 0 
L 2988 2091 
Q 3016 2238 3031 2350 
Q 3047 2463 3047 2528 
Q 3047 2791 2881 2937 
Q 2716 3084 2419 3084 
Q 1956 3084 1617 2771 
Q 1278 2459 1178 1941 
L 800 0 
L 225 0 
L 1172 4863 
L 1747 4863 
L 1375 2950 
Q 1594 3244 1934 3414 
Q 2275 3584 2650 3584 
Q 3113 3584 3367 3334 
Q 3622 3084 3622 2631 
Q 3622 2519 3608 2391 
Q 3594 2263 3566 2113 
z
" transform="scale(0.015625)"/>
       <path id="DejaVuSans-Oblique-61" d="M 3438 1997 
L 3047 0 
L 2472 0 
L 2578 531 
Q 2325 219 2001 64 
Q 1678 -91 1281 -91 
Q 834 -91 548 182 
Q 263 456 263 884 
Q 263 1497 752 1853 
Q 1241 2209 2100 2209 
L 2900 2209 
L 2931 2363 
Q 2938 2388 2941 2417 
Q 2944 2447 2944 2509 
Q 2944 2788 2717 2942 
Q 2491 3097 2081 3097 
Q 1800 3097 1504 3025 
Q 1209 2953 897 2809 
L 997 3341 
Q 1322 3463 1633 3523 
Q 1944 3584 2234 3584 
Q 2853 3584 3176 3315 
Q 3500 3047 3500 2534 
Q 3500 2431 3484 2292 
Q 3469 2153 3438 1997 
z
M 2816 1759 
L 2241 1759 
Q 1534 1759 1195 1570 
Q 856 1381 856 984 
Q 856 709 1029 553 
Q 1203 397 1509 397 
Q 1978 397 2328 733 
Q 2678 1069 2791 1631 
L 2816 1759 
z
" transform="scale(0.015625)"/>
      </defs>
      <use xlink:href="#DejaVuSans-Oblique-65"/>
      <use xlink:href="#DejaVuSans-Oblique-74" transform="translate(61.523438 -16.40625) scale(0.7)"/>
      <use xlink:href="#DejaVuSans-Oblique-68" transform="translate(88.969727 -16.40625) scale(0.7)"/>
      <use xlink:href="#DejaVuSans-Oblique-65" transform="translate(133.334961 -16.40625) scale(0.7)"/>
      <use xlink:href="#DejaVuSans-Oblique-74" transform="translate(176.401367 -16.40625) scale(0.7)"/>
      <use xlink:href="#DejaVuSans-Oblique-61" transform="translate(203.847656 -16.40625) scale(0.7)"/>
     </g>
    </g>
   </g>
   <g id="line2d_33">
    <path d="M 69.636085 122.250569 
L 71.219503 87.641241 
L 71.907945 78.849279 
L 72.596388 72.602509 
L 73.28483 68.306639 
L 73.904428 65.794608 
L 74.386338 64.661331 
L 74.730559 64.339015 
L 74.937092 64.387733 
L 75.143625 64.671539 
L 75.419002 65.554875 
L 75.694379 67.337902 
L 75.969756 70.735114 
L 76.245132 77.387485 
L 76.520509 91.477905 
L 76.727042 113.204348 
L 77.002419 171.970391 
L 77.208952 214.949672 
L 77.277796 212.518232 
L 77.415485 173.557006 
L 77.82855 34.36338 
L 77.897394 32.934489 
L 78.035083 44.783968 
L 78.379304 79.128478 
L 78.448148 80.295583 
L 78.516993 79.824143 
L 79.067746 68.3125 
L 79.205435 69.02156 
L 79.549656 70.976651 
L 79.687345 70.959328 
L 80.238099 70.117074 
L 81.339606 70.057477 
L 82.923024 69.97566 
L 84.712974 70.08777 
L 86.365236 70.401672 
L 87.810965 70.887028 
L 89.119006 71.558302 
L 90.220514 72.36231 
L 91.253177 73.397827 
L 92.148153 74.613995 
L 92.974283 76.129743 
L 93.662726 77.836338 
L 94.282324 79.924219 
L 94.833078 82.513955 
L 95.314988 85.78607 
L 95.728053 90.000933 
L 96.072274 95.485611 
L 96.416496 104.858699 
L 96.691873 118.79576 
L 96.967249 146.864568 
L 97.242626 204.093442 
L 97.449159 245.261761 
L 97.518003 243.838071 
L 97.655692 208.723877 
L 98.068757 68.364848 
L 98.137602 64.734727 
L 98.206446 66.875272 
L 98.826044 115.308268 
L 99.032577 111.61522 
L 99.307954 108.08167 
L 99.376798 108.279849 
L 99.583331 110.966874 
L 100.478306 130.171037 
L 100.822527 142.606442 
L 101.166748 164.16201 
L 101.786346 215.050399 
L 101.855191 214.197285 
L 101.992879 204.404653 
L 102.543633 145.002997 
L 102.612477 144.26795 
L 102.750166 148.516616 
L 102.956699 166.38407 
L 103.507452 229.087486 
L 103.576297 229.006287 
L 103.713985 218.578526 
L 104.195895 162.653885 
L 104.264739 162.933843 
L 104.402428 169.610378 
L 105.09087 226.457253 
L 105.159714 226.414951 
L 105.297403 222.867406 
L 105.641624 211.649209 
L 105.710468 211.317262 
L 105.848157 212.987203 
L 106.467755 226.956693 
L 106.536599 227.108161 
L 106.605443 227.064964 
L 106.88082 226.669465 
L 107.018509 227.047606 
L 107.913484 231.140471 
L 108.739615 232.429482 
L 109.083836 232.558082 
L 109.428057 232.482393 
L 109.841123 232.12745 
L 110.323032 231.357391 
L 110.873786 230.035725 
L 111.562229 227.740601 
L 112.319516 224.399492 
L 113.214491 219.327006 
L 114.17831 212.438067 
L 115.210974 203.322936 
L 116.381326 190.811803 
L 117.964743 171.125713 
L 119.823538 148.593538 
L 121.062734 136.394283 
L 122.301931 126.352771 
L 123.678816 116.945145 
L 125.193389 108.129278 
L 126.639118 100.960228 
L 128.016003 95.170505 
L 129.324043 90.560636 
L 130.56324 86.957387 
L 131.733592 84.205158 
L 132.8351 82.164793 
L 133.867763 80.713278 
L 134.831583 79.742963 
L 135.726558 79.160285 
L 136.552689 78.88422 
L 137.37882 78.851021 
L 138.204951 79.05346 
L 138.480328 79.172207 
L 139.65068 54.983244 
L 140.132589 50.051683 
L 140.545655 47.631144 
L 140.889876 46.733664 
L 141.096409 46.649849 
L 141.302942 46.89561 
L 141.578319 47.729212 
L 141.92254 49.588974 
L 142.335605 53.066045 
L 142.817515 58.977048 
L 143.437113 69.764082 
L 145.158219 103.407333 
L 145.777817 108.510825 
L 146.603948 113.736162 
L 148.393899 122.567987 
L 150.04616 129.634547 
L 151.629578 135.482956 
L 153.075307 140.015827 
L 154.383348 143.429275 
L 155.5537 145.914139 
L 156.655208 147.752382 
L 157.619027 148.958459 
L 158.514002 149.741008 
L 159.340133 150.176126 
L 160.09742 150.335343 
L 160.854706 150.269412 
L 161.611993 149.984137 
L 162.438124 149.432021 
L 163.333099 148.565211 
L 164.365763 147.245022 
L 165.604959 145.262894 
L 167.050688 142.507926 
L 169.116016 138.034974 
L 172.902449 129.549262 
L 173.72858 145.049078 
L 174.072801 147.453269 
L 174.348178 148.182625 
L 174.485866 148.211092 
L 174.692399 147.892111 
L 174.967776 146.897277 
L 175.380842 144.464176 
L 176.069284 138.870716 
L 177.721546 125.067363 
L 178.547677 120.10504 
L 179.373808 116.390076 
L 180.268783 113.341281 
L 181.232602 110.820124 
L 182.265266 108.743212 
L 183.297929 107.173189 
L 184.261749 106.097164 
L 185.225568 105.356001 
L 186.120543 104.940504 
L 187.015519 104.76511 
L 187.910494 104.80897 
L 188.874313 105.077929 
L 189.975821 105.635034 
L 191.215017 106.53517 
L 192.660746 107.88336 
L 194.450697 109.882343 
L 196.997934 113.096488 
L 202.436629 120.025504 
L 204.708489 122.524461 
L 206.704972 124.404221 
L 207.32457 124.920458 
L 208.219545 107.130851 
L 208.563766 104.448043 
L 208.839143 103.61225 
L 208.976832 103.587077 
L 209.11452 103.801186 
L 209.389897 104.870011 
L 209.802963 107.76169 
L 210.697938 116.460788 
L 211.455225 122.646475 
L 212.074823 125.936087 
L 212.763265 128.349831 
L 213.520552 130.20016 
L 214.415527 131.829135 
L 215.448191 133.263026 
L 216.480854 134.340104 
L 217.513518 135.103903 
L 218.477337 135.552168 
L 219.441157 135.758366 
L 220.404976 135.736808 
L 221.43764 135.48031 
L 222.539148 134.967881 
L 223.778344 134.138756 
L 225.292917 132.838138 
L 227.2894 130.804137 
L 233.760759 123.988906 
L 235.826086 122.250101 
L 237.684881 120.963986 
L 239.474831 119.985489 
L 241.264782 119.258234 
L 241.746691 119.103849 
L 242.435134 133.015726 
L 242.779355 135.37146 
L 243.054732 136.057984 
L 243.19242 136.088484 
L 243.398953 135.806654 
L 243.743174 134.685609 
L 244.293928 131.889501 
L 246.221567 121.292617 
L 247.047698 118.27213 
L 247.804985 116.28921 
L 248.562271 114.864646 
L 249.388402 113.776124 
L 250.214533 113.05043 
L 251.040664 112.605188 
L 251.935639 112.374843 
L 252.899459 112.362487 
L 254.000966 112.585536 
L 255.309007 113.100627 
L 256.892425 113.980512 
L 259.09544 115.484195 
L 267.769815 121.674811 
L 270.179363 123.001264 
L 272.451223 124.002107 
L 274.654239 124.727893 
L 276.168812 125.087239 
L 276.926099 109.517661 
L 277.27032 106.910857 
L 277.545697 106.249286 
L 277.683386 106.323081 
L 277.889919 106.870119 
L 278.23414 108.696002 
L 278.922582 114.109876 
L 279.748713 120.170203 
L 280.368311 123.197829 
L 280.987909 125.204043 
L 281.676352 126.729154 
L 282.502483 128.026356 
L 283.466302 129.119217 
L 284.498966 129.952736 
L 285.531629 130.510049 
L 286.564293 130.828938 
L 287.665801 130.937027 
L 288.836153 130.822791 
L 290.144194 130.460186 
L 291.658767 129.796367 
L 293.586406 128.690113 
L 296.959774 126.441135 
L 300.677363 124.050275 
L 303.2246 122.676425 
L 305.565304 121.666846 
L 307.837164 120.933386 
L 310.109024 120.437879 
L 310.590934 120.361877 
L 311.210532 132.93314 
L 311.485909 134.695965 
L 311.761286 135.335668 
L 311.898974 135.363638 
L 312.105507 135.078588 
L 312.449728 133.948803 
L 313.069326 130.919888 
L 314.515056 123.656173 
L 315.341186 120.71995 
L 316.098473 118.799143 
L 316.85576 117.430899 
L 317.681891 116.393341 
L 318.508022 115.70198 
L 319.402997 115.243641 
L 320.366816 115.006593 
L 321.468324 114.981699 
L 322.70752 115.184831 
L 324.222094 115.664284 
L 326.287421 116.571744 
L 329.729633 118.372621 
L 334.892951 121.041121 
L 337.853254 122.315309 
L 340.538179 123.232496 
L 343.085416 123.871635 
L 345.013055 124.204644 
L 345.770342 109.319872 
L 346.045719 107.626385 
L 346.252251 107.207455 
L 346.38994 107.271407 
L 346.596473 107.817875 
L 346.940694 109.644268 
L 348.868332 121.915275 
L 349.487931 123.868187 
L 350.176373 125.343695 
L 351.002504 126.588379 
L 351.966323 127.628333 
L 352.998987 128.418157 
L 354.100495 128.977105 
L 355.202003 129.291936 
L 356.372355 129.398553 
L 357.680396 129.284777 
L 359.126125 128.930033 
L 360.916075 128.247457 
L 363.394468 127.037732 
L 370.623113 123.376161 
L 373.308039 122.333 
L 375.855276 121.578835 
L 378.402512 121.058734 
L 379.435176 120.912007 
L 380.054774 133.073805 
L 380.330151 134.438864 
L 380.605528 134.804121 
L 380.743217 134.731928 
L 380.949749 134.321152 
L 381.362815 132.749914 
L 383.841208 121.819393 
L 384.598494 119.888295 
L 385.355781 118.513307 
L 386.181912 117.469221 
L 387.008043 116.768001 
L 387.903018 116.291891 
L 388.866837 116.025355 
L 389.968345 115.95279 
L 391.276386 116.098199 
L 392.928648 116.523864 
L 395.131663 117.341403 
L 398.918097 119.025305 
L 404.081415 121.271281 
L 407.24825 122.400229 
L 410.139708 123.19361 
L 412.893478 123.720643 
L 413.857297 123.852663 
L 414.54574 110.013012 
L 414.821117 108.275089 
L 415.027649 107.86812 
L 415.165338 107.938864 
L 415.371871 108.494244 
L 415.716092 110.326376 
L 417.437198 121.048074 
L 418.056796 123.079325 
L 418.745239 124.596809 
L 419.571369 125.859529 
L 420.535189 126.903814 
L 421.567852 127.694775 
L 422.66936 128.259486 
L 423.839713 128.602528 
L 425.078909 128.725281 
L 426.455794 128.624312 
L 428.039211 128.26832 
L 429.96685 127.592272 
L 432.789464 126.341088 
L 438.985446 123.545462 
L 441.945748 122.491985 
L 444.630674 121.767635 
L 447.315599 121.271027 
L 448.279419 121.146418 
L 448.899017 133.049922 
L 449.174394 134.181641 
L 449.380926 134.406776 
L 449.518615 134.366199 
L 449.725148 134.008894 
L 450.069369 132.789081 
L 451.102032 127.827354 
L 452.065852 123.754794 
L 452.823139 121.430188 
L 453.580425 119.760611 
L 454.337712 118.575673 
L 455.163843 117.679127 
L 456.058818 117.043626 
L 457.022637 116.643172 
L 458.055301 116.453477 
L 459.294497 116.461393 
L 460.809071 116.710981 
L 462.736709 117.26813 
L 465.559323 118.336226 
L 474.371386 121.810222 
L 477.469377 122.721492 
L 480.360836 123.346689 
L 482.70154 123.688165 
L 482.70154 123.688165 
" clip-path="url(#pa51f0de0cf)" style="fill: none; stroke: #1f77b4; stroke-width: 1.2; stroke-linecap: square"/>
   </g>
   <g id="patch_3">
    <path d="M 48.982813 255.878125 
L 48.982813 22.318125 
" style="fill: none; stroke: #000000; stroke-width: 0.8; stroke-linejoin: miter; stroke-linecap: square"/>
   </g>
   <g id="patch_4">
    <path d="M 503.354812 255.878125 
L 503.354812 22.318125 
" style="fill: none; stroke: #000000; stroke-width: 0.8; stroke-linejoin: miter; stroke-linecap: square"/>
   </g>
   <g id="patch_5">
    <path d="M 48.982813 255.878125 
L 503.354812 255.878125 
" style="fill: none; stroke: #000000; stroke-width: 0.8; stroke-linejoin: miter; stroke-linecap: square"/>
   </g>
   <g id="patch_6">
    <path d="M 48.982813 22.318125 
L 503.354812 22.318125 
" style="fill: none; stroke: #000000; stroke-width: 0.8; stroke-linejoin: miter; stroke-linecap: square"/>
   </g>
   <g id="text_19">
    <!-- Error con tren de pulsos: theta -->
    <g transform="translate(184.462562 16.318125) scale(0.12 -0.12)">
     <defs>
      <path id="DejaVuSans-45" d="M 628 4666 
L 3578 4666 
L 3578 4134 
L 1259 4134 
L 1259 2753 
L 3481 2753 
L 3481 2222 
L 1259 2222 
L 1259 531 
L 3634 531 
L 3634 0 
L 628 0 
L 628 4666 
z
" transform="scale(0.015625)"/>
      <path id="DejaVuSans-72" d="M 2631 2963 
Q 2534 3019 2420 3045 
Q 2306 3072 2169 3072 
Q 1681 3072 1420 2755 
Q 1159 2438 1159 1844 
L 1159 0 
L 581 0 
L 581 3500 
L 1159 3500 
L 1159 2956 
Q 1341 3275 1631 3429 
Q 1922 3584 2338 3584 
Q 2397 3584 2469 3576 
Q 2541 3569 2628 3553 
L 2631 2963 
z
" transform="scale(0.015625)"/>
      <path id="DejaVuSans-63" d="M 3122 3366 
L 3122 2828 
Q 2878 2963 2633 3030 
Q 2388 3097 2138 3097 
Q 1578 3097 1268 2742 
Q 959 2388 959 1747 
Q 959 1106 1268 751 
Q 1578 397 2138 397 
Q 2388 397 2633 464 
Q 2878 531 3122 666 
L 3122 134 
Q 2881 22 2623 -34 
Q 2366 -91 2075 -91 
Q 1284 -91 818 406 
Q 353 903 353 1747 
Q 353 2603 823 3093 
Q 1294 3584 2113 3584 
Q 2378 3584 2631 3529 
Q 2884 3475 3122 3366 
z
" transform="scale(0.015625)"/>
      <path id="DejaVuSans-6e" d="M 3513 2113 
L 3513 0 
L 2938 0 
L 2938 2094 
Q 2938 2591 2744 2837 
Q 2550 3084 2163 3084 
Q 1697 3084 1428 2787 
Q 1159 2491 1159 1978 
L 1159 0 
L 581 0 
L 581 3500 
L 1159 3500 
L 1159 2956 
Q 1366 3272 1645 3428 
Q 1925 3584 2291 3584 
Q 2894 3584 3203 3211 
Q 3513 2838 3513 2113 
z
" transform="scale(0.015625)"/>
      <path id="DejaVuSans-74" d="M 1172 4494 
L 1172 3500 
L 2356 3500 
L 2356 3053 
L 1172 3053 
L 1172 1153 
Q 1172 725 1289 603 
Q 1406 481 1766 481 
L 2356 481 
L 2356 0 
L 1766 0 
Q 1100 0 847 248 
Q 594 497 594 1153 
L 594 3053 
L 172 3053 
L 172 3500 
L 594 3500 
L 594 4494 
L 1172 4494 
z
" transform="scale(0.015625)"/>
      <path id="DejaVuSans-64" d="M 2906 2969 
L 2906 4863 
L 3481 4863 
L 3481 0 
L 2906 0 
L 2906 525 
Q 2725 213 2448 61 
Q 2172 -91 1784 -91 
Q 1150 -91 751 415 
Q 353 922 353 1747 
Q 353 2572 751 3078 
Q 1150 3584 1784 3584 
Q 2172 3584 2448 3432 
Q 2725 3281 2906 2969 
z
M 947 1747 
Q 947 1113 1208 752 
Q 1469 391 1925 391 
Q 2381 391 2643 752 
Q 2906 1113 2906 1747 
Q 2906 2381 2643 2742 
Q 2381 3103 1925 3103 
Q 1469 3103 1208 2742 
Q 947 2381 947 1747 
z
" transform="scale(0.015625)"/>
      <path id="DejaVuSans-75" d="M 544 1381 
L 544 3500 
L 1119 3500 
L 1119 1403 
Q 1119 906 1312 657 
Q 1506 409 1894 409 
Q 2359 409 2629 706 
Q 2900 1003 2900 1516 
L 2900 3500 
L 3475 3500 
L 3475 0 
L 2900 0 
L 2900 538 
Q 2691 219 2414 64 
Q 2138 -91 1772 -91 
Q 1169 -91 856 284 
Q 544 659 544 1381 
z
M 1991 3584 
L 1991 3584 
z
" transform="scale(0.015625)"/>
      <path id="DejaVuSans-6c" d="M 603 4863 
L 1178 4863 
L 1178 0 
L 603 0 
L 603 4863 
z
" transform="scale(0.015625)"/>
      <path id="DejaVuSans-3a" d="M 750 794 
L 1409 794 
L 1409 0 
L 750 0 
L 750 794 
z
M 750 3309 
L 1409 3309 
L 1409 2516 
L 750 2516 
L 750 3309 
z
" transform="scale(0.015625)"/>
      <path id="DejaVuSans-68" d="M 3513 2113 
L 3513 0 
L 2938 0 
L 2938 2094 
Q 2938 2591 2744 2837 
Q 2550 3084 2163 3084 
Q 1697 3084 1428 2787 
Q 1159 2491 1159 1978 
L 1159 0 
L 581 0 
L 581 4863 
L 1159 4863 
L 1159 2956 
Q 1366 3272 1645 3428 
Q 1925 3584 2291 3584 
Q 2894 3584 3203 3211 
Q 3513 2838 3513 2113 
z
" transform="scale(0.015625)"/>
      <path id="DejaVuSans-61" d="M 2194 1759 
Q 1497 1759 1228 1600 
Q 959 1441 959 1056 
Q 959 750 1161 570 
Q 1363 391 1709 391 
Q 2188 391 2477 730 
Q 2766 1069 2766 1631 
L 2766 1759 
L 2194 1759 
z
M 3341 1997 
L 3341 0 
L 2766 0 
L 2766 531 
Q 2569 213 2275 61 
Q 1981 -91 1556 -91 
Q 1019 -91 701 211 
Q 384 513 384 1019 
Q 384 1609 779 1909 
Q 1175 2209 1959 2209 
L 2766 2209 
L 2766 2266 
Q 2766 2663 2505 2880 
Q 2244 3097 1772 3097 
Q 1472 3097 1187 3025 
Q 903 2953 641 2809 
L 641 3341 
Q 956 3463 1253 3523 
Q 1550 3584 1831 3584 
Q 2591 3584 2966 3190 
Q 3341 2797 3341 1997 
z
" transform="scale(0.015625)"/>
     </defs>
     <use xlink:href="#DejaVuSans-45"/>
     <use xlink:href="#DejaVuSans-72" transform="translate(63.183594 0)"/>
     <use xlink:href="#DejaVuSans-72" transform="translate(102.546875 0)"/>
     <use xlink:href="#DejaVuSans-6f" transform="translate(141.410156 0)"/>
     <use xlink:href="#DejaVuSans-72" transform="translate(202.591797 0)"/>
     <use xlink:href="#DejaVuSans-20" transform="translate(243.705078 0)"/>
     <use xlink:href="#DejaVuSans-63" transform="translate(275.492188 0)"/>
     <use xlink:href="#DejaVuSans-6f" transform="translate(330.472656 0)"/>
     <use xlink:href="#DejaVuSans-6e" transform="translate(391.654297 0)"/>
     <use xlink:href="#DejaVuSans-20" transform="translate(455.033203 0)"/>
     <use xlink:href="#DejaVuSans-74" transform="translate(486.820312 0)"/>
     <use xlink:href="#DejaVuSans-72" transform="translate(526.029297 0)"/>
     <use xlink:href="#DejaVuSans-65" transform="translate(564.892578 0)"/>
     <use xlink:href="#DejaVuSans-6e" transform="translate(626.416016 0)"/>
     <use xlink:href="#DejaVuSans-20" transform="translate(689.794922 0)"/>
     <use xlink:href="#DejaVuSans-64" transform="translate(721.582031 0)"/>
     <use xlink:href="#DejaVuSans-65" transform="translate(785.058594 0)"/>
     <use xlink:href="#DejaVuSans-20" transform="translate(846.582031 0)"/>
     <use xlink:href="#DejaVuSans-70" transform="translate(878.369141 0)"/>
     <use xlink:href="#DejaVuSans-75" transform="translate(941.845703 0)"/>
     <use xlink:href="#DejaVuSans-6c" transform="translate(1005.224609 0)"/>
     <use xlink:href="#DejaVuSans-73" transform="translate(1033.007812 0)"/>
     <use xlink:href="#DejaVuSans-6f" transform="translate(1085.107422 0)"/>
     <use xlink:href="#DejaVuSans-73" transform="translate(1146.289062 0)"/>
     <use xlink:href="#DejaVuSans-3a" transform="translate(1198.388672 0)"/>
     <use xlink:href="#DejaVuSans-20" transform="translate(1232.080078 0)"/>
     <use xlink:href="#DejaVuSans-74" transform="translate(1263.867188 0)"/>
     <use xlink:href="#DejaVuSans-68" transform="translate(1303.076172 0)"/>
     <use xlink:href="#DejaVuSans-65" transform="translate(1366.455078 0)"/>
     <use xlink:href="#DejaVuSans-74" transform="translate(1427.978516 0)"/>
     <use xlink:href="#DejaVuSans-61" transform="translate(1467.1875 0)"/>
    </g>
   </g>
  </g>
 </g>
 <defs>
  <clipPath id="pa51f0de0cf">
   <rect x="48.982813" y="22.318125" width="454.372" height="233.56"/>
  </clipPath>
 </defs>
</svg>
